%TF.GenerationSoftware,KiCad,Pcbnew,(7.0.0)*%
%TF.CreationDate,2023-03-06T00:02:43-06:00*%
%TF.ProjectId,RF Signal Source,52462053-6967-46e6-916c-20536f757263,rev?*%
%TF.SameCoordinates,Original*%
%TF.FileFunction,Copper,L1,Top*%
%TF.FilePolarity,Positive*%
%FSLAX46Y46*%
G04 Gerber Fmt 4.6, Leading zero omitted, Abs format (unit mm)*
G04 Created by KiCad (PCBNEW (7.0.0)) date 2023-03-06 00:02:43*
%MOMM*%
%LPD*%
G01*
G04 APERTURE LIST*
G04 Aperture macros list*
%AMRoundRect*
0 Rectangle with rounded corners*
0 $1 Rounding radius*
0 $2 $3 $4 $5 $6 $7 $8 $9 X,Y pos of 4 corners*
0 Add a 4 corners polygon primitive as box body*
4,1,4,$2,$3,$4,$5,$6,$7,$8,$9,$2,$3,0*
0 Add four circle primitives for the rounded corners*
1,1,$1+$1,$2,$3*
1,1,$1+$1,$4,$5*
1,1,$1+$1,$6,$7*
1,1,$1+$1,$8,$9*
0 Add four rect primitives between the rounded corners*
20,1,$1+$1,$2,$3,$4,$5,0*
20,1,$1+$1,$4,$5,$6,$7,0*
20,1,$1+$1,$6,$7,$8,$9,0*
20,1,$1+$1,$8,$9,$2,$3,0*%
G04 Aperture macros list end*
%TA.AperFunction,ComponentPad*%
%ADD10C,2.250000*%
%TD*%
%TA.AperFunction,ComponentPad*%
%ADD11C,0.500000*%
%TD*%
%TA.AperFunction,SMDPad,CuDef*%
%ADD12R,3.300000X3.300000*%
%TD*%
%TA.AperFunction,SMDPad,CuDef*%
%ADD13RoundRect,0.062500X0.375000X-0.062500X0.375000X0.062500X-0.375000X0.062500X-0.375000X-0.062500X0*%
%TD*%
%TA.AperFunction,SMDPad,CuDef*%
%ADD14RoundRect,0.062500X0.062500X-0.375000X0.062500X0.375000X-0.062500X0.375000X-0.062500X-0.375000X0*%
%TD*%
%TA.AperFunction,ComponentPad*%
%ADD15R,1.700000X1.700000*%
%TD*%
%TA.AperFunction,ComponentPad*%
%ADD16O,1.700000X1.700000*%
%TD*%
%TA.AperFunction,SMDPad,CuDef*%
%ADD17R,0.380000X0.400000*%
%TD*%
%TA.AperFunction,SMDPad,CuDef*%
%ADD18RoundRect,0.152500X-0.152500X-0.470000X0.152500X-0.470000X0.152500X0.470000X-0.152500X0.470000X0*%
%TD*%
%TA.AperFunction,ComponentPad*%
%ADD19C,0.610000*%
%TD*%
%TA.AperFunction,SMDPad,CuDef*%
%ADD20RoundRect,0.249600X-0.270400X-0.650400X0.270400X-0.650400X0.270400X0.650400X-0.270400X0.650400X0*%
%TD*%
%TA.AperFunction,SMDPad,CuDef*%
%ADD21RoundRect,0.135000X-0.185000X0.135000X-0.185000X-0.135000X0.185000X-0.135000X0.185000X0.135000X0*%
%TD*%
%TA.AperFunction,SMDPad,CuDef*%
%ADD22RoundRect,0.012800X-0.332200X-0.147200X0.332200X-0.147200X0.332200X0.147200X-0.332200X0.147200X0*%
%TD*%
%TA.AperFunction,SMDPad,CuDef*%
%ADD23R,1.000000X1.600000*%
%TD*%
%TA.AperFunction,SMDPad,CuDef*%
%ADD24RoundRect,0.140000X-0.140000X-0.170000X0.140000X-0.170000X0.140000X0.170000X-0.140000X0.170000X0*%
%TD*%
%TA.AperFunction,SMDPad,CuDef*%
%ADD25RoundRect,0.140000X0.140000X0.170000X-0.140000X0.170000X-0.140000X-0.170000X0.140000X-0.170000X0*%
%TD*%
%TA.AperFunction,SMDPad,CuDef*%
%ADD26RoundRect,0.140000X-0.170000X0.140000X-0.170000X-0.140000X0.170000X-0.140000X0.170000X0.140000X0*%
%TD*%
%TA.AperFunction,SMDPad,CuDef*%
%ADD27RoundRect,0.062500X-0.287500X-0.062500X0.287500X-0.062500X0.287500X0.062500X-0.287500X0.062500X0*%
%TD*%
%TA.AperFunction,SMDPad,CuDef*%
%ADD28R,0.900000X1.500000*%
%TD*%
%TA.AperFunction,SMDPad,CuDef*%
%ADD29RoundRect,0.135000X0.185000X-0.135000X0.185000X0.135000X-0.185000X0.135000X-0.185000X-0.135000X0*%
%TD*%
%TA.AperFunction,SMDPad,CuDef*%
%ADD30RoundRect,0.135000X0.135000X0.185000X-0.135000X0.185000X-0.135000X-0.185000X0.135000X-0.185000X0*%
%TD*%
%TA.AperFunction,SMDPad,CuDef*%
%ADD31RoundRect,0.140000X0.170000X-0.140000X0.170000X0.140000X-0.170000X0.140000X-0.170000X-0.140000X0*%
%TD*%
%TA.AperFunction,SMDPad,CuDef*%
%ADD32RoundRect,0.135000X-0.135000X-0.185000X0.135000X-0.185000X0.135000X0.185000X-0.135000X0.185000X0*%
%TD*%
%TA.AperFunction,SMDPad,CuDef*%
%ADD33R,0.650000X0.750000*%
%TD*%
%TA.AperFunction,ComponentPad*%
%ADD34C,2.100000*%
%TD*%
%TA.AperFunction,SMDPad,CuDef*%
%ADD35R,0.400000X0.380000*%
%TD*%
%TA.AperFunction,SMDPad,CuDef*%
%ADD36RoundRect,0.147500X-0.172500X0.147500X-0.172500X-0.147500X0.172500X-0.147500X0.172500X0.147500X0*%
%TD*%
%TA.AperFunction,SMDPad,CuDef*%
%ADD37R,0.610000X2.200000*%
%TD*%
%TA.AperFunction,SMDPad,CuDef*%
%ADD38R,0.700000X0.250000*%
%TD*%
%TA.AperFunction,SMDPad,CuDef*%
%ADD39R,0.600000X0.300000*%
%TD*%
%TA.AperFunction,SMDPad,CuDef*%
%ADD40R,0.300000X0.600000*%
%TD*%
%TA.AperFunction,SMDPad,CuDef*%
%ADD41R,2.750000X2.750000*%
%TD*%
%TA.AperFunction,ViaPad*%
%ADD42C,0.800000*%
%TD*%
%TA.AperFunction,Conductor*%
%ADD43C,0.400000*%
%TD*%
%TA.AperFunction,Conductor*%
%ADD44C,0.250000*%
%TD*%
G04 APERTURE END LIST*
D10*
%TO.P,,S4*%
%TO.N,GND*%
X149288016Y-83966640D03*
%TD*%
%TO.P,,S4*%
%TO.N,GND*%
X149252267Y-90901942D03*
%TD*%
%TO.P,,S4*%
%TO.N,GND*%
X199209993Y-97431249D03*
%TD*%
%TO.P,,S4*%
%TO.N,GND*%
X199209993Y-79842751D03*
%TD*%
D11*
%TO.P,U2,33,EP*%
%TO.N,GND*%
X164770367Y-87177500D03*
X163770367Y-87177500D03*
X162770367Y-87177500D03*
X164770367Y-88177500D03*
D12*
X163770366Y-88177499D03*
D11*
X163770367Y-88177500D03*
X162770367Y-88177500D03*
X164770367Y-89177500D03*
X163770367Y-89177500D03*
X162770367Y-89177500D03*
D13*
%TO.P,U2,32,VCC_SD*%
%TO.N,MCU3V3*%
X161332867Y-89927500D03*
%TO.P,U2,31,GND_SD*%
%TO.N,GND*%
X161332867Y-89427500D03*
%TO.P,U2,30,MUX*%
%TO.N,MAXMUX*%
X161332867Y-88927500D03*
%TO.P,U2,29,REF_IN*%
%TO.N,MAXCLKREF*%
X161332867Y-88427500D03*
%TO.P,U2,28,VCC_DIG*%
%TO.N,MCU3V3*%
X161332867Y-87927500D03*
%TO.P,U2,27,GND_DIG*%
%TO.N,GND*%
X161332867Y-87427500D03*
%TO.P,U2,26,RFOUT_EN*%
%TO.N,RFOUT_EN*%
X161332867Y-86927500D03*
%TO.P,U2,25,LD*%
%TO.N,MAXLD*%
X161332867Y-86427500D03*
D14*
%TO.P,U2,24,REG*%
%TO.N,Net-(U2-REG)*%
X162020367Y-85740000D03*
%TO.P,U2,23,BIAS_FILT*%
%TO.N,Net-(U2-BIAS_FILT)*%
X162520367Y-85740000D03*
%TO.P,U2,22,RSET*%
%TO.N,Net-(U2-RSET)*%
X163020367Y-85740000D03*
%TO.P,U2,21,GND_TUNE*%
%TO.N,GND*%
X163520367Y-85740000D03*
%TO.P,U2,20,TUNE*%
%TO.N,TUNE*%
X164020367Y-85740000D03*
%TO.P,U2,19,NOISE_FILT*%
%TO.N,Net-(U2-NOISE_FILT)*%
X164520367Y-85740000D03*
%TO.P,U2,18,GND_VCO*%
%TO.N,GND*%
X165020367Y-85740000D03*
%TO.P,U2,17,VCC_VCO*%
%TO.N,VCC_RF*%
X165520367Y-85740000D03*
D13*
%TO.P,U2,16,VCC_RF*%
X166207867Y-86427500D03*
%TO.P,U2,15,RFOUTB_N*%
%TO.N,3V3*%
X166207867Y-86927500D03*
%TO.P,U2,14,RFOUTB_P*%
X166207867Y-87427500D03*
%TO.P,U2,13,RFOUTA_N*%
%TO.N,RFOUTA_NEG*%
X166207867Y-87927500D03*
%TO.P,U2,12,RFOUTA_P*%
%TO.N,RFOUTA_POS*%
X166207867Y-88427500D03*
%TO.P,U2,11,GND_RF*%
%TO.N,GND*%
X166207867Y-88927500D03*
%TO.P,U2,10,VCC_PLL*%
%TO.N,VCC_CP*%
X166207867Y-89427500D03*
%TO.P,U2,9,GND_PLL*%
%TO.N,GND*%
X166207867Y-89927500D03*
D14*
%TO.P,U2,8,GND_CP*%
X165520367Y-90615000D03*
%TO.P,U2,7,CP_OUT*%
%TO.N,CP_OUT*%
X165020367Y-90615000D03*
%TO.P,U2,6,VCC_CP*%
%TO.N,VCC_CP*%
X164520367Y-90615000D03*
%TO.P,U2,5,SW*%
%TO.N,SW*%
X164020367Y-90615000D03*
%TO.P,U2,4,CE*%
%TO.N,MAXCE*%
X163520367Y-90615000D03*
%TO.P,U2,3,LE*%
%TO.N,MAXLE*%
X163020367Y-90615000D03*
%TO.P,U2,2,DATA*%
%TO.N,MAXDATA*%
X162520367Y-90615000D03*
%TO.P,U2,1,CLK*%
%TO.N,MAXCLK*%
X162020367Y-90615000D03*
%TD*%
D15*
%TO.P,J3,1,Pin_1*%
%TO.N,MCU3V3*%
X160568785Y-79249124D03*
%TD*%
%TO.P,J8,1,Pin_1*%
%TO.N,SIGNAL_PWR*%
X177808718Y-97150920D03*
%TD*%
%TO.P,J7,1,Pin_1*%
%TO.N,AMP_PWRDWN*%
X183920627Y-97160140D03*
%TD*%
%TO.P,J4,1,Pin_1*%
%TO.N,5V*%
X149154436Y-87556971D03*
%TD*%
%TO.P,J6,1,Pin_1*%
%TO.N,ATTENDATA*%
X179651367Y-79307067D03*
D16*
%TO.P,J6,2,Pin_2*%
%TO.N,ATTENCLK*%
X182191367Y-79307067D03*
%TO.P,J6,3,Pin_3*%
%TO.N,ATTENLE*%
X184731367Y-79307067D03*
%TD*%
%TO.P,J5,6,Pin_6*%
%TO.N,MAXMUX*%
X149266769Y-97128697D03*
%TO.P,J5,5,Pin_5*%
%TO.N,MAXLD*%
X151806769Y-97128697D03*
%TO.P,J5,4,Pin_4*%
%TO.N,MAXCLK*%
X154346769Y-97128697D03*
%TO.P,J5,3,Pin_3*%
%TO.N,MAXDATA*%
X156886769Y-97128697D03*
%TO.P,J5,2,Pin_2*%
%TO.N,MAXLE*%
X159426769Y-97128697D03*
D15*
%TO.P,J5,1,Pin_1*%
%TO.N,MAXCE*%
X161966769Y-97128697D03*
%TD*%
D17*
%TO.P,FB4,1*%
%TO.N,5V*%
X188091043Y-84373067D03*
%TO.P,FB4,2*%
%TO.N,Net-(U4-VCC)*%
X187529043Y-84373067D03*
%TD*%
D18*
%TO.P,FL1,4,GND*%
%TO.N,GND*%
X172315169Y-88397199D03*
D19*
X172315169Y-88219699D03*
D20*
%TO.P,FL1,3,OUT*%
%TO.N,FILTOUT*%
X173940169Y-89324699D03*
D19*
%TO.P,FL1,2,GND*%
%TO.N,GND*%
X172315169Y-90429699D03*
D18*
X172315169Y-90252199D03*
D20*
%TO.P,FL1,1,IN*%
%TO.N,RFOUTA_POS*%
X170690169Y-89324699D03*
%TD*%
D21*
%TO.P,R8,1*%
%TO.N,SW*%
X165124941Y-93008636D03*
%TO.P,R8,2*%
%TO.N,Net-(C10-Pad1)*%
X165124941Y-94028636D03*
%TD*%
D22*
%TO.P,U5,1,OUT*%
%TO.N,3V3*%
X153310209Y-83220311D03*
%TO.P,U5,2,NC*%
%TO.N,unconnected-(U5-NC-Pad2)*%
X153310209Y-83870311D03*
%TO.P,U5,3,PG*%
%TO.N,unconnected-(U5-PG-Pad3)*%
X153310209Y-84520311D03*
%TO.P,U5,4,EN*%
%TO.N,Net-(U5-EN)*%
X155350209Y-84520311D03*
%TO.P,U5,5,GND*%
%TO.N,GND*%
X155350209Y-83870311D03*
%TO.P,U5,6,IN*%
%TO.N,Net-(U5-EN)*%
X155350209Y-83220311D03*
D23*
%TO.P,U5,7,EXP*%
%TO.N,GND*%
X154330208Y-83870310D03*
%TD*%
D17*
%TO.P,FB5,1*%
%TO.N,5V*%
X155465338Y-85928261D03*
%TO.P,FB5,2*%
%TO.N,Net-(U5-EN)*%
X154903338Y-85928261D03*
%TD*%
D24*
%TO.P,C41,1*%
%TO.N,3V3*%
X152778387Y-81726012D03*
%TO.P,C41,2*%
%TO.N,GND*%
X153738387Y-81726012D03*
%TD*%
D25*
%TO.P,C20,1*%
%TO.N,Net-(U5-EN)*%
X153942205Y-85957044D03*
%TO.P,C20,2*%
%TO.N,GND*%
X152982205Y-85957044D03*
%TD*%
D26*
%TO.P,C8,1*%
%TO.N,GND*%
X160566751Y-83356556D03*
%TO.P,C8,2*%
%TO.N,Net-(U2-REG)*%
X160566751Y-84316556D03*
%TD*%
D27*
%TO.P,U4,1,VCC*%
%TO.N,Net-(U4-VCC)*%
X185992619Y-87522074D03*
%TO.P,U4,2,RFIN*%
%TO.N,ATTENOUT*%
X185992619Y-88022074D03*
%TO.P,U4,3,NC*%
%TO.N,GND*%
X185992619Y-88522074D03*
%TO.P,U4,4,NC*%
X185992619Y-89022074D03*
%TO.P,U4,5,PWDN*%
%TO.N,AMP_PWRDWN*%
X187992619Y-89022074D03*
%TO.P,U4,6,NC*%
%TO.N,GND*%
X187992619Y-88522074D03*
%TO.P,U4,7,RFOUT*%
%TO.N,Net-(U4-RFOUT)*%
X187992619Y-88022074D03*
%TO.P,U4,8,NC*%
%TO.N,GND*%
X187992619Y-87522074D03*
D28*
%TO.P,U4,9,EP*%
X186992618Y-88272073D03*
%TD*%
D29*
%TO.P,R23,1*%
%TO.N,SIGNAL_PWR*%
X177477321Y-92550030D03*
%TO.P,R23,2*%
%TO.N,GND*%
X177477321Y-91530030D03*
%TD*%
D30*
%TO.P,R12,1*%
%TO.N,3V3*%
X176732609Y-88987254D03*
%TO.P,R12,2*%
%TO.N,FILTOUT*%
X175712609Y-88987254D03*
%TD*%
D21*
%TO.P,R1,1*%
%TO.N,Net-(U4-RFOUT)*%
X190180441Y-88910233D03*
%TO.P,R1,2*%
%TO.N,Net-(C34-Pad1)*%
X190180441Y-89930233D03*
%TD*%
D30*
%TO.P,R7,2*%
%TO.N,GND*%
X179523768Y-91364479D03*
%TO.P,R7,1*%
%TO.N,Net-(U1-TADJ)*%
X180543768Y-91364479D03*
%TD*%
D29*
%TO.P,R10,2*%
%TO.N,GND*%
X157945994Y-90114774D03*
%TO.P,R10,1*%
%TO.N,MAXCLK*%
X157945994Y-91134774D03*
%TD*%
D31*
%TO.P,C4,1*%
%TO.N,GND*%
X175553835Y-92501026D03*
%TO.P,C4,2*%
%TO.N,3V3*%
X175553835Y-91541026D03*
%TD*%
D30*
%TO.P,R19,2*%
%TO.N,GND*%
X184503700Y-81931830D03*
%TO.P,R19,1*%
%TO.N,ATTENLE*%
X185523700Y-81931830D03*
%TD*%
D31*
%TO.P,C10,1*%
%TO.N,Net-(C10-Pad1)*%
X166114916Y-94002309D03*
%TO.P,C10,2*%
%TO.N,CP_OUT*%
X166114916Y-93042309D03*
%TD*%
D24*
%TO.P,C15,1*%
%TO.N,GND*%
X157609515Y-84668103D03*
%TO.P,C15,2*%
%TO.N,MCU3V3*%
X158569515Y-84668103D03*
%TD*%
%TO.P,C22,1*%
%TO.N,VCC_RF*%
X168627317Y-84089390D03*
%TO.P,C22,2*%
%TO.N,GND*%
X169587317Y-84089390D03*
%TD*%
D25*
%TO.P,C40,1*%
%TO.N,Net-(C40-Pad1)*%
X169599130Y-85989499D03*
%TO.P,C40,2*%
%TO.N,RFOUTA_NEG*%
X168639130Y-85989499D03*
%TD*%
D26*
%TO.P,C34,1*%
%TO.N,Net-(C34-Pad1)*%
X190173238Y-90824995D03*
%TO.P,C34,2*%
%TO.N,PWR_DETECT*%
X190173238Y-91784995D03*
%TD*%
%TO.P,C27,2*%
%TO.N,GND*%
X157815815Y-94716393D03*
%TO.P,C27,1*%
%TO.N,VCC_CP*%
X157815815Y-93756393D03*
%TD*%
D24*
%TO.P,C21,1*%
%TO.N,VCC_RF*%
X168627317Y-85024893D03*
%TO.P,C21,2*%
%TO.N,GND*%
X169587317Y-85024893D03*
%TD*%
D25*
%TO.P,C2,1*%
%TO.N,PWR_DETECT*%
X188685349Y-91802440D03*
%TO.P,C2,2*%
%TO.N,Net-(U1-INHI)*%
X187725349Y-91802440D03*
%TD*%
D32*
%TO.P,R22,2*%
%TO.N,GND*%
X188026030Y-96679428D03*
%TO.P,R22,1*%
%TO.N,AMP_PWRDWN*%
X187006030Y-96679428D03*
%TD*%
D33*
%TO.P,Y1,1,TRI-STATE*%
%TO.N,3V3*%
X155412332Y-80399495D03*
%TO.P,Y1,2,GND*%
%TO.N,GND*%
X155412332Y-81699495D03*
%TO.P,Y1,3,OUTPUT*%
%TO.N,MAXCLKREF*%
X156412332Y-81699495D03*
%TO.P,Y1,4,VDD*%
%TO.N,3V3*%
X156412332Y-80399495D03*
%TD*%
D21*
%TO.P,R3,2*%
%TO.N,Net-(U2-RSET)*%
X162479190Y-84361329D03*
%TO.P,R3,1*%
%TO.N,GND*%
X162479190Y-83341329D03*
%TD*%
D17*
%TO.P,FB2,1*%
%TO.N,3V3*%
X169385280Y-81199814D03*
%TO.P,FB2,2*%
%TO.N,VCC_RF*%
X168823280Y-81199814D03*
%TD*%
D31*
%TO.P,C32,2*%
%TO.N,3V3*%
X179098184Y-83299225D03*
%TO.P,C32,1*%
%TO.N,GND*%
X179098184Y-84259225D03*
%TD*%
D25*
%TO.P,C6,1*%
%TO.N,GND*%
X153723763Y-79718489D03*
%TO.P,C6,2*%
%TO.N,3V3*%
X152763763Y-79718489D03*
%TD*%
D34*
%TO.P,J1,1,In*%
%TO.N,Net-(J1-In)*%
X198120000Y-87973684D03*
D10*
%TO.P,J1,S1*%
%TO.N,GND*%
X195570000Y-90523684D03*
%TO.P,J1,S2*%
X200670000Y-90523684D03*
%TO.P,J1,S3*%
X200670000Y-85423684D03*
%TO.P,J1,S4*%
X195570000Y-85423684D03*
%TD*%
D32*
%TO.P,R15,1*%
%TO.N,3V3*%
X168624489Y-86983298D03*
%TO.P,R15,2*%
%TO.N,RFOUTA_NEG*%
X169644489Y-86983298D03*
%TD*%
D25*
%TO.P,C37,1*%
%TO.N,Net-(J1-In)*%
X190629787Y-88004704D03*
%TO.P,C37,2*%
%TO.N,Net-(U4-RFOUT)*%
X189669787Y-88004704D03*
%TD*%
D31*
%TO.P,C35,1*%
%TO.N,Net-(U4-VCC)*%
X185096396Y-86317960D03*
%TO.P,C35,2*%
%TO.N,GND*%
X185096396Y-85357960D03*
%TD*%
D24*
%TO.P,C39,1*%
%TO.N,3V3*%
X152790322Y-80696979D03*
%TO.P,C39,2*%
%TO.N,GND*%
X153750322Y-80696979D03*
%TD*%
D29*
%TO.P,R14,1*%
%TO.N,Net-(C40-Pad1)*%
X170843317Y-86009823D03*
%TO.P,R14,2*%
%TO.N,GND*%
X170843317Y-84989823D03*
%TD*%
D31*
%TO.P,C29,2*%
%TO.N,3V3*%
X180118321Y-83309931D03*
%TO.P,C29,1*%
%TO.N,GND*%
X180118321Y-84269931D03*
%TD*%
D26*
%TO.P,C9,1*%
%TO.N,GND*%
X161538960Y-83350160D03*
%TO.P,C9,2*%
%TO.N,Net-(U2-BIAS_FILT)*%
X161538960Y-84310160D03*
%TD*%
D29*
%TO.P,R11,1*%
%TO.N,MAXDATA*%
X156928744Y-91144651D03*
%TO.P,R11,2*%
%TO.N,GND*%
X156928744Y-90124651D03*
%TD*%
D32*
%TO.P,R2,1*%
%TO.N,Net-(U4-VCC)*%
X187270097Y-85354095D03*
%TO.P,R2,2*%
%TO.N,Net-(C36-Pad1)*%
X188290097Y-85354095D03*
%TD*%
D35*
%TO.P,FB3,2*%
%TO.N,VCC_CP*%
X153869075Y-93725505D03*
%TO.P,FB3,1*%
%TO.N,3V3*%
X153869075Y-94287505D03*
%TD*%
D31*
%TO.P,C5,1*%
%TO.N,GND*%
X176513667Y-92500769D03*
%TO.P,C5,2*%
%TO.N,3V3*%
X176513667Y-91540769D03*
%TD*%
D21*
%TO.P,R4,2*%
%TO.N,GND*%
X164454753Y-96500247D03*
%TO.P,R4,1*%
%TO.N,MAXCE*%
X164454753Y-95480247D03*
%TD*%
D26*
%TO.P,C11,1*%
%TO.N,CP_OUT*%
X167068896Y-93047130D03*
%TO.P,C11,2*%
%TO.N,GND*%
X167068896Y-94007130D03*
%TD*%
D29*
%TO.P,R16,1*%
%TO.N,MAXLD*%
X153946127Y-91134774D03*
%TO.P,R16,2*%
%TO.N,GND*%
X153946127Y-90114774D03*
%TD*%
D26*
%TO.P,C24,2*%
%TO.N,GND*%
X156797835Y-94723955D03*
%TO.P,C24,1*%
%TO.N,VCC_CP*%
X156797835Y-93763955D03*
%TD*%
D32*
%TO.P,R20,2*%
%TO.N,GND*%
X183633780Y-81902201D03*
%TO.P,R20,1*%
%TO.N,ATTENCLK*%
X182613780Y-81902201D03*
%TD*%
D21*
%TO.P,R17,2*%
%TO.N,GND*%
X154943624Y-91157276D03*
%TO.P,R17,1*%
%TO.N,MAXMUX*%
X154943624Y-90137276D03*
%TD*%
D30*
%TO.P,R13,1*%
%TO.N,PWR_DETECT*%
X189470833Y-92834509D03*
%TO.P,R13,2*%
%TO.N,GND*%
X188450833Y-92834509D03*
%TD*%
D25*
%TO.P,C18,1*%
%TO.N,MCU3V3*%
X158576493Y-85621124D03*
%TO.P,C18,2*%
%TO.N,GND*%
X157616493Y-85621124D03*
%TD*%
D30*
%TO.P,R21,2*%
%TO.N,GND*%
X179726299Y-81894138D03*
%TO.P,R21,1*%
%TO.N,ATTENDATA*%
X180746299Y-81894138D03*
%TD*%
D31*
%TO.P,C36,1*%
%TO.N,Net-(C36-Pad1)*%
X190176531Y-85142759D03*
%TO.P,C36,2*%
%TO.N,GND*%
X190176531Y-84182759D03*
%TD*%
D26*
%TO.P,C28,2*%
%TO.N,GND*%
X154804079Y-94710134D03*
%TO.P,C28,1*%
%TO.N,VCC_CP*%
X154804079Y-93750134D03*
%TD*%
D24*
%TO.P,C26,1*%
%TO.N,VCC_RF*%
X168618605Y-82176939D03*
%TO.P,C26,2*%
%TO.N,GND*%
X169578605Y-82176939D03*
%TD*%
D25*
%TO.P,C16,1*%
%TO.N,MCU3V3*%
X158574048Y-86593329D03*
%TO.P,C16,2*%
%TO.N,GND*%
X157614048Y-86593329D03*
%TD*%
D21*
%TO.P,R5,1*%
%TO.N,SW*%
X164123069Y-93003315D03*
%TO.P,R5,2*%
%TO.N,GND*%
X164123069Y-94023315D03*
%TD*%
D30*
%TO.P,R6,1*%
%TO.N,Net-(U1-VOUT)*%
X180513442Y-90351800D03*
%TO.P,R6,2*%
%TO.N,SIGNAL_PWR*%
X179493442Y-90351800D03*
%TD*%
D24*
%TO.P,C1,1*%
%TO.N,Net-(U1-CLPF)*%
X186345151Y-90446643D03*
%TO.P,C1,2*%
%TO.N,GND*%
X187305151Y-90446643D03*
%TD*%
D36*
%TO.P,L1,1,1*%
%TO.N,Net-(C36-Pad1)*%
X190189440Y-86080442D03*
%TO.P,L1,2,2*%
%TO.N,Net-(U4-RFOUT)*%
X190189440Y-87050442D03*
%TD*%
D24*
%TO.P,C30,1*%
%TO.N,FILTOUT*%
X175729223Y-88006085D03*
%TO.P,C30,2*%
%TO.N,Net-(IC1-RFIN)*%
X176689223Y-88006085D03*
%TD*%
D37*
%TO.P,U1,9,EP*%
%TO.N,GND*%
X183636789Y-91518718D03*
D38*
%TO.P,U1,8,INLO*%
%TO.N,Net-(U1-INLO)*%
X182711789Y-92268718D03*
%TO.P,U1,7,VPOS*%
%TO.N,3V3*%
X182711789Y-91768718D03*
%TO.P,U1,6,TADJ*%
%TO.N,Net-(U1-TADJ)*%
X182711789Y-91268718D03*
%TO.P,U1,5,VOUT*%
%TO.N,Net-(U1-VOUT)*%
X182711789Y-90768718D03*
%TO.P,U1,4,VSET*%
X184561789Y-90768718D03*
%TO.P,U1,3,CLPF*%
%TO.N,Net-(U1-CLPF)*%
X184561789Y-91268718D03*
%TO.P,U1,2,GND*%
%TO.N,GND*%
X184561789Y-91768718D03*
%TO.P,U1,1,INHI*%
%TO.N,Net-(U1-INHI)*%
X184561789Y-92268718D03*
%TD*%
D29*
%TO.P,R18,2*%
%TO.N,GND*%
X155923182Y-90121358D03*
%TO.P,R18,1*%
%TO.N,MAXLE*%
X155923182Y-91141358D03*
%TD*%
%TO.P,R9,2*%
%TO.N,CP_OUT*%
X163481281Y-83347824D03*
%TO.P,R9,1*%
%TO.N,TUNE*%
X163481281Y-84367824D03*
%TD*%
D26*
%TO.P,C31,1*%
%TO.N,GND*%
X186092721Y-85355965D03*
%TO.P,C31,2*%
%TO.N,Net-(U4-VCC)*%
X186092721Y-86315965D03*
%TD*%
%TO.P,C23,2*%
%TO.N,GND*%
X155808453Y-94714687D03*
%TO.P,C23,1*%
%TO.N,VCC_CP*%
X155808453Y-93754687D03*
%TD*%
D31*
%TO.P,C12,1*%
%TO.N,TUNE*%
X164467784Y-84313743D03*
%TO.P,C12,2*%
%TO.N,GND*%
X164467784Y-83353743D03*
%TD*%
D25*
%TO.P,C17,2*%
%TO.N,GND*%
X157624926Y-87561466D03*
%TO.P,C17,1*%
%TO.N,MCU3V3*%
X158584926Y-87561466D03*
%TD*%
D26*
%TO.P,C33,2*%
%TO.N,GND*%
X178144168Y-84260486D03*
%TO.P,C33,1*%
%TO.N,3V3*%
X178144168Y-83300486D03*
%TD*%
D39*
%TO.P,IC1,1,C0.25*%
%TO.N,GND*%
X177883024Y-85982573D03*
%TO.P,IC1,2,VDD*%
%TO.N,3V3*%
X177883024Y-86482573D03*
%TO.P,IC1,3,P/S*%
X177883024Y-86982573D03*
%TO.P,IC1,4,GND@1*%
%TO.N,GND*%
X177883024Y-87482573D03*
%TO.P,IC1,5,RFIN*%
%TO.N,Net-(IC1-RFIN)*%
X177883024Y-87982573D03*
%TO.P,IC1,6,GND@2*%
%TO.N,GND*%
X177883024Y-88482573D03*
D40*
%TO.P,IC1,7,GND@3*%
X178533024Y-89132573D03*
%TO.P,IC1,8,EP*%
X179033024Y-89132573D03*
%TO.P,IC1,9,GND@4*%
X179533024Y-89132573D03*
%TO.P,IC1,10,GND@5*%
X180033024Y-89132573D03*
%TO.P,IC1,11,GND@6*%
X180533024Y-89132573D03*
%TO.P,IC1,12,GND@7*%
X181033024Y-89132573D03*
D39*
%TO.P,IC1,13,GND@8*%
X181683024Y-88482573D03*
%TO.P,IC1,14,RFOUT*%
%TO.N,Net-(IC1-RFOUT)*%
X181683024Y-87982573D03*
%TO.P,IC1,15,GND@9*%
%TO.N,GND*%
X181683024Y-87482573D03*
%TO.P,IC1,16,LE*%
%TO.N,ATTENLE*%
X181683024Y-86982573D03*
%TO.P,IC1,17,CLK*%
%TO.N,ATTENCLK*%
X181683024Y-86482573D03*
%TO.P,IC1,18,SI*%
%TO.N,ATTENDATA*%
X181683024Y-85982573D03*
D40*
%TO.P,IC1,19,C16*%
%TO.N,GND*%
X181033024Y-85332573D03*
%TO.P,IC1,20,C8*%
X180533024Y-85332573D03*
%TO.P,IC1,21,C4*%
X180033024Y-85332573D03*
%TO.P,IC1,22,C2*%
X179533024Y-85332573D03*
%TO.P,IC1,23,C1*%
X179033024Y-85332573D03*
%TO.P,IC1,24,C0.5*%
X178533024Y-85332573D03*
D41*
%TO.P,IC1,EXP,GND@10*%
X179783024Y-87232573D03*
%TD*%
D24*
%TO.P,C3,1*%
%TO.N,GND*%
X179509467Y-92549045D03*
%TO.P,C3,2*%
%TO.N,Net-(U1-INLO)*%
X180469467Y-92549045D03*
%TD*%
D26*
%TO.P,C7,1*%
%TO.N,GND*%
X165436723Y-83347905D03*
%TO.P,C7,2*%
%TO.N,Net-(U2-NOISE_FILT)*%
X165436723Y-84307905D03*
%TD*%
D24*
%TO.P,C25,1*%
%TO.N,VCC_RF*%
X168624619Y-83143008D03*
%TO.P,C25,2*%
%TO.N,GND*%
X169584619Y-83143008D03*
%TD*%
%TO.P,C38,1*%
%TO.N,Net-(IC1-RFOUT)*%
X183241530Y-88419001D03*
%TO.P,C38,2*%
%TO.N,ATTENOUT*%
X184201530Y-88419001D03*
%TD*%
D42*
%TO.N,GND*%
X179383189Y-87833184D03*
X180294437Y-87833184D03*
X180294437Y-86732092D03*
X179413564Y-86716905D03*
%TO.N,3V3*%
X152678022Y-94536872D03*
%TO.N,GND*%
X161689252Y-94739373D03*
%TO.N,VCC_CP*%
X160049005Y-93676250D03*
%TO.N,MCU3V3*%
X159723000Y-90095247D03*
X159853500Y-87169998D03*
%TO.N,GND*%
X191604991Y-91831180D03*
X191604991Y-90312434D03*
X184420689Y-87296761D03*
%TO.N,3V3*%
X169883713Y-80282502D03*
%TO.N,5V*%
X188177276Y-83029902D03*
%TO.N,GND*%
X191650553Y-84283010D03*
X191635366Y-85725819D03*
%TO.N,VCC_CP*%
X167784851Y-91910766D03*
%TO.N,CP_OUT*%
X166331234Y-91953563D03*
%TO.N,VCC_CP*%
X164668860Y-92011601D03*
%TO.N,GND*%
X175689615Y-90247447D03*
X172252692Y-91928872D03*
X170712002Y-91573328D03*
X170800888Y-87351246D03*
X172534164Y-86758674D03*
X174800756Y-86832745D03*
X176459960Y-86817931D03*
X178351588Y-81963271D03*
X183433068Y-82957643D03*
X183271923Y-87360623D03*
%TO.N,MAXLD*%
X152609213Y-92251662D03*
%TO.N,GND*%
X155438998Y-92376021D03*
%TO.N,MAXMUX*%
X159216751Y-89177249D03*
%TO.N,MAXCLK*%
X159743465Y-91130545D03*
%TO.N,5V*%
X155305042Y-87168280D03*
%TO.N,GND*%
X166481252Y-83290863D03*
%TO.N,CP_OUT*%
X163491974Y-82342540D03*
%TO.N,GND*%
X179550044Y-93588615D03*
X165801041Y-95297938D03*
X157814755Y-83523713D03*
X160385320Y-82368081D03*
X189142540Y-88957565D03*
X189161728Y-87000353D03*
X167961724Y-88650551D03*
X168914746Y-88778473D03*
X168889161Y-90665328D03*
%TO.N,3V3*%
X157479999Y-80346908D03*
%TO.N,GND*%
X193802504Y-88777499D03*
X193845678Y-87208851D03*
X192723159Y-88791890D03*
X192766333Y-87208851D03*
X191600640Y-88763108D03*
X191615032Y-87223243D03*
X185573506Y-84338826D03*
%TO.N,3V3*%
X176569815Y-84579373D03*
X174035088Y-92806648D03*
%TO.N,GND*%
X185899708Y-93166210D03*
X187460361Y-93172606D03*
X170803621Y-83205972D03*
X151896189Y-85285452D03*
X182419479Y-89185693D03*
X184918229Y-89241126D03*
X183749871Y-89305087D03*
%TO.N,*%
X181541728Y-89968151D03*
X181541728Y-89968151D03*
%TO.N,GND*%
X187930151Y-86479394D03*
%TO.N,AMP_PWRDWN*%
X188449768Y-90072829D03*
%TO.N,3V3*%
X181505055Y-91994715D03*
X167592029Y-86858897D03*
%TO.N,MAXLD*%
X159957117Y-85670477D03*
%TO.N,MAXLE*%
X162065457Y-92666113D03*
%TO.N,MAXDATA*%
X160638909Y-92131335D03*
%TD*%
D43*
%TO.N,3V3*%
X176489615Y-91516717D02*
X176489615Y-89230248D01*
X176513667Y-91540769D02*
X176489615Y-91516717D01*
X176489615Y-89230248D02*
X176732609Y-88987254D01*
X152763763Y-79604814D02*
X152763763Y-79718489D01*
X154940000Y-79927163D02*
X154940000Y-79390926D01*
X154289074Y-78740000D02*
X153628577Y-78740000D01*
X153628577Y-78740000D02*
X152763763Y-79604814D01*
X155412333Y-80399496D02*
X154940000Y-79927163D01*
X154940000Y-79390926D02*
X154289074Y-78740000D01*
D44*
%TO.N,GND*%
X179383189Y-87632410D02*
X179783025Y-87232574D01*
X179383189Y-87833184D02*
X179383189Y-87632410D01*
X179182415Y-87833184D02*
X179383189Y-87833184D01*
X180294437Y-87743986D02*
X179783025Y-87232574D01*
X180294437Y-87833184D02*
X180294437Y-87743986D01*
X180383635Y-87833184D02*
X180294437Y-87833184D01*
X180283507Y-86732092D02*
X179783025Y-87232574D01*
X180294437Y-86732092D02*
X180283507Y-86732092D01*
X180294437Y-86721162D02*
X180294437Y-86732092D01*
X179413564Y-86863113D02*
X179783025Y-87232574D01*
X179413564Y-86716905D02*
X179413564Y-86863113D01*
X179267356Y-86716905D02*
X179413564Y-86716905D01*
D43*
%TO.N,3V3*%
X174815096Y-92026640D02*
X174035088Y-92806648D01*
X174815096Y-91541026D02*
X174815096Y-92026640D01*
X176569815Y-85657170D02*
X176569815Y-84579373D01*
X177395219Y-86482574D02*
X176569815Y-85657170D01*
X177883025Y-86482574D02*
X177395219Y-86482574D01*
X177848702Y-83300486D02*
X176569815Y-84579373D01*
X178144168Y-83300486D02*
X177848702Y-83300486D01*
D44*
%TO.N,VCC_CP*%
X154779451Y-93725506D02*
X154804079Y-93750134D01*
X153869076Y-93725506D02*
X154779451Y-93725506D01*
D43*
%TO.N,3V3*%
X153869076Y-94287506D02*
X152927388Y-94287506D01*
X152927388Y-94287506D02*
X152678022Y-94536872D01*
D44*
%TO.N,GND*%
X157838795Y-94739373D02*
X161689252Y-94739373D01*
X157815815Y-94716393D02*
X157838795Y-94739373D01*
%TO.N,VCC_CP*%
X159968862Y-93756393D02*
X160049005Y-93676250D01*
X157815815Y-93756393D02*
X159968862Y-93756393D01*
%TO.N,GND*%
X191550302Y-84182759D02*
X191650553Y-84283010D01*
X190176531Y-84182759D02*
X191550302Y-84182759D01*
%TO.N,MCU3V3*%
X161165120Y-90095247D02*
X161332867Y-89927500D01*
X159723000Y-90095247D02*
X161165120Y-90095247D01*
%TO.N,MAXMUX*%
X155896753Y-89177249D02*
X159216751Y-89177249D01*
X154943624Y-90130378D02*
X155896753Y-89177249D01*
X154943624Y-90137276D02*
X154943624Y-90130378D01*
X159466500Y-88927500D02*
X159216751Y-89177249D01*
X161332867Y-88927500D02*
X159466500Y-88927500D01*
%TO.N,MCU3V3*%
X159708462Y-87169998D02*
X158950960Y-87927500D01*
X159853500Y-87169998D02*
X159708462Y-87169998D01*
D43*
%TO.N,5V*%
X188091044Y-83116134D02*
X188177276Y-83029902D01*
X188091044Y-84373068D02*
X188091044Y-83116134D01*
D44*
%TO.N,CP_OUT*%
X166114916Y-93042309D02*
X166114916Y-92169881D01*
X166114916Y-92169881D02*
X166331234Y-91953563D01*
D43*
%TO.N,3V3*%
X169385281Y-81199815D02*
X169385281Y-80780934D01*
X169385281Y-80780934D02*
X169883713Y-80282502D01*
D44*
%TO.N,MAXCLKREF*%
X156470209Y-87844695D02*
X157053014Y-88427500D01*
X156470209Y-81757372D02*
X156470209Y-87844695D01*
X156412333Y-81699496D02*
X156470209Y-81757372D01*
%TO.N,GND*%
X157609515Y-83728953D02*
X157814755Y-83523713D01*
X157609515Y-84668103D02*
X157609515Y-83728953D01*
%TO.N,Net-(U5-EN)*%
X155694129Y-83220311D02*
X155350209Y-83220311D01*
X156020209Y-84157432D02*
X156020209Y-83546391D01*
X155657330Y-84520311D02*
X156020209Y-84157432D01*
X155350209Y-84520311D02*
X155657330Y-84520311D01*
X156020209Y-83546391D02*
X155694129Y-83220311D01*
D43*
%TO.N,3V3*%
X167716430Y-86983298D02*
X167592029Y-86858897D01*
X168624489Y-86983298D02*
X167716430Y-86983298D01*
D44*
%TO.N,RFOUTA_NEG*%
X168999489Y-87628298D02*
X169644489Y-86983298D01*
X167964644Y-87628298D02*
X168999489Y-87628298D01*
X167665442Y-87927500D02*
X167964644Y-87628298D01*
X168639130Y-85997108D02*
X168639130Y-85989499D01*
X169625320Y-86983298D02*
X168639130Y-85997108D01*
X169644489Y-86983298D02*
X169625320Y-86983298D01*
%TO.N,Net-(U4-VCC)*%
X187529044Y-85095148D02*
X187270097Y-85354095D01*
X187529044Y-84373068D02*
X187529044Y-85095148D01*
%TO.N,GND*%
X191618290Y-84182759D02*
X191721525Y-84285994D01*
%TO.N,VCC_CP*%
X154804079Y-93750134D02*
X154951278Y-93602935D01*
X167536553Y-91910766D02*
X167784851Y-91910766D01*
X166970367Y-89466861D02*
X166970367Y-91344580D01*
X166970367Y-91344580D02*
X167536553Y-91910766D01*
X166931006Y-89427500D02*
X166970367Y-89466861D01*
X166207867Y-89427500D02*
X166931006Y-89427500D01*
%TO.N,CP_OUT*%
X165873422Y-91953563D02*
X166331234Y-91953563D01*
X165020367Y-91100508D02*
X165873422Y-91953563D01*
%TO.N,VCC_CP*%
X164520367Y-91863108D02*
X164520367Y-90615000D01*
X164668860Y-92011601D02*
X164520367Y-91863108D01*
%TO.N,SW*%
X164020367Y-92900613D02*
X164123069Y-93003315D01*
X164020367Y-90615000D02*
X164020367Y-92900613D01*
%TO.N,MAXCE*%
X163478069Y-95617399D02*
X163465773Y-95629695D01*
X163478069Y-91725882D02*
X163478069Y-95617399D01*
X163465773Y-95629695D02*
X163615221Y-95480247D01*
X161966770Y-97128698D02*
X163465773Y-95629695D01*
%TO.N,CP_OUT*%
X165020367Y-90615000D02*
X165020367Y-91100508D01*
%TO.N,MAXMUX*%
X154326122Y-89519774D02*
X154943624Y-90137276D01*
X149266770Y-97128698D02*
X149266770Y-93823593D01*
X149266770Y-93823593D02*
X153570589Y-89519774D01*
X153570589Y-89519774D02*
X154326122Y-89519774D01*
%TO.N,MAXLD*%
X151806770Y-93054105D02*
X152609213Y-92251662D01*
X151806770Y-97128698D02*
X151806770Y-93054105D01*
%TO.N,GND*%
X164598732Y-96500247D02*
X165801041Y-95297938D01*
X164454753Y-96500247D02*
X164598732Y-96500247D01*
%TO.N,MAXCE*%
X163520367Y-91683584D02*
X163520367Y-90615000D01*
X163478069Y-91725882D02*
X163520367Y-91683584D01*
X163615221Y-95480247D02*
X164454753Y-95480247D01*
D43*
%TO.N,5V*%
X154916350Y-87556972D02*
X155305042Y-87168280D01*
X149154437Y-87556972D02*
X154916350Y-87556972D01*
D44*
%TO.N,GND*%
X177477321Y-91579492D02*
X177477321Y-91530030D01*
X176556044Y-92500769D02*
X177477321Y-91579492D01*
X176513667Y-92500769D02*
X176556044Y-92500769D01*
%TO.N,VCC_RF*%
X168823281Y-81972263D02*
X168618605Y-82176939D01*
X168823281Y-81199815D02*
X168823281Y-81972263D01*
%TO.N,AMP_PWRDWN*%
X186525317Y-97160141D02*
X183920628Y-97160141D01*
X187006030Y-96679428D02*
X186525317Y-97160141D01*
%TO.N,SIGNAL_PWR*%
X177800000Y-97142202D02*
X177808719Y-97150921D01*
X177800000Y-92872709D02*
X177800000Y-97142202D01*
X177477321Y-92550030D02*
X177800000Y-92872709D01*
%TO.N,GND*%
X179726299Y-81894138D02*
X178420721Y-81894138D01*
X178420721Y-81894138D02*
X178351588Y-81963271D01*
X183633780Y-82756931D02*
X183433068Y-82957643D01*
X183633780Y-81902201D02*
X183633780Y-82756931D01*
%TO.N,ATTENLE*%
X184731368Y-81139498D02*
X184731368Y-79307068D01*
X185523700Y-81931830D02*
X184731368Y-81139498D01*
X183419269Y-84036261D02*
X185523700Y-81931830D01*
X183419269Y-85982726D02*
X183419269Y-84036261D01*
%TO.N,GND*%
X184474071Y-81902201D02*
X184503700Y-81931830D01*
X183633780Y-81902201D02*
X184474071Y-81902201D01*
%TO.N,ATTENCLK*%
X182191368Y-81479789D02*
X182191368Y-79307068D01*
X182613780Y-81902201D02*
X182191368Y-81479789D01*
X182694269Y-86071330D02*
X182694269Y-81982690D01*
X182283025Y-86482574D02*
X182694269Y-86071330D01*
X182694269Y-81982690D02*
X182613780Y-81902201D01*
%TO.N,ATTENDATA*%
X179651368Y-80799207D02*
X179651368Y-79307068D01*
X180746299Y-81894138D02*
X179651368Y-80799207D01*
X181923210Y-83071049D02*
X180746299Y-81894138D01*
X181923210Y-84944543D02*
X181923210Y-83071049D01*
%TO.N,MAXDATA*%
X160363119Y-91855545D02*
X160638909Y-92131335D01*
X157639638Y-91855545D02*
X160363119Y-91855545D01*
X160723687Y-92216113D02*
X160638909Y-92131335D01*
X161404762Y-92216113D02*
X160723687Y-92216113D01*
X162520272Y-91100603D02*
X161404762Y-92216113D01*
X162520367Y-91100603D02*
X162520272Y-91100603D01*
X162520367Y-90615000D02*
X162520367Y-91100603D01*
%TO.N,MAXLE*%
X163020367Y-91711203D02*
X162065457Y-92666113D01*
X163020367Y-90615000D02*
X163020367Y-91711203D01*
X155923182Y-91141358D02*
X157447937Y-92666113D01*
X157447937Y-92666113D02*
X162065457Y-92666113D01*
%TO.N,MAXLD*%
X160714140Y-86427500D02*
X159957117Y-85670477D01*
X161332867Y-86427500D02*
X160714140Y-86427500D01*
%TO.N,GND*%
X181716360Y-88482574D02*
X182419479Y-89185693D01*
X181683025Y-88482574D02*
X181716360Y-88482574D01*
%TO.N,ATTENLE*%
X182419421Y-86982574D02*
X183419269Y-85982726D01*
X181683025Y-86982574D02*
X182419421Y-86982574D01*
%TO.N,GND*%
X165520367Y-89927500D02*
X164770367Y-89177500D01*
X166207867Y-89927500D02*
X165520367Y-89927500D01*
%TO.N,MCU3V3*%
X158569515Y-81513897D02*
X160586236Y-79497176D01*
X158569515Y-84668103D02*
X158569515Y-81513897D01*
X158950960Y-87927500D02*
X158584926Y-87561466D01*
X161332867Y-87927500D02*
X158950960Y-87927500D01*
%TO.N,GND*%
X157624926Y-87561466D02*
X157624926Y-86604207D01*
%TO.N,MCU3V3*%
X158574048Y-86593329D02*
X158574048Y-87550588D01*
%TO.N,MAXLD*%
X153726101Y-91134774D02*
X152609213Y-92251662D01*
X153946127Y-91134774D02*
X153726101Y-91134774D01*
%TO.N,GND*%
X154943624Y-91157276D02*
X154943624Y-91880647D01*
X154943624Y-91880647D02*
X155438998Y-92376021D01*
X156938621Y-90114774D02*
X156928744Y-90124651D01*
X157945994Y-90114774D02*
X156938621Y-90114774D01*
X156925451Y-90121358D02*
X156928744Y-90124651D01*
X155923182Y-90121358D02*
X156925451Y-90121358D01*
X154943624Y-91107814D02*
X155923182Y-90128256D01*
X154943624Y-91157276D02*
X154943624Y-91107814D01*
X155923182Y-90128256D02*
X155923182Y-90121358D01*
X153946127Y-90159779D02*
X154943624Y-91157276D01*
X153946127Y-90114774D02*
X153946127Y-90159779D01*
%TO.N,MAXCLK*%
X157950223Y-91130545D02*
X157945994Y-91134774D01*
X159743465Y-91130545D02*
X157950223Y-91130545D01*
%TO.N,MAXDATA*%
X156928744Y-91144651D02*
X157639638Y-91855545D01*
%TO.N,MAXCLK*%
X160343961Y-91130545D02*
X159743465Y-91130545D01*
X160859506Y-90615000D02*
X160343961Y-91130545D01*
D43*
%TO.N,5V*%
X155465339Y-87007983D02*
X155305042Y-87168280D01*
X155465339Y-85928262D02*
X155465339Y-87007983D01*
D44*
%TO.N,VCC_CP*%
X154837278Y-93740257D02*
X154844887Y-93740257D01*
%TO.N,GND*%
X166424210Y-83347905D02*
X166481252Y-83290863D01*
X165436723Y-83347905D02*
X166424210Y-83347905D01*
%TO.N,CP_OUT*%
X163481281Y-82353233D02*
X163491974Y-82342540D01*
X163481281Y-83347824D02*
X163481281Y-82353233D01*
%TO.N,GND*%
X164473622Y-83347905D02*
X164467784Y-83353743D01*
X165436723Y-83347905D02*
X164473622Y-83347905D01*
%TO.N,Net-(U2-NOISE_FILT)*%
X165436723Y-84312413D02*
X165436723Y-84307905D01*
X164605628Y-85143508D02*
X165436723Y-84312413D01*
X164520367Y-85143508D02*
X164605628Y-85143508D01*
%TO.N,TUNE*%
X164020367Y-84761160D02*
X164020367Y-85740000D01*
X164467784Y-84313743D02*
X164020367Y-84761160D01*
%TO.N,SIGNAL_PWR*%
X178765548Y-91261803D02*
X177477321Y-92550030D01*
X178765548Y-90356529D02*
X178765548Y-91261803D01*
X178770277Y-90351800D02*
X178765548Y-90356529D01*
X179493442Y-90351800D02*
X178770277Y-90351800D01*
%TO.N,GND*%
X179550044Y-92589622D02*
X179509467Y-92549045D01*
X179550044Y-93588615D02*
X179550044Y-92589622D01*
X177477321Y-89588866D02*
X177933613Y-89132574D01*
X177477321Y-91530030D02*
X177477321Y-89588866D01*
X177933613Y-89132574D02*
X178533025Y-89132574D01*
X165397692Y-95297938D02*
X165801041Y-95297938D01*
X164123069Y-94023315D02*
X165397692Y-95297938D01*
X167068896Y-94007130D02*
X167068896Y-94030083D01*
X167068896Y-94030083D02*
X165801041Y-95297938D01*
%TO.N,FILTOUT*%
X174277614Y-88987254D02*
X173940169Y-89324699D01*
X175712609Y-88987254D02*
X174277614Y-88987254D01*
D43*
%TO.N,3V3*%
X176513667Y-91540769D02*
X175554092Y-91540769D01*
X175554092Y-91540769D02*
X175553835Y-91541026D01*
X175553835Y-91541026D02*
X174815096Y-91541026D01*
D44*
%TO.N,GND*%
X179508482Y-92550030D02*
X179509467Y-92549045D01*
%TO.N,SIGNAL_PWR*%
X177428060Y-92500769D02*
X177477321Y-92550030D01*
%TO.N,GND*%
X176513410Y-92501026D02*
X176513667Y-92500769D01*
X175553835Y-92501026D02*
X176513410Y-92501026D01*
%TO.N,ATTENDATA*%
X182244269Y-85265602D02*
X181923210Y-84944543D01*
%TO.N,GND*%
X188026030Y-93738275D02*
X187460361Y-93172606D01*
X188026030Y-96679428D02*
X188026030Y-93738275D01*
X160566751Y-82549512D02*
X160385320Y-82368081D01*
X160566751Y-83356556D02*
X160566751Y-82549512D01*
X160573147Y-83350160D02*
X160566751Y-83356556D01*
X161538960Y-83350160D02*
X160573147Y-83350160D01*
X161547791Y-83341329D02*
X161538960Y-83350160D01*
X162479190Y-83341329D02*
X161547791Y-83341329D01*
%TO.N,Net-(U2-RSET)*%
X163020367Y-84902506D02*
X163020367Y-85740000D01*
X162479190Y-84361329D02*
X163020367Y-84902506D01*
%TO.N,Net-(U2-BIAS_FILT)*%
X162520367Y-85254492D02*
X162520367Y-85740000D01*
X162243375Y-84977500D02*
X162520367Y-85254492D01*
X161864091Y-84977500D02*
X162243375Y-84977500D01*
X161538960Y-84652369D02*
X161864091Y-84977500D01*
X161538960Y-84310160D02*
X161538960Y-84652369D01*
%TO.N,Net-(U2-REG)*%
X161990195Y-85740000D02*
X162020367Y-85740000D01*
X160566751Y-84316556D02*
X161990195Y-85740000D01*
%TO.N,PWR_DETECT*%
X190173238Y-92132104D02*
X189470833Y-92834509D01*
X190173238Y-91784995D02*
X190173238Y-92132104D01*
X190164541Y-91776298D02*
X190173238Y-91784995D01*
X188685349Y-91802440D02*
X188711491Y-91776298D01*
X188711491Y-91776298D02*
X190164541Y-91776298D01*
%TO.N,Net-(C36-Pad1)*%
X190167834Y-85134062D02*
X190176531Y-85142759D01*
X188290097Y-85354095D02*
X188510130Y-85134062D01*
X188510130Y-85134062D02*
X190167834Y-85134062D01*
%TO.N,GND*%
X190020464Y-84338826D02*
X190176531Y-84182759D01*
%TO.N,Net-(U4-RFOUT)*%
X189669787Y-88399579D02*
X189669787Y-88004704D01*
X190180441Y-88910233D02*
X189669787Y-88399579D01*
X189669787Y-87570095D02*
X189669787Y-88004704D01*
X190189440Y-87050442D02*
X189669787Y-87570095D01*
%TO.N,Net-(C10-Pad1)*%
X165124941Y-94028636D02*
X166088589Y-94028636D01*
X166088589Y-94028636D02*
X166114916Y-94002309D01*
%TO.N,GND*%
X190176531Y-84182759D02*
X190011767Y-84347523D01*
D43*
%TO.N,3V3*%
X157427411Y-80399496D02*
X157479999Y-80346908D01*
X156412333Y-80399496D02*
X157427411Y-80399496D01*
D44*
%TO.N,GND*%
X185096396Y-84815936D02*
X185573506Y-84338826D01*
X185096396Y-85357960D02*
X185096396Y-84815936D01*
X186092721Y-85355965D02*
X185098391Y-85355965D01*
X185098391Y-85355965D02*
X185096396Y-85357960D01*
D43*
%TO.N,3V3*%
X178145429Y-83299225D02*
X178144168Y-83300486D01*
X179098184Y-83299225D02*
X178145429Y-83299225D01*
X179108890Y-83309931D02*
X179098184Y-83299225D01*
X180118321Y-83309931D02*
X179108890Y-83309931D01*
X177883025Y-86982574D02*
X177883025Y-86482574D01*
D44*
%TO.N,GND*%
X183886790Y-91768719D02*
X183636790Y-91518719D01*
X184561790Y-91768719D02*
X183886790Y-91768719D01*
X184489281Y-93166210D02*
X185899708Y-93166210D01*
X183636790Y-92313719D02*
X184489281Y-93166210D01*
X183636790Y-91518719D02*
X183636790Y-92313719D01*
X187305151Y-88584606D02*
X186992619Y-88272074D01*
X187305151Y-90446643D02*
X187305151Y-88584606D01*
X187798458Y-92834509D02*
X187460361Y-93172606D01*
X188450833Y-92834509D02*
X187798458Y-92834509D01*
X170740657Y-83143008D02*
X170803621Y-83205972D01*
X169584619Y-83143008D02*
X170740657Y-83143008D01*
X154330209Y-82781620D02*
X154330209Y-83870311D01*
X155412333Y-81699496D02*
X154330209Y-82781620D01*
X152982205Y-85931194D02*
X154330209Y-84583190D01*
X154330209Y-84583190D02*
X154330209Y-83870311D01*
X152982205Y-85957044D02*
X152982205Y-85931194D01*
X152982205Y-85957044D02*
X152567781Y-85957044D01*
X152567781Y-85957044D02*
X151896189Y-85285452D01*
%TO.N,MAXCLKREF*%
X161332867Y-88427500D02*
X157053014Y-88427500D01*
%TO.N,MCU3V3*%
X158574048Y-87550588D02*
X158584926Y-87561466D01*
X158576493Y-86590884D02*
X158574048Y-86593329D01*
X158576493Y-85621124D02*
X158576493Y-86590884D01*
X158569515Y-85614146D02*
X158576493Y-85621124D01*
X158569515Y-84668103D02*
X158569515Y-85614146D01*
%TO.N,ATTENDATA*%
X182244269Y-85571330D02*
X182244269Y-85265602D01*
X181683025Y-85982574D02*
X181833025Y-85982574D01*
X181833025Y-85982574D02*
X182244269Y-85571330D01*
%TO.N,ATTENCLK*%
X181683025Y-86482574D02*
X182283025Y-86482574D01*
%TO.N,Net-(IC1-RFOUT)*%
X182805103Y-87982574D02*
X181683025Y-87982574D01*
X183241530Y-88419001D02*
X182805103Y-87982574D01*
%TO.N,ATTENOUT*%
X184201530Y-88419001D02*
X184598457Y-88022074D01*
X184598457Y-88022074D02*
X185992619Y-88022074D01*
D43*
%TO.N,3V3*%
X153310209Y-83220311D02*
X152778387Y-82688489D01*
X152778387Y-82688489D02*
X152778387Y-81726012D01*
D44*
%TO.N,GND*%
X179509467Y-91378780D02*
X179523768Y-91364479D01*
X179509467Y-92549045D02*
X179509467Y-91378780D01*
X187992619Y-86541862D02*
X187930151Y-86479394D01*
X187992619Y-87522074D02*
X187992619Y-86541862D01*
X186992619Y-88124066D02*
X186992619Y-88272074D01*
X187594611Y-87522074D02*
X186992619Y-88124066D01*
X187992619Y-87522074D02*
X187594611Y-87522074D01*
X186242619Y-89022074D02*
X186992619Y-88272074D01*
X185992619Y-89022074D02*
X186242619Y-89022074D01*
X186742619Y-88522074D02*
X186992619Y-88272074D01*
X185992619Y-88522074D02*
X186742619Y-88522074D01*
X187242619Y-88522074D02*
X186992619Y-88272074D01*
X187992619Y-88522074D02*
X187242619Y-88522074D01*
%TO.N,AMP_PWRDWN*%
X188449768Y-89479223D02*
X187992619Y-89022074D01*
X188449768Y-90072829D02*
X188449768Y-89479223D01*
%TO.N,TUNE*%
X163493097Y-84356008D02*
X163481281Y-84367824D01*
X164467784Y-84356008D02*
X163493097Y-84356008D01*
%TO.N,MAXCLK*%
X160859506Y-90615000D02*
X162020367Y-90615000D01*
%TO.N,GND*%
X153764903Y-81699496D02*
X153738387Y-81726012D01*
X155412333Y-81699496D02*
X153764903Y-81699496D01*
D43*
%TO.N,3V3*%
X155412333Y-80399496D02*
X156412333Y-80399496D01*
X152790322Y-81714077D02*
X152778387Y-81726012D01*
X152790322Y-80696979D02*
X152790322Y-81714077D01*
X152763763Y-80670420D02*
X152790322Y-80696979D01*
X152763763Y-79718489D02*
X152763763Y-80670420D01*
D44*
%TO.N,GND*%
X155350209Y-83870311D02*
X154330209Y-83870311D01*
X153750322Y-81714077D02*
X153738387Y-81726012D01*
X153750322Y-80696979D02*
X153750322Y-81714077D01*
X153723763Y-80670420D02*
X153750322Y-80696979D01*
X153723763Y-79718489D02*
X153723763Y-80670420D01*
X157616493Y-84675081D02*
X157609515Y-84668103D01*
X157616493Y-85621124D02*
X157616493Y-84675081D01*
X157614048Y-85623569D02*
X157616493Y-85621124D01*
X157614048Y-86593329D02*
X157614048Y-85623569D01*
X157624926Y-86604207D02*
X157614048Y-86593329D01*
%TO.N,RFOUTA_POS*%
X168001736Y-89735861D02*
X170272303Y-89735861D01*
X166207867Y-88427500D02*
X166693375Y-88427500D01*
X166693375Y-88427500D02*
X168001736Y-89735861D01*
D43*
%TO.N,3V3*%
X181731051Y-91768719D02*
X182711790Y-91768719D01*
X181505055Y-91994715D02*
X181731051Y-91768719D01*
D44*
%TO.N,Net-(U1-INLO)*%
X182260794Y-92719715D02*
X182711790Y-92268719D01*
X180640137Y-92719715D02*
X182260794Y-92719715D01*
X180469467Y-92549045D02*
X180640137Y-92719715D01*
%TO.N,Net-(U1-TADJ)*%
X180647076Y-91261171D02*
X182704242Y-91261171D01*
X180543768Y-91364479D02*
X180647076Y-91261171D01*
X182704242Y-91261171D02*
X182711790Y-91268719D01*
%TO.N,Net-(U1-VOUT)*%
X180922813Y-90761171D02*
X182704242Y-90761171D01*
X180513442Y-90351800D02*
X180922813Y-90761171D01*
X182704242Y-90761171D02*
X182711790Y-90768719D01*
%TO.N,GND*%
X179098184Y-84767415D02*
X178533025Y-85332574D01*
%TO.N,MAXCE*%
X163531970Y-90626603D02*
X163520367Y-90615000D01*
%TO.N,VCC_CP*%
X156786957Y-93753077D02*
X156797835Y-93763955D01*
X155807943Y-93753077D02*
X156786957Y-93753077D01*
X155794023Y-93740257D02*
X155808453Y-93754687D01*
X154844887Y-93740257D02*
X155794023Y-93740257D01*
X156801759Y-93767879D02*
X156797835Y-93763955D01*
X157757067Y-93767879D02*
X156801759Y-93767879D01*
%TO.N,GND*%
X154822342Y-94722802D02*
X154844887Y-94700257D01*
X157753143Y-94723955D02*
X157757067Y-94727879D01*
X156797835Y-94723955D02*
X157753143Y-94723955D01*
X156786957Y-94713077D02*
X156797835Y-94723955D01*
X155807943Y-94713077D02*
X156786957Y-94713077D01*
X155794023Y-94700257D02*
X155808453Y-94714687D01*
X154844887Y-94700257D02*
X155794023Y-94700257D01*
%TO.N,Net-(U2-NOISE_FILT)*%
X164520367Y-85740000D02*
X164520367Y-85143508D01*
%TO.N,Net-(J1-In)*%
X191107405Y-88013401D02*
X191138425Y-87982381D01*
X190660807Y-87973684D02*
X198120000Y-87973684D01*
%TO.N,GND*%
X179098184Y-84259225D02*
X179098184Y-84767415D01*
X180118321Y-85247278D02*
X180033025Y-85332574D01*
X180118321Y-84269931D02*
X180118321Y-85247278D01*
X180107615Y-84259225D02*
X180118321Y-84269931D01*
X179098184Y-84259225D02*
X180107615Y-84259225D01*
X179096923Y-84260486D02*
X179098184Y-84259225D01*
X178144168Y-84260486D02*
X179096923Y-84260486D01*
X178533025Y-89132574D02*
X178533025Y-88482574D01*
X178533025Y-88482574D02*
X179783025Y-87232574D01*
X179033025Y-87982574D02*
X179182415Y-87833184D01*
X179033025Y-89132574D02*
X179033025Y-87982574D01*
X179533025Y-87482574D02*
X179783025Y-87232574D01*
X179533025Y-89132574D02*
X179533025Y-87482574D01*
X180033025Y-87482574D02*
X179783025Y-87232574D01*
X180033025Y-89132574D02*
X180033025Y-87482574D01*
X180533025Y-87982574D02*
X180383635Y-87833184D01*
X180533025Y-89132574D02*
X180533025Y-87982574D01*
X181033025Y-88482574D02*
X179783025Y-87232574D01*
X181033025Y-89132574D02*
X181033025Y-88482574D01*
X181683025Y-88482574D02*
X181033025Y-88482574D01*
X181683025Y-87482574D02*
X180033025Y-87482574D01*
X181033025Y-85982574D02*
X179783025Y-87232574D01*
X181033025Y-85332574D02*
X181033025Y-85982574D01*
X180533025Y-86482574D02*
X180294437Y-86721162D01*
X180533025Y-85332574D02*
X180533025Y-86482574D01*
X180033025Y-86982574D02*
X179783025Y-87232574D01*
X180033025Y-85332574D02*
X180033025Y-86982574D01*
X179533025Y-86982574D02*
X179783025Y-87232574D01*
X179533025Y-85332574D02*
X179533025Y-86982574D01*
X179033025Y-86482574D02*
X179783025Y-87232574D01*
X179033025Y-85332574D02*
X179033025Y-86482574D01*
X178533025Y-85332574D02*
X178533025Y-85982574D01*
X178533025Y-85982574D02*
X179267356Y-86716905D01*
X177883025Y-85982574D02*
X178533025Y-85982574D01*
X177883025Y-87482574D02*
X179533025Y-87482574D01*
X177883025Y-88482574D02*
X178533025Y-88482574D01*
%TO.N,Net-(U1-VOUT)*%
X182711790Y-90388719D02*
X182711790Y-90768719D01*
X183006790Y-90093719D02*
X182711790Y-90388719D01*
X184266790Y-90093719D02*
X183006790Y-90093719D01*
X184561790Y-90388719D02*
X184266790Y-90093719D01*
X184561790Y-90768719D02*
X184561790Y-90388719D01*
%TO.N,Net-(U1-CLPF)*%
X185523075Y-91268719D02*
X186345151Y-90446643D01*
X184561790Y-91268719D02*
X185523075Y-91268719D01*
%TO.N,Net-(U1-INHI)*%
X187259070Y-92268719D02*
X184561790Y-92268719D01*
X187725349Y-91802440D02*
X187259070Y-92268719D01*
%TO.N,Net-(U4-VCC)*%
X186092721Y-87421972D02*
X185992619Y-87522074D01*
X186092721Y-86315965D02*
X186092721Y-87421972D01*
X185098391Y-86315965D02*
X185096396Y-86317960D01*
X186092721Y-86315965D02*
X185098391Y-86315965D01*
X186308227Y-86315965D02*
X186092721Y-86315965D01*
X187270097Y-85354095D02*
X186308227Y-86315965D01*
%TO.N,Net-(C36-Pad1)*%
X190189440Y-85155668D02*
X190176531Y-85142759D01*
X190189440Y-86080442D02*
X190189440Y-85155668D01*
%TO.N,Net-(C34-Pad1)*%
X190180441Y-90817792D02*
X190173238Y-90824995D01*
X190180441Y-89930233D02*
X190180441Y-90817792D01*
%TO.N,Net-(U4-RFOUT)*%
X187992619Y-88022074D02*
X189652417Y-88022074D01*
%TO.N,ATTENOUT*%
X185980524Y-88034169D02*
X185992619Y-88022074D01*
%TO.N,Net-(IC1-RFIN)*%
X177859514Y-88006085D02*
X177883025Y-87982574D01*
X176689223Y-88006085D02*
X177859514Y-88006085D01*
%TO.N,FILTOUT*%
X175729223Y-88970640D02*
X175712609Y-88987254D01*
X175729223Y-88006085D02*
X175729223Y-88970640D01*
%TO.N,Net-(U5-EN)*%
X153970987Y-85928262D02*
X153942205Y-85957044D01*
X154903339Y-85928262D02*
X153970987Y-85928262D01*
X155350209Y-85003392D02*
X154903339Y-85450262D01*
X154903339Y-85450262D02*
X154903339Y-85928262D01*
X155350209Y-84520311D02*
X155350209Y-85003392D01*
D43*
%TO.N,3V3*%
X168639130Y-86927292D02*
X168652390Y-86940552D01*
D44*
%TO.N,RFOUTA_NEG*%
X166207867Y-87927500D02*
X167665442Y-87927500D01*
D43*
%TO.N,3V3*%
X167023426Y-87427500D02*
X167592029Y-86858897D01*
X166207867Y-87427500D02*
X167023426Y-87427500D01*
X166207867Y-86927500D02*
X167523426Y-86927500D01*
X167523426Y-86927500D02*
X167592029Y-86858897D01*
D44*
%TO.N,VCC_RF*%
X168099513Y-85024893D02*
X168627317Y-85024893D01*
X166696906Y-86427500D02*
X168099513Y-85024893D01*
%TO.N,Net-(C40-Pad1)*%
X170843317Y-86009823D02*
X169619454Y-86009823D01*
X169619454Y-86009823D02*
X169599130Y-85989499D01*
%TO.N,GND*%
X169622387Y-84989823D02*
X169587317Y-85024893D01*
X170843317Y-84989823D02*
X169622387Y-84989823D01*
X169587317Y-84089390D02*
X169587317Y-85024893D01*
X169584619Y-84086692D02*
X169587317Y-84089390D01*
X169584619Y-83143008D02*
X169584619Y-84086692D01*
X169578605Y-83136994D02*
X169584619Y-83143008D01*
X169578605Y-82176939D02*
X169578605Y-83136994D01*
%TO.N,VCC_RF*%
X168627317Y-84089390D02*
X168627317Y-85024893D01*
X168624619Y-84086692D02*
X168627317Y-84089390D01*
X168624619Y-83143008D02*
X168624619Y-84086692D01*
X168618605Y-83136994D02*
X168624619Y-83143008D01*
X168618605Y-82176939D02*
X168618605Y-83136994D01*
X166207867Y-86427500D02*
X166696906Y-86427500D01*
X166207867Y-86427500D02*
X165520367Y-85740000D01*
%TO.N,CP_OUT*%
X167064075Y-93042309D02*
X167068896Y-93047130D01*
X166114916Y-93042309D02*
X167064075Y-93042309D01*
%TO.N,SW*%
X165119620Y-93003315D02*
X165124941Y-93008636D01*
X164123069Y-93003315D02*
X165119620Y-93003315D01*
%TO.N,GND*%
X163520367Y-86927500D02*
X163770367Y-87177500D01*
X163520367Y-85740000D02*
X163520367Y-86927500D01*
X162520367Y-87427500D02*
X162770367Y-87177500D01*
X161332867Y-87427500D02*
X162520367Y-87427500D01*
X162520367Y-89427500D02*
X162770367Y-89177500D01*
X161332867Y-89427500D02*
X162520367Y-89427500D01*
X165520367Y-90615000D02*
X166207867Y-89927500D01*
X165020367Y-88927500D02*
X164770367Y-89177500D01*
X166207867Y-88927500D02*
X165020367Y-88927500D01*
X165020367Y-86927500D02*
X164770367Y-87177500D01*
X165020367Y-85740000D02*
X165020367Y-86927500D01*
%TD*%
M02*
