%TF.GenerationSoftware,KiCad,Pcbnew,(7.0.0)*%
%TF.CreationDate,2023-03-06T00:02:43-06:00*%
%TF.ProjectId,RF Signal Source,52462053-6967-46e6-916c-20536f757263,rev?*%
%TF.SameCoordinates,Original*%
%TF.FileFunction,Copper,L2,Inr*%
%TF.FilePolarity,Positive*%
%FSLAX46Y46*%
G04 Gerber Fmt 4.6, Leading zero omitted, Abs format (unit mm)*
G04 Created by KiCad (PCBNEW (7.0.0)) date 2023-03-06 00:02:43*
%MOMM*%
%LPD*%
G01*
G04 APERTURE LIST*
%TA.AperFunction,ComponentPad*%
%ADD10C,2.250000*%
%TD*%
%TA.AperFunction,ComponentPad*%
%ADD11C,0.500000*%
%TD*%
%TA.AperFunction,ComponentPad*%
%ADD12R,1.700000X1.700000*%
%TD*%
%TA.AperFunction,ComponentPad*%
%ADD13O,1.700000X1.700000*%
%TD*%
%TA.AperFunction,ComponentPad*%
%ADD14C,0.610000*%
%TD*%
%TA.AperFunction,ComponentPad*%
%ADD15C,2.100000*%
%TD*%
%TA.AperFunction,ViaPad*%
%ADD16C,0.800000*%
%TD*%
G04 APERTURE END LIST*
D10*
%TO.N,GND*%
%TO.C,*%
X149288016Y-83966640D03*
%TD*%
%TO.N,GND*%
%TO.C,*%
X149252267Y-90901942D03*
%TD*%
%TO.N,GND*%
%TO.C,*%
X199209993Y-97431249D03*
%TD*%
%TO.N,GND*%
%TO.C,*%
X199209993Y-79842751D03*
%TD*%
D11*
%TO.N,GND*%
%TO.C,U2*%
X164770367Y-87177500D03*
X163770367Y-87177500D03*
X162770367Y-87177500D03*
X164770367Y-88177500D03*
X163770367Y-88177500D03*
X162770367Y-88177500D03*
X164770367Y-89177500D03*
X163770367Y-89177500D03*
X162770367Y-89177500D03*
%TD*%
D12*
%TO.N,MCU3V3*%
%TO.C,J3*%
X160568785Y-79249124D03*
%TD*%
%TO.N,SIGNAL_PWR*%
%TO.C,J8*%
X177808718Y-97150920D03*
%TD*%
%TO.N,AMP_PWRDWN*%
%TO.C,J7*%
X183920627Y-97160140D03*
%TD*%
%TO.N,5V*%
%TO.C,J4*%
X149154436Y-87556971D03*
%TD*%
%TO.N,ATTENDATA*%
%TO.C,J6*%
X179651367Y-79307067D03*
D13*
%TO.N,ATTENCLK*%
X182191367Y-79307067D03*
%TO.N,ATTENLE*%
X184731367Y-79307067D03*
%TD*%
%TO.N,MAXMUX*%
%TO.C,J5*%
X149266769Y-97128697D03*
%TO.N,MAXLD*%
X151806769Y-97128697D03*
%TO.N,MAXCLK*%
X154346769Y-97128697D03*
%TO.N,MAXDATA*%
X156886769Y-97128697D03*
%TO.N,MAXLE*%
X159426769Y-97128697D03*
D12*
%TO.N,MAXCE*%
X161966769Y-97128697D03*
%TD*%
D14*
%TO.N,GND*%
%TO.C,FL1*%
X172315169Y-88219699D03*
X172315169Y-90429699D03*
%TD*%
D15*
%TO.N,Net-(J1-In)*%
%TO.C,J1*%
X198120000Y-87973684D03*
D10*
%TO.N,GND*%
X195570000Y-90523684D03*
X200670000Y-90523684D03*
X200670000Y-85423684D03*
X195570000Y-85423684D03*
%TD*%
D16*
%TO.N,GND*%
X179383189Y-87833184D03*
X180294437Y-87833184D03*
X180294437Y-86732092D03*
X179413564Y-86716905D03*
%TO.N,3V3*%
X152678022Y-94536872D03*
%TO.N,GND*%
X161689252Y-94739373D03*
%TO.N,VCC_CP*%
X160049005Y-93676250D03*
%TO.N,MCU3V3*%
X159723000Y-90095247D03*
X159853500Y-87169998D03*
%TO.N,GND*%
X191604991Y-91831180D03*
X191604991Y-90312434D03*
X184420689Y-87296761D03*
%TO.N,3V3*%
X169883713Y-80282502D03*
%TO.N,5V*%
X188177276Y-83029902D03*
%TO.N,GND*%
X191650553Y-84283010D03*
X191635366Y-85725819D03*
%TO.N,VCC_CP*%
X167784851Y-91910766D03*
%TO.N,CP_OUT*%
X166331234Y-91953563D03*
%TO.N,VCC_CP*%
X164668860Y-92011601D03*
%TO.N,GND*%
X175689615Y-90247447D03*
X172252692Y-91928872D03*
X170712002Y-91573328D03*
X170800888Y-87351246D03*
X172534164Y-86758674D03*
X174800756Y-86832745D03*
X176459960Y-86817931D03*
X178351588Y-81963271D03*
X183433068Y-82957643D03*
X183271923Y-87360623D03*
%TO.N,MAXLD*%
X152609213Y-92251662D03*
%TO.N,GND*%
X155438998Y-92376021D03*
%TO.N,MAXMUX*%
X159216751Y-89177249D03*
%TO.N,MAXCLK*%
X159743465Y-91130545D03*
%TO.N,5V*%
X155305042Y-87168280D03*
%TO.N,GND*%
X166481252Y-83290863D03*
%TO.N,CP_OUT*%
X163491974Y-82342540D03*
%TO.N,GND*%
X179550044Y-93588615D03*
X165801041Y-95297938D03*
X157814755Y-83523713D03*
X160385320Y-82368081D03*
X189142540Y-88957565D03*
X189161728Y-87000353D03*
X167961724Y-88650551D03*
X168914746Y-88778473D03*
X168889161Y-90665328D03*
%TO.N,3V3*%
X157479999Y-80346908D03*
%TO.N,GND*%
X193802504Y-88777499D03*
X193845678Y-87208851D03*
X192723159Y-88791890D03*
X192766333Y-87208851D03*
X191600640Y-88763108D03*
X191615032Y-87223243D03*
X185573506Y-84338826D03*
%TO.N,3V3*%
X176569815Y-84579373D03*
X174035088Y-92806648D03*
%TO.N,GND*%
X185899708Y-93166210D03*
X187460361Y-93172606D03*
X170803621Y-83205972D03*
X151896189Y-85285452D03*
X182419479Y-89185693D03*
X184918229Y-89241126D03*
X183749871Y-89305087D03*
%TO.N,*%
X181541728Y-89968151D03*
X181541728Y-89968151D03*
%TO.N,GND*%
X187930151Y-86479394D03*
%TO.N,AMP_PWRDWN*%
X188449768Y-90072829D03*
%TO.N,3V3*%
X181505055Y-91994715D03*
X167592029Y-86858897D03*
%TO.N,MAXLD*%
X159957117Y-85670477D03*
%TO.N,MAXLE*%
X162065457Y-92666113D03*
%TO.N,MAXDATA*%
X160638909Y-92131335D03*
%TD*%
%TA.AperFunction,Conductor*%
%TO.N,GND*%
G36*
X201842500Y-77512113D02*
G01*
X201887887Y-77557500D01*
X201904500Y-77619500D01*
X201904500Y-84072053D01*
X201884935Y-84138906D01*
X201832414Y-84184663D01*
X201763510Y-84194884D01*
X201699968Y-84166343D01*
X201631809Y-84108129D01*
X201623950Y-84102419D01*
X201414174Y-83973869D01*
X201405511Y-83969455D01*
X201178205Y-83875302D01*
X201168968Y-83872300D01*
X200929725Y-83814863D01*
X200920140Y-83813345D01*
X200674854Y-83794041D01*
X200665146Y-83794041D01*
X200419859Y-83813345D01*
X200410274Y-83814863D01*
X200171031Y-83872300D01*
X200161794Y-83875302D01*
X199934488Y-83969455D01*
X199925825Y-83973869D01*
X199718608Y-84100851D01*
X199713543Y-84108431D01*
X199720215Y-84120346D01*
X200935871Y-85336002D01*
X200967965Y-85391589D01*
X200967965Y-85455777D01*
X200935871Y-85511364D01*
X199720213Y-86727022D01*
X199713542Y-86738934D01*
X199718606Y-86746514D01*
X199925825Y-86873498D01*
X199934488Y-86877912D01*
X200161794Y-86972065D01*
X200171031Y-86975067D01*
X200410274Y-87032504D01*
X200419859Y-87034022D01*
X200665146Y-87053327D01*
X200674854Y-87053327D01*
X200920140Y-87034022D01*
X200929725Y-87032504D01*
X201168968Y-86975067D01*
X201178205Y-86972065D01*
X201405511Y-86877912D01*
X201414174Y-86873498D01*
X201623950Y-86744948D01*
X201631809Y-86739238D01*
X201699968Y-86681025D01*
X201763510Y-86652484D01*
X201832414Y-86662705D01*
X201884935Y-86708462D01*
X201904500Y-86775315D01*
X201904500Y-89172053D01*
X201884935Y-89238906D01*
X201832414Y-89284663D01*
X201763510Y-89294884D01*
X201699968Y-89266343D01*
X201631809Y-89208129D01*
X201623950Y-89202419D01*
X201414174Y-89073869D01*
X201405511Y-89069455D01*
X201178205Y-88975302D01*
X201168968Y-88972300D01*
X200929725Y-88914863D01*
X200920140Y-88913345D01*
X200674854Y-88894041D01*
X200665146Y-88894041D01*
X200419859Y-88913345D01*
X200410274Y-88914863D01*
X200171031Y-88972300D01*
X200161794Y-88975302D01*
X199934488Y-89069455D01*
X199925825Y-89073869D01*
X199718608Y-89200851D01*
X199713543Y-89208431D01*
X199720215Y-89220346D01*
X200935871Y-90436002D01*
X200967965Y-90491589D01*
X200967965Y-90555777D01*
X200935871Y-90611364D01*
X199720213Y-91827022D01*
X199713542Y-91838934D01*
X199718606Y-91846514D01*
X199925825Y-91973498D01*
X199934488Y-91977912D01*
X200161794Y-92072065D01*
X200171031Y-92075067D01*
X200410274Y-92132504D01*
X200419859Y-92134022D01*
X200665146Y-92153327D01*
X200674854Y-92153327D01*
X200920140Y-92134022D01*
X200929725Y-92132504D01*
X201168968Y-92075067D01*
X201178205Y-92072065D01*
X201405511Y-91977912D01*
X201414174Y-91973498D01*
X201623950Y-91844948D01*
X201631809Y-91839238D01*
X201699968Y-91781025D01*
X201763510Y-91752484D01*
X201832414Y-91762705D01*
X201884935Y-91808462D01*
X201904500Y-91875315D01*
X201904500Y-98910500D01*
X201887887Y-98972500D01*
X201842500Y-99017887D01*
X201780500Y-99034500D01*
X200143453Y-99034500D01*
X200082016Y-99018210D01*
X200036721Y-98973621D01*
X200019468Y-98912448D01*
X200034791Y-98850763D01*
X200078663Y-98804773D01*
X200161390Y-98754077D01*
X200166450Y-98746501D01*
X200159777Y-98734586D01*
X199221535Y-97796344D01*
X199209993Y-97789680D01*
X199198450Y-97796344D01*
X198260206Y-98734587D01*
X198253535Y-98746499D01*
X198258599Y-98754079D01*
X198341323Y-98804773D01*
X198385195Y-98850763D01*
X198400518Y-98912448D01*
X198383265Y-98973621D01*
X198337970Y-99018210D01*
X198276533Y-99034500D01*
X147443283Y-99034500D01*
X147381455Y-99017986D01*
X147336095Y-98972844D01*
X147319284Y-98911098D01*
X147310720Y-97128698D01*
X147903614Y-97128698D01*
X147904038Y-97133815D01*
X147921781Y-97347946D01*
X147921782Y-97347954D01*
X147922206Y-97353066D01*
X147923463Y-97358033D01*
X147923465Y-97358040D01*
X147944927Y-97442791D01*
X147977474Y-97571314D01*
X147979534Y-97576010D01*
X148065850Y-97772794D01*
X148065853Y-97772799D01*
X148067910Y-97777489D01*
X148073640Y-97786259D01*
X148188244Y-97961675D01*
X148188247Y-97961679D01*
X148191048Y-97965966D01*
X148194522Y-97969739D01*
X148194523Y-97969741D01*
X148340058Y-98127833D01*
X148340061Y-98127836D01*
X148343530Y-98131604D01*
X148347571Y-98134749D01*
X148517146Y-98266737D01*
X148517151Y-98266740D01*
X148521194Y-98269887D01*
X148525701Y-98272326D01*
X148525704Y-98272328D01*
X148714689Y-98374601D01*
X148719196Y-98377040D01*
X148932135Y-98450142D01*
X149154201Y-98487198D01*
X149374206Y-98487198D01*
X149379339Y-98487198D01*
X149601405Y-98450142D01*
X149814344Y-98377040D01*
X150012346Y-98269887D01*
X150190010Y-98131604D01*
X150342492Y-97965966D01*
X150432960Y-97827493D01*
X150477752Y-97786259D01*
X150536770Y-97771314D01*
X150595788Y-97786259D01*
X150640579Y-97827493D01*
X150728240Y-97961670D01*
X150728248Y-97961680D01*
X150731048Y-97965966D01*
X150734522Y-97969739D01*
X150734523Y-97969741D01*
X150880058Y-98127833D01*
X150880061Y-98127836D01*
X150883530Y-98131604D01*
X150887571Y-98134749D01*
X151057146Y-98266737D01*
X151057151Y-98266740D01*
X151061194Y-98269887D01*
X151065701Y-98272326D01*
X151065704Y-98272328D01*
X151254689Y-98374601D01*
X151259196Y-98377040D01*
X151472135Y-98450142D01*
X151694201Y-98487198D01*
X151914206Y-98487198D01*
X151919339Y-98487198D01*
X152141405Y-98450142D01*
X152354344Y-98377040D01*
X152552346Y-98269887D01*
X152730010Y-98131604D01*
X152882492Y-97965966D01*
X152972960Y-97827493D01*
X153017752Y-97786259D01*
X153076770Y-97771314D01*
X153135788Y-97786259D01*
X153180579Y-97827493D01*
X153268240Y-97961670D01*
X153268248Y-97961680D01*
X153271048Y-97965966D01*
X153274522Y-97969739D01*
X153274523Y-97969741D01*
X153420058Y-98127833D01*
X153420061Y-98127836D01*
X153423530Y-98131604D01*
X153427571Y-98134749D01*
X153597146Y-98266737D01*
X153597151Y-98266740D01*
X153601194Y-98269887D01*
X153605701Y-98272326D01*
X153605704Y-98272328D01*
X153794689Y-98374601D01*
X153799196Y-98377040D01*
X154012135Y-98450142D01*
X154234201Y-98487198D01*
X154454206Y-98487198D01*
X154459339Y-98487198D01*
X154681405Y-98450142D01*
X154894344Y-98377040D01*
X155092346Y-98269887D01*
X155270010Y-98131604D01*
X155422492Y-97965966D01*
X155512960Y-97827493D01*
X155557752Y-97786259D01*
X155616770Y-97771314D01*
X155675788Y-97786259D01*
X155720579Y-97827493D01*
X155808240Y-97961670D01*
X155808248Y-97961680D01*
X155811048Y-97965966D01*
X155814522Y-97969739D01*
X155814523Y-97969741D01*
X155960058Y-98127833D01*
X155960061Y-98127836D01*
X155963530Y-98131604D01*
X155967571Y-98134749D01*
X156137146Y-98266737D01*
X156137151Y-98266740D01*
X156141194Y-98269887D01*
X156145701Y-98272326D01*
X156145704Y-98272328D01*
X156334689Y-98374601D01*
X156339196Y-98377040D01*
X156552135Y-98450142D01*
X156774201Y-98487198D01*
X156994206Y-98487198D01*
X156999339Y-98487198D01*
X157221405Y-98450142D01*
X157434344Y-98377040D01*
X157632346Y-98269887D01*
X157810010Y-98131604D01*
X157962492Y-97965966D01*
X158052960Y-97827493D01*
X158097752Y-97786259D01*
X158156770Y-97771314D01*
X158215788Y-97786259D01*
X158260579Y-97827493D01*
X158348240Y-97961670D01*
X158348248Y-97961680D01*
X158351048Y-97965966D01*
X158354522Y-97969739D01*
X158354523Y-97969741D01*
X158500058Y-98127833D01*
X158500061Y-98127836D01*
X158503530Y-98131604D01*
X158507571Y-98134749D01*
X158677146Y-98266737D01*
X158677151Y-98266740D01*
X158681194Y-98269887D01*
X158685701Y-98272326D01*
X158685704Y-98272328D01*
X158874689Y-98374601D01*
X158879196Y-98377040D01*
X159092135Y-98450142D01*
X159314201Y-98487198D01*
X159534206Y-98487198D01*
X159539339Y-98487198D01*
X159761405Y-98450142D01*
X159974344Y-98377040D01*
X160172346Y-98269887D01*
X160350010Y-98131604D01*
X160413225Y-98062934D01*
X160465843Y-98029084D01*
X160528298Y-98025236D01*
X160584679Y-98052373D01*
X160620632Y-98103587D01*
X160644194Y-98166760D01*
X160665881Y-98224902D01*
X160753509Y-98341959D01*
X160870566Y-98429587D01*
X161007569Y-98480687D01*
X161068132Y-98487198D01*
X162862098Y-98487198D01*
X162865408Y-98487198D01*
X162925971Y-98480687D01*
X163062974Y-98429587D01*
X163180031Y-98341959D01*
X163267659Y-98224902D01*
X163318759Y-98087899D01*
X163322881Y-98049559D01*
X176450219Y-98049559D01*
X176450571Y-98052839D01*
X176450572Y-98052845D01*
X176455121Y-98095161D01*
X176456730Y-98110122D01*
X176459436Y-98117379D01*
X176459438Y-98117384D01*
X176499541Y-98224902D01*
X176507830Y-98247125D01*
X176513144Y-98254224D01*
X176513145Y-98254225D01*
X176582798Y-98347271D01*
X176595458Y-98364182D01*
X176712515Y-98451810D01*
X176849518Y-98502910D01*
X176910081Y-98509421D01*
X178704047Y-98509421D01*
X178707357Y-98509421D01*
X178767920Y-98502910D01*
X178904923Y-98451810D01*
X179021980Y-98364182D01*
X179109608Y-98247125D01*
X179160708Y-98110122D01*
X179166228Y-98058779D01*
X182562128Y-98058779D01*
X182562480Y-98062059D01*
X182562481Y-98062065D01*
X182567647Y-98110122D01*
X182568639Y-98119342D01*
X182571345Y-98126599D01*
X182571347Y-98126604D01*
X182616300Y-98247125D01*
X182619739Y-98256345D01*
X182625053Y-98263444D01*
X182625054Y-98263445D01*
X182687805Y-98347271D01*
X182707367Y-98373402D01*
X182824424Y-98461030D01*
X182961427Y-98512130D01*
X183021990Y-98518641D01*
X184815956Y-98518641D01*
X184819266Y-98518641D01*
X184879829Y-98512130D01*
X185016832Y-98461030D01*
X185133889Y-98373402D01*
X185221517Y-98256345D01*
X185272617Y-98119342D01*
X185279128Y-98058779D01*
X185279128Y-97436103D01*
X197580350Y-97436103D01*
X197599654Y-97681389D01*
X197601172Y-97690974D01*
X197658609Y-97930217D01*
X197661611Y-97939454D01*
X197755764Y-98166760D01*
X197760178Y-98175423D01*
X197887161Y-98382641D01*
X197894740Y-98387705D01*
X197906656Y-98381031D01*
X198844897Y-97442791D01*
X198851561Y-97431249D01*
X199568424Y-97431249D01*
X199575088Y-97442791D01*
X200513330Y-98381033D01*
X200525245Y-98387706D01*
X200532821Y-98382646D01*
X200659807Y-98175423D01*
X200664221Y-98166760D01*
X200758374Y-97939454D01*
X200761376Y-97930217D01*
X200818813Y-97690974D01*
X200820331Y-97681389D01*
X200839636Y-97436103D01*
X200839636Y-97426395D01*
X200820331Y-97181108D01*
X200818813Y-97171523D01*
X200761376Y-96932280D01*
X200758374Y-96923043D01*
X200664221Y-96695737D01*
X200659807Y-96687074D01*
X200532823Y-96479855D01*
X200525243Y-96474791D01*
X200513331Y-96481462D01*
X199575088Y-97419706D01*
X199568424Y-97431249D01*
X198851561Y-97431249D01*
X198844897Y-97419706D01*
X197906655Y-96481464D01*
X197894740Y-96474792D01*
X197887160Y-96479857D01*
X197760178Y-96687074D01*
X197755764Y-96695737D01*
X197661611Y-96923043D01*
X197658609Y-96932280D01*
X197601172Y-97171523D01*
X197599654Y-97181108D01*
X197580350Y-97426395D01*
X197580350Y-97436103D01*
X185279128Y-97436103D01*
X185279128Y-96261503D01*
X185272617Y-96200940D01*
X185240934Y-96115996D01*
X198253536Y-96115996D01*
X198260208Y-96127911D01*
X199198450Y-97066153D01*
X199209993Y-97072817D01*
X199221535Y-97066153D01*
X200159775Y-96127912D01*
X200166449Y-96115996D01*
X200161385Y-96108417D01*
X199954167Y-95981434D01*
X199945504Y-95977020D01*
X199718198Y-95882867D01*
X199708961Y-95879865D01*
X199469718Y-95822428D01*
X199460133Y-95820910D01*
X199214847Y-95801606D01*
X199205139Y-95801606D01*
X198959852Y-95820910D01*
X198950267Y-95822428D01*
X198711024Y-95879865D01*
X198701787Y-95882867D01*
X198474481Y-95977020D01*
X198465818Y-95981434D01*
X198258601Y-96108416D01*
X198253536Y-96115996D01*
X185240934Y-96115996D01*
X185221517Y-96063937D01*
X185133889Y-95946880D01*
X185114475Y-95932347D01*
X185023932Y-95864567D01*
X185023931Y-95864566D01*
X185016832Y-95859252D01*
X185008524Y-95856153D01*
X185008522Y-95856152D01*
X184887091Y-95810860D01*
X184887086Y-95810858D01*
X184879829Y-95808152D01*
X184872125Y-95807323D01*
X184872122Y-95807323D01*
X184822552Y-95801994D01*
X184822546Y-95801993D01*
X184819266Y-95801641D01*
X183021990Y-95801641D01*
X183018710Y-95801993D01*
X183018703Y-95801994D01*
X182969133Y-95807323D01*
X182969128Y-95807323D01*
X182961427Y-95808152D01*
X182954171Y-95810858D01*
X182954164Y-95810860D01*
X182832733Y-95856152D01*
X182832727Y-95856154D01*
X182824424Y-95859252D01*
X182817326Y-95864564D01*
X182817323Y-95864567D01*
X182714463Y-95941567D01*
X182714459Y-95941570D01*
X182707367Y-95946880D01*
X182702057Y-95953972D01*
X182702054Y-95953976D01*
X182625054Y-96056836D01*
X182625051Y-96056839D01*
X182619739Y-96063937D01*
X182616641Y-96072240D01*
X182616639Y-96072246D01*
X182571347Y-96193677D01*
X182571345Y-96193684D01*
X182568639Y-96200940D01*
X182567810Y-96208641D01*
X182567810Y-96208646D01*
X182563119Y-96252283D01*
X182562128Y-96261503D01*
X182562128Y-98058779D01*
X179166228Y-98058779D01*
X179167219Y-98049559D01*
X179167219Y-96252283D01*
X179160708Y-96191720D01*
X179109608Y-96054717D01*
X179021980Y-95937660D01*
X178985196Y-95910124D01*
X178912023Y-95855347D01*
X178912022Y-95855346D01*
X178904923Y-95850032D01*
X178896615Y-95846933D01*
X178896613Y-95846932D01*
X178775182Y-95801640D01*
X178775177Y-95801638D01*
X178767920Y-95798932D01*
X178760216Y-95798103D01*
X178760213Y-95798103D01*
X178710643Y-95792774D01*
X178710637Y-95792773D01*
X178707357Y-95792421D01*
X176910081Y-95792421D01*
X176906801Y-95792773D01*
X176906794Y-95792774D01*
X176857224Y-95798103D01*
X176857219Y-95798103D01*
X176849518Y-95798932D01*
X176842262Y-95801638D01*
X176842255Y-95801640D01*
X176720824Y-95846932D01*
X176720818Y-95846934D01*
X176712515Y-95850032D01*
X176705417Y-95855344D01*
X176705414Y-95855347D01*
X176602554Y-95932347D01*
X176602550Y-95932350D01*
X176595458Y-95937660D01*
X176590148Y-95944752D01*
X176590145Y-95944756D01*
X176513145Y-96047616D01*
X176513142Y-96047619D01*
X176507830Y-96054717D01*
X176504732Y-96063020D01*
X176504730Y-96063026D01*
X176459438Y-96184457D01*
X176459436Y-96184464D01*
X176456730Y-96191720D01*
X176455901Y-96199421D01*
X176455901Y-96199426D01*
X176452796Y-96228311D01*
X176450219Y-96252283D01*
X176450219Y-98049559D01*
X163322881Y-98049559D01*
X163325270Y-98027336D01*
X163325270Y-96230060D01*
X163318759Y-96169497D01*
X163267659Y-96032494D01*
X163180031Y-95915437D01*
X163133168Y-95880356D01*
X163070074Y-95833124D01*
X163070073Y-95833123D01*
X163062974Y-95827809D01*
X163054666Y-95824710D01*
X163054664Y-95824709D01*
X162933233Y-95779417D01*
X162933228Y-95779415D01*
X162925971Y-95776709D01*
X162918267Y-95775880D01*
X162918264Y-95775880D01*
X162868694Y-95770551D01*
X162868688Y-95770550D01*
X162865408Y-95770198D01*
X161068132Y-95770198D01*
X161064852Y-95770550D01*
X161064845Y-95770551D01*
X161015275Y-95775880D01*
X161015270Y-95775880D01*
X161007569Y-95776709D01*
X161000313Y-95779415D01*
X161000306Y-95779417D01*
X160878875Y-95824709D01*
X160878869Y-95824711D01*
X160870566Y-95827809D01*
X160863468Y-95833121D01*
X160863465Y-95833124D01*
X160760605Y-95910124D01*
X160760601Y-95910127D01*
X160753509Y-95915437D01*
X160748199Y-95922529D01*
X160748196Y-95922533D01*
X160671196Y-96025393D01*
X160671193Y-96025396D01*
X160665881Y-96032494D01*
X160662783Y-96040799D01*
X160662779Y-96040807D01*
X160620631Y-96153809D01*
X160584679Y-96205022D01*
X160528298Y-96232159D01*
X160465844Y-96228311D01*
X160413221Y-96194457D01*
X160410701Y-96191720D01*
X160350010Y-96125792D01*
X160270540Y-96063937D01*
X160176393Y-95990658D01*
X160176385Y-95990653D01*
X160172346Y-95987509D01*
X160167841Y-95985071D01*
X160167835Y-95985067D01*
X159978850Y-95882794D01*
X159978844Y-95882791D01*
X159974344Y-95880356D01*
X159969503Y-95878694D01*
X159969496Y-95878691D01*
X159766258Y-95808920D01*
X159766257Y-95808919D01*
X159761405Y-95807254D01*
X159756355Y-95806411D01*
X159756346Y-95806409D01*
X159544401Y-95771042D01*
X159544392Y-95771041D01*
X159539339Y-95770198D01*
X159314201Y-95770198D01*
X159309148Y-95771041D01*
X159309138Y-95771042D01*
X159097193Y-95806409D01*
X159097181Y-95806411D01*
X159092135Y-95807254D01*
X159087285Y-95808918D01*
X159087281Y-95808920D01*
X158884043Y-95878691D01*
X158884032Y-95878695D01*
X158879196Y-95880356D01*
X158874699Y-95882789D01*
X158874689Y-95882794D01*
X158685704Y-95985067D01*
X158685692Y-95985074D01*
X158681194Y-95987509D01*
X158677159Y-95990649D01*
X158677146Y-95990658D01*
X158507571Y-96122646D01*
X158507565Y-96122650D01*
X158503530Y-96125792D01*
X158500067Y-96129553D01*
X158500058Y-96129562D01*
X158354523Y-96287654D01*
X158354517Y-96287661D01*
X158351048Y-96291430D01*
X158348251Y-96295710D01*
X158348244Y-96295720D01*
X158260579Y-96429903D01*
X158215787Y-96471136D01*
X158156770Y-96486081D01*
X158097753Y-96471136D01*
X158052961Y-96429903D01*
X157965295Y-96295720D01*
X157965293Y-96295718D01*
X157962492Y-96291430D01*
X157931916Y-96258216D01*
X157813481Y-96129562D01*
X157813478Y-96129559D01*
X157810010Y-96125792D01*
X157730540Y-96063937D01*
X157636393Y-95990658D01*
X157636385Y-95990653D01*
X157632346Y-95987509D01*
X157627841Y-95985071D01*
X157627835Y-95985067D01*
X157438850Y-95882794D01*
X157438844Y-95882791D01*
X157434344Y-95880356D01*
X157429503Y-95878694D01*
X157429496Y-95878691D01*
X157226258Y-95808920D01*
X157226257Y-95808919D01*
X157221405Y-95807254D01*
X157216355Y-95806411D01*
X157216346Y-95806409D01*
X157004401Y-95771042D01*
X157004392Y-95771041D01*
X156999339Y-95770198D01*
X156774201Y-95770198D01*
X156769148Y-95771041D01*
X156769138Y-95771042D01*
X156557193Y-95806409D01*
X156557181Y-95806411D01*
X156552135Y-95807254D01*
X156547285Y-95808918D01*
X156547281Y-95808920D01*
X156344043Y-95878691D01*
X156344032Y-95878695D01*
X156339196Y-95880356D01*
X156334699Y-95882789D01*
X156334689Y-95882794D01*
X156145704Y-95985067D01*
X156145692Y-95985074D01*
X156141194Y-95987509D01*
X156137159Y-95990649D01*
X156137146Y-95990658D01*
X155967571Y-96122646D01*
X155967565Y-96122650D01*
X155963530Y-96125792D01*
X155960067Y-96129553D01*
X155960058Y-96129562D01*
X155814523Y-96287654D01*
X155814517Y-96287661D01*
X155811048Y-96291430D01*
X155808251Y-96295710D01*
X155808244Y-96295720D01*
X155720579Y-96429903D01*
X155675787Y-96471136D01*
X155616770Y-96486081D01*
X155557753Y-96471136D01*
X155512961Y-96429903D01*
X155425295Y-96295720D01*
X155425293Y-96295718D01*
X155422492Y-96291430D01*
X155391916Y-96258216D01*
X155273481Y-96129562D01*
X155273478Y-96129559D01*
X155270010Y-96125792D01*
X155190540Y-96063937D01*
X155096393Y-95990658D01*
X155096385Y-95990653D01*
X155092346Y-95987509D01*
X155087841Y-95985071D01*
X155087835Y-95985067D01*
X154898850Y-95882794D01*
X154898844Y-95882791D01*
X154894344Y-95880356D01*
X154889503Y-95878694D01*
X154889496Y-95878691D01*
X154686258Y-95808920D01*
X154686257Y-95808919D01*
X154681405Y-95807254D01*
X154676355Y-95806411D01*
X154676346Y-95806409D01*
X154464401Y-95771042D01*
X154464392Y-95771041D01*
X154459339Y-95770198D01*
X154234201Y-95770198D01*
X154229148Y-95771041D01*
X154229138Y-95771042D01*
X154017193Y-95806409D01*
X154017181Y-95806411D01*
X154012135Y-95807254D01*
X154007285Y-95808918D01*
X154007281Y-95808920D01*
X153804043Y-95878691D01*
X153804032Y-95878695D01*
X153799196Y-95880356D01*
X153794699Y-95882789D01*
X153794689Y-95882794D01*
X153605704Y-95985067D01*
X153605692Y-95985074D01*
X153601194Y-95987509D01*
X153597159Y-95990649D01*
X153597146Y-95990658D01*
X153427571Y-96122646D01*
X153427565Y-96122650D01*
X153423530Y-96125792D01*
X153420067Y-96129553D01*
X153420058Y-96129562D01*
X153274523Y-96287654D01*
X153274517Y-96287661D01*
X153271048Y-96291430D01*
X153268251Y-96295710D01*
X153268244Y-96295720D01*
X153180579Y-96429903D01*
X153135787Y-96471136D01*
X153076770Y-96486081D01*
X153017753Y-96471136D01*
X152972961Y-96429903D01*
X152885295Y-96295720D01*
X152885293Y-96295718D01*
X152882492Y-96291430D01*
X152851916Y-96258216D01*
X152733481Y-96129562D01*
X152733478Y-96129559D01*
X152730010Y-96125792D01*
X152650540Y-96063937D01*
X152556393Y-95990658D01*
X152556385Y-95990653D01*
X152552346Y-95987509D01*
X152547841Y-95985071D01*
X152547835Y-95985067D01*
X152358850Y-95882794D01*
X152358844Y-95882791D01*
X152354344Y-95880356D01*
X152349503Y-95878694D01*
X152349496Y-95878691D01*
X152146258Y-95808920D01*
X152146257Y-95808919D01*
X152141405Y-95807254D01*
X152136355Y-95806411D01*
X152136346Y-95806409D01*
X151924401Y-95771042D01*
X151924392Y-95771041D01*
X151919339Y-95770198D01*
X151694201Y-95770198D01*
X151689148Y-95771041D01*
X151689138Y-95771042D01*
X151477193Y-95806409D01*
X151477181Y-95806411D01*
X151472135Y-95807254D01*
X151467285Y-95808918D01*
X151467281Y-95808920D01*
X151264043Y-95878691D01*
X151264032Y-95878695D01*
X151259196Y-95880356D01*
X151254699Y-95882789D01*
X151254689Y-95882794D01*
X151065704Y-95985067D01*
X151065692Y-95985074D01*
X151061194Y-95987509D01*
X151057159Y-95990649D01*
X151057146Y-95990658D01*
X150887571Y-96122646D01*
X150887565Y-96122650D01*
X150883530Y-96125792D01*
X150880067Y-96129553D01*
X150880058Y-96129562D01*
X150734523Y-96287654D01*
X150734517Y-96287661D01*
X150731048Y-96291430D01*
X150728251Y-96295710D01*
X150728244Y-96295720D01*
X150640579Y-96429903D01*
X150595787Y-96471136D01*
X150536770Y-96486081D01*
X150477753Y-96471136D01*
X150432961Y-96429903D01*
X150345295Y-96295720D01*
X150345293Y-96295718D01*
X150342492Y-96291430D01*
X150311916Y-96258216D01*
X150193481Y-96129562D01*
X150193478Y-96129559D01*
X150190010Y-96125792D01*
X150110540Y-96063937D01*
X150016393Y-95990658D01*
X150016385Y-95990653D01*
X150012346Y-95987509D01*
X150007841Y-95985071D01*
X150007835Y-95985067D01*
X149818850Y-95882794D01*
X149818844Y-95882791D01*
X149814344Y-95880356D01*
X149809503Y-95878694D01*
X149809496Y-95878691D01*
X149606258Y-95808920D01*
X149606257Y-95808919D01*
X149601405Y-95807254D01*
X149596355Y-95806411D01*
X149596346Y-95806409D01*
X149384401Y-95771042D01*
X149384392Y-95771041D01*
X149379339Y-95770198D01*
X149154201Y-95770198D01*
X149149148Y-95771041D01*
X149149138Y-95771042D01*
X148937193Y-95806409D01*
X148937181Y-95806411D01*
X148932135Y-95807254D01*
X148927285Y-95808918D01*
X148927281Y-95808920D01*
X148724043Y-95878691D01*
X148724032Y-95878695D01*
X148719196Y-95880356D01*
X148714699Y-95882789D01*
X148714689Y-95882794D01*
X148525704Y-95985067D01*
X148525692Y-95985074D01*
X148521194Y-95987509D01*
X148517159Y-95990649D01*
X148517146Y-95990658D01*
X148347571Y-96122646D01*
X148347565Y-96122650D01*
X148343530Y-96125792D01*
X148340067Y-96129553D01*
X148340058Y-96129562D01*
X148194523Y-96287654D01*
X148194517Y-96287661D01*
X148191048Y-96291430D01*
X148188251Y-96295710D01*
X148188244Y-96295720D01*
X148073640Y-96471136D01*
X148067910Y-96479907D01*
X148065855Y-96484590D01*
X148065850Y-96484601D01*
X147996770Y-96642091D01*
X147977474Y-96686082D01*
X147976216Y-96691047D01*
X147976215Y-96691052D01*
X147923465Y-96899355D01*
X147923463Y-96899364D01*
X147922206Y-96904330D01*
X147921782Y-96909439D01*
X147921781Y-96909449D01*
X147904038Y-97123581D01*
X147903614Y-97128698D01*
X147310720Y-97128698D01*
X147298267Y-94536872D01*
X151764518Y-94536872D01*
X151765197Y-94543332D01*
X151783800Y-94720339D01*
X151783801Y-94720347D01*
X151784480Y-94726800D01*
X151786485Y-94732972D01*
X151786487Y-94732979D01*
X151841487Y-94902249D01*
X151843495Y-94908428D01*
X151938982Y-95073816D01*
X152066769Y-95215738D01*
X152072019Y-95219552D01*
X152072022Y-95219555D01*
X152214885Y-95323351D01*
X152221270Y-95327990D01*
X152395734Y-95405666D01*
X152402092Y-95407017D01*
X152402094Y-95407018D01*
X152438896Y-95414840D01*
X152582535Y-95445372D01*
X152767006Y-95445372D01*
X152773509Y-95445372D01*
X152960310Y-95405666D01*
X153134774Y-95327990D01*
X153289275Y-95215738D01*
X153417062Y-95073816D01*
X153512549Y-94908428D01*
X153571564Y-94726800D01*
X153591526Y-94536872D01*
X153571564Y-94346944D01*
X153512549Y-94165316D01*
X153417062Y-93999928D01*
X153289275Y-93858006D01*
X153284025Y-93854191D01*
X153284021Y-93854188D01*
X153140028Y-93749571D01*
X153140026Y-93749569D01*
X153134774Y-93745754D01*
X153128843Y-93743113D01*
X153128839Y-93743111D01*
X152966248Y-93670721D01*
X152966241Y-93670718D01*
X152960310Y-93668078D01*
X152953957Y-93666727D01*
X152953949Y-93666725D01*
X152779871Y-93629724D01*
X152779868Y-93629723D01*
X152773509Y-93628372D01*
X152582535Y-93628372D01*
X152576176Y-93629723D01*
X152576172Y-93629724D01*
X152402094Y-93666725D01*
X152402083Y-93666728D01*
X152395734Y-93668078D01*
X152389804Y-93670717D01*
X152389795Y-93670721D01*
X152227204Y-93743111D01*
X152227196Y-93743115D01*
X152221270Y-93745754D01*
X152216021Y-93749567D01*
X152216015Y-93749571D01*
X152072022Y-93854188D01*
X152072013Y-93854195D01*
X152066769Y-93858006D01*
X152062425Y-93862829D01*
X152062422Y-93862833D01*
X152053847Y-93872357D01*
X151938982Y-93999928D01*
X151935736Y-94005548D01*
X151935733Y-94005554D01*
X151846743Y-94159689D01*
X151846740Y-94159694D01*
X151843495Y-94165316D01*
X151841489Y-94171488D01*
X151841487Y-94171494D01*
X151786487Y-94340764D01*
X151786485Y-94340773D01*
X151784480Y-94346944D01*
X151783802Y-94353394D01*
X151783800Y-94353404D01*
X151772224Y-94463550D01*
X151764518Y-94536872D01*
X147298267Y-94536872D01*
X147287122Y-92217192D01*
X148295809Y-92217192D01*
X148300873Y-92224772D01*
X148508092Y-92351756D01*
X148516755Y-92356170D01*
X148744061Y-92450323D01*
X148753298Y-92453325D01*
X148992541Y-92510762D01*
X149002126Y-92512280D01*
X149247413Y-92531585D01*
X149257121Y-92531585D01*
X149502407Y-92512280D01*
X149511992Y-92510762D01*
X149751235Y-92453325D01*
X149760472Y-92450323D01*
X149987778Y-92356170D01*
X149996441Y-92351756D01*
X150159780Y-92251662D01*
X151695709Y-92251662D01*
X151696388Y-92258122D01*
X151714991Y-92435129D01*
X151714992Y-92435137D01*
X151715671Y-92441590D01*
X151717676Y-92447762D01*
X151717678Y-92447769D01*
X151772678Y-92617039D01*
X151774686Y-92623218D01*
X151777933Y-92628842D01*
X151777934Y-92628844D01*
X151866367Y-92782015D01*
X151870173Y-92788606D01*
X151997960Y-92930528D01*
X152003210Y-92934342D01*
X152003213Y-92934345D01*
X152100552Y-93005066D01*
X152152461Y-93042780D01*
X152326925Y-93120456D01*
X152333283Y-93121807D01*
X152333285Y-93121808D01*
X152370087Y-93129630D01*
X152513726Y-93160162D01*
X152698197Y-93160162D01*
X152704700Y-93160162D01*
X152891501Y-93120456D01*
X153065965Y-93042780D01*
X153220466Y-92930528D01*
X153348253Y-92788606D01*
X153443740Y-92623218D01*
X153502755Y-92441590D01*
X153522717Y-92251662D01*
X153502755Y-92061734D01*
X153443740Y-91880106D01*
X153348253Y-91714718D01*
X153220466Y-91572796D01*
X153215216Y-91568981D01*
X153215212Y-91568978D01*
X153071219Y-91464361D01*
X153071217Y-91464359D01*
X153065965Y-91460544D01*
X153060034Y-91457903D01*
X153060030Y-91457901D01*
X152897439Y-91385511D01*
X152897432Y-91385508D01*
X152891501Y-91382868D01*
X152885148Y-91381517D01*
X152885140Y-91381515D01*
X152711062Y-91344514D01*
X152711059Y-91344513D01*
X152704700Y-91343162D01*
X152513726Y-91343162D01*
X152507367Y-91344513D01*
X152507363Y-91344514D01*
X152333285Y-91381515D01*
X152333274Y-91381518D01*
X152326925Y-91382868D01*
X152320995Y-91385507D01*
X152320986Y-91385511D01*
X152158395Y-91457901D01*
X152158387Y-91457905D01*
X152152461Y-91460544D01*
X152147212Y-91464357D01*
X152147206Y-91464361D01*
X152003213Y-91568978D01*
X152003204Y-91568985D01*
X151997960Y-91572796D01*
X151993616Y-91577619D01*
X151993613Y-91577623D01*
X151912698Y-91667489D01*
X151870173Y-91714718D01*
X151866927Y-91720338D01*
X151866924Y-91720344D01*
X151777934Y-91874479D01*
X151777931Y-91874484D01*
X151774686Y-91880106D01*
X151772680Y-91886278D01*
X151772678Y-91886284D01*
X151717678Y-92055554D01*
X151717676Y-92055563D01*
X151715671Y-92061734D01*
X151714993Y-92068184D01*
X151714991Y-92068194D01*
X151707091Y-92143366D01*
X151695709Y-92251662D01*
X150159780Y-92251662D01*
X150203664Y-92224770D01*
X150208724Y-92217194D01*
X150202051Y-92205279D01*
X149263809Y-91267037D01*
X149252266Y-91260373D01*
X149240724Y-91267037D01*
X148302480Y-92205280D01*
X148295809Y-92217192D01*
X147287122Y-92217192D01*
X147280826Y-90906796D01*
X147622624Y-90906796D01*
X147641928Y-91152082D01*
X147643446Y-91161667D01*
X147700883Y-91400910D01*
X147703885Y-91410147D01*
X147798038Y-91637453D01*
X147802452Y-91646116D01*
X147929435Y-91853334D01*
X147937014Y-91858398D01*
X147948930Y-91851724D01*
X148887171Y-90913484D01*
X148893835Y-90901942D01*
X149610698Y-90901942D01*
X149617362Y-90913484D01*
X150555604Y-91851726D01*
X150567519Y-91858399D01*
X150575095Y-91853339D01*
X150702081Y-91646116D01*
X150706495Y-91637453D01*
X150800648Y-91410147D01*
X150803650Y-91400910D01*
X150861087Y-91161667D01*
X150862605Y-91152082D01*
X150881910Y-90906796D01*
X150881910Y-90897088D01*
X150862605Y-90651801D01*
X150861087Y-90642216D01*
X150803650Y-90402973D01*
X150800648Y-90393736D01*
X150706495Y-90166430D01*
X150702081Y-90157767D01*
X150575097Y-89950548D01*
X150567517Y-89945484D01*
X150555605Y-89952155D01*
X149617362Y-90890399D01*
X149610698Y-90901942D01*
X148893835Y-90901942D01*
X148887171Y-90890399D01*
X147948929Y-89952157D01*
X147937014Y-89945485D01*
X147929434Y-89950550D01*
X147802452Y-90157767D01*
X147798038Y-90166430D01*
X147703885Y-90393736D01*
X147700883Y-90402973D01*
X147643446Y-90642216D01*
X147641928Y-90651801D01*
X147622624Y-90897088D01*
X147622624Y-90906796D01*
X147280826Y-90906796D01*
X147274483Y-89586689D01*
X148295810Y-89586689D01*
X148302482Y-89598604D01*
X149240724Y-90536846D01*
X149252267Y-90543510D01*
X149263809Y-90536846D01*
X150202049Y-89598605D01*
X150208723Y-89586689D01*
X150203659Y-89579110D01*
X149996441Y-89452127D01*
X149987778Y-89447713D01*
X149760472Y-89353560D01*
X149751235Y-89350558D01*
X149511992Y-89293121D01*
X149502407Y-89291603D01*
X149257121Y-89272299D01*
X149247413Y-89272299D01*
X149002126Y-89291603D01*
X148992541Y-89293121D01*
X148753298Y-89350558D01*
X148744061Y-89353560D01*
X148516755Y-89447713D01*
X148508092Y-89452127D01*
X148300875Y-89579109D01*
X148295810Y-89586689D01*
X147274483Y-89586689D01*
X147272516Y-89177249D01*
X158303247Y-89177249D01*
X158303926Y-89183709D01*
X158322529Y-89360716D01*
X158322530Y-89360724D01*
X158323209Y-89367177D01*
X158325214Y-89373349D01*
X158325216Y-89373356D01*
X158380216Y-89542626D01*
X158382224Y-89548805D01*
X158385471Y-89554429D01*
X158385472Y-89554431D01*
X158471061Y-89702676D01*
X158477711Y-89714193D01*
X158605498Y-89856115D01*
X158610748Y-89859929D01*
X158610751Y-89859932D01*
X158759999Y-89968367D01*
X158758989Y-89969756D01*
X158785263Y-89992576D01*
X158806766Y-90034750D01*
X158810897Y-90081909D01*
X158810175Y-90088781D01*
X158810175Y-90088786D01*
X158809496Y-90095247D01*
X158810175Y-90101707D01*
X158828778Y-90278714D01*
X158828779Y-90278722D01*
X158829458Y-90285175D01*
X158831463Y-90291347D01*
X158831465Y-90291354D01*
X158879181Y-90438206D01*
X158888473Y-90466803D01*
X158891720Y-90472427D01*
X158891721Y-90472429D01*
X158947256Y-90568619D01*
X158963869Y-90630619D01*
X158947256Y-90692618D01*
X158908938Y-90758989D01*
X158906932Y-90765161D01*
X158906930Y-90765167D01*
X158851930Y-90934437D01*
X158851928Y-90934446D01*
X158849923Y-90940617D01*
X158849245Y-90947067D01*
X158849243Y-90947077D01*
X158840330Y-91031889D01*
X158829961Y-91130545D01*
X158830640Y-91137005D01*
X158849243Y-91314012D01*
X158849244Y-91314020D01*
X158849923Y-91320473D01*
X158851928Y-91326645D01*
X158851930Y-91326652D01*
X158905074Y-91490209D01*
X158908938Y-91502101D01*
X158912185Y-91507725D01*
X158912186Y-91507727D01*
X158987083Y-91637453D01*
X159004425Y-91667489D01*
X159132212Y-91809411D01*
X159137462Y-91813225D01*
X159137465Y-91813228D01*
X159256208Y-91899500D01*
X159286713Y-91921663D01*
X159292646Y-91924304D01*
X159292647Y-91924305D01*
X159436281Y-91988255D01*
X159461177Y-91999339D01*
X159467535Y-92000690D01*
X159467537Y-92000691D01*
X159488473Y-92005141D01*
X159629131Y-92035038D01*
X159676233Y-92056010D01*
X159710735Y-92094328D01*
X159726669Y-92143366D01*
X159739948Y-92269704D01*
X159745367Y-92321263D01*
X159747372Y-92327435D01*
X159747374Y-92327442D01*
X159800358Y-92490507D01*
X159804382Y-92502891D01*
X159807629Y-92508515D01*
X159807630Y-92508517D01*
X159871549Y-92619228D01*
X159887992Y-92674737D01*
X159877443Y-92731661D01*
X159842201Y-92777591D01*
X159789949Y-92802517D01*
X159773078Y-92806103D01*
X159773069Y-92806105D01*
X159766717Y-92807456D01*
X159760787Y-92810095D01*
X159760778Y-92810099D01*
X159598187Y-92882489D01*
X159598179Y-92882493D01*
X159592253Y-92885132D01*
X159587004Y-92888945D01*
X159586998Y-92888949D01*
X159443005Y-92993566D01*
X159442996Y-92993573D01*
X159437752Y-92997384D01*
X159433408Y-93002207D01*
X159433405Y-93002211D01*
X159314312Y-93134478D01*
X159309965Y-93139306D01*
X159306719Y-93144926D01*
X159306716Y-93144932D01*
X159217726Y-93299067D01*
X159217723Y-93299072D01*
X159214478Y-93304694D01*
X159212472Y-93310866D01*
X159212470Y-93310872D01*
X159157470Y-93480142D01*
X159157468Y-93480151D01*
X159155463Y-93486322D01*
X159154785Y-93492772D01*
X159154783Y-93492782D01*
X159146183Y-93574613D01*
X159135501Y-93676250D01*
X159136180Y-93682710D01*
X159154783Y-93859717D01*
X159154784Y-93859725D01*
X159155463Y-93866178D01*
X159157468Y-93872350D01*
X159157470Y-93872357D01*
X159198921Y-93999928D01*
X159214478Y-94047806D01*
X159217725Y-94053430D01*
X159217726Y-94053432D01*
X159282322Y-94165316D01*
X159309965Y-94213194D01*
X159437752Y-94355116D01*
X159443002Y-94358930D01*
X159443005Y-94358933D01*
X159585868Y-94462729D01*
X159592253Y-94467368D01*
X159598186Y-94470009D01*
X159598187Y-94470010D01*
X159733852Y-94530412D01*
X159766717Y-94545044D01*
X159773075Y-94546395D01*
X159773077Y-94546396D01*
X159809879Y-94554218D01*
X159953518Y-94584750D01*
X160137989Y-94584750D01*
X160144492Y-94584750D01*
X160331293Y-94545044D01*
X160505757Y-94467368D01*
X160660258Y-94355116D01*
X160788045Y-94213194D01*
X160883532Y-94047806D01*
X160942547Y-93866178D01*
X160962509Y-93676250D01*
X160942547Y-93486322D01*
X160883532Y-93304694D01*
X160816363Y-93188355D01*
X160799921Y-93132846D01*
X160810471Y-93075921D01*
X160845715Y-93029990D01*
X160897970Y-93005066D01*
X160921197Y-93000129D01*
X161055320Y-92940413D01*
X161123012Y-92930900D01*
X161185460Y-92958703D01*
X161223685Y-93015373D01*
X161230930Y-93037669D01*
X161234177Y-93043293D01*
X161234178Y-93043295D01*
X161308500Y-93172025D01*
X161326417Y-93203057D01*
X161454204Y-93344979D01*
X161459454Y-93348793D01*
X161459457Y-93348796D01*
X161602320Y-93452592D01*
X161608705Y-93457231D01*
X161783169Y-93534907D01*
X161789527Y-93536258D01*
X161789529Y-93536259D01*
X161826331Y-93544081D01*
X161969970Y-93574613D01*
X162154441Y-93574613D01*
X162160944Y-93574613D01*
X162347745Y-93534907D01*
X162522209Y-93457231D01*
X162676710Y-93344979D01*
X162804497Y-93203057D01*
X162899984Y-93037669D01*
X162958999Y-92856041D01*
X162978961Y-92666113D01*
X162958999Y-92476185D01*
X162899984Y-92294557D01*
X162804497Y-92129169D01*
X162698638Y-92011601D01*
X163755356Y-92011601D01*
X163756035Y-92018061D01*
X163774638Y-92195068D01*
X163774639Y-92195076D01*
X163775318Y-92201529D01*
X163777323Y-92207701D01*
X163777325Y-92207708D01*
X163828846Y-92366271D01*
X163834333Y-92383157D01*
X163837580Y-92388781D01*
X163837581Y-92388783D01*
X163922857Y-92536486D01*
X163929820Y-92548545D01*
X164057607Y-92690467D01*
X164062857Y-92694281D01*
X164062860Y-92694284D01*
X164192503Y-92788475D01*
X164212108Y-92802719D01*
X164218041Y-92805360D01*
X164218042Y-92805361D01*
X164342706Y-92860865D01*
X164386572Y-92880395D01*
X164392930Y-92881746D01*
X164392932Y-92881747D01*
X164426815Y-92888949D01*
X164573373Y-92920101D01*
X164757844Y-92920101D01*
X164764347Y-92920101D01*
X164951148Y-92880395D01*
X165125612Y-92802719D01*
X165280113Y-92690467D01*
X165407900Y-92548545D01*
X165414981Y-92536279D01*
X165454830Y-92494283D01*
X165509404Y-92474955D01*
X165566806Y-92482510D01*
X165614520Y-92515303D01*
X165644689Y-92548809D01*
X165719981Y-92632429D01*
X165725231Y-92636243D01*
X165725234Y-92636246D01*
X165856562Y-92731661D01*
X165874482Y-92744681D01*
X165880415Y-92747322D01*
X165880416Y-92747323D01*
X166038964Y-92817913D01*
X166048946Y-92822357D01*
X166055304Y-92823708D01*
X166055306Y-92823709D01*
X166092108Y-92831531D01*
X166235747Y-92862063D01*
X166420218Y-92862063D01*
X166426721Y-92862063D01*
X166613522Y-92822357D01*
X166787986Y-92744681D01*
X166942487Y-92632429D01*
X166985160Y-92585035D01*
X167043126Y-92548813D01*
X167111481Y-92548809D01*
X167163598Y-92581370D01*
X167164422Y-92580456D01*
X167169251Y-92584804D01*
X167173598Y-92589632D01*
X167178848Y-92593446D01*
X167178851Y-92593449D01*
X167294397Y-92677398D01*
X167328099Y-92701884D01*
X167334032Y-92704525D01*
X167334033Y-92704526D01*
X167415647Y-92740863D01*
X167502563Y-92779560D01*
X167508921Y-92780911D01*
X167508923Y-92780912D01*
X167518648Y-92782979D01*
X167689364Y-92819266D01*
X167873835Y-92819266D01*
X167880338Y-92819266D01*
X167939701Y-92806648D01*
X173121584Y-92806648D01*
X173122263Y-92813108D01*
X173140866Y-92990115D01*
X173140867Y-92990123D01*
X173141546Y-92996576D01*
X173143551Y-93002748D01*
X173143553Y-93002755D01*
X173198553Y-93172025D01*
X173200561Y-93178204D01*
X173296048Y-93343592D01*
X173423835Y-93485514D01*
X173429085Y-93489328D01*
X173429088Y-93489331D01*
X173546469Y-93574613D01*
X173578336Y-93597766D01*
X173584269Y-93600407D01*
X173584270Y-93600408D01*
X173647078Y-93628372D01*
X173752800Y-93675442D01*
X173759158Y-93676793D01*
X173759160Y-93676794D01*
X173786993Y-93682710D01*
X173939601Y-93715148D01*
X174124072Y-93715148D01*
X174130575Y-93715148D01*
X174317376Y-93675442D01*
X174491840Y-93597766D01*
X174646341Y-93485514D01*
X174774128Y-93343592D01*
X174869615Y-93178204D01*
X174928630Y-92996576D01*
X174948592Y-92806648D01*
X174928630Y-92616720D01*
X174869615Y-92435092D01*
X174774128Y-92269704D01*
X174646341Y-92127782D01*
X174641091Y-92123967D01*
X174641087Y-92123964D01*
X174497094Y-92019347D01*
X174497092Y-92019345D01*
X174491840Y-92015530D01*
X174485909Y-92012889D01*
X174485905Y-92012887D01*
X174445090Y-91994715D01*
X180591551Y-91994715D01*
X180592230Y-92001175D01*
X180610833Y-92178182D01*
X180610834Y-92178190D01*
X180611513Y-92184643D01*
X180613518Y-92190815D01*
X180613520Y-92190822D01*
X180666353Y-92353422D01*
X180670528Y-92366271D01*
X180673775Y-92371895D01*
X180673776Y-92371897D01*
X180754826Y-92512280D01*
X180766015Y-92531659D01*
X180893802Y-92673581D01*
X180899052Y-92677395D01*
X180899055Y-92677398D01*
X180936394Y-92704526D01*
X181048303Y-92785833D01*
X181054236Y-92788474D01*
X181054237Y-92788475D01*
X181205993Y-92856041D01*
X181222767Y-92863509D01*
X181229125Y-92864860D01*
X181229127Y-92864861D01*
X181265929Y-92872683D01*
X181409568Y-92903215D01*
X181594039Y-92903215D01*
X181600542Y-92903215D01*
X181787343Y-92863509D01*
X181961807Y-92785833D01*
X182116308Y-92673581D01*
X182244095Y-92531659D01*
X182339582Y-92366271D01*
X182398597Y-92184643D01*
X182418559Y-91994715D01*
X182402186Y-91838934D01*
X194613542Y-91838934D01*
X194618606Y-91846514D01*
X194825825Y-91973498D01*
X194834488Y-91977912D01*
X195061794Y-92072065D01*
X195071031Y-92075067D01*
X195310274Y-92132504D01*
X195319859Y-92134022D01*
X195565146Y-92153327D01*
X195574854Y-92153327D01*
X195820140Y-92134022D01*
X195829725Y-92132504D01*
X196068968Y-92075067D01*
X196078205Y-92072065D01*
X196305511Y-91977912D01*
X196314174Y-91973498D01*
X196521397Y-91846512D01*
X196526457Y-91838936D01*
X196519784Y-91827021D01*
X195581542Y-90888779D01*
X195570000Y-90882115D01*
X195558457Y-90888779D01*
X194620213Y-91827022D01*
X194613542Y-91838934D01*
X182402186Y-91838934D01*
X182398597Y-91804787D01*
X182339582Y-91623159D01*
X182244095Y-91457771D01*
X182116308Y-91315849D01*
X182111058Y-91312034D01*
X182111054Y-91312031D01*
X181967061Y-91207414D01*
X181967059Y-91207412D01*
X181961807Y-91203597D01*
X181955876Y-91200956D01*
X181955872Y-91200954D01*
X181793281Y-91128564D01*
X181793274Y-91128561D01*
X181787343Y-91125921D01*
X181780984Y-91124569D01*
X181780983Y-91124569D01*
X181696541Y-91106620D01*
X181637439Y-91075722D01*
X181602891Y-91018675D01*
X181602891Y-90951983D01*
X181637440Y-90894938D01*
X181696540Y-90864040D01*
X181824016Y-90836945D01*
X181998480Y-90759269D01*
X182152981Y-90647017D01*
X182280768Y-90505095D01*
X182376255Y-90339707D01*
X182435270Y-90158079D01*
X182444230Y-90072829D01*
X187536264Y-90072829D01*
X187536943Y-90079289D01*
X187555546Y-90256296D01*
X187555547Y-90256304D01*
X187556226Y-90262757D01*
X187558231Y-90268929D01*
X187558233Y-90268936D01*
X187613233Y-90438206D01*
X187615241Y-90444385D01*
X187618488Y-90450009D01*
X187618489Y-90450011D01*
X187706840Y-90603040D01*
X187710728Y-90609773D01*
X187838515Y-90751695D01*
X187843765Y-90755509D01*
X187843768Y-90755512D01*
X187957712Y-90838297D01*
X187993016Y-90863947D01*
X187998949Y-90866588D01*
X187998950Y-90866589D01*
X188151339Y-90934437D01*
X188167480Y-90941623D01*
X188173838Y-90942974D01*
X188173840Y-90942975D01*
X188193139Y-90947077D01*
X188354281Y-90981329D01*
X188538752Y-90981329D01*
X188545255Y-90981329D01*
X188732056Y-90941623D01*
X188906520Y-90863947D01*
X189061021Y-90751695D01*
X189188808Y-90609773D01*
X189235709Y-90528538D01*
X193940357Y-90528538D01*
X193959661Y-90773824D01*
X193961179Y-90783409D01*
X194018616Y-91022652D01*
X194021618Y-91031889D01*
X194115771Y-91259195D01*
X194120185Y-91267858D01*
X194247168Y-91475076D01*
X194254747Y-91480140D01*
X194266663Y-91473466D01*
X195204904Y-90535226D01*
X195211568Y-90523684D01*
X195928431Y-90523684D01*
X195935095Y-90535226D01*
X196873337Y-91473468D01*
X196885252Y-91480141D01*
X196892828Y-91475081D01*
X197019814Y-91267858D01*
X197024228Y-91259195D01*
X197118381Y-91031889D01*
X197121383Y-91022652D01*
X197178820Y-90783409D01*
X197180338Y-90773824D01*
X197199643Y-90528538D01*
X199040357Y-90528538D01*
X199059661Y-90773824D01*
X199061179Y-90783409D01*
X199118616Y-91022652D01*
X199121618Y-91031889D01*
X199215771Y-91259195D01*
X199220185Y-91267858D01*
X199347168Y-91475076D01*
X199354747Y-91480140D01*
X199366663Y-91473466D01*
X200304904Y-90535226D01*
X200311568Y-90523684D01*
X200304904Y-90512141D01*
X199366662Y-89573899D01*
X199354747Y-89567227D01*
X199347167Y-89572292D01*
X199220185Y-89779509D01*
X199215771Y-89788172D01*
X199121618Y-90015478D01*
X199118616Y-90024715D01*
X199061179Y-90263958D01*
X199059661Y-90273543D01*
X199040357Y-90518830D01*
X199040357Y-90528538D01*
X197199643Y-90528538D01*
X197199643Y-90518830D01*
X197180338Y-90273543D01*
X197178820Y-90263958D01*
X197121383Y-90024715D01*
X197118381Y-90015478D01*
X197024228Y-89788172D01*
X197019814Y-89779509D01*
X196892830Y-89572290D01*
X196885250Y-89567226D01*
X196873338Y-89573897D01*
X195935095Y-90512141D01*
X195928431Y-90523684D01*
X195211568Y-90523684D01*
X195204904Y-90512141D01*
X194266662Y-89573899D01*
X194254747Y-89567227D01*
X194247167Y-89572292D01*
X194120185Y-89779509D01*
X194115771Y-89788172D01*
X194021618Y-90015478D01*
X194018616Y-90024715D01*
X193961179Y-90263958D01*
X193959661Y-90273543D01*
X193940357Y-90518830D01*
X193940357Y-90528538D01*
X189235709Y-90528538D01*
X189284295Y-90444385D01*
X189343310Y-90262757D01*
X189363272Y-90072829D01*
X189346345Y-89911779D01*
X189343989Y-89889361D01*
X189343988Y-89889360D01*
X189343310Y-89882901D01*
X189284295Y-89701273D01*
X189188808Y-89535885D01*
X189061021Y-89393963D01*
X189055771Y-89390148D01*
X189055767Y-89390145D01*
X188911774Y-89285528D01*
X188911772Y-89285526D01*
X188906520Y-89281711D01*
X188900589Y-89279070D01*
X188900585Y-89279068D01*
X188741931Y-89208431D01*
X194613543Y-89208431D01*
X194620215Y-89220346D01*
X195558457Y-90158588D01*
X195570000Y-90165252D01*
X195581542Y-90158588D01*
X196519782Y-89220347D01*
X196526456Y-89208431D01*
X196521392Y-89200852D01*
X196314174Y-89073869D01*
X196305511Y-89069455D01*
X196078205Y-88975302D01*
X196068968Y-88972300D01*
X195829725Y-88914863D01*
X195820140Y-88913345D01*
X195574854Y-88894041D01*
X195565146Y-88894041D01*
X195319859Y-88913345D01*
X195310274Y-88914863D01*
X195071031Y-88972300D01*
X195061794Y-88975302D01*
X194834488Y-89069455D01*
X194825825Y-89073869D01*
X194618608Y-89200851D01*
X194613543Y-89208431D01*
X188741931Y-89208431D01*
X188737994Y-89206678D01*
X188737987Y-89206675D01*
X188732056Y-89204035D01*
X188725703Y-89202684D01*
X188725695Y-89202682D01*
X188551617Y-89165681D01*
X188551614Y-89165680D01*
X188545255Y-89164329D01*
X188354281Y-89164329D01*
X188347922Y-89165680D01*
X188347918Y-89165681D01*
X188173840Y-89202682D01*
X188173829Y-89202685D01*
X188167480Y-89204035D01*
X188161550Y-89206674D01*
X188161541Y-89206678D01*
X187998950Y-89279068D01*
X187998942Y-89279072D01*
X187993016Y-89281711D01*
X187987767Y-89285524D01*
X187987761Y-89285528D01*
X187843768Y-89390145D01*
X187843759Y-89390152D01*
X187838515Y-89393963D01*
X187834171Y-89398786D01*
X187834168Y-89398790D01*
X187749266Y-89493084D01*
X187710728Y-89535885D01*
X187707482Y-89541505D01*
X187707479Y-89541511D01*
X187618489Y-89695646D01*
X187618486Y-89695651D01*
X187615241Y-89701273D01*
X187613235Y-89707445D01*
X187613233Y-89707451D01*
X187558233Y-89876721D01*
X187558231Y-89876730D01*
X187556226Y-89882901D01*
X187555548Y-89889351D01*
X187555546Y-89889361D01*
X187541321Y-90024715D01*
X187536264Y-90072829D01*
X182444230Y-90072829D01*
X182455232Y-89968151D01*
X182435270Y-89778223D01*
X182376255Y-89596595D01*
X182280768Y-89431207D01*
X182152981Y-89289285D01*
X182147731Y-89285470D01*
X182147727Y-89285467D01*
X182003734Y-89180850D01*
X182003732Y-89180848D01*
X181998480Y-89177033D01*
X181992549Y-89174392D01*
X181992545Y-89174390D01*
X181829954Y-89102000D01*
X181829947Y-89101997D01*
X181824016Y-89099357D01*
X181817663Y-89098006D01*
X181817655Y-89098004D01*
X181643577Y-89061003D01*
X181643574Y-89061002D01*
X181637215Y-89059651D01*
X181446241Y-89059651D01*
X181439882Y-89061002D01*
X181439878Y-89061003D01*
X181265800Y-89098004D01*
X181265789Y-89098007D01*
X181259440Y-89099357D01*
X181253510Y-89101996D01*
X181253501Y-89102000D01*
X181090910Y-89174390D01*
X181090902Y-89174394D01*
X181084976Y-89177033D01*
X181079727Y-89180846D01*
X181079721Y-89180850D01*
X180935728Y-89285467D01*
X180935719Y-89285474D01*
X180930475Y-89289285D01*
X180926131Y-89294108D01*
X180926128Y-89294112D01*
X180831876Y-89398790D01*
X180802688Y-89431207D01*
X180799442Y-89436827D01*
X180799439Y-89436833D01*
X180710449Y-89590968D01*
X180710446Y-89590973D01*
X180707201Y-89596595D01*
X180705195Y-89602767D01*
X180705193Y-89602773D01*
X180650193Y-89772043D01*
X180650191Y-89772052D01*
X180648186Y-89778223D01*
X180647508Y-89784673D01*
X180647506Y-89784683D01*
X180632080Y-89931466D01*
X180628224Y-89968151D01*
X180628903Y-89974611D01*
X180647506Y-90151618D01*
X180647507Y-90151626D01*
X180648186Y-90158079D01*
X180650191Y-90164251D01*
X180650193Y-90164258D01*
X180687383Y-90278714D01*
X180707201Y-90339707D01*
X180710448Y-90345331D01*
X180710449Y-90345333D01*
X180777012Y-90460624D01*
X180802688Y-90505095D01*
X180930475Y-90647017D01*
X180935725Y-90650831D01*
X180935728Y-90650834D01*
X180944452Y-90657172D01*
X181084976Y-90759269D01*
X181090909Y-90761910D01*
X181090910Y-90761911D01*
X181139195Y-90783409D01*
X181259440Y-90836945D01*
X181265798Y-90838296D01*
X181265800Y-90838297D01*
X181295582Y-90844627D01*
X181350240Y-90856245D01*
X181409343Y-90887143D01*
X181443891Y-90944189D01*
X181443891Y-91010881D01*
X181409343Y-91067927D01*
X181350241Y-91098825D01*
X181229126Y-91124569D01*
X181229122Y-91124569D01*
X181222767Y-91125921D01*
X181216837Y-91128560D01*
X181216828Y-91128564D01*
X181054237Y-91200954D01*
X181054229Y-91200958D01*
X181048303Y-91203597D01*
X181043054Y-91207410D01*
X181043048Y-91207414D01*
X180899055Y-91312031D01*
X180899046Y-91312038D01*
X180893802Y-91315849D01*
X180889458Y-91320672D01*
X180889455Y-91320676D01*
X180774227Y-91448651D01*
X180766015Y-91457771D01*
X180762769Y-91463391D01*
X180762766Y-91463397D01*
X180673776Y-91617532D01*
X180673773Y-91617537D01*
X180670528Y-91623159D01*
X180668522Y-91629331D01*
X180668520Y-91629337D01*
X180613520Y-91798607D01*
X180613518Y-91798616D01*
X180611513Y-91804787D01*
X180610835Y-91811237D01*
X180610833Y-91811247D01*
X180602947Y-91886284D01*
X180591551Y-91994715D01*
X174445090Y-91994715D01*
X174323314Y-91940497D01*
X174323307Y-91940494D01*
X174317376Y-91937854D01*
X174311023Y-91936503D01*
X174311015Y-91936501D01*
X174136937Y-91899500D01*
X174136934Y-91899499D01*
X174130575Y-91898148D01*
X173939601Y-91898148D01*
X173933242Y-91899499D01*
X173933238Y-91899500D01*
X173759160Y-91936501D01*
X173759149Y-91936504D01*
X173752800Y-91937854D01*
X173746870Y-91940493D01*
X173746861Y-91940497D01*
X173584270Y-92012887D01*
X173584262Y-92012891D01*
X173578336Y-92015530D01*
X173573087Y-92019343D01*
X173573081Y-92019347D01*
X173429088Y-92123964D01*
X173429079Y-92123971D01*
X173423835Y-92127782D01*
X173419491Y-92132605D01*
X173419488Y-92132609D01*
X173312293Y-92251662D01*
X173296048Y-92269704D01*
X173292802Y-92275324D01*
X173292799Y-92275330D01*
X173203809Y-92429465D01*
X173203806Y-92429470D01*
X173200561Y-92435092D01*
X173198555Y-92441264D01*
X173198553Y-92441270D01*
X173143553Y-92610540D01*
X173143551Y-92610549D01*
X173141546Y-92616720D01*
X173140868Y-92623170D01*
X173140866Y-92623180D01*
X173132317Y-92704526D01*
X173121584Y-92806648D01*
X167939701Y-92806648D01*
X168067139Y-92779560D01*
X168241603Y-92701884D01*
X168396104Y-92589632D01*
X168523891Y-92447710D01*
X168619378Y-92282322D01*
X168678393Y-92100694D01*
X168698355Y-91910766D01*
X168678393Y-91720838D01*
X168619378Y-91539210D01*
X168523891Y-91373822D01*
X168396104Y-91231900D01*
X168390854Y-91228085D01*
X168390850Y-91228082D01*
X168282748Y-91149541D01*
X171952384Y-91149541D01*
X171959562Y-91156720D01*
X171970246Y-91161865D01*
X172128335Y-91217182D01*
X172141827Y-91220261D01*
X172308246Y-91239013D01*
X172322092Y-91239013D01*
X172488510Y-91220261D01*
X172502002Y-91217182D01*
X172660090Y-91161865D01*
X172670775Y-91156719D01*
X172677952Y-91149542D01*
X172672023Y-91140106D01*
X172326711Y-90794794D01*
X172315169Y-90788130D01*
X172303625Y-90794795D01*
X171958312Y-91140107D01*
X171952384Y-91149541D01*
X168282748Y-91149541D01*
X168246857Y-91123465D01*
X168246855Y-91123463D01*
X168241603Y-91119648D01*
X168235672Y-91117007D01*
X168235668Y-91117005D01*
X168073077Y-91044615D01*
X168073070Y-91044612D01*
X168067139Y-91041972D01*
X168060786Y-91040621D01*
X168060778Y-91040619D01*
X167886700Y-91003618D01*
X167886697Y-91003617D01*
X167880338Y-91002266D01*
X167689364Y-91002266D01*
X167683005Y-91003617D01*
X167683001Y-91003618D01*
X167508923Y-91040619D01*
X167508912Y-91040622D01*
X167502563Y-91041972D01*
X167496633Y-91044611D01*
X167496624Y-91044615D01*
X167334033Y-91117005D01*
X167334025Y-91117009D01*
X167328099Y-91119648D01*
X167322850Y-91123461D01*
X167322844Y-91123465D01*
X167178851Y-91228082D01*
X167178842Y-91228089D01*
X167173598Y-91231900D01*
X167169254Y-91236723D01*
X167169250Y-91236728D01*
X167130924Y-91279293D01*
X167072956Y-91315516D01*
X167004602Y-91315518D01*
X166952487Y-91282957D01*
X166951663Y-91283873D01*
X166946832Y-91279523D01*
X166942487Y-91274697D01*
X166937237Y-91270882D01*
X166937233Y-91270879D01*
X166793240Y-91166262D01*
X166793238Y-91166260D01*
X166787986Y-91162445D01*
X166782055Y-91159804D01*
X166782051Y-91159802D01*
X166619460Y-91087412D01*
X166619453Y-91087409D01*
X166613522Y-91084769D01*
X166607169Y-91083418D01*
X166607161Y-91083416D01*
X166433083Y-91046415D01*
X166433080Y-91046414D01*
X166426721Y-91045063D01*
X166235747Y-91045063D01*
X166229388Y-91046414D01*
X166229384Y-91046415D01*
X166055306Y-91083416D01*
X166055295Y-91083419D01*
X166048946Y-91084769D01*
X166043016Y-91087408D01*
X166043007Y-91087412D01*
X165880416Y-91159802D01*
X165880408Y-91159806D01*
X165874482Y-91162445D01*
X165869233Y-91166258D01*
X165869227Y-91166262D01*
X165725234Y-91270879D01*
X165725225Y-91270886D01*
X165719981Y-91274697D01*
X165715637Y-91279520D01*
X165715634Y-91279524D01*
X165606338Y-91400910D01*
X165592194Y-91416619D01*
X165588948Y-91422240D01*
X165588943Y-91422248D01*
X165585108Y-91428891D01*
X165545256Y-91470885D01*
X165490683Y-91490209D01*
X165433285Y-91482652D01*
X165385573Y-91449860D01*
X165324035Y-91381515D01*
X165280113Y-91332735D01*
X165274863Y-91328920D01*
X165274859Y-91328917D01*
X165130866Y-91224300D01*
X165130864Y-91224298D01*
X165125612Y-91220483D01*
X165119681Y-91217842D01*
X165119677Y-91217840D01*
X164957086Y-91145450D01*
X164957079Y-91145447D01*
X164951148Y-91142807D01*
X164944795Y-91141456D01*
X164944787Y-91141454D01*
X164770709Y-91104453D01*
X164770706Y-91104452D01*
X164764347Y-91103101D01*
X164573373Y-91103101D01*
X164567014Y-91104452D01*
X164567010Y-91104453D01*
X164392932Y-91141454D01*
X164392921Y-91141457D01*
X164386572Y-91142807D01*
X164380642Y-91145446D01*
X164380633Y-91145450D01*
X164218042Y-91217840D01*
X164218034Y-91217844D01*
X164212108Y-91220483D01*
X164206859Y-91224296D01*
X164206853Y-91224300D01*
X164062860Y-91328917D01*
X164062851Y-91328924D01*
X164057607Y-91332735D01*
X164053263Y-91337558D01*
X164053260Y-91337562D01*
X163934167Y-91469829D01*
X163929820Y-91474657D01*
X163926574Y-91480277D01*
X163926571Y-91480283D01*
X163837581Y-91634418D01*
X163837578Y-91634423D01*
X163834333Y-91640045D01*
X163832327Y-91646217D01*
X163832325Y-91646223D01*
X163777325Y-91815493D01*
X163777323Y-91815502D01*
X163775318Y-91821673D01*
X163774640Y-91828123D01*
X163774638Y-91828133D01*
X163763249Y-91936501D01*
X163755356Y-92011601D01*
X162698638Y-92011601D01*
X162676710Y-91987247D01*
X162671460Y-91983432D01*
X162671456Y-91983429D01*
X162527463Y-91878812D01*
X162527461Y-91878810D01*
X162522209Y-91874995D01*
X162516278Y-91872354D01*
X162516274Y-91872352D01*
X162353683Y-91799962D01*
X162353676Y-91799959D01*
X162347745Y-91797319D01*
X162341392Y-91795968D01*
X162341384Y-91795966D01*
X162167306Y-91758965D01*
X162167303Y-91758964D01*
X162160944Y-91757613D01*
X161969970Y-91757613D01*
X161963611Y-91758964D01*
X161963607Y-91758965D01*
X161789529Y-91795966D01*
X161789518Y-91795969D01*
X161783169Y-91797319D01*
X161777231Y-91799962D01*
X161777230Y-91799963D01*
X161649045Y-91857034D01*
X161581351Y-91866547D01*
X161518903Y-91838742D01*
X161480679Y-91782072D01*
X161473436Y-91759779D01*
X161377949Y-91594391D01*
X161250162Y-91452469D01*
X161244912Y-91448654D01*
X161244908Y-91448651D01*
X161100915Y-91344034D01*
X161100913Y-91344032D01*
X161095661Y-91340217D01*
X161089730Y-91337576D01*
X161089726Y-91337574D01*
X160927135Y-91265184D01*
X160927128Y-91265181D01*
X160921197Y-91262541D01*
X160914841Y-91261190D01*
X160914835Y-91261188D01*
X160753244Y-91226841D01*
X160706139Y-91205869D01*
X160671638Y-91167551D01*
X160655704Y-91118512D01*
X160654226Y-91104453D01*
X160637007Y-90940617D01*
X160577992Y-90758989D01*
X160519208Y-90657172D01*
X160502595Y-90595171D01*
X160519209Y-90533170D01*
X160557527Y-90466803D01*
X160567333Y-90436622D01*
X171505855Y-90436622D01*
X171524606Y-90603040D01*
X171527685Y-90616532D01*
X171583002Y-90774621D01*
X171588146Y-90785302D01*
X171595325Y-90792481D01*
X171604761Y-90786552D01*
X171950073Y-90441241D01*
X171956736Y-90429699D01*
X172673600Y-90429699D01*
X172680264Y-90441241D01*
X173025576Y-90786553D01*
X173035012Y-90792482D01*
X173042189Y-90785305D01*
X173047335Y-90774620D01*
X173102652Y-90616532D01*
X173105731Y-90603040D01*
X173124483Y-90436622D01*
X173124483Y-90422776D01*
X173105731Y-90256357D01*
X173102652Y-90242865D01*
X173047335Y-90084776D01*
X173042190Y-90074092D01*
X173035011Y-90066914D01*
X173025577Y-90072842D01*
X172680265Y-90418155D01*
X172673600Y-90429699D01*
X171956736Y-90429699D01*
X171956737Y-90429698D01*
X171950073Y-90418156D01*
X171604762Y-90072845D01*
X171595325Y-90066915D01*
X171588146Y-90074095D01*
X171583003Y-90084775D01*
X171527685Y-90242865D01*
X171524606Y-90256357D01*
X171505855Y-90422776D01*
X171505855Y-90436622D01*
X160567333Y-90436622D01*
X160616542Y-90285175D01*
X160636504Y-90095247D01*
X160616542Y-89905319D01*
X160600700Y-89856563D01*
X162448925Y-89856563D01*
X162458506Y-89862964D01*
X162595842Y-89911021D01*
X162609344Y-89914103D01*
X162763444Y-89931466D01*
X162777290Y-89931466D01*
X162931389Y-89914103D01*
X162944891Y-89911021D01*
X163082226Y-89862964D01*
X163091807Y-89856563D01*
X163448925Y-89856563D01*
X163458506Y-89862964D01*
X163595842Y-89911021D01*
X163609344Y-89914103D01*
X163763444Y-89931466D01*
X163777290Y-89931466D01*
X163931389Y-89914103D01*
X163944891Y-89911021D01*
X164082226Y-89862964D01*
X164091807Y-89856563D01*
X164448925Y-89856563D01*
X164458506Y-89862964D01*
X164595842Y-89911021D01*
X164609344Y-89914103D01*
X164763444Y-89931466D01*
X164777290Y-89931466D01*
X164931389Y-89914103D01*
X164944891Y-89911021D01*
X165082226Y-89862964D01*
X165091807Y-89856563D01*
X165085953Y-89846639D01*
X164949169Y-89709855D01*
X171952385Y-89709855D01*
X171958315Y-89719292D01*
X172303626Y-90064603D01*
X172315169Y-90071267D01*
X172326711Y-90064603D01*
X172672022Y-89719291D01*
X172677951Y-89709855D01*
X172670772Y-89702676D01*
X172660091Y-89697532D01*
X172502002Y-89642215D01*
X172488510Y-89639136D01*
X172322092Y-89620385D01*
X172308246Y-89620385D01*
X172141827Y-89639136D01*
X172128335Y-89642215D01*
X171970245Y-89697533D01*
X171959565Y-89702676D01*
X171952385Y-89709855D01*
X164949169Y-89709855D01*
X164781909Y-89542595D01*
X164770367Y-89535931D01*
X164758823Y-89542596D01*
X164454779Y-89846639D01*
X164448925Y-89856563D01*
X164091807Y-89856563D01*
X164085953Y-89846639D01*
X163781909Y-89542595D01*
X163770367Y-89535931D01*
X163758823Y-89542596D01*
X163454779Y-89846639D01*
X163448925Y-89856563D01*
X163091807Y-89856563D01*
X163085953Y-89846639D01*
X162781909Y-89542595D01*
X162770367Y-89535931D01*
X162758823Y-89542596D01*
X162454779Y-89846639D01*
X162448925Y-89856563D01*
X160600700Y-89856563D01*
X160557527Y-89723691D01*
X160462040Y-89558303D01*
X160334253Y-89416381D01*
X160329003Y-89412566D01*
X160328999Y-89412563D01*
X160179752Y-89304129D01*
X160180756Y-89302746D01*
X160154450Y-89279872D01*
X160132974Y-89237711D01*
X160128854Y-89190575D01*
X160129501Y-89184423D01*
X162016401Y-89184423D01*
X162033764Y-89338525D01*
X162036843Y-89352017D01*
X162084902Y-89489363D01*
X162091301Y-89498940D01*
X162101228Y-89493084D01*
X162405271Y-89189042D01*
X162411935Y-89177500D01*
X163128798Y-89177500D01*
X163135462Y-89189042D01*
X163258824Y-89312404D01*
X163270367Y-89319068D01*
X163281909Y-89312404D01*
X163405271Y-89189042D01*
X163411935Y-89177500D01*
X164128798Y-89177500D01*
X164135462Y-89189042D01*
X164258824Y-89312404D01*
X164270367Y-89319068D01*
X164281909Y-89312404D01*
X164405271Y-89189042D01*
X164411935Y-89177500D01*
X165128798Y-89177500D01*
X165135462Y-89189042D01*
X165439506Y-89493086D01*
X165449430Y-89498940D01*
X165455831Y-89489359D01*
X165503888Y-89352024D01*
X165506970Y-89338522D01*
X165524333Y-89184423D01*
X165524333Y-89170577D01*
X165506970Y-89016477D01*
X165503888Y-89002975D01*
X165481691Y-88939541D01*
X171952384Y-88939541D01*
X171959562Y-88946720D01*
X171970246Y-88951865D01*
X172128335Y-89007182D01*
X172141827Y-89010261D01*
X172308246Y-89029013D01*
X172322092Y-89029013D01*
X172488510Y-89010261D01*
X172502002Y-89007182D01*
X172660090Y-88951865D01*
X172670775Y-88946719D01*
X172677952Y-88939542D01*
X172672023Y-88930106D01*
X172326711Y-88584794D01*
X172315169Y-88578130D01*
X172303625Y-88584795D01*
X171958312Y-88930107D01*
X171952384Y-88939541D01*
X165481691Y-88939541D01*
X165455831Y-88865639D01*
X165449430Y-88856058D01*
X165439506Y-88861912D01*
X165135463Y-89165956D01*
X165128798Y-89177500D01*
X164411935Y-89177500D01*
X164405271Y-89165957D01*
X164281909Y-89042595D01*
X164270367Y-89035931D01*
X164258824Y-89042595D01*
X164135462Y-89165957D01*
X164128798Y-89177500D01*
X163411935Y-89177500D01*
X163405271Y-89165957D01*
X163281909Y-89042595D01*
X163270367Y-89035931D01*
X163258824Y-89042595D01*
X163135462Y-89165957D01*
X163128798Y-89177500D01*
X162411935Y-89177500D01*
X162405271Y-89165957D01*
X162101226Y-88861912D01*
X162091301Y-88856057D01*
X162084902Y-88865634D01*
X162036844Y-89002978D01*
X162033763Y-89016476D01*
X162016401Y-89170577D01*
X162016401Y-89184423D01*
X160129501Y-89184423D01*
X160129576Y-89183709D01*
X160130255Y-89177249D01*
X160110293Y-88987321D01*
X160051278Y-88805693D01*
X159977266Y-88677500D01*
X162628798Y-88677500D01*
X162635462Y-88689042D01*
X162758824Y-88812404D01*
X162770367Y-88819068D01*
X162781909Y-88812404D01*
X162905271Y-88689042D01*
X162911935Y-88677500D01*
X163628798Y-88677500D01*
X163635462Y-88689042D01*
X163758824Y-88812404D01*
X163770367Y-88819068D01*
X163781909Y-88812404D01*
X163905271Y-88689042D01*
X163911935Y-88677500D01*
X164628798Y-88677500D01*
X164635462Y-88689042D01*
X164758824Y-88812404D01*
X164770367Y-88819068D01*
X164781909Y-88812404D01*
X164905271Y-88689042D01*
X164911935Y-88677500D01*
X164905271Y-88665957D01*
X164781909Y-88542595D01*
X164770367Y-88535931D01*
X164758824Y-88542595D01*
X164635462Y-88665957D01*
X164628798Y-88677500D01*
X163911935Y-88677500D01*
X163905271Y-88665957D01*
X163781909Y-88542595D01*
X163770367Y-88535931D01*
X163758824Y-88542595D01*
X163635462Y-88665957D01*
X163628798Y-88677500D01*
X162911935Y-88677500D01*
X162905271Y-88665957D01*
X162781909Y-88542595D01*
X162770367Y-88535931D01*
X162758824Y-88542595D01*
X162635462Y-88665957D01*
X162628798Y-88677500D01*
X159977266Y-88677500D01*
X159955791Y-88640305D01*
X159828004Y-88498383D01*
X159822754Y-88494568D01*
X159822750Y-88494565D01*
X159678757Y-88389948D01*
X159678755Y-88389946D01*
X159673503Y-88386131D01*
X159667572Y-88383490D01*
X159667568Y-88383488D01*
X159504977Y-88311098D01*
X159504970Y-88311095D01*
X159499039Y-88308455D01*
X159492686Y-88307104D01*
X159492678Y-88307102D01*
X159318600Y-88270101D01*
X159318597Y-88270100D01*
X159312238Y-88268749D01*
X159121264Y-88268749D01*
X159114905Y-88270100D01*
X159114901Y-88270101D01*
X158940823Y-88307102D01*
X158940812Y-88307105D01*
X158934463Y-88308455D01*
X158928533Y-88311094D01*
X158928524Y-88311098D01*
X158765933Y-88383488D01*
X158765925Y-88383492D01*
X158759999Y-88386131D01*
X158754750Y-88389944D01*
X158754744Y-88389948D01*
X158610751Y-88494565D01*
X158610742Y-88494572D01*
X158605498Y-88498383D01*
X158601154Y-88503206D01*
X158601151Y-88503210D01*
X158529776Y-88582481D01*
X158477711Y-88640305D01*
X158474465Y-88645925D01*
X158474462Y-88645931D01*
X158385472Y-88800066D01*
X158385469Y-88800071D01*
X158382224Y-88805693D01*
X158380218Y-88811865D01*
X158380216Y-88811871D01*
X158325216Y-88981141D01*
X158325214Y-88981150D01*
X158323209Y-88987321D01*
X158322531Y-88993771D01*
X158322529Y-88993781D01*
X158311156Y-89102000D01*
X158303247Y-89177249D01*
X147272516Y-89177249D01*
X147269049Y-88455610D01*
X147795937Y-88455610D01*
X147796289Y-88458890D01*
X147796290Y-88458896D01*
X147799965Y-88493084D01*
X147802448Y-88516173D01*
X147805154Y-88523430D01*
X147805156Y-88523435D01*
X147848747Y-88640305D01*
X147853548Y-88653176D01*
X147941176Y-88770233D01*
X148058233Y-88857861D01*
X148195236Y-88908961D01*
X148255799Y-88915472D01*
X150049765Y-88915472D01*
X150053075Y-88915472D01*
X150113638Y-88908961D01*
X150250641Y-88857861D01*
X150367698Y-88770233D01*
X150455326Y-88653176D01*
X150506426Y-88516173D01*
X150512937Y-88455610D01*
X150512937Y-88184423D01*
X162016401Y-88184423D01*
X162033764Y-88338525D01*
X162036843Y-88352017D01*
X162084902Y-88489363D01*
X162091301Y-88498940D01*
X162101228Y-88493084D01*
X162405271Y-88189042D01*
X162411935Y-88177500D01*
X162411934Y-88177499D01*
X163128798Y-88177499D01*
X163135462Y-88189042D01*
X163258824Y-88312404D01*
X163270367Y-88319068D01*
X163281909Y-88312404D01*
X163405271Y-88189042D01*
X163411935Y-88177500D01*
X163411934Y-88177499D01*
X164128798Y-88177499D01*
X164135462Y-88189042D01*
X164258824Y-88312404D01*
X164270367Y-88319068D01*
X164281909Y-88312404D01*
X164405271Y-88189042D01*
X164411935Y-88177500D01*
X165128798Y-88177500D01*
X165135462Y-88189042D01*
X165439506Y-88493086D01*
X165449430Y-88498940D01*
X165455831Y-88489359D01*
X165503888Y-88352024D01*
X165506970Y-88338522D01*
X165519578Y-88226622D01*
X171505855Y-88226622D01*
X171524606Y-88393040D01*
X171527685Y-88406532D01*
X171583002Y-88564621D01*
X171588146Y-88575302D01*
X171595325Y-88582481D01*
X171604761Y-88576552D01*
X171950073Y-88231241D01*
X171956737Y-88219699D01*
X172673600Y-88219699D01*
X172680264Y-88231241D01*
X173025576Y-88576553D01*
X173035012Y-88582482D01*
X173042189Y-88575305D01*
X173047335Y-88564620D01*
X173102652Y-88406532D01*
X173105731Y-88393040D01*
X173124483Y-88226622D01*
X173124483Y-88212776D01*
X173105731Y-88046357D01*
X173102652Y-88032865D01*
X173081944Y-87973684D01*
X196556681Y-87973684D01*
X196557063Y-87978538D01*
X196572721Y-88177499D01*
X196575928Y-88218241D01*
X196577063Y-88222970D01*
X196577064Y-88222974D01*
X196632057Y-88452039D01*
X196632059Y-88452047D01*
X196633195Y-88456776D01*
X196635059Y-88461276D01*
X196686222Y-88584795D01*
X196727073Y-88683416D01*
X196729609Y-88687555D01*
X196729613Y-88687562D01*
X196852702Y-88888426D01*
X196855248Y-88892580D01*
X196858413Y-88896286D01*
X196858414Y-88896287D01*
X196949535Y-89002975D01*
X197014567Y-89079117D01*
X197201104Y-89238436D01*
X197205256Y-89240980D01*
X197205257Y-89240981D01*
X197388970Y-89353560D01*
X197410268Y-89366611D01*
X197636908Y-89460489D01*
X197875443Y-89517756D01*
X198120000Y-89537003D01*
X198364557Y-89517756D01*
X198603092Y-89460489D01*
X198829732Y-89366611D01*
X199038896Y-89238436D01*
X199225433Y-89079117D01*
X199384752Y-88892580D01*
X199512927Y-88683416D01*
X199606805Y-88456776D01*
X199664072Y-88218241D01*
X199683319Y-87973684D01*
X199664072Y-87729127D01*
X199606805Y-87490592D01*
X199512927Y-87263952D01*
X199488612Y-87224274D01*
X199387297Y-87058941D01*
X199387296Y-87058940D01*
X199384752Y-87054788D01*
X199225433Y-86868251D01*
X199116620Y-86775315D01*
X199042603Y-86712098D01*
X199042602Y-86712097D01*
X199038896Y-86708932D01*
X199034745Y-86706388D01*
X199034742Y-86706386D01*
X198833878Y-86583297D01*
X198833871Y-86583293D01*
X198829732Y-86580757D01*
X198825237Y-86578895D01*
X198825235Y-86578894D01*
X198607592Y-86488743D01*
X198603092Y-86486879D01*
X198598363Y-86485743D01*
X198598355Y-86485741D01*
X198369290Y-86430748D01*
X198369286Y-86430747D01*
X198364557Y-86429612D01*
X198359706Y-86429230D01*
X198359705Y-86429230D01*
X198124854Y-86410747D01*
X198120000Y-86410365D01*
X198115146Y-86410747D01*
X197880294Y-86429230D01*
X197880291Y-86429230D01*
X197875443Y-86429612D01*
X197870715Y-86430746D01*
X197870709Y-86430748D01*
X197641644Y-86485741D01*
X197641632Y-86485744D01*
X197636908Y-86486879D01*
X197632411Y-86488741D01*
X197632407Y-86488743D01*
X197414764Y-86578894D01*
X197414756Y-86578897D01*
X197410268Y-86580757D01*
X197406133Y-86583290D01*
X197406121Y-86583297D01*
X197205257Y-86706386D01*
X197205247Y-86706392D01*
X197201104Y-86708932D01*
X197197403Y-86712092D01*
X197197396Y-86712098D01*
X197018267Y-86865090D01*
X197018261Y-86865095D01*
X197014567Y-86868251D01*
X197011411Y-86871945D01*
X197011406Y-86871951D01*
X196858414Y-87051080D01*
X196858408Y-87051087D01*
X196855248Y-87054788D01*
X196852708Y-87058931D01*
X196852702Y-87058941D01*
X196729613Y-87259805D01*
X196729606Y-87259817D01*
X196727073Y-87263952D01*
X196725213Y-87268440D01*
X196725210Y-87268448D01*
X196635059Y-87486091D01*
X196633195Y-87490592D01*
X196632060Y-87495316D01*
X196632057Y-87495328D01*
X196577064Y-87724393D01*
X196577062Y-87724399D01*
X196575928Y-87729127D01*
X196575546Y-87733975D01*
X196575546Y-87733978D01*
X196566339Y-87850963D01*
X196556681Y-87973684D01*
X173081944Y-87973684D01*
X173047335Y-87874776D01*
X173042190Y-87864092D01*
X173035011Y-87856914D01*
X173025577Y-87862842D01*
X172680265Y-88208155D01*
X172673600Y-88219699D01*
X171956737Y-88219699D01*
X171950073Y-88208156D01*
X171604762Y-87862845D01*
X171595325Y-87856915D01*
X171588146Y-87864095D01*
X171583003Y-87874775D01*
X171527685Y-88032865D01*
X171524606Y-88046357D01*
X171505855Y-88212776D01*
X171505855Y-88226622D01*
X165519578Y-88226622D01*
X165524333Y-88184423D01*
X165524333Y-88170577D01*
X165506970Y-88016477D01*
X165503888Y-88002975D01*
X165455831Y-87865639D01*
X165449430Y-87856058D01*
X165439506Y-87861912D01*
X165135463Y-88165956D01*
X165128798Y-88177500D01*
X164411935Y-88177500D01*
X164405271Y-88165957D01*
X164281909Y-88042595D01*
X164270367Y-88035931D01*
X164258824Y-88042595D01*
X164135462Y-88165957D01*
X164128798Y-88177499D01*
X163411934Y-88177499D01*
X163405271Y-88165957D01*
X163281909Y-88042595D01*
X163270367Y-88035931D01*
X163258824Y-88042595D01*
X163135462Y-88165957D01*
X163128798Y-88177499D01*
X162411934Y-88177499D01*
X162405271Y-88165957D01*
X162101226Y-87861912D01*
X162091301Y-87856057D01*
X162084902Y-87865634D01*
X162036844Y-88002978D01*
X162033763Y-88016476D01*
X162016401Y-88170577D01*
X162016401Y-88184423D01*
X150512937Y-88184423D01*
X150512937Y-87168280D01*
X154391538Y-87168280D01*
X154392217Y-87174740D01*
X154410820Y-87351747D01*
X154410821Y-87351755D01*
X154411500Y-87358208D01*
X154413505Y-87364380D01*
X154413507Y-87364387D01*
X154468507Y-87533657D01*
X154470515Y-87539836D01*
X154473762Y-87545460D01*
X154473763Y-87545462D01*
X154549995Y-87677500D01*
X154566002Y-87705224D01*
X154693789Y-87847146D01*
X154699039Y-87850960D01*
X154699042Y-87850963D01*
X154731818Y-87874776D01*
X154848290Y-87959398D01*
X154854223Y-87962039D01*
X154854224Y-87962040D01*
X154946172Y-88002978D01*
X155022754Y-88037074D01*
X155029112Y-88038425D01*
X155029114Y-88038426D01*
X155037197Y-88040144D01*
X155209555Y-88076780D01*
X155394026Y-88076780D01*
X155400529Y-88076780D01*
X155587330Y-88037074D01*
X155761794Y-87959398D01*
X155916295Y-87847146D01*
X156044082Y-87705224D01*
X156139569Y-87539836D01*
X156198584Y-87358208D01*
X156218365Y-87169998D01*
X158939996Y-87169998D01*
X158941344Y-87182828D01*
X158959278Y-87353465D01*
X158959279Y-87353473D01*
X158959958Y-87359926D01*
X158961963Y-87366098D01*
X158961965Y-87366105D01*
X159005424Y-87499855D01*
X159018973Y-87541554D01*
X159022220Y-87547178D01*
X159022221Y-87547180D01*
X159097461Y-87677500D01*
X159114460Y-87706942D01*
X159242247Y-87848864D01*
X159247497Y-87852678D01*
X159247500Y-87852681D01*
X159389128Y-87955580D01*
X159396748Y-87961116D01*
X159402681Y-87963757D01*
X159402682Y-87963758D01*
X159561414Y-88034430D01*
X159571212Y-88038792D01*
X159577570Y-88040143D01*
X159577572Y-88040144D01*
X159606802Y-88046357D01*
X159758013Y-88078498D01*
X159942484Y-88078498D01*
X159948987Y-88078498D01*
X160135788Y-88038792D01*
X160310252Y-87961116D01*
X160464753Y-87848864D01*
X160592540Y-87706942D01*
X160609538Y-87677500D01*
X162628798Y-87677500D01*
X162635462Y-87689042D01*
X162758824Y-87812404D01*
X162770367Y-87819068D01*
X162781909Y-87812404D01*
X162905271Y-87689042D01*
X162911934Y-87677500D01*
X163628798Y-87677500D01*
X163635462Y-87689042D01*
X163758824Y-87812404D01*
X163770367Y-87819068D01*
X163781909Y-87812404D01*
X163905271Y-87689042D01*
X163911934Y-87677500D01*
X164628798Y-87677500D01*
X164635462Y-87689042D01*
X164758824Y-87812404D01*
X164770367Y-87819068D01*
X164781909Y-87812404D01*
X164905271Y-87689042D01*
X164911935Y-87677499D01*
X164905271Y-87665957D01*
X164781909Y-87542595D01*
X164770367Y-87535931D01*
X164758824Y-87542595D01*
X164635462Y-87665957D01*
X164628798Y-87677500D01*
X163911934Y-87677500D01*
X163911935Y-87677499D01*
X163905271Y-87665957D01*
X163781909Y-87542595D01*
X163770367Y-87535931D01*
X163758824Y-87542595D01*
X163635462Y-87665957D01*
X163628798Y-87677500D01*
X162911934Y-87677500D01*
X162911935Y-87677499D01*
X162905271Y-87665957D01*
X162781909Y-87542595D01*
X162770367Y-87535931D01*
X162758824Y-87542595D01*
X162635462Y-87665957D01*
X162628798Y-87677500D01*
X160609538Y-87677500D01*
X160688027Y-87541554D01*
X160747042Y-87359926D01*
X160765488Y-87184423D01*
X162016401Y-87184423D01*
X162033764Y-87338525D01*
X162036843Y-87352017D01*
X162084902Y-87489363D01*
X162091301Y-87498940D01*
X162101228Y-87493084D01*
X162405271Y-87189042D01*
X162411935Y-87177500D01*
X163128798Y-87177500D01*
X163135462Y-87189042D01*
X163258824Y-87312404D01*
X163270367Y-87319068D01*
X163281909Y-87312404D01*
X163405271Y-87189042D01*
X163411935Y-87177500D01*
X164128798Y-87177500D01*
X164135462Y-87189042D01*
X164258824Y-87312404D01*
X164270367Y-87319068D01*
X164281909Y-87312404D01*
X164405271Y-87189042D01*
X164411935Y-87177500D01*
X165128798Y-87177500D01*
X165135462Y-87189042D01*
X165439506Y-87493086D01*
X165449430Y-87498940D01*
X165455831Y-87489359D01*
X165503888Y-87352024D01*
X165506970Y-87338522D01*
X165524333Y-87184423D01*
X165524333Y-87170577D01*
X165506970Y-87016477D01*
X165503888Y-87002975D01*
X165455831Y-86865639D01*
X165451327Y-86858897D01*
X166678525Y-86858897D01*
X166679204Y-86865357D01*
X166697807Y-87042364D01*
X166697808Y-87042372D01*
X166698487Y-87048825D01*
X166700492Y-87054997D01*
X166700494Y-87055004D01*
X166755494Y-87224274D01*
X166757502Y-87230453D01*
X166760749Y-87236077D01*
X166760750Y-87236079D01*
X166831261Y-87358208D01*
X166852989Y-87395841D01*
X166980776Y-87537763D01*
X166986026Y-87541577D01*
X166986029Y-87541580D01*
X166993737Y-87547180D01*
X167135277Y-87650015D01*
X167141210Y-87652656D01*
X167141211Y-87652657D01*
X167302333Y-87724393D01*
X167309741Y-87727691D01*
X167316099Y-87729042D01*
X167316101Y-87729043D01*
X167339319Y-87733978D01*
X167496542Y-87767397D01*
X167681013Y-87767397D01*
X167687516Y-87767397D01*
X167874317Y-87727691D01*
X168048781Y-87650015D01*
X168203282Y-87537763D01*
X168237414Y-87499855D01*
X171952385Y-87499855D01*
X171958315Y-87509292D01*
X172303626Y-87854603D01*
X172315168Y-87861267D01*
X172326711Y-87854603D01*
X172672022Y-87509291D01*
X172677951Y-87499855D01*
X172670772Y-87492676D01*
X172660091Y-87487532D01*
X172502002Y-87432215D01*
X172488510Y-87429136D01*
X172322092Y-87410385D01*
X172308246Y-87410385D01*
X172141827Y-87429136D01*
X172128335Y-87432215D01*
X171970245Y-87487533D01*
X171959565Y-87492676D01*
X171952385Y-87499855D01*
X168237414Y-87499855D01*
X168331069Y-87395841D01*
X168426556Y-87230453D01*
X168485571Y-87048825D01*
X168505533Y-86858897D01*
X168492925Y-86738934D01*
X194613542Y-86738934D01*
X194618606Y-86746514D01*
X194825825Y-86873498D01*
X194834488Y-86877912D01*
X195061794Y-86972065D01*
X195071031Y-86975067D01*
X195310274Y-87032504D01*
X195319859Y-87034022D01*
X195565146Y-87053327D01*
X195574854Y-87053327D01*
X195820140Y-87034022D01*
X195829725Y-87032504D01*
X196068968Y-86975067D01*
X196078205Y-86972065D01*
X196305511Y-86877912D01*
X196314174Y-86873498D01*
X196521397Y-86746512D01*
X196526457Y-86738936D01*
X196519784Y-86727021D01*
X195581542Y-85788779D01*
X195570000Y-85782115D01*
X195558457Y-85788779D01*
X194620213Y-86727022D01*
X194613542Y-86738934D01*
X168492925Y-86738934D01*
X168485571Y-86668969D01*
X168426556Y-86487341D01*
X168331069Y-86321953D01*
X168203282Y-86180031D01*
X168198032Y-86176216D01*
X168198028Y-86176213D01*
X168054035Y-86071596D01*
X168054033Y-86071594D01*
X168048781Y-86067779D01*
X168042850Y-86065138D01*
X168042846Y-86065136D01*
X167880255Y-85992746D01*
X167880248Y-85992743D01*
X167874317Y-85990103D01*
X167867964Y-85988752D01*
X167867956Y-85988750D01*
X167693878Y-85951749D01*
X167693875Y-85951748D01*
X167687516Y-85950397D01*
X167496542Y-85950397D01*
X167490183Y-85951748D01*
X167490179Y-85951749D01*
X167316101Y-85988750D01*
X167316090Y-85988753D01*
X167309741Y-85990103D01*
X167303811Y-85992742D01*
X167303802Y-85992746D01*
X167141211Y-86065136D01*
X167141203Y-86065140D01*
X167135277Y-86067779D01*
X167130028Y-86071592D01*
X167130022Y-86071596D01*
X166986029Y-86176213D01*
X166986020Y-86176220D01*
X166980776Y-86180031D01*
X166976432Y-86184854D01*
X166976429Y-86184858D01*
X166857336Y-86317125D01*
X166852989Y-86321953D01*
X166849743Y-86327573D01*
X166849740Y-86327579D01*
X166760750Y-86481714D01*
X166760747Y-86481719D01*
X166757502Y-86487341D01*
X166755496Y-86493513D01*
X166755494Y-86493519D01*
X166700494Y-86662789D01*
X166700492Y-86662798D01*
X166698487Y-86668969D01*
X166697809Y-86675419D01*
X166697807Y-86675429D01*
X166682711Y-86819068D01*
X166678525Y-86858897D01*
X165451327Y-86858897D01*
X165449430Y-86856058D01*
X165439506Y-86861912D01*
X165135463Y-87165956D01*
X165128798Y-87177500D01*
X164411935Y-87177500D01*
X164405271Y-87165957D01*
X164281909Y-87042595D01*
X164270367Y-87035931D01*
X164258824Y-87042595D01*
X164135462Y-87165957D01*
X164128798Y-87177500D01*
X163411935Y-87177500D01*
X163405271Y-87165957D01*
X163281909Y-87042595D01*
X163270367Y-87035931D01*
X163258824Y-87042595D01*
X163135462Y-87165957D01*
X163128798Y-87177500D01*
X162411935Y-87177500D01*
X162405271Y-87165957D01*
X162101226Y-86861912D01*
X162091301Y-86856057D01*
X162084902Y-86865634D01*
X162036844Y-87002978D01*
X162033763Y-87016476D01*
X162016401Y-87170577D01*
X162016401Y-87184423D01*
X160765488Y-87184423D01*
X160767004Y-87169998D01*
X160752553Y-87032504D01*
X160747721Y-86986530D01*
X160747720Y-86986529D01*
X160747042Y-86980070D01*
X160688027Y-86798442D01*
X160592540Y-86633054D01*
X160520700Y-86553268D01*
X160493956Y-86498434D01*
X162448924Y-86498434D01*
X162454779Y-86508359D01*
X162758824Y-86812404D01*
X162770367Y-86819068D01*
X162781909Y-86812404D01*
X163085951Y-86508361D01*
X163091807Y-86498434D01*
X163448924Y-86498434D01*
X163454779Y-86508359D01*
X163758824Y-86812404D01*
X163770367Y-86819068D01*
X163781909Y-86812404D01*
X164085951Y-86508361D01*
X164091807Y-86498434D01*
X164448924Y-86498434D01*
X164454779Y-86508359D01*
X164758824Y-86812404D01*
X164770367Y-86819068D01*
X164781909Y-86812404D01*
X165085951Y-86508361D01*
X165091807Y-86498434D01*
X165082230Y-86492035D01*
X164944884Y-86443976D01*
X164931392Y-86440897D01*
X164777290Y-86423534D01*
X164763444Y-86423534D01*
X164609343Y-86440896D01*
X164595845Y-86443977D01*
X164458501Y-86492035D01*
X164448924Y-86498434D01*
X164091807Y-86498434D01*
X164082230Y-86492035D01*
X163944884Y-86443976D01*
X163931392Y-86440897D01*
X163777290Y-86423534D01*
X163763444Y-86423534D01*
X163609343Y-86440896D01*
X163595845Y-86443977D01*
X163458501Y-86492035D01*
X163448924Y-86498434D01*
X163091807Y-86498434D01*
X163082230Y-86492035D01*
X162944884Y-86443976D01*
X162931392Y-86440897D01*
X162777290Y-86423534D01*
X162763444Y-86423534D01*
X162609343Y-86440896D01*
X162595845Y-86443977D01*
X162458501Y-86492035D01*
X162448924Y-86498434D01*
X160493956Y-86498434D01*
X160490735Y-86491829D01*
X160497881Y-86423845D01*
X160539965Y-86369979D01*
X160568370Y-86349343D01*
X160696157Y-86207421D01*
X160791644Y-86042033D01*
X160850659Y-85860405D01*
X160870621Y-85670477D01*
X160850659Y-85480549D01*
X160791644Y-85298921D01*
X160696157Y-85133533D01*
X160568370Y-84991611D01*
X160563120Y-84987796D01*
X160563116Y-84987793D01*
X160419123Y-84883176D01*
X160419121Y-84883174D01*
X160413869Y-84879359D01*
X160407938Y-84876718D01*
X160407934Y-84876716D01*
X160245343Y-84804326D01*
X160245336Y-84804323D01*
X160239405Y-84801683D01*
X160233052Y-84800332D01*
X160233044Y-84800330D01*
X160058966Y-84763329D01*
X160058963Y-84763328D01*
X160052604Y-84761977D01*
X159861630Y-84761977D01*
X159855271Y-84763328D01*
X159855267Y-84763329D01*
X159681189Y-84800330D01*
X159681178Y-84800333D01*
X159674829Y-84801683D01*
X159668899Y-84804322D01*
X159668890Y-84804326D01*
X159506299Y-84876716D01*
X159506291Y-84876720D01*
X159500365Y-84879359D01*
X159495116Y-84883172D01*
X159495110Y-84883176D01*
X159351117Y-84987793D01*
X159351108Y-84987800D01*
X159345864Y-84991611D01*
X159341520Y-84996434D01*
X159341517Y-84996438D01*
X159279557Y-85065252D01*
X159218077Y-85133533D01*
X159214831Y-85139153D01*
X159214828Y-85139159D01*
X159125838Y-85293294D01*
X159125835Y-85293299D01*
X159122590Y-85298921D01*
X159120584Y-85305093D01*
X159120582Y-85305099D01*
X159065582Y-85474369D01*
X159065580Y-85474378D01*
X159063575Y-85480549D01*
X159062897Y-85486999D01*
X159062895Y-85487009D01*
X159053440Y-85576978D01*
X159043613Y-85670477D01*
X159044292Y-85676937D01*
X159062895Y-85853944D01*
X159062896Y-85853952D01*
X159063575Y-85860405D01*
X159065580Y-85866577D01*
X159065582Y-85866584D01*
X159120582Y-86035854D01*
X159122590Y-86042033D01*
X159125837Y-86047657D01*
X159125838Y-86047659D01*
X159190233Y-86159195D01*
X159218077Y-86207421D01*
X159222423Y-86212248D01*
X159222424Y-86212249D01*
X159289914Y-86287205D01*
X159319880Y-86348644D01*
X159312735Y-86416627D01*
X159270652Y-86470493D01*
X159247505Y-86487311D01*
X159247500Y-86487315D01*
X159242247Y-86491132D01*
X159237903Y-86495955D01*
X159237900Y-86495959D01*
X159146229Y-86597771D01*
X159114460Y-86633054D01*
X159111214Y-86638674D01*
X159111211Y-86638680D01*
X159022221Y-86792815D01*
X159022218Y-86792820D01*
X159018973Y-86798442D01*
X159016967Y-86804614D01*
X159016965Y-86804620D01*
X158961965Y-86973890D01*
X158961963Y-86973899D01*
X158959958Y-86980070D01*
X158959280Y-86986520D01*
X158959278Y-86986530D01*
X158952082Y-87055004D01*
X158939996Y-87169998D01*
X156218365Y-87169998D01*
X156218546Y-87168280D01*
X156198584Y-86978352D01*
X156139569Y-86796724D01*
X156044082Y-86631336D01*
X155916295Y-86489414D01*
X155911045Y-86485599D01*
X155911041Y-86485596D01*
X155767048Y-86380979D01*
X155767046Y-86380977D01*
X155761794Y-86377162D01*
X155755863Y-86374521D01*
X155755859Y-86374519D01*
X155593268Y-86302129D01*
X155593261Y-86302126D01*
X155587330Y-86299486D01*
X155580977Y-86298135D01*
X155580969Y-86298133D01*
X155406891Y-86261132D01*
X155406888Y-86261131D01*
X155400529Y-86259780D01*
X155209555Y-86259780D01*
X155203196Y-86261131D01*
X155203192Y-86261132D01*
X155029114Y-86298133D01*
X155029103Y-86298136D01*
X155022754Y-86299486D01*
X155016824Y-86302125D01*
X155016815Y-86302129D01*
X154854224Y-86374519D01*
X154854216Y-86374523D01*
X154848290Y-86377162D01*
X154843041Y-86380975D01*
X154843035Y-86380979D01*
X154699042Y-86485596D01*
X154699033Y-86485603D01*
X154693789Y-86489414D01*
X154689445Y-86494237D01*
X154689442Y-86494241D01*
X154570349Y-86626508D01*
X154566002Y-86631336D01*
X154562756Y-86636956D01*
X154562753Y-86636962D01*
X154473763Y-86791097D01*
X154473760Y-86791102D01*
X154470515Y-86796724D01*
X154468509Y-86802896D01*
X154468507Y-86802902D01*
X154413507Y-86972172D01*
X154413505Y-86972181D01*
X154411500Y-86978352D01*
X154410822Y-86984802D01*
X154410820Y-86984812D01*
X154392820Y-87156075D01*
X154391538Y-87168280D01*
X150512937Y-87168280D01*
X150512937Y-86658334D01*
X150506426Y-86597771D01*
X150455326Y-86460768D01*
X150367698Y-86343711D01*
X150346148Y-86327579D01*
X150257741Y-86261398D01*
X150257740Y-86261397D01*
X150250641Y-86256083D01*
X150242333Y-86252984D01*
X150242331Y-86252983D01*
X150120900Y-86207691D01*
X150120895Y-86207689D01*
X150113638Y-86204983D01*
X150105934Y-86204154D01*
X150105931Y-86204154D01*
X150056361Y-86198825D01*
X150056355Y-86198824D01*
X150053075Y-86198472D01*
X148255799Y-86198472D01*
X148252519Y-86198824D01*
X148252512Y-86198825D01*
X148202942Y-86204154D01*
X148202937Y-86204154D01*
X148195236Y-86204983D01*
X148187980Y-86207689D01*
X148187973Y-86207691D01*
X148066542Y-86252983D01*
X148066536Y-86252985D01*
X148058233Y-86256083D01*
X148051135Y-86261395D01*
X148051132Y-86261398D01*
X147948272Y-86338398D01*
X147948268Y-86338401D01*
X147941176Y-86343711D01*
X147935866Y-86350803D01*
X147935863Y-86350807D01*
X147858863Y-86453667D01*
X147858860Y-86453670D01*
X147853548Y-86460768D01*
X147850450Y-86469071D01*
X147850448Y-86469077D01*
X147805156Y-86590508D01*
X147805154Y-86590515D01*
X147802448Y-86597771D01*
X147801619Y-86605472D01*
X147801619Y-86605477D01*
X147798050Y-86638680D01*
X147795937Y-86658334D01*
X147795937Y-88455610D01*
X147269049Y-88455610D01*
X147253801Y-85281890D01*
X148331558Y-85281890D01*
X148336622Y-85289470D01*
X148543841Y-85416454D01*
X148552504Y-85420868D01*
X148779810Y-85515021D01*
X148789047Y-85518023D01*
X149028290Y-85575460D01*
X149037875Y-85576978D01*
X149283162Y-85596283D01*
X149292870Y-85596283D01*
X149538156Y-85576978D01*
X149547741Y-85575460D01*
X149786984Y-85518023D01*
X149796221Y-85515021D01*
X150023527Y-85420868D01*
X150032190Y-85416454D01*
X150239413Y-85289468D01*
X150244473Y-85281892D01*
X150237800Y-85269977D01*
X149299558Y-84331735D01*
X149288015Y-84325071D01*
X149276473Y-84331735D01*
X148338229Y-85269978D01*
X148331558Y-85281890D01*
X147253801Y-85281890D01*
X147247505Y-83971494D01*
X147658373Y-83971494D01*
X147677677Y-84216780D01*
X147679195Y-84226365D01*
X147736632Y-84465608D01*
X147739634Y-84474845D01*
X147833787Y-84702151D01*
X147838201Y-84710814D01*
X147965184Y-84918032D01*
X147972763Y-84923096D01*
X147984679Y-84916422D01*
X148922920Y-83978182D01*
X148929584Y-83966640D01*
X149646447Y-83966640D01*
X149653111Y-83978182D01*
X150591353Y-84916424D01*
X150603268Y-84923097D01*
X150610844Y-84918037D01*
X150737830Y-84710814D01*
X150742244Y-84702151D01*
X150793100Y-84579373D01*
X175656311Y-84579373D01*
X175656990Y-84585833D01*
X175675593Y-84762840D01*
X175675594Y-84762848D01*
X175676273Y-84769301D01*
X175678278Y-84775473D01*
X175678280Y-84775480D01*
X175726770Y-84924715D01*
X175735288Y-84950929D01*
X175738535Y-84956553D01*
X175738536Y-84956555D01*
X175801292Y-85065252D01*
X175830775Y-85116317D01*
X175958562Y-85258239D01*
X175963812Y-85262053D01*
X175963815Y-85262056D01*
X176023059Y-85305099D01*
X176113063Y-85370491D01*
X176118996Y-85373132D01*
X176118997Y-85373133D01*
X176232534Y-85423683D01*
X176287527Y-85448167D01*
X176293885Y-85449518D01*
X176293887Y-85449519D01*
X176323329Y-85455777D01*
X176474328Y-85487873D01*
X176658799Y-85487873D01*
X176665302Y-85487873D01*
X176852103Y-85448167D01*
X176896191Y-85428538D01*
X193940357Y-85428538D01*
X193959661Y-85673824D01*
X193961179Y-85683409D01*
X194018616Y-85922652D01*
X194021618Y-85931889D01*
X194115771Y-86159195D01*
X194120185Y-86167858D01*
X194247168Y-86375076D01*
X194254747Y-86380140D01*
X194266663Y-86373466D01*
X195204904Y-85435226D01*
X195211568Y-85423683D01*
X195928431Y-85423683D01*
X195935095Y-85435226D01*
X196873337Y-86373468D01*
X196885252Y-86380141D01*
X196892828Y-86375081D01*
X197019814Y-86167858D01*
X197024228Y-86159195D01*
X197118381Y-85931889D01*
X197121383Y-85922652D01*
X197178820Y-85683409D01*
X197180338Y-85673824D01*
X197199643Y-85428538D01*
X199040357Y-85428538D01*
X199059661Y-85673824D01*
X199061179Y-85683409D01*
X199118616Y-85922652D01*
X199121618Y-85931889D01*
X199215771Y-86159195D01*
X199220185Y-86167858D01*
X199347168Y-86375076D01*
X199354747Y-86380140D01*
X199366663Y-86373466D01*
X200304904Y-85435226D01*
X200311568Y-85423683D01*
X200304904Y-85412141D01*
X199366662Y-84473899D01*
X199354747Y-84467227D01*
X199347167Y-84472292D01*
X199220185Y-84679509D01*
X199215771Y-84688172D01*
X199121618Y-84915478D01*
X199118616Y-84924715D01*
X199061179Y-85163958D01*
X199059661Y-85173543D01*
X199040357Y-85418830D01*
X199040357Y-85428538D01*
X197199643Y-85428538D01*
X197199643Y-85418830D01*
X197180338Y-85173543D01*
X197178820Y-85163958D01*
X197121383Y-84924715D01*
X197118381Y-84915478D01*
X197024228Y-84688172D01*
X197019814Y-84679509D01*
X196892830Y-84472290D01*
X196885250Y-84467226D01*
X196873338Y-84473897D01*
X195935095Y-85412141D01*
X195928431Y-85423683D01*
X195211568Y-85423683D01*
X195204904Y-85412141D01*
X194266662Y-84473899D01*
X194254747Y-84467227D01*
X194247167Y-84472292D01*
X194120185Y-84679509D01*
X194115771Y-84688172D01*
X194021618Y-84915478D01*
X194018616Y-84924715D01*
X193961179Y-85163958D01*
X193959661Y-85173543D01*
X193940357Y-85418830D01*
X193940357Y-85428538D01*
X176896191Y-85428538D01*
X177026567Y-85370491D01*
X177181068Y-85258239D01*
X177308855Y-85116317D01*
X177404342Y-84950929D01*
X177463357Y-84769301D01*
X177483319Y-84579373D01*
X177463357Y-84389445D01*
X177404342Y-84207817D01*
X177346961Y-84108431D01*
X194613543Y-84108431D01*
X194620215Y-84120346D01*
X195558457Y-85058588D01*
X195570000Y-85065252D01*
X195581542Y-85058588D01*
X196519782Y-84120347D01*
X196526456Y-84108431D01*
X196521392Y-84100852D01*
X196314174Y-83973869D01*
X196305511Y-83969455D01*
X196078205Y-83875302D01*
X196068968Y-83872300D01*
X195829725Y-83814863D01*
X195820140Y-83813345D01*
X195574854Y-83794041D01*
X195565146Y-83794041D01*
X195319859Y-83813345D01*
X195310274Y-83814863D01*
X195071031Y-83872300D01*
X195061794Y-83875302D01*
X194834488Y-83969455D01*
X194825825Y-83973869D01*
X194618608Y-84100851D01*
X194613543Y-84108431D01*
X177346961Y-84108431D01*
X177308855Y-84042429D01*
X177181068Y-83900507D01*
X177175818Y-83896692D01*
X177175814Y-83896689D01*
X177031821Y-83792072D01*
X177031819Y-83792070D01*
X177026567Y-83788255D01*
X177020636Y-83785614D01*
X177020632Y-83785612D01*
X176858041Y-83713222D01*
X176858034Y-83713219D01*
X176852103Y-83710579D01*
X176845750Y-83709228D01*
X176845742Y-83709226D01*
X176671664Y-83672225D01*
X176671661Y-83672224D01*
X176665302Y-83670873D01*
X176474328Y-83670873D01*
X176467969Y-83672224D01*
X176467965Y-83672225D01*
X176293887Y-83709226D01*
X176293876Y-83709229D01*
X176287527Y-83710579D01*
X176281597Y-83713218D01*
X176281588Y-83713222D01*
X176118997Y-83785612D01*
X176118989Y-83785616D01*
X176113063Y-83788255D01*
X176107814Y-83792068D01*
X176107808Y-83792072D01*
X175963815Y-83896689D01*
X175963806Y-83896696D01*
X175958562Y-83900507D01*
X175954218Y-83905330D01*
X175954215Y-83905334D01*
X175888623Y-83978182D01*
X175830775Y-84042429D01*
X175827529Y-84048049D01*
X175827526Y-84048055D01*
X175738536Y-84202190D01*
X175738533Y-84202195D01*
X175735288Y-84207817D01*
X175733282Y-84213989D01*
X175733280Y-84213995D01*
X175678280Y-84383265D01*
X175678278Y-84383274D01*
X175676273Y-84389445D01*
X175675595Y-84395895D01*
X175675593Y-84395905D01*
X175667297Y-84474845D01*
X175656311Y-84579373D01*
X150793100Y-84579373D01*
X150836397Y-84474845D01*
X150839399Y-84465608D01*
X150896836Y-84226365D01*
X150898354Y-84216780D01*
X150917659Y-83971494D01*
X150917659Y-83961786D01*
X150898354Y-83716499D01*
X150896836Y-83706914D01*
X150839399Y-83467671D01*
X150836397Y-83458434D01*
X150742244Y-83231128D01*
X150737830Y-83222465D01*
X150610846Y-83015246D01*
X150603266Y-83010182D01*
X150591354Y-83016853D01*
X149653111Y-83955097D01*
X149646447Y-83966640D01*
X148929584Y-83966640D01*
X148922920Y-83955097D01*
X147984678Y-83016855D01*
X147972763Y-83010183D01*
X147965183Y-83015248D01*
X147838201Y-83222465D01*
X147833787Y-83231128D01*
X147739634Y-83458434D01*
X147736632Y-83467671D01*
X147679195Y-83706914D01*
X147677677Y-83716499D01*
X147658373Y-83961786D01*
X147658373Y-83971494D01*
X147247505Y-83971494D01*
X147241162Y-82651387D01*
X148331559Y-82651387D01*
X148338231Y-82663302D01*
X149276473Y-83601544D01*
X149288015Y-83608208D01*
X149299558Y-83601544D01*
X150237798Y-82663303D01*
X150244472Y-82651387D01*
X150239408Y-82643808D01*
X150032190Y-82516825D01*
X150023527Y-82512411D01*
X149796221Y-82418258D01*
X149786984Y-82415256D01*
X149547741Y-82357819D01*
X149538156Y-82356301D01*
X149363302Y-82342540D01*
X162578470Y-82342540D01*
X162579149Y-82349000D01*
X162597752Y-82526007D01*
X162597753Y-82526015D01*
X162598432Y-82532468D01*
X162600437Y-82538640D01*
X162600439Y-82538647D01*
X162640943Y-82663303D01*
X162657447Y-82714096D01*
X162660694Y-82719720D01*
X162660695Y-82719722D01*
X162733852Y-82846434D01*
X162752934Y-82879484D01*
X162880721Y-83021406D01*
X162885971Y-83025220D01*
X162885974Y-83025223D01*
X162901306Y-83036362D01*
X163035222Y-83133658D01*
X163209686Y-83211334D01*
X163216044Y-83212685D01*
X163216046Y-83212686D01*
X163249656Y-83219830D01*
X163396487Y-83251040D01*
X163580958Y-83251040D01*
X163587461Y-83251040D01*
X163774262Y-83211334D01*
X163948726Y-83133658D01*
X164091533Y-83029902D01*
X187263772Y-83029902D01*
X187264451Y-83036362D01*
X187283054Y-83213369D01*
X187283055Y-83213377D01*
X187283734Y-83219830D01*
X187285739Y-83226002D01*
X187285741Y-83226009D01*
X187340741Y-83395279D01*
X187342749Y-83401458D01*
X187438236Y-83566846D01*
X187566023Y-83708768D01*
X187571273Y-83712582D01*
X187571276Y-83712585D01*
X187671789Y-83785612D01*
X187720524Y-83821020D01*
X187894988Y-83898696D01*
X187901346Y-83900047D01*
X187901348Y-83900048D01*
X187926217Y-83905334D01*
X188081789Y-83938402D01*
X188266260Y-83938402D01*
X188272763Y-83938402D01*
X188459564Y-83898696D01*
X188634028Y-83821020D01*
X188788529Y-83708768D01*
X188916316Y-83566846D01*
X189011803Y-83401458D01*
X189070818Y-83219830D01*
X189090780Y-83029902D01*
X189070818Y-82839974D01*
X189011803Y-82658346D01*
X188916316Y-82492958D01*
X188788529Y-82351036D01*
X188783279Y-82347221D01*
X188783275Y-82347218D01*
X188639282Y-82242601D01*
X188639280Y-82242599D01*
X188634028Y-82238784D01*
X188628097Y-82236143D01*
X188628093Y-82236141D01*
X188465502Y-82163751D01*
X188465495Y-82163748D01*
X188459564Y-82161108D01*
X188453211Y-82159757D01*
X188453203Y-82159755D01*
X188279125Y-82122754D01*
X188279122Y-82122753D01*
X188272763Y-82121402D01*
X188081789Y-82121402D01*
X188075430Y-82122753D01*
X188075426Y-82122754D01*
X187901348Y-82159755D01*
X187901337Y-82159758D01*
X187894988Y-82161108D01*
X187889058Y-82163747D01*
X187889049Y-82163751D01*
X187726458Y-82236141D01*
X187726450Y-82236145D01*
X187720524Y-82238784D01*
X187715275Y-82242597D01*
X187715269Y-82242601D01*
X187571276Y-82347218D01*
X187571267Y-82347225D01*
X187566023Y-82351036D01*
X187561679Y-82355859D01*
X187561676Y-82355863D01*
X187508199Y-82415256D01*
X187438236Y-82492958D01*
X187434990Y-82498578D01*
X187434987Y-82498584D01*
X187345997Y-82652719D01*
X187345994Y-82652724D01*
X187342749Y-82658346D01*
X187340743Y-82664518D01*
X187340741Y-82664524D01*
X187285741Y-82833794D01*
X187285739Y-82833803D01*
X187283734Y-82839974D01*
X187283056Y-82846424D01*
X187283054Y-82846434D01*
X187265312Y-83015246D01*
X187263772Y-83029902D01*
X164091533Y-83029902D01*
X164103227Y-83021406D01*
X164231014Y-82879484D01*
X164326501Y-82714096D01*
X164385516Y-82532468D01*
X164405478Y-82342540D01*
X164385516Y-82152612D01*
X164326501Y-81970984D01*
X164231014Y-81805596D01*
X164103227Y-81663674D01*
X164097977Y-81659859D01*
X164097973Y-81659856D01*
X163953980Y-81555239D01*
X163953978Y-81555237D01*
X163948726Y-81551422D01*
X163942795Y-81548781D01*
X163942791Y-81548779D01*
X163780200Y-81476389D01*
X163780193Y-81476386D01*
X163774262Y-81473746D01*
X163767909Y-81472395D01*
X163767901Y-81472393D01*
X163593823Y-81435392D01*
X163593820Y-81435391D01*
X163587461Y-81434040D01*
X163396487Y-81434040D01*
X163390128Y-81435391D01*
X163390124Y-81435392D01*
X163216046Y-81472393D01*
X163216035Y-81472396D01*
X163209686Y-81473746D01*
X163203756Y-81476385D01*
X163203747Y-81476389D01*
X163041156Y-81548779D01*
X163041148Y-81548783D01*
X163035222Y-81551422D01*
X163029973Y-81555235D01*
X163029967Y-81555239D01*
X162885974Y-81659856D01*
X162885965Y-81659863D01*
X162880721Y-81663674D01*
X162876377Y-81668497D01*
X162876374Y-81668501D01*
X162757281Y-81800768D01*
X162752934Y-81805596D01*
X162749688Y-81811216D01*
X162749685Y-81811222D01*
X162660695Y-81965357D01*
X162660692Y-81965362D01*
X162657447Y-81970984D01*
X162655441Y-81977156D01*
X162655439Y-81977162D01*
X162600439Y-82146432D01*
X162600437Y-82146441D01*
X162598432Y-82152612D01*
X162597754Y-82159062D01*
X162597752Y-82159072D01*
X162579752Y-82330335D01*
X162578470Y-82342540D01*
X149363302Y-82342540D01*
X149292870Y-82336997D01*
X149283162Y-82336997D01*
X149037875Y-82356301D01*
X149028290Y-82357819D01*
X148789047Y-82415256D01*
X148779810Y-82418258D01*
X148552504Y-82512411D01*
X148543841Y-82516825D01*
X148336624Y-82643807D01*
X148331559Y-82651387D01*
X147241162Y-82651387D01*
X147230090Y-80346908D01*
X156566495Y-80346908D01*
X156567174Y-80353368D01*
X156585777Y-80530375D01*
X156585778Y-80530383D01*
X156586457Y-80536836D01*
X156588462Y-80543008D01*
X156588464Y-80543015D01*
X156643464Y-80712285D01*
X156645472Y-80718464D01*
X156648719Y-80724088D01*
X156648720Y-80724090D01*
X156692089Y-80799208D01*
X156740959Y-80883852D01*
X156868746Y-81025774D01*
X156873996Y-81029588D01*
X156873999Y-81029591D01*
X156929345Y-81069802D01*
X157023247Y-81138026D01*
X157029180Y-81140667D01*
X157029181Y-81140668D01*
X157142233Y-81191002D01*
X157197711Y-81215702D01*
X157204069Y-81217053D01*
X157204071Y-81217054D01*
X157240873Y-81224876D01*
X157384512Y-81255408D01*
X157568983Y-81255408D01*
X157575486Y-81255408D01*
X157762287Y-81215702D01*
X157936751Y-81138026D01*
X158091252Y-81025774D01*
X158219039Y-80883852D01*
X158314526Y-80718464D01*
X158373541Y-80536836D01*
X158393503Y-80346908D01*
X158373541Y-80156980D01*
X158370546Y-80147763D01*
X159210286Y-80147763D01*
X159216797Y-80208326D01*
X159219503Y-80215583D01*
X159219505Y-80215588D01*
X159254710Y-80309974D01*
X159267897Y-80345329D01*
X159355525Y-80462386D01*
X159472582Y-80550014D01*
X159609585Y-80601114D01*
X159670148Y-80607625D01*
X161464114Y-80607625D01*
X161467424Y-80607625D01*
X161527987Y-80601114D01*
X161664990Y-80550014D01*
X161782047Y-80462386D01*
X161869675Y-80345329D01*
X161893108Y-80282502D01*
X168970209Y-80282502D01*
X168970888Y-80288962D01*
X168989491Y-80465969D01*
X168989492Y-80465977D01*
X168990171Y-80472430D01*
X168992176Y-80478602D01*
X168992178Y-80478609D01*
X169047178Y-80647879D01*
X169049186Y-80654058D01*
X169052433Y-80659682D01*
X169052434Y-80659684D01*
X169132988Y-80799208D01*
X169144673Y-80819446D01*
X169272460Y-80961368D01*
X169277710Y-80965182D01*
X169277713Y-80965185D01*
X169420576Y-81068981D01*
X169426961Y-81073620D01*
X169432894Y-81076261D01*
X169432895Y-81076262D01*
X169589729Y-81146089D01*
X169601425Y-81151296D01*
X169607783Y-81152647D01*
X169607785Y-81152648D01*
X169632969Y-81158001D01*
X169788226Y-81191002D01*
X169972697Y-81191002D01*
X169979200Y-81191002D01*
X170134457Y-81158001D01*
X198253535Y-81158001D01*
X198258599Y-81165581D01*
X198465818Y-81292565D01*
X198474481Y-81296979D01*
X198701787Y-81391132D01*
X198711024Y-81394134D01*
X198950267Y-81451571D01*
X198959852Y-81453089D01*
X199205139Y-81472394D01*
X199214847Y-81472394D01*
X199460133Y-81453089D01*
X199469718Y-81451571D01*
X199708961Y-81394134D01*
X199718198Y-81391132D01*
X199945504Y-81296979D01*
X199954167Y-81292565D01*
X200161390Y-81165579D01*
X200166450Y-81158003D01*
X200159777Y-81146088D01*
X199221535Y-80207846D01*
X199209993Y-80201182D01*
X199198450Y-80207846D01*
X198260206Y-81146089D01*
X198253535Y-81158001D01*
X170134457Y-81158001D01*
X170166001Y-81151296D01*
X170340465Y-81073620D01*
X170494966Y-80961368D01*
X170622753Y-80819446D01*
X170718240Y-80654058D01*
X170777255Y-80472430D01*
X170797217Y-80282502D01*
X170789146Y-80205706D01*
X178292868Y-80205706D01*
X178293220Y-80208986D01*
X178293221Y-80208992D01*
X178295559Y-80230744D01*
X178299379Y-80266269D01*
X178302085Y-80273526D01*
X178302087Y-80273531D01*
X178347379Y-80394962D01*
X178350479Y-80403272D01*
X178355793Y-80410371D01*
X178355794Y-80410372D01*
X178397413Y-80465969D01*
X178438107Y-80520329D01*
X178555164Y-80607957D01*
X178692167Y-80659057D01*
X178752730Y-80665568D01*
X180546696Y-80665568D01*
X180550006Y-80665568D01*
X180610569Y-80659057D01*
X180747572Y-80607957D01*
X180864629Y-80520329D01*
X180952257Y-80403272D01*
X180997505Y-80281957D01*
X181033457Y-80230744D01*
X181089838Y-80203606D01*
X181152293Y-80207454D01*
X181204916Y-80241308D01*
X181264656Y-80306203D01*
X181264659Y-80306206D01*
X181268128Y-80309974D01*
X181272169Y-80313119D01*
X181441744Y-80445107D01*
X181441749Y-80445110D01*
X181445792Y-80448257D01*
X181450299Y-80450696D01*
X181450302Y-80450698D01*
X181597533Y-80530375D01*
X181643794Y-80555410D01*
X181856733Y-80628512D01*
X182078799Y-80665568D01*
X182298804Y-80665568D01*
X182303937Y-80665568D01*
X182526003Y-80628512D01*
X182738942Y-80555410D01*
X182936944Y-80448257D01*
X183114608Y-80309974D01*
X183267090Y-80144336D01*
X183294439Y-80102476D01*
X183357559Y-80005863D01*
X183402350Y-79964629D01*
X183461368Y-79949684D01*
X183520386Y-79964629D01*
X183565177Y-80005863D01*
X183652838Y-80140040D01*
X183652846Y-80140050D01*
X183655646Y-80144336D01*
X183659120Y-80148109D01*
X183659121Y-80148111D01*
X183804656Y-80306203D01*
X183804659Y-80306206D01*
X183808128Y-80309974D01*
X183812169Y-80313119D01*
X183981744Y-80445107D01*
X183981749Y-80445110D01*
X183985792Y-80448257D01*
X183990299Y-80450696D01*
X183990302Y-80450698D01*
X184137533Y-80530375D01*
X184183794Y-80555410D01*
X184396733Y-80628512D01*
X184618799Y-80665568D01*
X184838804Y-80665568D01*
X184843937Y-80665568D01*
X185066003Y-80628512D01*
X185278942Y-80555410D01*
X185476944Y-80448257D01*
X185654608Y-80309974D01*
X185807090Y-80144336D01*
X185930228Y-79955859D01*
X185977712Y-79847605D01*
X197580350Y-79847605D01*
X197599654Y-80092891D01*
X197601172Y-80102476D01*
X197658609Y-80341719D01*
X197661611Y-80350956D01*
X197755764Y-80578262D01*
X197760178Y-80586925D01*
X197887161Y-80794143D01*
X197894740Y-80799207D01*
X197906656Y-80792533D01*
X198844897Y-79854293D01*
X198851561Y-79842751D01*
X199568424Y-79842751D01*
X199575088Y-79854293D01*
X200513330Y-80792535D01*
X200525245Y-80799208D01*
X200532821Y-80794148D01*
X200659807Y-80586925D01*
X200664221Y-80578262D01*
X200758374Y-80350956D01*
X200761376Y-80341719D01*
X200818813Y-80102476D01*
X200820331Y-80092891D01*
X200839636Y-79847605D01*
X200839636Y-79837897D01*
X200820331Y-79592610D01*
X200818813Y-79583025D01*
X200761376Y-79343782D01*
X200758374Y-79334545D01*
X200664221Y-79107239D01*
X200659807Y-79098576D01*
X200532823Y-78891357D01*
X200525243Y-78886293D01*
X200513331Y-78892964D01*
X199575088Y-79831208D01*
X199568424Y-79842751D01*
X198851561Y-79842751D01*
X198844897Y-79831208D01*
X197906655Y-78892966D01*
X197894740Y-78886294D01*
X197887160Y-78891359D01*
X197760178Y-79098576D01*
X197755764Y-79107239D01*
X197661611Y-79334545D01*
X197658609Y-79343782D01*
X197601172Y-79583025D01*
X197599654Y-79592610D01*
X197580350Y-79837897D01*
X197580350Y-79847605D01*
X185977712Y-79847605D01*
X186020664Y-79749684D01*
X186075932Y-79531436D01*
X186094524Y-79307068D01*
X186075932Y-79082700D01*
X186020664Y-78864452D01*
X185930228Y-78658277D01*
X185844786Y-78527498D01*
X198253536Y-78527498D01*
X198260208Y-78539413D01*
X199198450Y-79477655D01*
X199209993Y-79484319D01*
X199221535Y-79477655D01*
X200159775Y-78539414D01*
X200166449Y-78527498D01*
X200161385Y-78519919D01*
X199954167Y-78392936D01*
X199945504Y-78388522D01*
X199718198Y-78294369D01*
X199708961Y-78291367D01*
X199469718Y-78233930D01*
X199460133Y-78232412D01*
X199214847Y-78213108D01*
X199205139Y-78213108D01*
X198959852Y-78232412D01*
X198950267Y-78233930D01*
X198711024Y-78291367D01*
X198701787Y-78294369D01*
X198474481Y-78388522D01*
X198465818Y-78392936D01*
X198258601Y-78519918D01*
X198253536Y-78527498D01*
X185844786Y-78527498D01*
X185807090Y-78469800D01*
X185803614Y-78466024D01*
X185658079Y-78307932D01*
X185658074Y-78307927D01*
X185654608Y-78304162D01*
X185626984Y-78282661D01*
X185480991Y-78169028D01*
X185480983Y-78169023D01*
X185476944Y-78165879D01*
X185472439Y-78163441D01*
X185472433Y-78163437D01*
X185283448Y-78061164D01*
X185283442Y-78061161D01*
X185278942Y-78058726D01*
X185274101Y-78057064D01*
X185274094Y-78057061D01*
X185070856Y-77987290D01*
X185070855Y-77987289D01*
X185066003Y-77985624D01*
X185060953Y-77984781D01*
X185060944Y-77984779D01*
X184848999Y-77949412D01*
X184848990Y-77949411D01*
X184843937Y-77948568D01*
X184618799Y-77948568D01*
X184613746Y-77949411D01*
X184613736Y-77949412D01*
X184401791Y-77984779D01*
X184401779Y-77984781D01*
X184396733Y-77985624D01*
X184391883Y-77987288D01*
X184391879Y-77987290D01*
X184188641Y-78057061D01*
X184188630Y-78057065D01*
X184183794Y-78058726D01*
X184179297Y-78061159D01*
X184179287Y-78061164D01*
X183990302Y-78163437D01*
X183990290Y-78163444D01*
X183985792Y-78165879D01*
X183981757Y-78169019D01*
X183981744Y-78169028D01*
X183812169Y-78301016D01*
X183812163Y-78301020D01*
X183808128Y-78304162D01*
X183804665Y-78307923D01*
X183804656Y-78307932D01*
X183659121Y-78466024D01*
X183659115Y-78466031D01*
X183655646Y-78469800D01*
X183652849Y-78474080D01*
X183652842Y-78474090D01*
X183565177Y-78608273D01*
X183520385Y-78649506D01*
X183461368Y-78664451D01*
X183402351Y-78649506D01*
X183357559Y-78608273D01*
X183269893Y-78474090D01*
X183269891Y-78474088D01*
X183267090Y-78469800D01*
X183263614Y-78466024D01*
X183118079Y-78307932D01*
X183118074Y-78307927D01*
X183114608Y-78304162D01*
X183086984Y-78282661D01*
X182940991Y-78169028D01*
X182940983Y-78169023D01*
X182936944Y-78165879D01*
X182932439Y-78163441D01*
X182932433Y-78163437D01*
X182743448Y-78061164D01*
X182743442Y-78061161D01*
X182738942Y-78058726D01*
X182734101Y-78057064D01*
X182734094Y-78057061D01*
X182530856Y-77987290D01*
X182530855Y-77987289D01*
X182526003Y-77985624D01*
X182520953Y-77984781D01*
X182520944Y-77984779D01*
X182308999Y-77949412D01*
X182308990Y-77949411D01*
X182303937Y-77948568D01*
X182078799Y-77948568D01*
X182073746Y-77949411D01*
X182073736Y-77949412D01*
X181861791Y-77984779D01*
X181861779Y-77984781D01*
X181856733Y-77985624D01*
X181851883Y-77987288D01*
X181851879Y-77987290D01*
X181648641Y-78057061D01*
X181648630Y-78057065D01*
X181643794Y-78058726D01*
X181639297Y-78061159D01*
X181639287Y-78061164D01*
X181450302Y-78163437D01*
X181450290Y-78163444D01*
X181445792Y-78165879D01*
X181441757Y-78169019D01*
X181441744Y-78169028D01*
X181272169Y-78301016D01*
X181272163Y-78301020D01*
X181268128Y-78304162D01*
X181264662Y-78307926D01*
X181264662Y-78307927D01*
X181204916Y-78372828D01*
X181152292Y-78406681D01*
X181089838Y-78410529D01*
X181033457Y-78383391D01*
X180997505Y-78332178D01*
X180987055Y-78304162D01*
X180952257Y-78210864D01*
X180864629Y-78093807D01*
X180817766Y-78058726D01*
X180754672Y-78011494D01*
X180754671Y-78011493D01*
X180747572Y-78006179D01*
X180739264Y-78003080D01*
X180739262Y-78003079D01*
X180617831Y-77957787D01*
X180617826Y-77957785D01*
X180610569Y-77955079D01*
X180602865Y-77954250D01*
X180602862Y-77954250D01*
X180553292Y-77948921D01*
X180553286Y-77948920D01*
X180550006Y-77948568D01*
X178752730Y-77948568D01*
X178749450Y-77948920D01*
X178749443Y-77948921D01*
X178699873Y-77954250D01*
X178699868Y-77954250D01*
X178692167Y-77955079D01*
X178684911Y-77957785D01*
X178684904Y-77957787D01*
X178563473Y-78003079D01*
X178563467Y-78003081D01*
X178555164Y-78006179D01*
X178548066Y-78011491D01*
X178548063Y-78011494D01*
X178445203Y-78088494D01*
X178445199Y-78088497D01*
X178438107Y-78093807D01*
X178432797Y-78100899D01*
X178432794Y-78100903D01*
X178355794Y-78203763D01*
X178355791Y-78203766D01*
X178350479Y-78210864D01*
X178347381Y-78219167D01*
X178347379Y-78219173D01*
X178302087Y-78340604D01*
X178302085Y-78340611D01*
X178299379Y-78347867D01*
X178298550Y-78355568D01*
X178298550Y-78355573D01*
X178293221Y-78405143D01*
X178292868Y-78408430D01*
X178292868Y-80205706D01*
X170789146Y-80205706D01*
X170777255Y-80092574D01*
X170718240Y-79910946D01*
X170622753Y-79745558D01*
X170494966Y-79603636D01*
X170489716Y-79599821D01*
X170489712Y-79599818D01*
X170345719Y-79495201D01*
X170345717Y-79495199D01*
X170340465Y-79491384D01*
X170334534Y-79488743D01*
X170334530Y-79488741D01*
X170171939Y-79416351D01*
X170171932Y-79416348D01*
X170166001Y-79413708D01*
X170159648Y-79412357D01*
X170159640Y-79412355D01*
X169985562Y-79375354D01*
X169985559Y-79375353D01*
X169979200Y-79374002D01*
X169788226Y-79374002D01*
X169781867Y-79375353D01*
X169781863Y-79375354D01*
X169607785Y-79412355D01*
X169607774Y-79412358D01*
X169601425Y-79413708D01*
X169595495Y-79416347D01*
X169595486Y-79416351D01*
X169432895Y-79488741D01*
X169432887Y-79488745D01*
X169426961Y-79491384D01*
X169421712Y-79495197D01*
X169421706Y-79495201D01*
X169277713Y-79599818D01*
X169277704Y-79599825D01*
X169272460Y-79603636D01*
X169268116Y-79608459D01*
X169268113Y-79608463D01*
X169210122Y-79672869D01*
X169144673Y-79745558D01*
X169141427Y-79751178D01*
X169141424Y-79751184D01*
X169052434Y-79905319D01*
X169052431Y-79905324D01*
X169049186Y-79910946D01*
X169047180Y-79917118D01*
X169047178Y-79917124D01*
X168992178Y-80086394D01*
X168992176Y-80086403D01*
X168990171Y-80092574D01*
X168989493Y-80099024D01*
X168989491Y-80099034D01*
X168972725Y-80258562D01*
X168970209Y-80282502D01*
X161893108Y-80282502D01*
X161920775Y-80208326D01*
X161927286Y-80147763D01*
X161927286Y-78350487D01*
X161920775Y-78289924D01*
X161869675Y-78152921D01*
X161782047Y-78035864D01*
X161738251Y-78003079D01*
X161672090Y-77953551D01*
X161672089Y-77953550D01*
X161664990Y-77948236D01*
X161656682Y-77945137D01*
X161656680Y-77945136D01*
X161535249Y-77899844D01*
X161535244Y-77899842D01*
X161527987Y-77897136D01*
X161520283Y-77896307D01*
X161520280Y-77896307D01*
X161470710Y-77890978D01*
X161470704Y-77890977D01*
X161467424Y-77890625D01*
X159670148Y-77890625D01*
X159666868Y-77890977D01*
X159666861Y-77890978D01*
X159617291Y-77896307D01*
X159617286Y-77896307D01*
X159609585Y-77897136D01*
X159602329Y-77899842D01*
X159602322Y-77899844D01*
X159480891Y-77945136D01*
X159480885Y-77945138D01*
X159472582Y-77948236D01*
X159465484Y-77953548D01*
X159465481Y-77953551D01*
X159362621Y-78030551D01*
X159362617Y-78030554D01*
X159355525Y-78035864D01*
X159350215Y-78042956D01*
X159350212Y-78042960D01*
X159273212Y-78145820D01*
X159273209Y-78145823D01*
X159267897Y-78152921D01*
X159264799Y-78161224D01*
X159264797Y-78161230D01*
X159219505Y-78282661D01*
X159219503Y-78282668D01*
X159216797Y-78289924D01*
X159215968Y-78297625D01*
X159215968Y-78297630D01*
X159210639Y-78347200D01*
X159210286Y-78350487D01*
X159210286Y-80147763D01*
X158370546Y-80147763D01*
X158314526Y-79975352D01*
X158219039Y-79809964D01*
X158091252Y-79668042D01*
X158086002Y-79664227D01*
X158085998Y-79664224D01*
X157942005Y-79559607D01*
X157942003Y-79559605D01*
X157936751Y-79555790D01*
X157930820Y-79553149D01*
X157930816Y-79553147D01*
X157768225Y-79480757D01*
X157768218Y-79480754D01*
X157762287Y-79478114D01*
X157755934Y-79476763D01*
X157755926Y-79476761D01*
X157581848Y-79439760D01*
X157581845Y-79439759D01*
X157575486Y-79438408D01*
X157384512Y-79438408D01*
X157378153Y-79439759D01*
X157378149Y-79439760D01*
X157204071Y-79476761D01*
X157204060Y-79476764D01*
X157197711Y-79478114D01*
X157191781Y-79480753D01*
X157191772Y-79480757D01*
X157029181Y-79553147D01*
X157029173Y-79553151D01*
X157023247Y-79555790D01*
X157017998Y-79559603D01*
X157017992Y-79559607D01*
X156873999Y-79664224D01*
X156873990Y-79664231D01*
X156868746Y-79668042D01*
X156864402Y-79672865D01*
X156864399Y-79672869D01*
X156745306Y-79805136D01*
X156740959Y-79809964D01*
X156737713Y-79815584D01*
X156737710Y-79815590D01*
X156648720Y-79969725D01*
X156648717Y-79969730D01*
X156645472Y-79975352D01*
X156643466Y-79981524D01*
X156643464Y-79981530D01*
X156588464Y-80150800D01*
X156588462Y-80150809D01*
X156586457Y-80156980D01*
X156585779Y-80163430D01*
X156585777Y-80163440D01*
X156575780Y-80258562D01*
X156566495Y-80346908D01*
X147230090Y-80346908D01*
X147216989Y-77620095D01*
X147233403Y-77557844D01*
X147278816Y-77512212D01*
X147340988Y-77495500D01*
X201780500Y-77495500D01*
X201842500Y-77512113D01*
G37*
%TD.AperFunction*%
%TD*%
M02*
