M48
INCH
T1C0.0118
T2C0.0157
T3C0.0394
T4C0.0551
T5C0.0591
%
G90
G05
T1
X6.4083Y-3.4322
X6.4083Y-3.4716
X6.4083Y-3.5109
X6.4477Y-3.4322
X6.4477Y-3.4716
X6.4477Y-3.5109
X6.487Y-3.4322
X6.487Y-3.4716
X6.487Y-3.5109
X6.7841Y-3.4732
X6.7841Y-3.5602
T2
X5.9802Y-3.3577
X6.0082Y-3.632
X6.0109Y-3.7219
X6.1144Y-3.4318
X6.1196Y-3.6369
X6.2Y-3.1633
X6.2132Y-3.2883
X6.2684Y-3.5109
X6.2883Y-3.5471
X6.2891Y-3.5878
X6.2934Y-3.4319
X6.2975Y-3.3729
X6.3011Y-3.688
X6.3144Y-3.2428
X6.3244Y-3.6272
X6.3657Y-3.7299
X6.3805Y-3.6483
X6.4367Y-3.2418
X6.483Y-3.6225
X6.5276Y-3.7519
X6.5485Y-3.6202
X6.5544Y-3.2792
X6.5981Y-3.4196
X6.6057Y-3.6185
X6.6127Y-3.4902
X6.6492Y-3.5695
X6.6502Y-3.4952
X6.6883Y-3.1607
X6.7209Y-3.6052
X6.7244Y-3.439
X6.7246Y-3.2758
X6.7816Y-3.6192
X6.7927Y-3.4157
X6.8518Y-3.6538
X6.8819Y-3.4186
X6.9169Y-3.553
X6.9472Y-3.418
X6.9516Y-3.3299
X7.0217Y-3.2269
X7.0623Y-3.458
X7.0635Y-3.4141
X7.0689Y-3.6846
X7.0982Y-3.4146
X7.0982Y-3.458
X7.1459Y-3.6218
X7.1473Y-3.5421
X7.1473Y-3.5421
X7.1819Y-3.5112
X7.2154Y-3.4394
X7.2218Y-3.266
X7.2342Y-3.5159
X7.2607Y-3.4369
X7.2802Y-3.5134
X7.306Y-3.3204
X7.3189Y-3.668
X7.3803Y-3.6682
X7.3988Y-3.4047
X7.4086Y-3.2689
X7.4193Y-3.5462
X7.4466Y-3.5023
X7.4473Y-3.4252
X7.5433Y-3.4946
X7.5435Y-3.5556
X7.5435Y-3.6154
X7.5439Y-3.434
X7.5447Y-3.375
X7.5453Y-3.3182
X7.5875Y-3.4957
X7.5892Y-3.4334
X7.63Y-3.4952
X7.6317Y-3.4334
T3
X5.8722Y-3.4471
X5.8766Y-3.824
X5.9766Y-3.824
X6.0766Y-3.824
X6.1766Y-3.824
X6.2766Y-3.824
X6.3216Y-3.12
X6.3766Y-3.824
X7.0003Y-3.8248
X7.0729Y-3.1223
X7.1729Y-3.1223
X7.241Y-3.8252
X7.2729Y-3.1223
T4
X7.8Y-3.4635
T5
X5.8761Y-3.5788
X5.8775Y-3.3058
X7.6996Y-3.3631
X7.6996Y-3.5639
X7.8429Y-3.1434
X7.8429Y-3.8359
X7.9004Y-3.3631
X7.9004Y-3.5639
T0
M30
