%TF.GenerationSoftware,KiCad,Pcbnew,(7.0.0)*%
%TF.CreationDate,2023-03-06T00:02:43-06:00*%
%TF.ProjectId,RF Signal Source,52462053-6967-46e6-916c-20536f757263,rev?*%
%TF.SameCoordinates,Original*%
%TF.FileFunction,Copper,L4,Bot*%
%TF.FilePolarity,Positive*%
%FSLAX46Y46*%
G04 Gerber Fmt 4.6, Leading zero omitted, Abs format (unit mm)*
G04 Created by KiCad (PCBNEW (7.0.0)) date 2023-03-06 00:02:43*
%MOMM*%
%LPD*%
G01*
G04 APERTURE LIST*
%TA.AperFunction,ComponentPad*%
%ADD10C,2.250000*%
%TD*%
%TA.AperFunction,ComponentPad*%
%ADD11C,0.500000*%
%TD*%
%TA.AperFunction,SMDPad,CuDef*%
%ADD12R,2.500000X2.500000*%
%TD*%
%TA.AperFunction,ComponentPad*%
%ADD13R,1.700000X1.700000*%
%TD*%
%TA.AperFunction,ComponentPad*%
%ADD14O,1.700000X1.700000*%
%TD*%
%TA.AperFunction,ComponentPad*%
%ADD15C,0.610000*%
%TD*%
%TA.AperFunction,ComponentPad*%
%ADD16C,2.100000*%
%TD*%
%TA.AperFunction,ViaPad*%
%ADD17C,0.800000*%
%TD*%
%TA.AperFunction,Conductor*%
%ADD18C,0.250000*%
%TD*%
%TA.AperFunction,Conductor*%
%ADD19C,0.400000*%
%TD*%
G04 APERTURE END LIST*
D10*
%TO.P,,S4*%
%TO.N,GND*%
X149288016Y-83966640D03*
%TD*%
%TO.P,,S4*%
%TO.N,GND*%
X149252267Y-90901942D03*
%TD*%
%TO.P,,S4*%
%TO.N,GND*%
X199209993Y-97431249D03*
%TD*%
%TO.P,,S4*%
%TO.N,GND*%
X199209993Y-79842751D03*
%TD*%
D11*
%TO.P,U2,33,EP*%
%TO.N,GND*%
X164770367Y-87177500D03*
X163770367Y-87177500D03*
X162770367Y-87177500D03*
X164770367Y-88177500D03*
D12*
X163770366Y-88177499D03*
D11*
X163770367Y-88177500D03*
X162770367Y-88177500D03*
X164770367Y-89177500D03*
X163770367Y-89177500D03*
X162770367Y-89177500D03*
%TD*%
D13*
%TO.P,J3,1,Pin_1*%
%TO.N,MCU3V3*%
X160568785Y-79249124D03*
%TD*%
%TO.P,J8,1,Pin_1*%
%TO.N,SIGNAL_PWR*%
X177808718Y-97150920D03*
%TD*%
%TO.P,J7,1,Pin_1*%
%TO.N,AMP_PWRDWN*%
X183920627Y-97160140D03*
%TD*%
%TO.P,J4,1,Pin_1*%
%TO.N,5V*%
X149154436Y-87556971D03*
%TD*%
%TO.P,J6,1,Pin_1*%
%TO.N,ATTENDATA*%
X179651367Y-79307067D03*
D14*
%TO.P,J6,2,Pin_2*%
%TO.N,ATTENCLK*%
X182191367Y-79307067D03*
%TO.P,J6,3,Pin_3*%
%TO.N,ATTENLE*%
X184731367Y-79307067D03*
%TD*%
%TO.P,J5,6,Pin_6*%
%TO.N,MAXMUX*%
X149266769Y-97128697D03*
%TO.P,J5,5,Pin_5*%
%TO.N,MAXLD*%
X151806769Y-97128697D03*
%TO.P,J5,4,Pin_4*%
%TO.N,MAXCLK*%
X154346769Y-97128697D03*
%TO.P,J5,3,Pin_3*%
%TO.N,MAXDATA*%
X156886769Y-97128697D03*
%TO.P,J5,2,Pin_2*%
%TO.N,MAXLE*%
X159426769Y-97128697D03*
D13*
%TO.P,J5,1,Pin_1*%
%TO.N,MAXCE*%
X161966769Y-97128697D03*
%TD*%
D15*
%TO.P,FL1,4,GND*%
%TO.N,GND*%
X172315169Y-88219699D03*
%TO.P,FL1,2,GND*%
X172315169Y-90429699D03*
%TD*%
D16*
%TO.P,J1,1,In*%
%TO.N,Net-(J1-In)*%
X198120000Y-87973684D03*
D10*
%TO.P,J1,S1*%
%TO.N,GND*%
X195570000Y-90523684D03*
%TO.P,J1,S2*%
X200670000Y-90523684D03*
%TO.P,J1,S3*%
X200670000Y-85423684D03*
%TO.P,J1,S4*%
X195570000Y-85423684D03*
%TD*%
D17*
%TO.N,GND*%
X179383189Y-87833184D03*
X180294437Y-87833184D03*
X180294437Y-86732092D03*
X179413564Y-86716905D03*
%TO.N,3V3*%
X152678022Y-94536872D03*
%TO.N,GND*%
X161689252Y-94739373D03*
%TO.N,VCC_CP*%
X160049005Y-93676250D03*
%TO.N,MCU3V3*%
X159723000Y-90095247D03*
X159853500Y-87169998D03*
%TO.N,GND*%
X191604991Y-91831180D03*
X191604991Y-90312434D03*
X184420689Y-87296761D03*
%TO.N,3V3*%
X169883713Y-80282502D03*
%TO.N,5V*%
X188177276Y-83029902D03*
%TO.N,GND*%
X191650553Y-84283010D03*
X191635366Y-85725819D03*
%TO.N,VCC_CP*%
X167784851Y-91910766D03*
%TO.N,CP_OUT*%
X166331234Y-91953563D03*
%TO.N,VCC_CP*%
X164668860Y-92011601D03*
%TO.N,GND*%
X175689615Y-90247447D03*
X172252692Y-91928872D03*
X170712002Y-91573328D03*
X170800888Y-87351246D03*
X172534164Y-86758674D03*
X174800756Y-86832745D03*
X176459960Y-86817931D03*
X178351588Y-81963271D03*
X183433068Y-82957643D03*
X183271923Y-87360623D03*
%TO.N,MAXLD*%
X152609213Y-92251662D03*
%TO.N,GND*%
X155438998Y-92376021D03*
%TO.N,MAXMUX*%
X159216751Y-89177249D03*
%TO.N,MAXCLK*%
X159743465Y-91130545D03*
%TO.N,5V*%
X155305042Y-87168280D03*
%TO.N,GND*%
X166481252Y-83290863D03*
%TO.N,CP_OUT*%
X163491974Y-82342540D03*
%TO.N,GND*%
X179550044Y-93588615D03*
X165801041Y-95297938D03*
X157814755Y-83523713D03*
X160385320Y-82368081D03*
X189142540Y-88957565D03*
X189161728Y-87000353D03*
X167961724Y-88650551D03*
X168914746Y-88778473D03*
X168889161Y-90665328D03*
%TO.N,3V3*%
X157479999Y-80346908D03*
%TO.N,GND*%
X193802504Y-88777499D03*
X193845678Y-87208851D03*
X192723159Y-88791890D03*
X192766333Y-87208851D03*
X191600640Y-88763108D03*
X191615032Y-87223243D03*
X185573506Y-84338826D03*
%TO.N,3V3*%
X176569815Y-84579373D03*
X174035088Y-92806648D03*
%TO.N,GND*%
X185899708Y-93166210D03*
X187460361Y-93172606D03*
X170803621Y-83205972D03*
X151896189Y-85285452D03*
X182419479Y-89185693D03*
X184918229Y-89241126D03*
X183749871Y-89305087D03*
%TO.N,*%
X181541728Y-89968151D03*
X181541728Y-89968151D03*
%TO.N,GND*%
X187930151Y-86479394D03*
%TO.N,AMP_PWRDWN*%
X188449768Y-90072829D03*
%TO.N,3V3*%
X181505055Y-91994715D03*
X167592029Y-86858897D03*
%TO.N,MAXLD*%
X159957117Y-85670477D03*
%TO.N,MAXLE*%
X162065457Y-92666113D03*
%TO.N,MAXDATA*%
X160638909Y-92131335D03*
%TD*%
D18*
%TO.N,VCC_CP*%
X161363909Y-91831030D02*
X161754939Y-91440000D01*
X161754939Y-91440000D02*
X164097259Y-91440000D01*
X164097259Y-91440000D02*
X164668860Y-92011601D01*
X161363909Y-92431640D02*
X161363909Y-91831030D01*
X160049005Y-93676250D02*
X160119299Y-93676250D01*
X160119299Y-93676250D02*
X161363909Y-92431640D01*
D19*
%TO.N,5V*%
X155305042Y-83454958D02*
X155305042Y-87168280D01*
X165100000Y-81865885D02*
X164514115Y-81280000D01*
X165100000Y-83525871D02*
X165100000Y-81865885D01*
X157480000Y-81280000D02*
X155305042Y-83454958D01*
X167481923Y-85907794D02*
X165100000Y-83525871D01*
X185299384Y-85907794D02*
X167481923Y-85907794D01*
X164514115Y-81280000D02*
X157480000Y-81280000D01*
X188177276Y-83029902D02*
X185299384Y-85907794D01*
D18*
%TO.N,MCU3V3*%
X159941751Y-89876496D02*
X159723000Y-90095247D01*
X159941751Y-87258249D02*
X159941751Y-89876496D01*
X159853500Y-87169998D02*
X159941751Y-87258249D01*
%TO.N,CP_OUT*%
X162195367Y-83639147D02*
X163491974Y-82342540D01*
X162195367Y-89752500D02*
X162195367Y-83639147D01*
X166331234Y-91953563D02*
X164130171Y-89752500D01*
X164130171Y-89752500D02*
X162195367Y-89752500D01*
%TO.N,VCC_CP*%
X167017054Y-92678563D02*
X165335822Y-92678563D01*
X165335822Y-92678563D02*
X164668860Y-92011601D01*
X167784851Y-91910766D02*
X167017054Y-92678563D01*
%TO.N,MAXLE*%
X159426770Y-95304800D02*
X159426770Y-97128698D01*
X162065457Y-92666113D02*
X159426770Y-95304800D01*
%TO.N,MAXDATA*%
X160638909Y-92131335D02*
X156886770Y-95883474D01*
X156886770Y-95883474D02*
X156886770Y-97128698D01*
%TO.N,MAXCLK*%
X159743465Y-91732003D02*
X154346770Y-97128698D01*
X159743465Y-91130545D02*
X159743465Y-91732003D01*
%TO.N,AMP_PWRDWN*%
X185242228Y-95838541D02*
X183920628Y-97160141D01*
X185242228Y-94848995D02*
X185242228Y-95838541D01*
X186624708Y-93466515D02*
X185242228Y-94848995D01*
X186624708Y-91897889D02*
X186624708Y-93466515D01*
X188449768Y-90072829D02*
X186624708Y-91897889D01*
%TO.N,MAXLD*%
X152609213Y-90327112D02*
X154103646Y-88832679D01*
X156651710Y-86417945D02*
X157399178Y-85670477D01*
X156651710Y-88832679D02*
X156651710Y-86417945D01*
X157399178Y-85670477D02*
X159957117Y-85670477D01*
X154103646Y-88832679D02*
X156651710Y-88832679D01*
X152609213Y-92251662D02*
X152609213Y-90327112D01*
%TD*%
M02*
