%TF.GenerationSoftware,KiCad,Pcbnew,(7.0.0)*%
%TF.CreationDate,2023-03-06T00:02:43-06:00*%
%TF.ProjectId,RF Signal Source,52462053-6967-46e6-916c-20536f757263,rev?*%
%TF.SameCoordinates,Original*%
%TF.FileFunction,Soldermask,Top*%
%TF.FilePolarity,Negative*%
%FSLAX46Y46*%
G04 Gerber Fmt 4.6, Leading zero omitted, Abs format (unit mm)*
G04 Created by KiCad (PCBNEW (7.0.0)) date 2023-03-06 00:02:43*
%MOMM*%
%LPD*%
G01*
G04 APERTURE LIST*
G04 Aperture macros list*
%AMRoundRect*
0 Rectangle with rounded corners*
0 $1 Rounding radius*
0 $2 $3 $4 $5 $6 $7 $8 $9 X,Y pos of 4 corners*
0 Add a 4 corners polygon primitive as box body*
4,1,4,$2,$3,$4,$5,$6,$7,$8,$9,$2,$3,0*
0 Add four circle primitives for the rounded corners*
1,1,$1+$1,$2,$3*
1,1,$1+$1,$4,$5*
1,1,$1+$1,$6,$7*
1,1,$1+$1,$8,$9*
0 Add four rect primitives between the rounded corners*
20,1,$1+$1,$2,$3,$4,$5,0*
20,1,$1+$1,$4,$5,$6,$7,0*
20,1,$1+$1,$6,$7,$8,$9,0*
20,1,$1+$1,$8,$9,$2,$3,0*%
G04 Aperture macros list end*
%ADD10C,0.010000*%
%ADD11C,0.203200*%
%ADD12C,2.250000*%
%ADD13R,3.300000X3.300000*%
%ADD14RoundRect,0.062500X0.375000X-0.062500X0.375000X0.062500X-0.375000X0.062500X-0.375000X-0.062500X0*%
%ADD15RoundRect,0.062500X0.062500X-0.375000X0.062500X0.375000X-0.062500X0.375000X-0.062500X-0.375000X0*%
%ADD16R,1.700000X1.700000*%
%ADD17O,1.700000X1.700000*%
%ADD18R,0.380000X0.400000*%
%ADD19RoundRect,0.152500X-0.152500X-0.470000X0.152500X-0.470000X0.152500X0.470000X-0.152500X0.470000X0*%
%ADD20C,0.610000*%
%ADD21RoundRect,0.249600X-0.270400X-0.650400X0.270400X-0.650400X0.270400X0.650400X-0.270400X0.650400X0*%
%ADD22RoundRect,0.135000X-0.185000X0.135000X-0.185000X-0.135000X0.185000X-0.135000X0.185000X0.135000X0*%
%ADD23RoundRect,0.012800X-0.332200X-0.147200X0.332200X-0.147200X0.332200X0.147200X-0.332200X0.147200X0*%
%ADD24R,1.000000X1.600000*%
%ADD25RoundRect,0.140000X-0.140000X-0.170000X0.140000X-0.170000X0.140000X0.170000X-0.140000X0.170000X0*%
%ADD26RoundRect,0.140000X0.140000X0.170000X-0.140000X0.170000X-0.140000X-0.170000X0.140000X-0.170000X0*%
%ADD27RoundRect,0.140000X-0.170000X0.140000X-0.170000X-0.140000X0.170000X-0.140000X0.170000X0.140000X0*%
%ADD28RoundRect,0.062500X-0.287500X-0.062500X0.287500X-0.062500X0.287500X0.062500X-0.287500X0.062500X0*%
%ADD29R,0.900000X1.500000*%
%ADD30RoundRect,0.135000X0.185000X-0.135000X0.185000X0.135000X-0.185000X0.135000X-0.185000X-0.135000X0*%
%ADD31RoundRect,0.135000X0.135000X0.185000X-0.135000X0.185000X-0.135000X-0.185000X0.135000X-0.185000X0*%
%ADD32RoundRect,0.140000X0.170000X-0.140000X0.170000X0.140000X-0.170000X0.140000X-0.170000X-0.140000X0*%
%ADD33RoundRect,0.135000X-0.135000X-0.185000X0.135000X-0.185000X0.135000X0.185000X-0.135000X0.185000X0*%
%ADD34R,0.650000X0.750000*%
%ADD35C,2.100000*%
%ADD36R,0.400000X0.380000*%
%ADD37RoundRect,0.147500X-0.172500X0.147500X-0.172500X-0.147500X0.172500X-0.147500X0.172500X0.147500X0*%
%ADD38R,0.610000X2.200000*%
%ADD39R,0.700000X0.250000*%
G04 APERTURE END LIST*
%TO.C,IC1*%
G36*
X178258025Y-86130424D02*
G01*
X177503575Y-86130424D01*
X177503575Y-85832574D01*
X178258025Y-85832574D01*
X178258025Y-86130424D01*
G37*
D10*
X178258025Y-86130424D02*
X177503575Y-86130424D01*
X177503575Y-85832574D01*
X178258025Y-85832574D01*
X178258025Y-86130424D01*
G36*
X178258025Y-87132411D02*
G01*
X177504305Y-87132411D01*
X177504305Y-86832574D01*
X178258025Y-86832574D01*
X178258025Y-87132411D01*
G37*
X178258025Y-87132411D02*
X177504305Y-87132411D01*
X177504305Y-86832574D01*
X178258025Y-86832574D01*
X178258025Y-87132411D01*
G36*
X178258025Y-86631620D02*
G01*
X177504405Y-86631620D01*
X177504405Y-86332574D01*
X178258025Y-86332574D01*
X178258025Y-86631620D01*
G37*
X178258025Y-86631620D02*
X177504405Y-86631620D01*
X177504405Y-86332574D01*
X178258025Y-86332574D01*
X178258025Y-86631620D01*
G36*
X178258025Y-88634544D02*
G01*
X177504825Y-88634544D01*
X177504825Y-88332574D01*
X178258025Y-88332574D01*
X178258025Y-88634544D01*
G37*
X178258025Y-88634544D02*
X177504825Y-88634544D01*
X177504825Y-88332574D01*
X178258025Y-88332574D01*
X178258025Y-88634544D01*
G36*
X178258025Y-87633017D02*
G01*
X177505505Y-87633017D01*
X177505505Y-87332574D01*
X178258025Y-87332574D01*
X178258025Y-87633017D01*
G37*
X178258025Y-87633017D02*
X177505505Y-87633017D01*
X177505505Y-87332574D01*
X178258025Y-87332574D01*
X178258025Y-87633017D01*
G36*
X178258025Y-88133148D02*
G01*
X177506575Y-88133148D01*
X177506575Y-87832574D01*
X178258025Y-87832574D01*
X178258025Y-88133148D01*
G37*
X178258025Y-88133148D02*
X177506575Y-88133148D01*
X177506575Y-87832574D01*
X178258025Y-87832574D01*
X178258025Y-88133148D01*
G36*
X178908025Y-85479954D02*
G01*
X178155595Y-85479954D01*
X178155595Y-85182574D01*
X178908025Y-85182574D01*
X178908025Y-85479954D01*
G37*
X178908025Y-85479954D02*
X178155595Y-85479954D01*
X178155595Y-85182574D01*
X178908025Y-85182574D01*
X178908025Y-85479954D01*
G36*
X178908025Y-89285174D02*
G01*
X178155965Y-89285174D01*
X178155965Y-88982574D01*
X178908025Y-88982574D01*
X178908025Y-89285174D01*
G37*
X178908025Y-89285174D02*
X178155965Y-89285174D01*
X178155965Y-88982574D01*
X178908025Y-88982574D01*
X178908025Y-89285174D01*
G36*
X179408025Y-89285324D02*
G01*
X178656515Y-89285324D01*
X178656515Y-88982574D01*
X179408025Y-88982574D01*
X179408025Y-89285324D01*
G37*
X179408025Y-89285324D02*
X178656515Y-89285324D01*
X178656515Y-88982574D01*
X179408025Y-88982574D01*
X179408025Y-89285324D01*
G36*
X179408025Y-85480264D02*
G01*
X178656545Y-85480264D01*
X178656545Y-85182574D01*
X179408025Y-85182574D01*
X179408025Y-85480264D01*
G37*
X179408025Y-85480264D02*
X178656545Y-85480264D01*
X178656545Y-85182574D01*
X179408025Y-85182574D01*
X179408025Y-85480264D01*
G36*
X179908025Y-89284234D02*
G01*
X179157520Y-89284234D01*
X179157520Y-88982574D01*
X179908025Y-88982574D01*
X179908025Y-89284234D01*
G37*
X179908025Y-89284234D02*
X179157520Y-89284234D01*
X179157520Y-88982574D01*
X179908025Y-88982574D01*
X179908025Y-89284234D01*
G36*
X179908025Y-85481494D02*
G01*
X179157641Y-85481494D01*
X179157641Y-85182574D01*
X179908025Y-85182574D01*
X179908025Y-85481494D01*
G37*
X179908025Y-85481494D02*
X179157641Y-85481494D01*
X179157641Y-85182574D01*
X179908025Y-85182574D01*
X179908025Y-85481494D01*
G36*
X180408025Y-89283434D02*
G01*
X179657973Y-89283434D01*
X179657973Y-88982574D01*
X180408025Y-88982574D01*
X180408025Y-89283434D01*
G37*
X180408025Y-89283434D02*
X179657973Y-89283434D01*
X179657973Y-88982574D01*
X180408025Y-88982574D01*
X180408025Y-89283434D01*
G36*
X180408025Y-85482204D02*
G01*
X179657999Y-85482204D01*
X179657999Y-85182574D01*
X180408025Y-85182574D01*
X180408025Y-85482204D01*
G37*
X180408025Y-85482204D02*
X179657999Y-85482204D01*
X179657999Y-85182574D01*
X180408025Y-85182574D01*
X180408025Y-85482204D01*
G36*
X180908025Y-85482384D02*
G01*
X180158066Y-85482384D01*
X180158066Y-85182574D01*
X180908025Y-85182574D01*
X180908025Y-85482384D01*
G37*
X180908025Y-85482384D02*
X180158066Y-85482384D01*
X180158066Y-85182574D01*
X180908025Y-85182574D01*
X180908025Y-85482384D01*
G36*
X180908025Y-89284484D02*
G01*
X180158374Y-89284484D01*
X180158374Y-88982574D01*
X180908025Y-88982574D01*
X180908025Y-89284484D01*
G37*
X180908025Y-89284484D02*
X180158374Y-89284484D01*
X180158374Y-88982574D01*
X180908025Y-88982574D01*
X180908025Y-89284484D01*
G36*
X181408025Y-85482274D02*
G01*
X180658174Y-85482274D01*
X180658174Y-85182574D01*
X181408025Y-85182574D01*
X181408025Y-85482274D01*
G37*
X181408025Y-85482274D02*
X180658174Y-85482274D01*
X180658174Y-85182574D01*
X181408025Y-85182574D01*
X181408025Y-85482274D01*
G36*
X181408025Y-89285804D02*
G01*
X180659405Y-89285804D01*
X180659405Y-88982574D01*
X181408025Y-88982574D01*
X181408025Y-89285804D01*
G37*
X181408025Y-89285804D02*
X180659405Y-89285804D01*
X180659405Y-88982574D01*
X181408025Y-88982574D01*
X181408025Y-89285804D01*
G36*
X182058025Y-87632749D02*
G01*
X181308695Y-87632749D01*
X181308695Y-87332574D01*
X182058025Y-87332574D01*
X182058025Y-87632749D01*
G37*
X182058025Y-87632749D02*
X181308695Y-87632749D01*
X181308695Y-87332574D01*
X182058025Y-87332574D01*
X182058025Y-87632749D01*
G36*
X182058025Y-86131734D02*
G01*
X181309185Y-86131734D01*
X181309185Y-85832574D01*
X182058025Y-85832574D01*
X182058025Y-86131734D01*
G37*
X182058025Y-86131734D02*
X181309185Y-86131734D01*
X181309185Y-85832574D01*
X182058025Y-85832574D01*
X182058025Y-86131734D01*
G36*
X182058025Y-88633984D02*
G01*
X181309565Y-88633984D01*
X181309565Y-88332574D01*
X182058025Y-88332574D01*
X182058025Y-88633984D01*
G37*
X182058025Y-88633984D02*
X181309565Y-88633984D01*
X181309565Y-88332574D01*
X182058025Y-88332574D01*
X182058025Y-88633984D01*
G36*
X182058025Y-86631837D02*
G01*
X181309895Y-86631837D01*
X181309895Y-86332574D01*
X182058025Y-86332574D01*
X182058025Y-86631837D01*
G37*
X182058025Y-86631837D02*
X181309895Y-86631837D01*
X181309895Y-86332574D01*
X182058025Y-86332574D01*
X182058025Y-86631837D01*
G36*
X182058025Y-87132444D02*
G01*
X181310005Y-87132444D01*
X181310005Y-86832574D01*
X182058025Y-86832574D01*
X182058025Y-87132444D01*
G37*
X182058025Y-87132444D02*
X181310005Y-87132444D01*
X181310005Y-86832574D01*
X182058025Y-86832574D01*
X182058025Y-87132444D01*
G36*
X182058025Y-88134359D02*
G01*
X181311045Y-88134359D01*
X181311045Y-87832574D01*
X182058025Y-87832574D01*
X182058025Y-88134359D01*
G37*
X182058025Y-88134359D02*
X181311045Y-88134359D01*
X181311045Y-87832574D01*
X182058025Y-87832574D01*
X182058025Y-88134359D01*
G36*
X180758025Y-86069574D02*
G01*
X180758025Y-86081574D01*
X180759025Y-86092574D01*
X180760025Y-86103574D01*
X180762025Y-86114574D01*
X180765025Y-86125574D01*
X180768025Y-86135574D01*
X180772025Y-86146574D01*
X180776025Y-86156574D01*
X180781025Y-86166574D01*
X180786025Y-86176574D01*
X180792025Y-86185574D01*
X180798025Y-86195574D01*
X180805025Y-86203574D01*
X180812025Y-86212574D01*
X180820025Y-86220574D01*
X180828025Y-86228574D01*
X180837025Y-86235574D01*
X180845025Y-86242574D01*
X180855025Y-86248574D01*
X180864025Y-86254574D01*
X180874025Y-86259574D01*
X180884025Y-86264574D01*
X180894025Y-86268574D01*
X180905025Y-86272574D01*
X180915025Y-86275574D01*
X180926025Y-86278574D01*
X180937025Y-86280574D01*
X180948025Y-86281574D01*
X180958025Y-86282574D01*
X180958025Y-88407574D01*
X178608025Y-88407574D01*
X178608025Y-86057574D01*
X180758025Y-86057574D01*
X180758025Y-86069574D01*
G37*
D11*
X180758025Y-86069574D02*
X180758025Y-86081574D01*
X180759025Y-86092574D01*
X180760025Y-86103574D01*
X180762025Y-86114574D01*
X180765025Y-86125574D01*
X180768025Y-86135574D01*
X180772025Y-86146574D01*
X180776025Y-86156574D01*
X180781025Y-86166574D01*
X180786025Y-86176574D01*
X180792025Y-86185574D01*
X180798025Y-86195574D01*
X180805025Y-86203574D01*
X180812025Y-86212574D01*
X180820025Y-86220574D01*
X180828025Y-86228574D01*
X180837025Y-86235574D01*
X180845025Y-86242574D01*
X180855025Y-86248574D01*
X180864025Y-86254574D01*
X180874025Y-86259574D01*
X180884025Y-86264574D01*
X180894025Y-86268574D01*
X180905025Y-86272574D01*
X180915025Y-86275574D01*
X180926025Y-86278574D01*
X180937025Y-86280574D01*
X180948025Y-86281574D01*
X180958025Y-86282574D01*
X180958025Y-88407574D01*
X178608025Y-88407574D01*
X178608025Y-86057574D01*
X180758025Y-86057574D01*
X180758025Y-86069574D01*
%TD*%
D12*
%TO.C,*%
X149288016Y-83966640D03*
%TD*%
%TO.C,*%
X149252267Y-90901942D03*
%TD*%
%TO.C,*%
X199209993Y-97431249D03*
%TD*%
%TO.C,*%
X199209993Y-79842751D03*
%TD*%
D13*
%TO.C,U2*%
X163770366Y-88177499D03*
D14*
X161332867Y-89927500D03*
X161332867Y-89427500D03*
X161332867Y-88927500D03*
X161332867Y-88427500D03*
X161332867Y-87927500D03*
X161332867Y-87427500D03*
X161332867Y-86927500D03*
X161332867Y-86427500D03*
D15*
X162020367Y-85740000D03*
X162520367Y-85740000D03*
X163020367Y-85740000D03*
X163520367Y-85740000D03*
X164020367Y-85740000D03*
X164520367Y-85740000D03*
X165020367Y-85740000D03*
X165520367Y-85740000D03*
D14*
X166207867Y-86427500D03*
X166207867Y-86927500D03*
X166207867Y-87427500D03*
X166207867Y-87927500D03*
X166207867Y-88427500D03*
X166207867Y-88927500D03*
X166207867Y-89427500D03*
X166207867Y-89927500D03*
D15*
X165520367Y-90615000D03*
X165020367Y-90615000D03*
X164520367Y-90615000D03*
X164020367Y-90615000D03*
X163520367Y-90615000D03*
X163020367Y-90615000D03*
X162520367Y-90615000D03*
X162020367Y-90615000D03*
%TD*%
D16*
%TO.C,J3*%
X160568785Y-79249124D03*
%TD*%
%TO.C,J8*%
X177808718Y-97150920D03*
%TD*%
%TO.C,J7*%
X183920627Y-97160140D03*
%TD*%
%TO.C,J4*%
X149154436Y-87556971D03*
%TD*%
%TO.C,J6*%
X179651367Y-79307067D03*
D17*
X182191367Y-79307067D03*
X184731367Y-79307067D03*
%TD*%
%TO.C,J5*%
X149266769Y-97128697D03*
X151806769Y-97128697D03*
X154346769Y-97128697D03*
X156886769Y-97128697D03*
X159426769Y-97128697D03*
D16*
X161966769Y-97128697D03*
%TD*%
D18*
%TO.C,FB4*%
X188091043Y-84373067D03*
X187529043Y-84373067D03*
%TD*%
D19*
%TO.C,FL1*%
X172315169Y-88397199D03*
D20*
X172315169Y-88219699D03*
D21*
X173940169Y-89324699D03*
D20*
X172315169Y-90429699D03*
D19*
X172315169Y-90252199D03*
D21*
X170690169Y-89324699D03*
%TD*%
D22*
%TO.C,R8*%
X165124941Y-93008636D03*
X165124941Y-94028636D03*
%TD*%
D23*
%TO.C,U5*%
X153310209Y-83220311D03*
X153310209Y-83870311D03*
X153310209Y-84520311D03*
X155350209Y-84520311D03*
X155350209Y-83870311D03*
X155350209Y-83220311D03*
D24*
X154330208Y-83870310D03*
%TD*%
D18*
%TO.C,FB5*%
X155465338Y-85928261D03*
X154903338Y-85928261D03*
%TD*%
D25*
%TO.C,C41*%
X152778387Y-81726012D03*
X153738387Y-81726012D03*
%TD*%
D26*
%TO.C,C20*%
X153942205Y-85957044D03*
X152982205Y-85957044D03*
%TD*%
D27*
%TO.C,C8*%
X160566751Y-83356556D03*
X160566751Y-84316556D03*
%TD*%
D28*
%TO.C,U4*%
X185992619Y-87522074D03*
X185992619Y-88022074D03*
X185992619Y-88522074D03*
X185992619Y-89022074D03*
X187992619Y-89022074D03*
X187992619Y-88522074D03*
X187992619Y-88022074D03*
X187992619Y-87522074D03*
D29*
X186992618Y-88272073D03*
%TD*%
D30*
%TO.C,R23*%
X177477321Y-92550030D03*
X177477321Y-91530030D03*
%TD*%
D31*
%TO.C,R12*%
X176732609Y-88987254D03*
X175712609Y-88987254D03*
%TD*%
D22*
%TO.C,R1*%
X190180441Y-88910233D03*
X190180441Y-89930233D03*
%TD*%
D31*
%TO.C,R7*%
X179523768Y-91364479D03*
X180543768Y-91364479D03*
%TD*%
D30*
%TO.C,R10*%
X157945994Y-90114774D03*
X157945994Y-91134774D03*
%TD*%
D32*
%TO.C,C4*%
X175553835Y-92501026D03*
X175553835Y-91541026D03*
%TD*%
D31*
%TO.C,R19*%
X184503700Y-81931830D03*
X185523700Y-81931830D03*
%TD*%
D32*
%TO.C,C10*%
X166114916Y-94002309D03*
X166114916Y-93042309D03*
%TD*%
D25*
%TO.C,C15*%
X157609515Y-84668103D03*
X158569515Y-84668103D03*
%TD*%
%TO.C,C22*%
X168627317Y-84089390D03*
X169587317Y-84089390D03*
%TD*%
D26*
%TO.C,C40*%
X169599130Y-85989499D03*
X168639130Y-85989499D03*
%TD*%
D27*
%TO.C,C34*%
X190173238Y-90824995D03*
X190173238Y-91784995D03*
%TD*%
%TO.C,C27*%
X157815815Y-94716393D03*
X157815815Y-93756393D03*
%TD*%
D25*
%TO.C,C21*%
X168627317Y-85024893D03*
X169587317Y-85024893D03*
%TD*%
D26*
%TO.C,C2*%
X188685349Y-91802440D03*
X187725349Y-91802440D03*
%TD*%
D33*
%TO.C,R22*%
X188026030Y-96679428D03*
X187006030Y-96679428D03*
%TD*%
D34*
%TO.C,Y1*%
X155412332Y-80399495D03*
X155412332Y-81699495D03*
X156412332Y-81699495D03*
X156412332Y-80399495D03*
%TD*%
D22*
%TO.C,R3*%
X162479190Y-84361329D03*
X162479190Y-83341329D03*
%TD*%
D18*
%TO.C,FB2*%
X169385280Y-81199814D03*
X168823280Y-81199814D03*
%TD*%
D32*
%TO.C,C32*%
X179098184Y-83299225D03*
X179098184Y-84259225D03*
%TD*%
D26*
%TO.C,C6*%
X153723763Y-79718489D03*
X152763763Y-79718489D03*
%TD*%
D35*
%TO.C,J1*%
X198120000Y-87973684D03*
D12*
X195570000Y-90523684D03*
X200670000Y-90523684D03*
X200670000Y-85423684D03*
X195570000Y-85423684D03*
%TD*%
D33*
%TO.C,R15*%
X168624489Y-86983298D03*
X169644489Y-86983298D03*
%TD*%
D26*
%TO.C,C37*%
X190629787Y-88004704D03*
X189669787Y-88004704D03*
%TD*%
D32*
%TO.C,C35*%
X185096396Y-86317960D03*
X185096396Y-85357960D03*
%TD*%
D25*
%TO.C,C39*%
X152790322Y-80696979D03*
X153750322Y-80696979D03*
%TD*%
D30*
%TO.C,R14*%
X170843317Y-86009823D03*
X170843317Y-84989823D03*
%TD*%
D32*
%TO.C,C29*%
X180118321Y-83309931D03*
X180118321Y-84269931D03*
%TD*%
D27*
%TO.C,C9*%
X161538960Y-83350160D03*
X161538960Y-84310160D03*
%TD*%
D30*
%TO.C,R11*%
X156928744Y-91144651D03*
X156928744Y-90124651D03*
%TD*%
D33*
%TO.C,R2*%
X187270097Y-85354095D03*
X188290097Y-85354095D03*
%TD*%
D36*
%TO.C,FB3*%
X153869075Y-93725505D03*
X153869075Y-94287505D03*
%TD*%
D32*
%TO.C,C5*%
X176513667Y-92500769D03*
X176513667Y-91540769D03*
%TD*%
D22*
%TO.C,R4*%
X164454753Y-96500247D03*
X164454753Y-95480247D03*
%TD*%
D27*
%TO.C,C11*%
X167068896Y-93047130D03*
X167068896Y-94007130D03*
%TD*%
D30*
%TO.C,R16*%
X153946127Y-91134774D03*
X153946127Y-90114774D03*
%TD*%
D27*
%TO.C,C24*%
X156797835Y-94723955D03*
X156797835Y-93763955D03*
%TD*%
D33*
%TO.C,R20*%
X183633780Y-81902201D03*
X182613780Y-81902201D03*
%TD*%
D22*
%TO.C,R17*%
X154943624Y-91157276D03*
X154943624Y-90137276D03*
%TD*%
D31*
%TO.C,R13*%
X189470833Y-92834509D03*
X188450833Y-92834509D03*
%TD*%
D26*
%TO.C,C18*%
X158576493Y-85621124D03*
X157616493Y-85621124D03*
%TD*%
D31*
%TO.C,R21*%
X179726299Y-81894138D03*
X180746299Y-81894138D03*
%TD*%
D32*
%TO.C,C36*%
X190176531Y-85142759D03*
X190176531Y-84182759D03*
%TD*%
D27*
%TO.C,C28*%
X154804079Y-94710134D03*
X154804079Y-93750134D03*
%TD*%
D25*
%TO.C,C26*%
X168618605Y-82176939D03*
X169578605Y-82176939D03*
%TD*%
D26*
%TO.C,C16*%
X158574048Y-86593329D03*
X157614048Y-86593329D03*
%TD*%
D22*
%TO.C,R5*%
X164123069Y-93003315D03*
X164123069Y-94023315D03*
%TD*%
D31*
%TO.C,R6*%
X180513442Y-90351800D03*
X179493442Y-90351800D03*
%TD*%
D25*
%TO.C,C1*%
X186345151Y-90446643D03*
X187305151Y-90446643D03*
%TD*%
D37*
%TO.C,L1*%
X190189440Y-86080442D03*
X190189440Y-87050442D03*
%TD*%
D25*
%TO.C,C30*%
X175729223Y-88006085D03*
X176689223Y-88006085D03*
%TD*%
D38*
%TO.C,U1*%
X183636789Y-91518718D03*
D39*
X182711789Y-92268718D03*
X182711789Y-91768718D03*
X182711789Y-91268718D03*
X182711789Y-90768718D03*
X184561789Y-90768718D03*
X184561789Y-91268718D03*
X184561789Y-91768718D03*
X184561789Y-92268718D03*
%TD*%
D30*
%TO.C,R18*%
X155923182Y-90121358D03*
X155923182Y-91141358D03*
%TD*%
%TO.C,R9*%
X163481281Y-83347824D03*
X163481281Y-84367824D03*
%TD*%
D27*
%TO.C,C31*%
X186092721Y-85355965D03*
X186092721Y-86315965D03*
%TD*%
%TO.C,C23*%
X155808453Y-94714687D03*
X155808453Y-93754687D03*
%TD*%
D32*
%TO.C,C12*%
X164467784Y-84313743D03*
X164467784Y-83353743D03*
%TD*%
D26*
%TO.C,C17*%
X157624926Y-87561466D03*
X158584926Y-87561466D03*
%TD*%
D27*
%TO.C,C33*%
X178144168Y-84260486D03*
X178144168Y-83300486D03*
%TD*%
D25*
%TO.C,C3*%
X179509467Y-92549045D03*
X180469467Y-92549045D03*
%TD*%
D27*
%TO.C,C7*%
X165436723Y-83347905D03*
X165436723Y-84307905D03*
%TD*%
D25*
%TO.C,C25*%
X168624619Y-83143008D03*
X169584619Y-83143008D03*
%TD*%
%TO.C,C38*%
X183241530Y-88419001D03*
X184201530Y-88419001D03*
%TD*%
M02*
