%TF.GenerationSoftware,KiCad,Pcbnew,(7.0.0)*%
%TF.CreationDate,2023-03-06T00:02:43-06:00*%
%TF.ProjectId,RF Signal Source,52462053-6967-46e6-916c-20536f757263,rev?*%
%TF.SameCoordinates,Original*%
%TF.FileFunction,Legend,Top*%
%TF.FilePolarity,Positive*%
%FSLAX46Y46*%
G04 Gerber Fmt 4.6, Leading zero omitted, Abs format (unit mm)*
G04 Created by KiCad (PCBNEW (7.0.0)) date 2023-03-06 00:02:43*
%MOMM*%
%LPD*%
G01*
G04 APERTURE LIST*
G04 Aperture macros list*
%AMRoundRect*
0 Rectangle with rounded corners*
0 $1 Rounding radius*
0 $2 $3 $4 $5 $6 $7 $8 $9 X,Y pos of 4 corners*
0 Add a 4 corners polygon primitive as box body*
4,1,4,$2,$3,$4,$5,$6,$7,$8,$9,$2,$3,0*
0 Add four circle primitives for the rounded corners*
1,1,$1+$1,$2,$3*
1,1,$1+$1,$4,$5*
1,1,$1+$1,$6,$7*
1,1,$1+$1,$8,$9*
0 Add four rect primitives between the rounded corners*
20,1,$1+$1,$2,$3,$4,$5,0*
20,1,$1+$1,$4,$5,$6,$7,0*
20,1,$1+$1,$6,$7,$8,$9,0*
20,1,$1+$1,$8,$9,$2,$3,0*%
G04 Aperture macros list end*
%ADD10C,0.150000*%
%ADD11C,0.120000*%
%ADD12C,0.200000*%
%ADD13C,0.127000*%
%ADD14C,0.010000*%
%ADD15C,0.203200*%
%ADD16C,2.250000*%
%ADD17R,3.300000X3.300000*%
%ADD18RoundRect,0.062500X0.375000X-0.062500X0.375000X0.062500X-0.375000X0.062500X-0.375000X-0.062500X0*%
%ADD19RoundRect,0.062500X0.062500X-0.375000X0.062500X0.375000X-0.062500X0.375000X-0.062500X-0.375000X0*%
%ADD20R,1.700000X1.700000*%
%ADD21O,1.700000X1.700000*%
%ADD22R,0.380000X0.400000*%
%ADD23RoundRect,0.152500X-0.152500X-0.470000X0.152500X-0.470000X0.152500X0.470000X-0.152500X0.470000X0*%
%ADD24C,0.610000*%
%ADD25RoundRect,0.249600X-0.270400X-0.650400X0.270400X-0.650400X0.270400X0.650400X-0.270400X0.650400X0*%
%ADD26RoundRect,0.135000X-0.185000X0.135000X-0.185000X-0.135000X0.185000X-0.135000X0.185000X0.135000X0*%
%ADD27RoundRect,0.012800X-0.332200X-0.147200X0.332200X-0.147200X0.332200X0.147200X-0.332200X0.147200X0*%
%ADD28R,1.000000X1.600000*%
%ADD29RoundRect,0.140000X-0.140000X-0.170000X0.140000X-0.170000X0.140000X0.170000X-0.140000X0.170000X0*%
%ADD30RoundRect,0.140000X0.140000X0.170000X-0.140000X0.170000X-0.140000X-0.170000X0.140000X-0.170000X0*%
%ADD31RoundRect,0.140000X-0.170000X0.140000X-0.170000X-0.140000X0.170000X-0.140000X0.170000X0.140000X0*%
%ADD32RoundRect,0.062500X-0.287500X-0.062500X0.287500X-0.062500X0.287500X0.062500X-0.287500X0.062500X0*%
%ADD33R,0.900000X1.500000*%
%ADD34RoundRect,0.135000X0.185000X-0.135000X0.185000X0.135000X-0.185000X0.135000X-0.185000X-0.135000X0*%
%ADD35RoundRect,0.135000X0.135000X0.185000X-0.135000X0.185000X-0.135000X-0.185000X0.135000X-0.185000X0*%
%ADD36RoundRect,0.140000X0.170000X-0.140000X0.170000X0.140000X-0.170000X0.140000X-0.170000X-0.140000X0*%
%ADD37RoundRect,0.135000X-0.135000X-0.185000X0.135000X-0.185000X0.135000X0.185000X-0.135000X0.185000X0*%
%ADD38R,0.650000X0.750000*%
%ADD39C,2.100000*%
%ADD40R,0.400000X0.380000*%
%ADD41RoundRect,0.147500X-0.172500X0.147500X-0.172500X-0.147500X0.172500X-0.147500X0.172500X0.147500X0*%
%ADD42R,0.610000X2.200000*%
%ADD43R,0.700000X0.250000*%
G04 APERTURE END LIST*
D10*
%TO.C,*%
%TO.C,J3*%
X157606166Y-79582458D02*
X158320452Y-79582458D01*
X158320452Y-79582458D02*
X158463309Y-79630077D01*
X158463309Y-79630077D02*
X158558547Y-79725315D01*
X158558547Y-79725315D02*
X158606166Y-79868172D01*
X158606166Y-79868172D02*
X158606166Y-79963410D01*
X157606166Y-79201505D02*
X157606166Y-78582458D01*
X157606166Y-78582458D02*
X157987119Y-78915791D01*
X157987119Y-78915791D02*
X157987119Y-78772934D01*
X157987119Y-78772934D02*
X158034738Y-78677696D01*
X158034738Y-78677696D02*
X158082357Y-78630077D01*
X158082357Y-78630077D02*
X158177595Y-78582458D01*
X158177595Y-78582458D02*
X158415690Y-78582458D01*
X158415690Y-78582458D02*
X158510928Y-78630077D01*
X158510928Y-78630077D02*
X158558547Y-78677696D01*
X158558547Y-78677696D02*
X158606166Y-78772934D01*
X158606166Y-78772934D02*
X158606166Y-79058648D01*
X158606166Y-79058648D02*
X158558547Y-79153886D01*
X158558547Y-79153886D02*
X158510928Y-79201505D01*
D11*
%TO.C,U2*%
X166380367Y-85567500D02*
X165905367Y-85567500D01*
X161160367Y-85567500D02*
X161635367Y-85567500D01*
X166380367Y-86042500D02*
X166380367Y-85567500D01*
X161160367Y-86042500D02*
X161160367Y-85567500D01*
X166380367Y-90312500D02*
X166380367Y-90787500D01*
X161160367Y-90312500D02*
X161160367Y-90787500D01*
X166380367Y-90787500D02*
X165905367Y-90787500D01*
%TO.C,J3*%
X159238786Y-80579125D02*
X159238786Y-79249125D01*
X161838786Y-80579125D02*
X161838786Y-77919125D01*
X161898786Y-80579125D02*
X161898786Y-77919125D01*
X161838786Y-77919125D02*
X161898786Y-77919125D01*
X161838786Y-80579125D02*
X161898786Y-80579125D01*
X160568786Y-80579125D02*
X159238786Y-80579125D01*
%TO.C,J8*%
X176478719Y-95820921D02*
X177808719Y-95820921D01*
X176478719Y-98420921D02*
X179138719Y-98420921D01*
X176478719Y-98480921D02*
X179138719Y-98480921D01*
X179138719Y-98420921D02*
X179138719Y-98480921D01*
X176478719Y-98420921D02*
X176478719Y-98480921D01*
X176478719Y-97150921D02*
X176478719Y-95820921D01*
%TO.C,J7*%
X182590628Y-95830141D02*
X183920628Y-95830141D01*
X182590628Y-98430141D02*
X185250628Y-98430141D01*
X182590628Y-98490141D02*
X185250628Y-98490141D01*
X185250628Y-98430141D02*
X185250628Y-98490141D01*
X182590628Y-98430141D02*
X182590628Y-98490141D01*
X182590628Y-97160141D02*
X182590628Y-95830141D01*
%TO.C,J4*%
X150364437Y-88886972D02*
X150484437Y-88886972D01*
X150484437Y-88886972D02*
X150484437Y-86226972D01*
X150364437Y-86226972D02*
X150484437Y-86226972D01*
X147824437Y-86226972D02*
X149154437Y-86226972D01*
X147824437Y-87556972D02*
X147824437Y-86226972D01*
%TO.C,J6*%
X186061368Y-80637068D02*
X186061368Y-77977068D01*
X180921368Y-80637068D02*
X186061368Y-80637068D01*
X179651368Y-80637068D02*
X178321368Y-80637068D01*
X180921368Y-77977068D02*
X186061368Y-77977068D01*
X178321368Y-80637068D02*
X178321368Y-79307068D01*
X180921368Y-80637068D02*
X180921368Y-77977068D01*
%TO.C,J5*%
X160696770Y-98458698D02*
X147936770Y-98458698D01*
X147936770Y-95798698D02*
X147936770Y-98458698D01*
X160696770Y-95798698D02*
X160696770Y-98458698D01*
X163296770Y-95798698D02*
X163296770Y-97128698D01*
X161966770Y-95798698D02*
X163296770Y-95798698D01*
X160696770Y-95798698D02*
X147936770Y-95798698D01*
%TO.C,FL1*%
X172885169Y-90234699D02*
X173225169Y-90234699D01*
X172885169Y-88414699D02*
X173225169Y-88414699D01*
X171405169Y-90234699D02*
X171745169Y-90234699D01*
X171405169Y-88414699D02*
X171745169Y-88414699D01*
X171405169Y-88414699D02*
X171405169Y-88164699D01*
X171405169Y-88164699D02*
X170175169Y-88164699D01*
%TO.C,R8*%
X165504941Y-93364995D02*
X165504941Y-93672277D01*
X164744941Y-93364995D02*
X164744941Y-93672277D01*
D12*
%TO.C,U5*%
X152530209Y-83220311D02*
G75*
G03*
X152530209Y-83220311I-100000J0D01*
G01*
D13*
X153330209Y-82740311D02*
X155330209Y-82740311D01*
X153330209Y-85000311D02*
X155330209Y-85000311D01*
D11*
%TO.C,C41*%
X153150551Y-82086012D02*
X153366223Y-82086012D01*
X153150551Y-81366012D02*
X153366223Y-81366012D01*
%TO.C,C20*%
X153570041Y-85597044D02*
X153354369Y-85597044D01*
X153570041Y-86317044D02*
X153354369Y-86317044D01*
%TO.C,C8*%
X160926751Y-83728720D02*
X160926751Y-83944392D01*
X160206751Y-83728720D02*
X160206751Y-83944392D01*
%TO.C,U4*%
X185992619Y-89382074D02*
X187992619Y-89382074D01*
X186992619Y-87162074D02*
X187992619Y-87162074D01*
%TO.C,R23*%
X177097321Y-92193671D02*
X177097321Y-91886389D01*
X177857321Y-92193671D02*
X177857321Y-91886389D01*
%TO.C,R12*%
X176376250Y-89367254D02*
X176068968Y-89367254D01*
X176376250Y-88607254D02*
X176068968Y-88607254D01*
%TO.C,R1*%
X190560441Y-89266592D02*
X190560441Y-89573874D01*
X189800441Y-89266592D02*
X189800441Y-89573874D01*
%TO.C,R7*%
X180187409Y-90984479D02*
X179880127Y-90984479D01*
X180187409Y-91744479D02*
X179880127Y-91744479D01*
%TO.C,R10*%
X158325994Y-90778415D02*
X158325994Y-90471133D01*
X157565994Y-90778415D02*
X157565994Y-90471133D01*
%TO.C,C4*%
X175193835Y-92128862D02*
X175193835Y-91913190D01*
X175913835Y-92128862D02*
X175913835Y-91913190D01*
%TO.C,R19*%
X185167341Y-81551830D02*
X184860059Y-81551830D01*
X185167341Y-82311830D02*
X184860059Y-82311830D01*
%TO.C,C10*%
X165754916Y-93630145D02*
X165754916Y-93414473D01*
X166474916Y-93630145D02*
X166474916Y-93414473D01*
%TO.C,C15*%
X157981679Y-84308103D02*
X158197351Y-84308103D01*
X157981679Y-85028103D02*
X158197351Y-85028103D01*
%TO.C,C22*%
X168999481Y-83729390D02*
X169215153Y-83729390D01*
X168999481Y-84449390D02*
X169215153Y-84449390D01*
%TO.C,C40*%
X169226966Y-86349499D02*
X169011294Y-86349499D01*
X169226966Y-85629499D02*
X169011294Y-85629499D01*
%TO.C,C34*%
X190533238Y-91197159D02*
X190533238Y-91412831D01*
X189813238Y-91197159D02*
X189813238Y-91412831D01*
%TO.C,C27*%
X157455815Y-94128557D02*
X157455815Y-94344229D01*
X158175815Y-94128557D02*
X158175815Y-94344229D01*
%TO.C,C21*%
X168999481Y-84664893D02*
X169215153Y-84664893D01*
X168999481Y-85384893D02*
X169215153Y-85384893D01*
%TO.C,C2*%
X188313185Y-92162440D02*
X188097513Y-92162440D01*
X188313185Y-91442440D02*
X188097513Y-91442440D01*
%TO.C,R22*%
X187362389Y-97059428D02*
X187669671Y-97059428D01*
X187362389Y-96299428D02*
X187669671Y-96299428D01*
D12*
%TO.C,Y1*%
X154512333Y-80399496D02*
G75*
G03*
X154512333Y-80399496I-100000J0D01*
G01*
D11*
%TO.C,R3*%
X162099190Y-83697688D02*
X162099190Y-84004970D01*
X162859190Y-83697688D02*
X162859190Y-84004970D01*
%TO.C,C32*%
X179458184Y-83887061D02*
X179458184Y-83671389D01*
X178738184Y-83887061D02*
X178738184Y-83671389D01*
%TO.C,C6*%
X153351599Y-80078489D02*
X153135927Y-80078489D01*
X153351599Y-79358489D02*
X153135927Y-79358489D01*
D13*
%TO.C,J1*%
X197020000Y-91473684D02*
X199220000Y-91473684D01*
X194620000Y-89073684D02*
X194620000Y-86873684D01*
X201620000Y-89073684D02*
X201620000Y-86873684D01*
X197020000Y-84473684D02*
X199220000Y-84473684D01*
D11*
%TO.C,R15*%
X168980848Y-86603298D02*
X169288130Y-86603298D01*
X168980848Y-87363298D02*
X169288130Y-87363298D01*
%TO.C,C37*%
X190257623Y-88364704D02*
X190041951Y-88364704D01*
X190257623Y-87644704D02*
X190041951Y-87644704D01*
%TO.C,C35*%
X184736396Y-85945796D02*
X184736396Y-85730124D01*
X185456396Y-85945796D02*
X185456396Y-85730124D01*
%TO.C,C39*%
X153162486Y-80336979D02*
X153378158Y-80336979D01*
X153162486Y-81056979D02*
X153378158Y-81056979D01*
%TO.C,R14*%
X170463317Y-85653464D02*
X170463317Y-85346182D01*
X171223317Y-85653464D02*
X171223317Y-85346182D01*
%TO.C,C29*%
X180478321Y-83897767D02*
X180478321Y-83682095D01*
X179758321Y-83897767D02*
X179758321Y-83682095D01*
%TO.C,C9*%
X161898960Y-83722324D02*
X161898960Y-83937996D01*
X161178960Y-83722324D02*
X161178960Y-83937996D01*
%TO.C,R11*%
X156548744Y-90788292D02*
X156548744Y-90481010D01*
X157308744Y-90788292D02*
X157308744Y-90481010D01*
%TO.C,R2*%
X187626456Y-84974095D02*
X187933738Y-84974095D01*
X187626456Y-85734095D02*
X187933738Y-85734095D01*
%TO.C,C5*%
X176153667Y-92128605D02*
X176153667Y-91912933D01*
X176873667Y-92128605D02*
X176873667Y-91912933D01*
%TO.C,R4*%
X164074753Y-95836606D02*
X164074753Y-96143888D01*
X164834753Y-95836606D02*
X164834753Y-96143888D01*
%TO.C,C11*%
X167428896Y-93419294D02*
X167428896Y-93634966D01*
X166708896Y-93419294D02*
X166708896Y-93634966D01*
%TO.C,R16*%
X153566127Y-90778415D02*
X153566127Y-90471133D01*
X154326127Y-90778415D02*
X154326127Y-90471133D01*
%TO.C,C24*%
X156437835Y-94136119D02*
X156437835Y-94351791D01*
X157157835Y-94136119D02*
X157157835Y-94351791D01*
%TO.C,R20*%
X182970139Y-82282201D02*
X183277421Y-82282201D01*
X182970139Y-81522201D02*
X183277421Y-81522201D01*
%TO.C,R17*%
X154563624Y-90493635D02*
X154563624Y-90800917D01*
X155323624Y-90493635D02*
X155323624Y-90800917D01*
%TO.C,R13*%
X189114474Y-93214509D02*
X188807192Y-93214509D01*
X189114474Y-92454509D02*
X188807192Y-92454509D01*
%TO.C,C18*%
X158204329Y-85981124D02*
X157988657Y-85981124D01*
X158204329Y-85261124D02*
X157988657Y-85261124D01*
%TO.C,R21*%
X180389940Y-81514138D02*
X180082658Y-81514138D01*
X180389940Y-82274138D02*
X180082658Y-82274138D01*
%TO.C,C36*%
X189816531Y-84770595D02*
X189816531Y-84554923D01*
X190536531Y-84770595D02*
X190536531Y-84554923D01*
%TO.C,C28*%
X154444079Y-94122298D02*
X154444079Y-94337970D01*
X155164079Y-94122298D02*
X155164079Y-94337970D01*
%TO.C,C26*%
X168990769Y-81816939D02*
X169206441Y-81816939D01*
X168990769Y-82536939D02*
X169206441Y-82536939D01*
%TO.C,C16*%
X158201884Y-86953329D02*
X157986212Y-86953329D01*
X158201884Y-86233329D02*
X157986212Y-86233329D01*
%TO.C,R5*%
X164503069Y-93359674D02*
X164503069Y-93666956D01*
X163743069Y-93359674D02*
X163743069Y-93666956D01*
%TO.C,R6*%
X180157083Y-90731800D02*
X179849801Y-90731800D01*
X180157083Y-89971800D02*
X179849801Y-89971800D01*
%TO.C,C1*%
X186717315Y-90086643D02*
X186932987Y-90086643D01*
X186717315Y-90806643D02*
X186932987Y-90806643D01*
%TO.C,C30*%
X176101387Y-87646085D02*
X176317059Y-87646085D01*
X176101387Y-88366085D02*
X176317059Y-88366085D01*
D10*
%TO.C,U1*%
X183636790Y-93143719D02*
X182636790Y-93143719D01*
X184636790Y-89893719D02*
X182636790Y-89893719D01*
D11*
%TO.C,R18*%
X156303182Y-90784999D02*
X156303182Y-90477717D01*
X155543182Y-90784999D02*
X155543182Y-90477717D01*
%TO.C,R9*%
X163861281Y-84011465D02*
X163861281Y-83704183D01*
X163101281Y-84011465D02*
X163101281Y-83704183D01*
%TO.C,C31*%
X186452721Y-85728129D02*
X186452721Y-85943801D01*
X185732721Y-85728129D02*
X185732721Y-85943801D01*
%TO.C,C23*%
X155448453Y-94126851D02*
X155448453Y-94342523D01*
X156168453Y-94126851D02*
X156168453Y-94342523D01*
%TO.C,C12*%
X164107784Y-83941579D02*
X164107784Y-83725907D01*
X164827784Y-83941579D02*
X164827784Y-83725907D01*
%TO.C,C17*%
X158212762Y-87201466D02*
X157997090Y-87201466D01*
X158212762Y-87921466D02*
X157997090Y-87921466D01*
%TO.C,C33*%
X177784168Y-83672650D02*
X177784168Y-83888322D01*
X178504168Y-83672650D02*
X178504168Y-83888322D01*
%TO.C,IC1*%
G36*
X178258025Y-85707564D02*
G01*
X177833015Y-85707564D01*
X177833015Y-85257574D01*
X178258025Y-85257574D01*
X178258025Y-85707564D01*
G37*
D14*
X178258025Y-85707564D02*
X177833015Y-85707564D01*
X177833015Y-85257574D01*
X178258025Y-85257574D01*
X178258025Y-85707564D01*
D11*
%TO.C,C3*%
X179881631Y-92189045D02*
X180097303Y-92189045D01*
X179881631Y-92909045D02*
X180097303Y-92909045D01*
%TO.C,C7*%
X165796723Y-83720069D02*
X165796723Y-83935741D01*
X165076723Y-83720069D02*
X165076723Y-83935741D01*
%TO.C,C25*%
X168996783Y-82783008D02*
X169212455Y-82783008D01*
X168996783Y-83503008D02*
X169212455Y-83503008D01*
%TO.C,C38*%
X183613694Y-88059001D02*
X183829366Y-88059001D01*
X183613694Y-88779001D02*
X183829366Y-88779001D01*
%TD*%
%LPC*%
%TO.C,IC1*%
G36*
X178258025Y-86130424D02*
G01*
X177503575Y-86130424D01*
X177503575Y-85832574D01*
X178258025Y-85832574D01*
X178258025Y-86130424D01*
G37*
D14*
X178258025Y-86130424D02*
X177503575Y-86130424D01*
X177503575Y-85832574D01*
X178258025Y-85832574D01*
X178258025Y-86130424D01*
G36*
X178258025Y-87132411D02*
G01*
X177504305Y-87132411D01*
X177504305Y-86832574D01*
X178258025Y-86832574D01*
X178258025Y-87132411D01*
G37*
X178258025Y-87132411D02*
X177504305Y-87132411D01*
X177504305Y-86832574D01*
X178258025Y-86832574D01*
X178258025Y-87132411D01*
G36*
X178258025Y-86631620D02*
G01*
X177504405Y-86631620D01*
X177504405Y-86332574D01*
X178258025Y-86332574D01*
X178258025Y-86631620D01*
G37*
X178258025Y-86631620D02*
X177504405Y-86631620D01*
X177504405Y-86332574D01*
X178258025Y-86332574D01*
X178258025Y-86631620D01*
G36*
X178258025Y-88634544D02*
G01*
X177504825Y-88634544D01*
X177504825Y-88332574D01*
X178258025Y-88332574D01*
X178258025Y-88634544D01*
G37*
X178258025Y-88634544D02*
X177504825Y-88634544D01*
X177504825Y-88332574D01*
X178258025Y-88332574D01*
X178258025Y-88634544D01*
G36*
X178258025Y-87633017D02*
G01*
X177505505Y-87633017D01*
X177505505Y-87332574D01*
X178258025Y-87332574D01*
X178258025Y-87633017D01*
G37*
X178258025Y-87633017D02*
X177505505Y-87633017D01*
X177505505Y-87332574D01*
X178258025Y-87332574D01*
X178258025Y-87633017D01*
G36*
X178258025Y-88133148D02*
G01*
X177506575Y-88133148D01*
X177506575Y-87832574D01*
X178258025Y-87832574D01*
X178258025Y-88133148D01*
G37*
X178258025Y-88133148D02*
X177506575Y-88133148D01*
X177506575Y-87832574D01*
X178258025Y-87832574D01*
X178258025Y-88133148D01*
G36*
X178908025Y-85479954D02*
G01*
X178155595Y-85479954D01*
X178155595Y-85182574D01*
X178908025Y-85182574D01*
X178908025Y-85479954D01*
G37*
X178908025Y-85479954D02*
X178155595Y-85479954D01*
X178155595Y-85182574D01*
X178908025Y-85182574D01*
X178908025Y-85479954D01*
G36*
X178908025Y-89285174D02*
G01*
X178155965Y-89285174D01*
X178155965Y-88982574D01*
X178908025Y-88982574D01*
X178908025Y-89285174D01*
G37*
X178908025Y-89285174D02*
X178155965Y-89285174D01*
X178155965Y-88982574D01*
X178908025Y-88982574D01*
X178908025Y-89285174D01*
G36*
X179408025Y-89285324D02*
G01*
X178656515Y-89285324D01*
X178656515Y-88982574D01*
X179408025Y-88982574D01*
X179408025Y-89285324D01*
G37*
X179408025Y-89285324D02*
X178656515Y-89285324D01*
X178656515Y-88982574D01*
X179408025Y-88982574D01*
X179408025Y-89285324D01*
G36*
X179408025Y-85480264D02*
G01*
X178656545Y-85480264D01*
X178656545Y-85182574D01*
X179408025Y-85182574D01*
X179408025Y-85480264D01*
G37*
X179408025Y-85480264D02*
X178656545Y-85480264D01*
X178656545Y-85182574D01*
X179408025Y-85182574D01*
X179408025Y-85480264D01*
G36*
X179908025Y-89284234D02*
G01*
X179157520Y-89284234D01*
X179157520Y-88982574D01*
X179908025Y-88982574D01*
X179908025Y-89284234D01*
G37*
X179908025Y-89284234D02*
X179157520Y-89284234D01*
X179157520Y-88982574D01*
X179908025Y-88982574D01*
X179908025Y-89284234D01*
G36*
X179908025Y-85481494D02*
G01*
X179157641Y-85481494D01*
X179157641Y-85182574D01*
X179908025Y-85182574D01*
X179908025Y-85481494D01*
G37*
X179908025Y-85481494D02*
X179157641Y-85481494D01*
X179157641Y-85182574D01*
X179908025Y-85182574D01*
X179908025Y-85481494D01*
G36*
X180408025Y-89283434D02*
G01*
X179657973Y-89283434D01*
X179657973Y-88982574D01*
X180408025Y-88982574D01*
X180408025Y-89283434D01*
G37*
X180408025Y-89283434D02*
X179657973Y-89283434D01*
X179657973Y-88982574D01*
X180408025Y-88982574D01*
X180408025Y-89283434D01*
G36*
X180408025Y-85482204D02*
G01*
X179657999Y-85482204D01*
X179657999Y-85182574D01*
X180408025Y-85182574D01*
X180408025Y-85482204D01*
G37*
X180408025Y-85482204D02*
X179657999Y-85482204D01*
X179657999Y-85182574D01*
X180408025Y-85182574D01*
X180408025Y-85482204D01*
G36*
X180908025Y-85482384D02*
G01*
X180158066Y-85482384D01*
X180158066Y-85182574D01*
X180908025Y-85182574D01*
X180908025Y-85482384D01*
G37*
X180908025Y-85482384D02*
X180158066Y-85482384D01*
X180158066Y-85182574D01*
X180908025Y-85182574D01*
X180908025Y-85482384D01*
G36*
X180908025Y-89284484D02*
G01*
X180158374Y-89284484D01*
X180158374Y-88982574D01*
X180908025Y-88982574D01*
X180908025Y-89284484D01*
G37*
X180908025Y-89284484D02*
X180158374Y-89284484D01*
X180158374Y-88982574D01*
X180908025Y-88982574D01*
X180908025Y-89284484D01*
G36*
X181408025Y-85482274D02*
G01*
X180658174Y-85482274D01*
X180658174Y-85182574D01*
X181408025Y-85182574D01*
X181408025Y-85482274D01*
G37*
X181408025Y-85482274D02*
X180658174Y-85482274D01*
X180658174Y-85182574D01*
X181408025Y-85182574D01*
X181408025Y-85482274D01*
G36*
X181408025Y-89285804D02*
G01*
X180659405Y-89285804D01*
X180659405Y-88982574D01*
X181408025Y-88982574D01*
X181408025Y-89285804D01*
G37*
X181408025Y-89285804D02*
X180659405Y-89285804D01*
X180659405Y-88982574D01*
X181408025Y-88982574D01*
X181408025Y-89285804D01*
G36*
X182058025Y-87632749D02*
G01*
X181308695Y-87632749D01*
X181308695Y-87332574D01*
X182058025Y-87332574D01*
X182058025Y-87632749D01*
G37*
X182058025Y-87632749D02*
X181308695Y-87632749D01*
X181308695Y-87332574D01*
X182058025Y-87332574D01*
X182058025Y-87632749D01*
G36*
X182058025Y-86131734D02*
G01*
X181309185Y-86131734D01*
X181309185Y-85832574D01*
X182058025Y-85832574D01*
X182058025Y-86131734D01*
G37*
X182058025Y-86131734D02*
X181309185Y-86131734D01*
X181309185Y-85832574D01*
X182058025Y-85832574D01*
X182058025Y-86131734D01*
G36*
X182058025Y-88633984D02*
G01*
X181309565Y-88633984D01*
X181309565Y-88332574D01*
X182058025Y-88332574D01*
X182058025Y-88633984D01*
G37*
X182058025Y-88633984D02*
X181309565Y-88633984D01*
X181309565Y-88332574D01*
X182058025Y-88332574D01*
X182058025Y-88633984D01*
G36*
X182058025Y-86631837D02*
G01*
X181309895Y-86631837D01*
X181309895Y-86332574D01*
X182058025Y-86332574D01*
X182058025Y-86631837D01*
G37*
X182058025Y-86631837D02*
X181309895Y-86631837D01*
X181309895Y-86332574D01*
X182058025Y-86332574D01*
X182058025Y-86631837D01*
G36*
X182058025Y-87132444D02*
G01*
X181310005Y-87132444D01*
X181310005Y-86832574D01*
X182058025Y-86832574D01*
X182058025Y-87132444D01*
G37*
X182058025Y-87132444D02*
X181310005Y-87132444D01*
X181310005Y-86832574D01*
X182058025Y-86832574D01*
X182058025Y-87132444D01*
G36*
X182058025Y-88134359D02*
G01*
X181311045Y-88134359D01*
X181311045Y-87832574D01*
X182058025Y-87832574D01*
X182058025Y-88134359D01*
G37*
X182058025Y-88134359D02*
X181311045Y-88134359D01*
X181311045Y-87832574D01*
X182058025Y-87832574D01*
X182058025Y-88134359D01*
G36*
X180758025Y-86069574D02*
G01*
X180758025Y-86081574D01*
X180759025Y-86092574D01*
X180760025Y-86103574D01*
X180762025Y-86114574D01*
X180765025Y-86125574D01*
X180768025Y-86135574D01*
X180772025Y-86146574D01*
X180776025Y-86156574D01*
X180781025Y-86166574D01*
X180786025Y-86176574D01*
X180792025Y-86185574D01*
X180798025Y-86195574D01*
X180805025Y-86203574D01*
X180812025Y-86212574D01*
X180820025Y-86220574D01*
X180828025Y-86228574D01*
X180837025Y-86235574D01*
X180845025Y-86242574D01*
X180855025Y-86248574D01*
X180864025Y-86254574D01*
X180874025Y-86259574D01*
X180884025Y-86264574D01*
X180894025Y-86268574D01*
X180905025Y-86272574D01*
X180915025Y-86275574D01*
X180926025Y-86278574D01*
X180937025Y-86280574D01*
X180948025Y-86281574D01*
X180958025Y-86282574D01*
X180958025Y-88407574D01*
X178608025Y-88407574D01*
X178608025Y-86057574D01*
X180758025Y-86057574D01*
X180758025Y-86069574D01*
G37*
D15*
X180758025Y-86069574D02*
X180758025Y-86081574D01*
X180759025Y-86092574D01*
X180760025Y-86103574D01*
X180762025Y-86114574D01*
X180765025Y-86125574D01*
X180768025Y-86135574D01*
X180772025Y-86146574D01*
X180776025Y-86156574D01*
X180781025Y-86166574D01*
X180786025Y-86176574D01*
X180792025Y-86185574D01*
X180798025Y-86195574D01*
X180805025Y-86203574D01*
X180812025Y-86212574D01*
X180820025Y-86220574D01*
X180828025Y-86228574D01*
X180837025Y-86235574D01*
X180845025Y-86242574D01*
X180855025Y-86248574D01*
X180864025Y-86254574D01*
X180874025Y-86259574D01*
X180884025Y-86264574D01*
X180894025Y-86268574D01*
X180905025Y-86272574D01*
X180915025Y-86275574D01*
X180926025Y-86278574D01*
X180937025Y-86280574D01*
X180948025Y-86281574D01*
X180958025Y-86282574D01*
X180958025Y-88407574D01*
X178608025Y-88407574D01*
X178608025Y-86057574D01*
X180758025Y-86057574D01*
X180758025Y-86069574D01*
%TD*%
D16*
%TO.C,*%
X149288016Y-83966640D03*
%TD*%
%TO.C,*%
X149252267Y-90901942D03*
%TD*%
%TO.C,*%
X199209993Y-97431249D03*
%TD*%
%TO.C,*%
X199209993Y-79842751D03*
%TD*%
D17*
%TO.C,U2*%
X163770366Y-88177499D03*
D18*
X161332867Y-89927500D03*
X161332867Y-89427500D03*
X161332867Y-88927500D03*
X161332867Y-88427500D03*
X161332867Y-87927500D03*
X161332867Y-87427500D03*
X161332867Y-86927500D03*
X161332867Y-86427500D03*
D19*
X162020367Y-85740000D03*
X162520367Y-85740000D03*
X163020367Y-85740000D03*
X163520367Y-85740000D03*
X164020367Y-85740000D03*
X164520367Y-85740000D03*
X165020367Y-85740000D03*
X165520367Y-85740000D03*
D18*
X166207867Y-86427500D03*
X166207867Y-86927500D03*
X166207867Y-87427500D03*
X166207867Y-87927500D03*
X166207867Y-88427500D03*
X166207867Y-88927500D03*
X166207867Y-89427500D03*
X166207867Y-89927500D03*
D19*
X165520367Y-90615000D03*
X165020367Y-90615000D03*
X164520367Y-90615000D03*
X164020367Y-90615000D03*
X163520367Y-90615000D03*
X163020367Y-90615000D03*
X162520367Y-90615000D03*
X162020367Y-90615000D03*
%TD*%
D20*
%TO.C,J3*%
X160568785Y-79249124D03*
%TD*%
%TO.C,J8*%
X177808718Y-97150920D03*
%TD*%
%TO.C,J7*%
X183920627Y-97160140D03*
%TD*%
%TO.C,J4*%
X149154436Y-87556971D03*
%TD*%
%TO.C,J6*%
X179651367Y-79307067D03*
D21*
X182191367Y-79307067D03*
X184731367Y-79307067D03*
%TD*%
%TO.C,J5*%
X149266769Y-97128697D03*
X151806769Y-97128697D03*
X154346769Y-97128697D03*
X156886769Y-97128697D03*
X159426769Y-97128697D03*
D20*
X161966769Y-97128697D03*
%TD*%
D22*
%TO.C,FB4*%
X188091043Y-84373067D03*
X187529043Y-84373067D03*
%TD*%
D23*
%TO.C,FL1*%
X172315169Y-88397199D03*
D24*
X172315169Y-88219699D03*
D25*
X173940169Y-89324699D03*
D24*
X172315169Y-90429699D03*
D23*
X172315169Y-90252199D03*
D25*
X170690169Y-89324699D03*
%TD*%
D26*
%TO.C,R8*%
X165124941Y-93008636D03*
X165124941Y-94028636D03*
%TD*%
D27*
%TO.C,U5*%
X153310209Y-83220311D03*
X153310209Y-83870311D03*
X153310209Y-84520311D03*
X155350209Y-84520311D03*
X155350209Y-83870311D03*
X155350209Y-83220311D03*
D28*
X154330208Y-83870310D03*
%TD*%
D22*
%TO.C,FB5*%
X155465338Y-85928261D03*
X154903338Y-85928261D03*
%TD*%
D29*
%TO.C,C41*%
X152778387Y-81726012D03*
X153738387Y-81726012D03*
%TD*%
D30*
%TO.C,C20*%
X153942205Y-85957044D03*
X152982205Y-85957044D03*
%TD*%
D31*
%TO.C,C8*%
X160566751Y-83356556D03*
X160566751Y-84316556D03*
%TD*%
D32*
%TO.C,U4*%
X185992619Y-87522074D03*
X185992619Y-88022074D03*
X185992619Y-88522074D03*
X185992619Y-89022074D03*
X187992619Y-89022074D03*
X187992619Y-88522074D03*
X187992619Y-88022074D03*
X187992619Y-87522074D03*
D33*
X186992618Y-88272073D03*
%TD*%
D34*
%TO.C,R23*%
X177477321Y-92550030D03*
X177477321Y-91530030D03*
%TD*%
D35*
%TO.C,R12*%
X176732609Y-88987254D03*
X175712609Y-88987254D03*
%TD*%
D26*
%TO.C,R1*%
X190180441Y-88910233D03*
X190180441Y-89930233D03*
%TD*%
D35*
%TO.C,R7*%
X179523768Y-91364479D03*
X180543768Y-91364479D03*
%TD*%
D34*
%TO.C,R10*%
X157945994Y-90114774D03*
X157945994Y-91134774D03*
%TD*%
D36*
%TO.C,C4*%
X175553835Y-92501026D03*
X175553835Y-91541026D03*
%TD*%
D35*
%TO.C,R19*%
X184503700Y-81931830D03*
X185523700Y-81931830D03*
%TD*%
D36*
%TO.C,C10*%
X166114916Y-94002309D03*
X166114916Y-93042309D03*
%TD*%
D29*
%TO.C,C15*%
X157609515Y-84668103D03*
X158569515Y-84668103D03*
%TD*%
%TO.C,C22*%
X168627317Y-84089390D03*
X169587317Y-84089390D03*
%TD*%
D30*
%TO.C,C40*%
X169599130Y-85989499D03*
X168639130Y-85989499D03*
%TD*%
D31*
%TO.C,C34*%
X190173238Y-90824995D03*
X190173238Y-91784995D03*
%TD*%
%TO.C,C27*%
X157815815Y-94716393D03*
X157815815Y-93756393D03*
%TD*%
D29*
%TO.C,C21*%
X168627317Y-85024893D03*
X169587317Y-85024893D03*
%TD*%
D30*
%TO.C,C2*%
X188685349Y-91802440D03*
X187725349Y-91802440D03*
%TD*%
D37*
%TO.C,R22*%
X188026030Y-96679428D03*
X187006030Y-96679428D03*
%TD*%
D38*
%TO.C,Y1*%
X155412332Y-80399495D03*
X155412332Y-81699495D03*
X156412332Y-81699495D03*
X156412332Y-80399495D03*
%TD*%
D26*
%TO.C,R3*%
X162479190Y-84361329D03*
X162479190Y-83341329D03*
%TD*%
D22*
%TO.C,FB2*%
X169385280Y-81199814D03*
X168823280Y-81199814D03*
%TD*%
D36*
%TO.C,C32*%
X179098184Y-83299225D03*
X179098184Y-84259225D03*
%TD*%
D30*
%TO.C,C6*%
X153723763Y-79718489D03*
X152763763Y-79718489D03*
%TD*%
D39*
%TO.C,J1*%
X198120000Y-87973684D03*
D16*
X195570000Y-90523684D03*
X200670000Y-90523684D03*
X200670000Y-85423684D03*
X195570000Y-85423684D03*
%TD*%
D37*
%TO.C,R15*%
X168624489Y-86983298D03*
X169644489Y-86983298D03*
%TD*%
D30*
%TO.C,C37*%
X190629787Y-88004704D03*
X189669787Y-88004704D03*
%TD*%
D36*
%TO.C,C35*%
X185096396Y-86317960D03*
X185096396Y-85357960D03*
%TD*%
D29*
%TO.C,C39*%
X152790322Y-80696979D03*
X153750322Y-80696979D03*
%TD*%
D34*
%TO.C,R14*%
X170843317Y-86009823D03*
X170843317Y-84989823D03*
%TD*%
D36*
%TO.C,C29*%
X180118321Y-83309931D03*
X180118321Y-84269931D03*
%TD*%
D31*
%TO.C,C9*%
X161538960Y-83350160D03*
X161538960Y-84310160D03*
%TD*%
D34*
%TO.C,R11*%
X156928744Y-91144651D03*
X156928744Y-90124651D03*
%TD*%
D37*
%TO.C,R2*%
X187270097Y-85354095D03*
X188290097Y-85354095D03*
%TD*%
D40*
%TO.C,FB3*%
X153869075Y-93725505D03*
X153869075Y-94287505D03*
%TD*%
D36*
%TO.C,C5*%
X176513667Y-92500769D03*
X176513667Y-91540769D03*
%TD*%
D26*
%TO.C,R4*%
X164454753Y-96500247D03*
X164454753Y-95480247D03*
%TD*%
D31*
%TO.C,C11*%
X167068896Y-93047130D03*
X167068896Y-94007130D03*
%TD*%
D34*
%TO.C,R16*%
X153946127Y-91134774D03*
X153946127Y-90114774D03*
%TD*%
D31*
%TO.C,C24*%
X156797835Y-94723955D03*
X156797835Y-93763955D03*
%TD*%
D37*
%TO.C,R20*%
X183633780Y-81902201D03*
X182613780Y-81902201D03*
%TD*%
D26*
%TO.C,R17*%
X154943624Y-91157276D03*
X154943624Y-90137276D03*
%TD*%
D35*
%TO.C,R13*%
X189470833Y-92834509D03*
X188450833Y-92834509D03*
%TD*%
D30*
%TO.C,C18*%
X158576493Y-85621124D03*
X157616493Y-85621124D03*
%TD*%
D35*
%TO.C,R21*%
X179726299Y-81894138D03*
X180746299Y-81894138D03*
%TD*%
D36*
%TO.C,C36*%
X190176531Y-85142759D03*
X190176531Y-84182759D03*
%TD*%
D31*
%TO.C,C28*%
X154804079Y-94710134D03*
X154804079Y-93750134D03*
%TD*%
D29*
%TO.C,C26*%
X168618605Y-82176939D03*
X169578605Y-82176939D03*
%TD*%
D30*
%TO.C,C16*%
X158574048Y-86593329D03*
X157614048Y-86593329D03*
%TD*%
D26*
%TO.C,R5*%
X164123069Y-93003315D03*
X164123069Y-94023315D03*
%TD*%
D35*
%TO.C,R6*%
X180513442Y-90351800D03*
X179493442Y-90351800D03*
%TD*%
D29*
%TO.C,C1*%
X186345151Y-90446643D03*
X187305151Y-90446643D03*
%TD*%
D41*
%TO.C,L1*%
X190189440Y-86080442D03*
X190189440Y-87050442D03*
%TD*%
D29*
%TO.C,C30*%
X175729223Y-88006085D03*
X176689223Y-88006085D03*
%TD*%
D42*
%TO.C,U1*%
X183636789Y-91518718D03*
D43*
X182711789Y-92268718D03*
X182711789Y-91768718D03*
X182711789Y-91268718D03*
X182711789Y-90768718D03*
X184561789Y-90768718D03*
X184561789Y-91268718D03*
X184561789Y-91768718D03*
X184561789Y-92268718D03*
%TD*%
D34*
%TO.C,R18*%
X155923182Y-90121358D03*
X155923182Y-91141358D03*
%TD*%
%TO.C,R9*%
X163481281Y-83347824D03*
X163481281Y-84367824D03*
%TD*%
D31*
%TO.C,C31*%
X186092721Y-85355965D03*
X186092721Y-86315965D03*
%TD*%
%TO.C,C23*%
X155808453Y-94714687D03*
X155808453Y-93754687D03*
%TD*%
D36*
%TO.C,C12*%
X164467784Y-84313743D03*
X164467784Y-83353743D03*
%TD*%
D30*
%TO.C,C17*%
X157624926Y-87561466D03*
X158584926Y-87561466D03*
%TD*%
D31*
%TO.C,C33*%
X178144168Y-84260486D03*
X178144168Y-83300486D03*
%TD*%
D29*
%TO.C,C3*%
X179509467Y-92549045D03*
X180469467Y-92549045D03*
%TD*%
D31*
%TO.C,C7*%
X165436723Y-83347905D03*
X165436723Y-84307905D03*
%TD*%
D29*
%TO.C,C25*%
X168624619Y-83143008D03*
X169584619Y-83143008D03*
%TD*%
%TO.C,C38*%
X183241530Y-88419001D03*
X184201530Y-88419001D03*
%TD*%
M02*
