%TF.GenerationSoftware,KiCad,Pcbnew,(7.0.0)*%
%TF.CreationDate,2023-03-06T00:02:43-06:00*%
%TF.ProjectId,RF Signal Source,52462053-6967-46e6-916c-20536f757263,rev?*%
%TF.SameCoordinates,Original*%
%TF.FileFunction,Copper,L3,Inr*%
%TF.FilePolarity,Positive*%
%FSLAX46Y46*%
G04 Gerber Fmt 4.6, Leading zero omitted, Abs format (unit mm)*
G04 Created by KiCad (PCBNEW (7.0.0)) date 2023-03-06 00:02:43*
%MOMM*%
%LPD*%
G01*
G04 APERTURE LIST*
%TA.AperFunction,ComponentPad*%
%ADD10C,2.250000*%
%TD*%
%TA.AperFunction,ComponentPad*%
%ADD11C,0.500000*%
%TD*%
%TA.AperFunction,ComponentPad*%
%ADD12R,1.700000X1.700000*%
%TD*%
%TA.AperFunction,ComponentPad*%
%ADD13O,1.700000X1.700000*%
%TD*%
%TA.AperFunction,ComponentPad*%
%ADD14C,0.610000*%
%TD*%
%TA.AperFunction,ComponentPad*%
%ADD15C,2.100000*%
%TD*%
%TA.AperFunction,ViaPad*%
%ADD16C,0.800000*%
%TD*%
G04 APERTURE END LIST*
D10*
%TO.N,GND*%
%TO.C,*%
X149288016Y-83966640D03*
%TD*%
%TO.N,GND*%
%TO.C,*%
X149252267Y-90901942D03*
%TD*%
%TO.N,GND*%
%TO.C,*%
X199209993Y-97431249D03*
%TD*%
%TO.N,GND*%
%TO.C,*%
X199209993Y-79842751D03*
%TD*%
D11*
%TO.N,GND*%
%TO.C,U2*%
X164770367Y-87177500D03*
X163770367Y-87177500D03*
X162770367Y-87177500D03*
X164770367Y-88177500D03*
X163770367Y-88177500D03*
X162770367Y-88177500D03*
X164770367Y-89177500D03*
X163770367Y-89177500D03*
X162770367Y-89177500D03*
%TD*%
D12*
%TO.N,MCU3V3*%
%TO.C,J3*%
X160568785Y-79249124D03*
%TD*%
%TO.N,SIGNAL_PWR*%
%TO.C,J8*%
X177808718Y-97150920D03*
%TD*%
%TO.N,AMP_PWRDWN*%
%TO.C,J7*%
X183920627Y-97160140D03*
%TD*%
%TO.N,5V*%
%TO.C,J4*%
X149154436Y-87556971D03*
%TD*%
%TO.N,ATTENDATA*%
%TO.C,J6*%
X179651367Y-79307067D03*
D13*
%TO.N,ATTENCLK*%
X182191367Y-79307067D03*
%TO.N,ATTENLE*%
X184731367Y-79307067D03*
%TD*%
%TO.N,MAXMUX*%
%TO.C,J5*%
X149266769Y-97128697D03*
%TO.N,MAXLD*%
X151806769Y-97128697D03*
%TO.N,MAXCLK*%
X154346769Y-97128697D03*
%TO.N,MAXDATA*%
X156886769Y-97128697D03*
%TO.N,MAXLE*%
X159426769Y-97128697D03*
D12*
%TO.N,MAXCE*%
X161966769Y-97128697D03*
%TD*%
D14*
%TO.N,GND*%
%TO.C,FL1*%
X172315169Y-88219699D03*
X172315169Y-90429699D03*
%TD*%
D15*
%TO.N,Net-(J1-In)*%
%TO.C,J1*%
X198120000Y-87973684D03*
D10*
%TO.N,GND*%
X195570000Y-90523684D03*
X200670000Y-90523684D03*
X200670000Y-85423684D03*
X195570000Y-85423684D03*
%TD*%
D16*
%TO.N,GND*%
X179383189Y-87833184D03*
X180294437Y-87833184D03*
X180294437Y-86732092D03*
X179413564Y-86716905D03*
%TO.N,3V3*%
X152678022Y-94536872D03*
%TO.N,GND*%
X161689252Y-94739373D03*
%TO.N,VCC_CP*%
X160049005Y-93676250D03*
%TO.N,MCU3V3*%
X159723000Y-90095247D03*
X159853500Y-87169998D03*
%TO.N,GND*%
X191604991Y-91831180D03*
X191604991Y-90312434D03*
X184420689Y-87296761D03*
%TO.N,3V3*%
X169883713Y-80282502D03*
%TO.N,5V*%
X188177276Y-83029902D03*
%TO.N,GND*%
X191650553Y-84283010D03*
X191635366Y-85725819D03*
%TO.N,VCC_CP*%
X167784851Y-91910766D03*
%TO.N,CP_OUT*%
X166331234Y-91953563D03*
%TO.N,VCC_CP*%
X164668860Y-92011601D03*
%TO.N,GND*%
X175689615Y-90247447D03*
X172252692Y-91928872D03*
X170712002Y-91573328D03*
X170800888Y-87351246D03*
X172534164Y-86758674D03*
X174800756Y-86832745D03*
X176459960Y-86817931D03*
X178351588Y-81963271D03*
X183433068Y-82957643D03*
X183271923Y-87360623D03*
%TO.N,MAXLD*%
X152609213Y-92251662D03*
%TO.N,GND*%
X155438998Y-92376021D03*
%TO.N,MAXMUX*%
X159216751Y-89177249D03*
%TO.N,MAXCLK*%
X159743465Y-91130545D03*
%TO.N,5V*%
X155305042Y-87168280D03*
%TO.N,GND*%
X166481252Y-83290863D03*
%TO.N,CP_OUT*%
X163491974Y-82342540D03*
%TO.N,GND*%
X179550044Y-93588615D03*
X165801041Y-95297938D03*
X157814755Y-83523713D03*
X160385320Y-82368081D03*
X189142540Y-88957565D03*
X189161728Y-87000353D03*
X167961724Y-88650551D03*
X168914746Y-88778473D03*
X168889161Y-90665328D03*
%TO.N,3V3*%
X157479999Y-80346908D03*
%TO.N,GND*%
X193802504Y-88777499D03*
X193845678Y-87208851D03*
X192723159Y-88791890D03*
X192766333Y-87208851D03*
X191600640Y-88763108D03*
X191615032Y-87223243D03*
X185573506Y-84338826D03*
%TO.N,3V3*%
X176569815Y-84579373D03*
X174035088Y-92806648D03*
%TO.N,GND*%
X185899708Y-93166210D03*
X187460361Y-93172606D03*
X170803621Y-83205972D03*
X151896189Y-85285452D03*
X182419479Y-89185693D03*
X184918229Y-89241126D03*
X183749871Y-89305087D03*
%TO.N,*%
X181541728Y-89968151D03*
X181541728Y-89968151D03*
%TO.N,GND*%
X187930151Y-86479394D03*
%TO.N,AMP_PWRDWN*%
X188449768Y-90072829D03*
%TO.N,3V3*%
X181505055Y-91994715D03*
X167592029Y-86858897D03*
%TO.N,MAXLD*%
X159957117Y-85670477D03*
%TO.N,MAXLE*%
X162065457Y-92666113D03*
%TO.N,MAXDATA*%
X160638909Y-92131335D03*
%TD*%
%TA.AperFunction,Conductor*%
%TO.N,3V3*%
G36*
X159148286Y-78756613D02*
G01*
X159193673Y-78802000D01*
X159210286Y-78864000D01*
X159210286Y-80147763D01*
X159216797Y-80208326D01*
X159219503Y-80215583D01*
X159219505Y-80215588D01*
X159254710Y-80309974D01*
X159267897Y-80345329D01*
X159355525Y-80462386D01*
X159472582Y-80550014D01*
X159609585Y-80601114D01*
X159670148Y-80607625D01*
X161464114Y-80607625D01*
X161467424Y-80607625D01*
X161527987Y-80601114D01*
X161664990Y-80550014D01*
X161782047Y-80462386D01*
X161869675Y-80345329D01*
X161920775Y-80208326D01*
X161927286Y-80147763D01*
X161927286Y-78864000D01*
X161943899Y-78802000D01*
X161989286Y-78756613D01*
X162051286Y-78740000D01*
X178168868Y-78740000D01*
X178230868Y-78756613D01*
X178276255Y-78802000D01*
X178292868Y-78864000D01*
X178292868Y-80205706D01*
X178293220Y-80208986D01*
X178293221Y-80208992D01*
X178295559Y-80230744D01*
X178299379Y-80266269D01*
X178302085Y-80273526D01*
X178302087Y-80273531D01*
X178347379Y-80394962D01*
X178350479Y-80403272D01*
X178355793Y-80410371D01*
X178355794Y-80410372D01*
X178389418Y-80455289D01*
X178438107Y-80520329D01*
X178555164Y-80607957D01*
X178692167Y-80659057D01*
X178752730Y-80665568D01*
X180546696Y-80665568D01*
X180550006Y-80665568D01*
X180610569Y-80659057D01*
X180747572Y-80607957D01*
X180864629Y-80520329D01*
X180952257Y-80403272D01*
X180997505Y-80281957D01*
X181033457Y-80230744D01*
X181089838Y-80203606D01*
X181152293Y-80207454D01*
X181204916Y-80241308D01*
X181264656Y-80306203D01*
X181264659Y-80306206D01*
X181268128Y-80309974D01*
X181272169Y-80313119D01*
X181441744Y-80445107D01*
X181441749Y-80445110D01*
X181445792Y-80448257D01*
X181450299Y-80450696D01*
X181450302Y-80450698D01*
X181624000Y-80544698D01*
X181643794Y-80555410D01*
X181856733Y-80628512D01*
X182078799Y-80665568D01*
X182298804Y-80665568D01*
X182303937Y-80665568D01*
X182526003Y-80628512D01*
X182738942Y-80555410D01*
X182936944Y-80448257D01*
X183114608Y-80309974D01*
X183267090Y-80144336D01*
X183357558Y-80005863D01*
X183402350Y-79964629D01*
X183461368Y-79949684D01*
X183520386Y-79964629D01*
X183565177Y-80005863D01*
X183652838Y-80140040D01*
X183652846Y-80140050D01*
X183655646Y-80144336D01*
X183659120Y-80148109D01*
X183659121Y-80148111D01*
X183804656Y-80306203D01*
X183804659Y-80306206D01*
X183808128Y-80309974D01*
X183812169Y-80313119D01*
X183981744Y-80445107D01*
X183981749Y-80445110D01*
X183985792Y-80448257D01*
X183990299Y-80450696D01*
X183990302Y-80450698D01*
X184164000Y-80544698D01*
X184183794Y-80555410D01*
X184396733Y-80628512D01*
X184618799Y-80665568D01*
X184838804Y-80665568D01*
X184843937Y-80665568D01*
X185066003Y-80628512D01*
X185278942Y-80555410D01*
X185476944Y-80448257D01*
X185654608Y-80309974D01*
X185807090Y-80144336D01*
X185930228Y-79955859D01*
X186020664Y-79749684D01*
X186075932Y-79531436D01*
X186094524Y-79307068D01*
X186075932Y-79082700D01*
X186028257Y-78894439D01*
X186027103Y-78838553D01*
X186050611Y-78787838D01*
X186094004Y-78752600D01*
X186148464Y-78740000D01*
X197748528Y-78740000D01*
X197811230Y-78757021D01*
X197856718Y-78803411D01*
X197872504Y-78866435D01*
X197854255Y-78928790D01*
X197752581Y-79094705D01*
X197752577Y-79094711D01*
X197750033Y-79098864D01*
X197748169Y-79103363D01*
X197748167Y-79103368D01*
X197653502Y-79331910D01*
X197651638Y-79336411D01*
X197650503Y-79341135D01*
X197650500Y-79341147D01*
X197592751Y-79581691D01*
X197592749Y-79581697D01*
X197591615Y-79586425D01*
X197571442Y-79842751D01*
X197591615Y-80099077D01*
X197592750Y-80103806D01*
X197592751Y-80103810D01*
X197650500Y-80344354D01*
X197650502Y-80344362D01*
X197651638Y-80349091D01*
X197750033Y-80586638D01*
X197752580Y-80590795D01*
X197752581Y-80590796D01*
X197798184Y-80665214D01*
X197884377Y-80805867D01*
X197887541Y-80809572D01*
X197887545Y-80809577D01*
X198047056Y-80996340D01*
X198051362Y-81001382D01*
X198055069Y-81004548D01*
X198243166Y-81165198D01*
X198243169Y-81165200D01*
X198246877Y-81168367D01*
X198466106Y-81302711D01*
X198703653Y-81401106D01*
X198953667Y-81461129D01*
X199209993Y-81481302D01*
X199466319Y-81461129D01*
X199716333Y-81401106D01*
X199953880Y-81302711D01*
X200173109Y-81168367D01*
X200368624Y-81001382D01*
X200441709Y-80915809D01*
X200490352Y-80881048D01*
X200549607Y-80873089D01*
X200605698Y-80893782D01*
X200645587Y-80938317D01*
X200660000Y-80996340D01*
X200660000Y-83671295D01*
X200644973Y-83730463D01*
X200603535Y-83775290D01*
X200545729Y-83794913D01*
X200418526Y-83804924D01*
X200418524Y-83804924D01*
X200413674Y-83805306D01*
X200408946Y-83806440D01*
X200408940Y-83806442D01*
X200168396Y-83864191D01*
X200168384Y-83864194D01*
X200163660Y-83865329D01*
X200159163Y-83867191D01*
X200159159Y-83867193D01*
X199930617Y-83961858D01*
X199930612Y-83961860D01*
X199926113Y-83963724D01*
X199921960Y-83966268D01*
X199921954Y-83966272D01*
X199711042Y-84095519D01*
X199711033Y-84095525D01*
X199706884Y-84098068D01*
X199703184Y-84101227D01*
X199703173Y-84101236D01*
X199515076Y-84261886D01*
X199515069Y-84261892D01*
X199511369Y-84265053D01*
X199508208Y-84268753D01*
X199508202Y-84268760D01*
X199347552Y-84456857D01*
X199347543Y-84456868D01*
X199344384Y-84460568D01*
X199341841Y-84464717D01*
X199341835Y-84464726D01*
X199212588Y-84675638D01*
X199212584Y-84675644D01*
X199210040Y-84679797D01*
X199208176Y-84684296D01*
X199208174Y-84684301D01*
X199115404Y-84908269D01*
X199111645Y-84917344D01*
X199110510Y-84922068D01*
X199110507Y-84922080D01*
X199052758Y-85162624D01*
X199052756Y-85162630D01*
X199051622Y-85167358D01*
X199051240Y-85172206D01*
X199051240Y-85172209D01*
X199041792Y-85292256D01*
X199031449Y-85423684D01*
X199031831Y-85428538D01*
X199044056Y-85583881D01*
X199051622Y-85680010D01*
X199052757Y-85684739D01*
X199052758Y-85684743D01*
X199110507Y-85925287D01*
X199110509Y-85925295D01*
X199111645Y-85930024D01*
X199210040Y-86167571D01*
X199212587Y-86171728D01*
X199212588Y-86171729D01*
X199341807Y-86382596D01*
X199344384Y-86386800D01*
X199347548Y-86390505D01*
X199347552Y-86390510D01*
X199508202Y-86578607D01*
X199511369Y-86582315D01*
X199515076Y-86585481D01*
X199703173Y-86746131D01*
X199703176Y-86746133D01*
X199706884Y-86749300D01*
X199926113Y-86883644D01*
X200163660Y-86982039D01*
X200413674Y-87042062D01*
X200521870Y-87050577D01*
X200545729Y-87052455D01*
X200603535Y-87072078D01*
X200644973Y-87116905D01*
X200660000Y-87176073D01*
X200660000Y-88771295D01*
X200644973Y-88830463D01*
X200603535Y-88875290D01*
X200545729Y-88894913D01*
X200418526Y-88904924D01*
X200418524Y-88904924D01*
X200413674Y-88905306D01*
X200408946Y-88906440D01*
X200408940Y-88906442D01*
X200168396Y-88964191D01*
X200168384Y-88964194D01*
X200163660Y-88965329D01*
X200159163Y-88967191D01*
X200159159Y-88967193D01*
X199930617Y-89061858D01*
X199930612Y-89061860D01*
X199926113Y-89063724D01*
X199921960Y-89066268D01*
X199921954Y-89066272D01*
X199711042Y-89195519D01*
X199711033Y-89195525D01*
X199706884Y-89198068D01*
X199703184Y-89201227D01*
X199703173Y-89201236D01*
X199515076Y-89361886D01*
X199515069Y-89361892D01*
X199511369Y-89365053D01*
X199508208Y-89368753D01*
X199508202Y-89368760D01*
X199347552Y-89556857D01*
X199347543Y-89556868D01*
X199344384Y-89560568D01*
X199341841Y-89564717D01*
X199341835Y-89564726D01*
X199212588Y-89775638D01*
X199212584Y-89775644D01*
X199210040Y-89779797D01*
X199208176Y-89784296D01*
X199208174Y-89784301D01*
X199123895Y-89987770D01*
X199111645Y-90017344D01*
X199110510Y-90022068D01*
X199110507Y-90022080D01*
X199052758Y-90262624D01*
X199052756Y-90262630D01*
X199051622Y-90267358D01*
X199051240Y-90272206D01*
X199051240Y-90272209D01*
X199038176Y-90438206D01*
X199031449Y-90523684D01*
X199031831Y-90528538D01*
X199050197Y-90761911D01*
X199051622Y-90780010D01*
X199052757Y-90784739D01*
X199052758Y-90784743D01*
X199110507Y-91025287D01*
X199110509Y-91025295D01*
X199111645Y-91030024D01*
X199210040Y-91267571D01*
X199212587Y-91271728D01*
X199212588Y-91271729D01*
X199336942Y-91474657D01*
X199344384Y-91486800D01*
X199347548Y-91490505D01*
X199347552Y-91490510D01*
X199498706Y-91667489D01*
X199511369Y-91682315D01*
X199515076Y-91685481D01*
X199703173Y-91846131D01*
X199703176Y-91846133D01*
X199706884Y-91849300D01*
X199926113Y-91983644D01*
X200163660Y-92082039D01*
X200413674Y-92142062D01*
X200521870Y-92150577D01*
X200545729Y-92152455D01*
X200603535Y-92172078D01*
X200644973Y-92216905D01*
X200660000Y-92276073D01*
X200660000Y-96277660D01*
X200645587Y-96335683D01*
X200605698Y-96380218D01*
X200549607Y-96400911D01*
X200490352Y-96392952D01*
X200441710Y-96358191D01*
X200371790Y-96276325D01*
X200368624Y-96272618D01*
X200364916Y-96269451D01*
X200176819Y-96108801D01*
X200176814Y-96108797D01*
X200173109Y-96105633D01*
X200168953Y-96103086D01*
X200168950Y-96103084D01*
X199958038Y-95973837D01*
X199958037Y-95973836D01*
X199953880Y-95971289D01*
X199716333Y-95872894D01*
X199711604Y-95871758D01*
X199711596Y-95871756D01*
X199471052Y-95814007D01*
X199471048Y-95814006D01*
X199466319Y-95812871D01*
X199461468Y-95812489D01*
X199461467Y-95812489D01*
X199214847Y-95793080D01*
X199209993Y-95792698D01*
X199205139Y-95793080D01*
X198958518Y-95812489D01*
X198958515Y-95812489D01*
X198953667Y-95812871D01*
X198948939Y-95814005D01*
X198948933Y-95814007D01*
X198708389Y-95871756D01*
X198708377Y-95871759D01*
X198703653Y-95872894D01*
X198699156Y-95874756D01*
X198699152Y-95874758D01*
X198470610Y-95969423D01*
X198470605Y-95969425D01*
X198466106Y-95971289D01*
X198461953Y-95973833D01*
X198461947Y-95973837D01*
X198251035Y-96103084D01*
X198251026Y-96103090D01*
X198246877Y-96105633D01*
X198243177Y-96108792D01*
X198243166Y-96108801D01*
X198055069Y-96269451D01*
X198055062Y-96269457D01*
X198051362Y-96272618D01*
X198048201Y-96276318D01*
X198048195Y-96276325D01*
X197887545Y-96464422D01*
X197887536Y-96464433D01*
X197884377Y-96468133D01*
X197881834Y-96472282D01*
X197881828Y-96472291D01*
X197752581Y-96683203D01*
X197752577Y-96683209D01*
X197750033Y-96687362D01*
X197748169Y-96691861D01*
X197748167Y-96691866D01*
X197653502Y-96920408D01*
X197651638Y-96924909D01*
X197650503Y-96929633D01*
X197650500Y-96929645D01*
X197592751Y-97170189D01*
X197592749Y-97170195D01*
X197591615Y-97174923D01*
X197571442Y-97431249D01*
X197591615Y-97687575D01*
X197592750Y-97692304D01*
X197592751Y-97692308D01*
X197650500Y-97932852D01*
X197650502Y-97932860D01*
X197651638Y-97937589D01*
X197750033Y-98175136D01*
X197752580Y-98179293D01*
X197752581Y-98179294D01*
X197872265Y-98374601D01*
X197884377Y-98394365D01*
X197887541Y-98398070D01*
X197887545Y-98398075D01*
X198047056Y-98584838D01*
X198051362Y-98589880D01*
X198055069Y-98593046D01*
X198243166Y-98753696D01*
X198243169Y-98753698D01*
X198246877Y-98756865D01*
X198325056Y-98804773D01*
X198368928Y-98850762D01*
X198384251Y-98912448D01*
X198366998Y-98973621D01*
X198321703Y-99018210D01*
X198260266Y-99034500D01*
X147444000Y-99034500D01*
X147382000Y-99017887D01*
X147336613Y-98972500D01*
X147320000Y-98910500D01*
X147320000Y-97128698D01*
X147903614Y-97128698D01*
X147904038Y-97133815D01*
X147921781Y-97347946D01*
X147921782Y-97347954D01*
X147922206Y-97353066D01*
X147923463Y-97358033D01*
X147923465Y-97358040D01*
X147976215Y-97566343D01*
X147977474Y-97571314D01*
X147979534Y-97576010D01*
X148065850Y-97772794D01*
X148065853Y-97772799D01*
X148067910Y-97777489D01*
X148073640Y-97786259D01*
X148188244Y-97961675D01*
X148188247Y-97961679D01*
X148191048Y-97965966D01*
X148194522Y-97969739D01*
X148194523Y-97969741D01*
X148340058Y-98127833D01*
X148340061Y-98127836D01*
X148343530Y-98131604D01*
X148347571Y-98134749D01*
X148517146Y-98266737D01*
X148517151Y-98266740D01*
X148521194Y-98269887D01*
X148525701Y-98272326D01*
X148525704Y-98272328D01*
X148714689Y-98374601D01*
X148719196Y-98377040D01*
X148932135Y-98450142D01*
X149154201Y-98487198D01*
X149374206Y-98487198D01*
X149379339Y-98487198D01*
X149601405Y-98450142D01*
X149814344Y-98377040D01*
X150012346Y-98269887D01*
X150190010Y-98131604D01*
X150342492Y-97965966D01*
X150364127Y-97932852D01*
X150432961Y-97827493D01*
X150477752Y-97786259D01*
X150536770Y-97771314D01*
X150595788Y-97786259D01*
X150640579Y-97827493D01*
X150728240Y-97961670D01*
X150728248Y-97961680D01*
X150731048Y-97965966D01*
X150734522Y-97969739D01*
X150734523Y-97969741D01*
X150880058Y-98127833D01*
X150880061Y-98127836D01*
X150883530Y-98131604D01*
X150887571Y-98134749D01*
X151057146Y-98266737D01*
X151057151Y-98266740D01*
X151061194Y-98269887D01*
X151065701Y-98272326D01*
X151065704Y-98272328D01*
X151254689Y-98374601D01*
X151259196Y-98377040D01*
X151472135Y-98450142D01*
X151694201Y-98487198D01*
X151914206Y-98487198D01*
X151919339Y-98487198D01*
X152141405Y-98450142D01*
X152354344Y-98377040D01*
X152552346Y-98269887D01*
X152730010Y-98131604D01*
X152882492Y-97965966D01*
X152904127Y-97932852D01*
X152972961Y-97827493D01*
X153017752Y-97786259D01*
X153076770Y-97771314D01*
X153135788Y-97786259D01*
X153180579Y-97827493D01*
X153268240Y-97961670D01*
X153268248Y-97961680D01*
X153271048Y-97965966D01*
X153274522Y-97969739D01*
X153274523Y-97969741D01*
X153420058Y-98127833D01*
X153420061Y-98127836D01*
X153423530Y-98131604D01*
X153427571Y-98134749D01*
X153597146Y-98266737D01*
X153597151Y-98266740D01*
X153601194Y-98269887D01*
X153605701Y-98272326D01*
X153605704Y-98272328D01*
X153794689Y-98374601D01*
X153799196Y-98377040D01*
X154012135Y-98450142D01*
X154234201Y-98487198D01*
X154454206Y-98487198D01*
X154459339Y-98487198D01*
X154681405Y-98450142D01*
X154894344Y-98377040D01*
X155092346Y-98269887D01*
X155270010Y-98131604D01*
X155422492Y-97965966D01*
X155444127Y-97932852D01*
X155512961Y-97827493D01*
X155557752Y-97786259D01*
X155616770Y-97771314D01*
X155675788Y-97786259D01*
X155720579Y-97827493D01*
X155808240Y-97961670D01*
X155808248Y-97961680D01*
X155811048Y-97965966D01*
X155814522Y-97969739D01*
X155814523Y-97969741D01*
X155960058Y-98127833D01*
X155960061Y-98127836D01*
X155963530Y-98131604D01*
X155967571Y-98134749D01*
X156137146Y-98266737D01*
X156137151Y-98266740D01*
X156141194Y-98269887D01*
X156145701Y-98272326D01*
X156145704Y-98272328D01*
X156334689Y-98374601D01*
X156339196Y-98377040D01*
X156552135Y-98450142D01*
X156774201Y-98487198D01*
X156994206Y-98487198D01*
X156999339Y-98487198D01*
X157221405Y-98450142D01*
X157434344Y-98377040D01*
X157632346Y-98269887D01*
X157810010Y-98131604D01*
X157962492Y-97965966D01*
X157984127Y-97932852D01*
X158052961Y-97827493D01*
X158097752Y-97786259D01*
X158156770Y-97771314D01*
X158215788Y-97786259D01*
X158260579Y-97827493D01*
X158348240Y-97961670D01*
X158348248Y-97961680D01*
X158351048Y-97965966D01*
X158354522Y-97969739D01*
X158354523Y-97969741D01*
X158500058Y-98127833D01*
X158500061Y-98127836D01*
X158503530Y-98131604D01*
X158507571Y-98134749D01*
X158677146Y-98266737D01*
X158677151Y-98266740D01*
X158681194Y-98269887D01*
X158685701Y-98272326D01*
X158685704Y-98272328D01*
X158874689Y-98374601D01*
X158879196Y-98377040D01*
X159092135Y-98450142D01*
X159314201Y-98487198D01*
X159534206Y-98487198D01*
X159539339Y-98487198D01*
X159761405Y-98450142D01*
X159974344Y-98377040D01*
X160172346Y-98269887D01*
X160350010Y-98131604D01*
X160413225Y-98062934D01*
X160465843Y-98029084D01*
X160528298Y-98025236D01*
X160584679Y-98052373D01*
X160620632Y-98103587D01*
X160648869Y-98179294D01*
X160665881Y-98224902D01*
X160753509Y-98341959D01*
X160870566Y-98429587D01*
X161007569Y-98480687D01*
X161068132Y-98487198D01*
X162862098Y-98487198D01*
X162865408Y-98487198D01*
X162925971Y-98480687D01*
X163062974Y-98429587D01*
X163180031Y-98341959D01*
X163267659Y-98224902D01*
X163318759Y-98087899D01*
X163322881Y-98049559D01*
X176450219Y-98049559D01*
X176450571Y-98052839D01*
X176450572Y-98052845D01*
X176455121Y-98095161D01*
X176456730Y-98110122D01*
X176459436Y-98117379D01*
X176459438Y-98117384D01*
X176499541Y-98224902D01*
X176507830Y-98247125D01*
X176513144Y-98254224D01*
X176513145Y-98254225D01*
X176582798Y-98347271D01*
X176595458Y-98364182D01*
X176712515Y-98451810D01*
X176849518Y-98502910D01*
X176910081Y-98509421D01*
X178704047Y-98509421D01*
X178707357Y-98509421D01*
X178767920Y-98502910D01*
X178904923Y-98451810D01*
X179021980Y-98364182D01*
X179109608Y-98247125D01*
X179160708Y-98110122D01*
X179166228Y-98058779D01*
X182562128Y-98058779D01*
X182562480Y-98062059D01*
X182562481Y-98062065D01*
X182567647Y-98110122D01*
X182568639Y-98119342D01*
X182571345Y-98126599D01*
X182571347Y-98126604D01*
X182616300Y-98247125D01*
X182619739Y-98256345D01*
X182625053Y-98263444D01*
X182625054Y-98263445D01*
X182687805Y-98347271D01*
X182707367Y-98373402D01*
X182824424Y-98461030D01*
X182961427Y-98512130D01*
X183021990Y-98518641D01*
X184815956Y-98518641D01*
X184819266Y-98518641D01*
X184879829Y-98512130D01*
X185016832Y-98461030D01*
X185133889Y-98373402D01*
X185221517Y-98256345D01*
X185272617Y-98119342D01*
X185279128Y-98058779D01*
X185279128Y-96261503D01*
X185272617Y-96200940D01*
X185221517Y-96063937D01*
X185133889Y-95946880D01*
X185114475Y-95932347D01*
X185023932Y-95864567D01*
X185023931Y-95864566D01*
X185016832Y-95859252D01*
X185008524Y-95856153D01*
X185008522Y-95856152D01*
X184887091Y-95810860D01*
X184887086Y-95810858D01*
X184879829Y-95808152D01*
X184872125Y-95807323D01*
X184872122Y-95807323D01*
X184822552Y-95801994D01*
X184822546Y-95801993D01*
X184819266Y-95801641D01*
X183021990Y-95801641D01*
X183018710Y-95801993D01*
X183018703Y-95801994D01*
X182969133Y-95807323D01*
X182969128Y-95807323D01*
X182961427Y-95808152D01*
X182954171Y-95810858D01*
X182954164Y-95810860D01*
X182832733Y-95856152D01*
X182832727Y-95856154D01*
X182824424Y-95859252D01*
X182817326Y-95864564D01*
X182817323Y-95864567D01*
X182714463Y-95941567D01*
X182714459Y-95941570D01*
X182707367Y-95946880D01*
X182702057Y-95953972D01*
X182702054Y-95953976D01*
X182625054Y-96056836D01*
X182625051Y-96056839D01*
X182619739Y-96063937D01*
X182616641Y-96072240D01*
X182616639Y-96072246D01*
X182571347Y-96193677D01*
X182571345Y-96193684D01*
X182568639Y-96200940D01*
X182567810Y-96208641D01*
X182567810Y-96208646D01*
X182563119Y-96252283D01*
X182562128Y-96261503D01*
X182562128Y-98058779D01*
X179166228Y-98058779D01*
X179167219Y-98049559D01*
X179167219Y-96252283D01*
X179160708Y-96191720D01*
X179109608Y-96054717D01*
X179021980Y-95937660D01*
X178985196Y-95910124D01*
X178912023Y-95855347D01*
X178912022Y-95855346D01*
X178904923Y-95850032D01*
X178896615Y-95846933D01*
X178896613Y-95846932D01*
X178775182Y-95801640D01*
X178775177Y-95801638D01*
X178767920Y-95798932D01*
X178760216Y-95798103D01*
X178760213Y-95798103D01*
X178710643Y-95792774D01*
X178710637Y-95792773D01*
X178707357Y-95792421D01*
X176910081Y-95792421D01*
X176906801Y-95792773D01*
X176906794Y-95792774D01*
X176857224Y-95798103D01*
X176857219Y-95798103D01*
X176849518Y-95798932D01*
X176842262Y-95801638D01*
X176842255Y-95801640D01*
X176720824Y-95846932D01*
X176720818Y-95846934D01*
X176712515Y-95850032D01*
X176705417Y-95855344D01*
X176705414Y-95855347D01*
X176602554Y-95932347D01*
X176602550Y-95932350D01*
X176595458Y-95937660D01*
X176590148Y-95944752D01*
X176590145Y-95944756D01*
X176513145Y-96047616D01*
X176513142Y-96047619D01*
X176507830Y-96054717D01*
X176504732Y-96063020D01*
X176504730Y-96063026D01*
X176459438Y-96184457D01*
X176459436Y-96184464D01*
X176456730Y-96191720D01*
X176455901Y-96199421D01*
X176455901Y-96199426D01*
X176452796Y-96228311D01*
X176450219Y-96252283D01*
X176450219Y-98049559D01*
X163322881Y-98049559D01*
X163325270Y-98027336D01*
X163325270Y-96230060D01*
X163318759Y-96169497D01*
X163267659Y-96032494D01*
X163180031Y-95915437D01*
X163133168Y-95880356D01*
X163070074Y-95833124D01*
X163070073Y-95833123D01*
X163062974Y-95827809D01*
X163054666Y-95824710D01*
X163054664Y-95824709D01*
X162933233Y-95779417D01*
X162933228Y-95779415D01*
X162925971Y-95776709D01*
X162918267Y-95775880D01*
X162918264Y-95775880D01*
X162868694Y-95770551D01*
X162868688Y-95770550D01*
X162865408Y-95770198D01*
X162190988Y-95770198D01*
X162126753Y-95752263D01*
X162081099Y-95703647D01*
X162067233Y-95638413D01*
X162089165Y-95575430D01*
X162135061Y-95537461D01*
X162134439Y-95536384D01*
X162140068Y-95533133D01*
X162146004Y-95530491D01*
X162300505Y-95418239D01*
X162408824Y-95297938D01*
X164887537Y-95297938D01*
X164888216Y-95304398D01*
X164906819Y-95481405D01*
X164906820Y-95481413D01*
X164907499Y-95487866D01*
X164909504Y-95494038D01*
X164909506Y-95494045D01*
X164946587Y-95608167D01*
X164966514Y-95669494D01*
X164969761Y-95675118D01*
X164969762Y-95675120D01*
X165056127Y-95824709D01*
X165062001Y-95834882D01*
X165189788Y-95976804D01*
X165195038Y-95980618D01*
X165195041Y-95980621D01*
X165299942Y-96056836D01*
X165344289Y-96089056D01*
X165350222Y-96091697D01*
X165350223Y-96091698D01*
X165375796Y-96103084D01*
X165518753Y-96166732D01*
X165525111Y-96168083D01*
X165525113Y-96168084D01*
X165531761Y-96169497D01*
X165705554Y-96206438D01*
X165890025Y-96206438D01*
X165896528Y-96206438D01*
X166083329Y-96166732D01*
X166257793Y-96089056D01*
X166412294Y-95976804D01*
X166540081Y-95834882D01*
X166635568Y-95669494D01*
X166694583Y-95487866D01*
X166714545Y-95297938D01*
X166694583Y-95108010D01*
X166635568Y-94926382D01*
X166540081Y-94760994D01*
X166412294Y-94619072D01*
X166407044Y-94615257D01*
X166407040Y-94615254D01*
X166263047Y-94510637D01*
X166263045Y-94510635D01*
X166257793Y-94506820D01*
X166251862Y-94504179D01*
X166251858Y-94504177D01*
X166089267Y-94431787D01*
X166089260Y-94431784D01*
X166083329Y-94429144D01*
X166076976Y-94427793D01*
X166076968Y-94427791D01*
X165902890Y-94390790D01*
X165902887Y-94390789D01*
X165896528Y-94389438D01*
X165705554Y-94389438D01*
X165699195Y-94390789D01*
X165699191Y-94390790D01*
X165525113Y-94427791D01*
X165525102Y-94427794D01*
X165518753Y-94429144D01*
X165512823Y-94431783D01*
X165512814Y-94431787D01*
X165350223Y-94504177D01*
X165350215Y-94504181D01*
X165344289Y-94506820D01*
X165339040Y-94510633D01*
X165339034Y-94510637D01*
X165195041Y-94615254D01*
X165195032Y-94615261D01*
X165189788Y-94619072D01*
X165185444Y-94623895D01*
X165185441Y-94623899D01*
X165075652Y-94745833D01*
X165062001Y-94760994D01*
X165058755Y-94766614D01*
X165058752Y-94766620D01*
X164969762Y-94920755D01*
X164969759Y-94920760D01*
X164966514Y-94926382D01*
X164964508Y-94932554D01*
X164964506Y-94932560D01*
X164909506Y-95101830D01*
X164909504Y-95101839D01*
X164907499Y-95108010D01*
X164906821Y-95114460D01*
X164906819Y-95114470D01*
X164890401Y-95270690D01*
X164887537Y-95297938D01*
X162408824Y-95297938D01*
X162428292Y-95276317D01*
X162523779Y-95110929D01*
X162582794Y-94929301D01*
X162602756Y-94739373D01*
X162582794Y-94549445D01*
X162523779Y-94367817D01*
X162428292Y-94202429D01*
X162300505Y-94060507D01*
X162295255Y-94056692D01*
X162295251Y-94056689D01*
X162151258Y-93952072D01*
X162151256Y-93952070D01*
X162146004Y-93948255D01*
X162140073Y-93945614D01*
X162140069Y-93945612D01*
X161977478Y-93873222D01*
X161977471Y-93873219D01*
X161971540Y-93870579D01*
X161965187Y-93869228D01*
X161965179Y-93869226D01*
X161791101Y-93832225D01*
X161791098Y-93832224D01*
X161784739Y-93830873D01*
X161593765Y-93830873D01*
X161587406Y-93832224D01*
X161587402Y-93832225D01*
X161413324Y-93869226D01*
X161413313Y-93869229D01*
X161406964Y-93870579D01*
X161401034Y-93873218D01*
X161401025Y-93873222D01*
X161238434Y-93945612D01*
X161238426Y-93945616D01*
X161232500Y-93948255D01*
X161227250Y-93952068D01*
X161227240Y-93952075D01*
X161126784Y-94025061D01*
X161069440Y-94047765D01*
X161008251Y-94040035D01*
X160958355Y-94003783D01*
X160932095Y-93947977D01*
X160935969Y-93886423D01*
X160940258Y-93873222D01*
X160942547Y-93866178D01*
X160962509Y-93676250D01*
X160953299Y-93588615D01*
X178636540Y-93588615D01*
X178637219Y-93595075D01*
X178655822Y-93772082D01*
X178655823Y-93772090D01*
X178656502Y-93778543D01*
X178658507Y-93784715D01*
X178658509Y-93784722D01*
X178713509Y-93953992D01*
X178715517Y-93960171D01*
X178718764Y-93965795D01*
X178718765Y-93965797D01*
X178766089Y-94047765D01*
X178811004Y-94125559D01*
X178938791Y-94267481D01*
X178944041Y-94271295D01*
X178944044Y-94271298D01*
X179059410Y-94355116D01*
X179093292Y-94379733D01*
X179099225Y-94382374D01*
X179099226Y-94382375D01*
X179210207Y-94431787D01*
X179267756Y-94457409D01*
X179274114Y-94458760D01*
X179274116Y-94458761D01*
X179296647Y-94463550D01*
X179454557Y-94497115D01*
X179639028Y-94497115D01*
X179645531Y-94497115D01*
X179832332Y-94457409D01*
X180006796Y-94379733D01*
X180161297Y-94267481D01*
X180289084Y-94125559D01*
X180384571Y-93960171D01*
X180443586Y-93778543D01*
X180463548Y-93588615D01*
X180443586Y-93398687D01*
X180384571Y-93217059D01*
X180355213Y-93166210D01*
X184986204Y-93166210D01*
X184986883Y-93172670D01*
X185005486Y-93349677D01*
X185005487Y-93349685D01*
X185006166Y-93356138D01*
X185008171Y-93362310D01*
X185008173Y-93362317D01*
X185063173Y-93531587D01*
X185065181Y-93537766D01*
X185068428Y-93543390D01*
X185068429Y-93543392D01*
X185148864Y-93682710D01*
X185160668Y-93703154D01*
X185288455Y-93845076D01*
X185293705Y-93848890D01*
X185293708Y-93848893D01*
X185430468Y-93948255D01*
X185442956Y-93957328D01*
X185448889Y-93959969D01*
X185448890Y-93959970D01*
X185595087Y-94025061D01*
X185617420Y-94035004D01*
X185623778Y-94036355D01*
X185623780Y-94036356D01*
X185653871Y-94042752D01*
X185804221Y-94074710D01*
X185988692Y-94074710D01*
X185995195Y-94074710D01*
X186181996Y-94035004D01*
X186356460Y-93957328D01*
X186510961Y-93845076D01*
X186585006Y-93762840D01*
X186642976Y-93726617D01*
X186711334Y-93726617D01*
X186769303Y-93762840D01*
X186849108Y-93851472D01*
X186854358Y-93855286D01*
X186854361Y-93855289D01*
X186978680Y-93945612D01*
X187003609Y-93963724D01*
X187009542Y-93966365D01*
X187009543Y-93966366D01*
X187166743Y-94036356D01*
X187178073Y-94041400D01*
X187184431Y-94042751D01*
X187184433Y-94042752D01*
X187221235Y-94050574D01*
X187364874Y-94081106D01*
X187549345Y-94081106D01*
X187555848Y-94081106D01*
X187742649Y-94041400D01*
X187917113Y-93963724D01*
X188071614Y-93851472D01*
X188199401Y-93709550D01*
X188294888Y-93544162D01*
X188353903Y-93362534D01*
X188373865Y-93172606D01*
X188359683Y-93037669D01*
X188354582Y-92989138D01*
X188354581Y-92989137D01*
X188353903Y-92982678D01*
X188294888Y-92801050D01*
X188199401Y-92635662D01*
X188071614Y-92493740D01*
X188066364Y-92489925D01*
X188066360Y-92489922D01*
X187922367Y-92385305D01*
X187922365Y-92385303D01*
X187917113Y-92381488D01*
X187911182Y-92378847D01*
X187911178Y-92378845D01*
X187748587Y-92306455D01*
X187748580Y-92306452D01*
X187742649Y-92303812D01*
X187736296Y-92302461D01*
X187736288Y-92302459D01*
X187562210Y-92265458D01*
X187562207Y-92265457D01*
X187555848Y-92264106D01*
X187364874Y-92264106D01*
X187358515Y-92265457D01*
X187358511Y-92265458D01*
X187184433Y-92302459D01*
X187184422Y-92302462D01*
X187178073Y-92303812D01*
X187172143Y-92306451D01*
X187172134Y-92306455D01*
X187009543Y-92378845D01*
X187009535Y-92378849D01*
X187003609Y-92381488D01*
X186998360Y-92385301D01*
X186998354Y-92385305D01*
X186854361Y-92489922D01*
X186854352Y-92489929D01*
X186849108Y-92493740D01*
X186844764Y-92498563D01*
X186844760Y-92498568D01*
X186775062Y-92575975D01*
X186717091Y-92612199D01*
X186648733Y-92612198D01*
X186590764Y-92575975D01*
X186510961Y-92487344D01*
X186505711Y-92483529D01*
X186505707Y-92483526D01*
X186361714Y-92378909D01*
X186361712Y-92378907D01*
X186356460Y-92375092D01*
X186350529Y-92372451D01*
X186350525Y-92372449D01*
X186187934Y-92300059D01*
X186187927Y-92300056D01*
X186181996Y-92297416D01*
X186175643Y-92296065D01*
X186175635Y-92296063D01*
X186001557Y-92259062D01*
X186001554Y-92259061D01*
X185995195Y-92257710D01*
X185804221Y-92257710D01*
X185797862Y-92259061D01*
X185797858Y-92259062D01*
X185623780Y-92296063D01*
X185623769Y-92296066D01*
X185617420Y-92297416D01*
X185611490Y-92300055D01*
X185611481Y-92300059D01*
X185448890Y-92372449D01*
X185448882Y-92372453D01*
X185442956Y-92375092D01*
X185437707Y-92378905D01*
X185437701Y-92378909D01*
X185293708Y-92483526D01*
X185293699Y-92483533D01*
X185288455Y-92487344D01*
X185284111Y-92492167D01*
X185284108Y-92492171D01*
X185165015Y-92624438D01*
X185160668Y-92629266D01*
X185157422Y-92634886D01*
X185157419Y-92634892D01*
X185068429Y-92789027D01*
X185068426Y-92789032D01*
X185065181Y-92794654D01*
X185063175Y-92800826D01*
X185063173Y-92800832D01*
X185008173Y-92970102D01*
X185008171Y-92970111D01*
X185006166Y-92976282D01*
X185005488Y-92982732D01*
X185005486Y-92982742D01*
X184991291Y-93117812D01*
X184986204Y-93166210D01*
X180355213Y-93166210D01*
X180289084Y-93051671D01*
X180161297Y-92909749D01*
X180156047Y-92905934D01*
X180156043Y-92905931D01*
X180012050Y-92801314D01*
X180012048Y-92801312D01*
X180006796Y-92797497D01*
X180000865Y-92794856D01*
X180000861Y-92794854D01*
X179838270Y-92722464D01*
X179838263Y-92722461D01*
X179832332Y-92719821D01*
X179825979Y-92718470D01*
X179825971Y-92718468D01*
X179651893Y-92681467D01*
X179651890Y-92681466D01*
X179645531Y-92680115D01*
X179454557Y-92680115D01*
X179448198Y-92681466D01*
X179448194Y-92681467D01*
X179274116Y-92718468D01*
X179274105Y-92718471D01*
X179267756Y-92719821D01*
X179261826Y-92722460D01*
X179261817Y-92722464D01*
X179099226Y-92794854D01*
X179099218Y-92794858D01*
X179093292Y-92797497D01*
X179088043Y-92801310D01*
X179088037Y-92801314D01*
X178944044Y-92905931D01*
X178944035Y-92905938D01*
X178938791Y-92909749D01*
X178934447Y-92914572D01*
X178934444Y-92914576D01*
X178815351Y-93046843D01*
X178811004Y-93051671D01*
X178807758Y-93057291D01*
X178807755Y-93057297D01*
X178718765Y-93211432D01*
X178718762Y-93211437D01*
X178715517Y-93217059D01*
X178713511Y-93223231D01*
X178713509Y-93223237D01*
X178658509Y-93392507D01*
X178658507Y-93392516D01*
X178656502Y-93398687D01*
X178655824Y-93405137D01*
X178655822Y-93405147D01*
X178641293Y-93543392D01*
X178636540Y-93588615D01*
X160953299Y-93588615D01*
X160947376Y-93532263D01*
X160943226Y-93492782D01*
X160943225Y-93492781D01*
X160942547Y-93486322D01*
X160883532Y-93304694D01*
X160816363Y-93188355D01*
X160799921Y-93132846D01*
X160810471Y-93075921D01*
X160845715Y-93029990D01*
X160897970Y-93005066D01*
X160914836Y-93001481D01*
X160914835Y-93001481D01*
X160921197Y-93000129D01*
X161055320Y-92940413D01*
X161123012Y-92930900D01*
X161185460Y-92958703D01*
X161223685Y-93015373D01*
X161230930Y-93037669D01*
X161234177Y-93043293D01*
X161234178Y-93043295D01*
X161305679Y-93167139D01*
X161326417Y-93203057D01*
X161454204Y-93344979D01*
X161459454Y-93348793D01*
X161459457Y-93348796D01*
X161519620Y-93392507D01*
X161608705Y-93457231D01*
X161783169Y-93534907D01*
X161789527Y-93536258D01*
X161789529Y-93536259D01*
X161796619Y-93537766D01*
X161969970Y-93574613D01*
X162154441Y-93574613D01*
X162160944Y-93574613D01*
X162347745Y-93534907D01*
X162522209Y-93457231D01*
X162676710Y-93344979D01*
X162804497Y-93203057D01*
X162899984Y-93037669D01*
X162958999Y-92856041D01*
X162978961Y-92666113D01*
X162958999Y-92476185D01*
X162899984Y-92294557D01*
X162804497Y-92129169D01*
X162698638Y-92011601D01*
X163755356Y-92011601D01*
X163756035Y-92018061D01*
X163774638Y-92195068D01*
X163774639Y-92195076D01*
X163775318Y-92201529D01*
X163777323Y-92207701D01*
X163777325Y-92207708D01*
X163832014Y-92376021D01*
X163834333Y-92383157D01*
X163837580Y-92388781D01*
X163837581Y-92388783D01*
X163924950Y-92540111D01*
X163929820Y-92548545D01*
X164057607Y-92690467D01*
X164062857Y-92694281D01*
X164062860Y-92694284D01*
X164126971Y-92740863D01*
X164212108Y-92802719D01*
X164218041Y-92805360D01*
X164218042Y-92805361D01*
X164342358Y-92860710D01*
X164386572Y-92880395D01*
X164392930Y-92881746D01*
X164392932Y-92881747D01*
X164426815Y-92888949D01*
X164573373Y-92920101D01*
X164757844Y-92920101D01*
X164764347Y-92920101D01*
X164951148Y-92880395D01*
X165125612Y-92802719D01*
X165280113Y-92690467D01*
X165407900Y-92548545D01*
X165414981Y-92536279D01*
X165454830Y-92494283D01*
X165509404Y-92474955D01*
X165566806Y-92482510D01*
X165614520Y-92515303D01*
X165644689Y-92548809D01*
X165719981Y-92632429D01*
X165725231Y-92636243D01*
X165725234Y-92636246D01*
X165867599Y-92739680D01*
X165874482Y-92744681D01*
X165880415Y-92747322D01*
X165880416Y-92747323D01*
X166038964Y-92817913D01*
X166048946Y-92822357D01*
X166055304Y-92823708D01*
X166055306Y-92823709D01*
X166092108Y-92831531D01*
X166235747Y-92862063D01*
X166420218Y-92862063D01*
X166426721Y-92862063D01*
X166613522Y-92822357D01*
X166787986Y-92744681D01*
X166942487Y-92632429D01*
X166985160Y-92585035D01*
X167043126Y-92548813D01*
X167111481Y-92548809D01*
X167163598Y-92581370D01*
X167164422Y-92580456D01*
X167169251Y-92584804D01*
X167173598Y-92589632D01*
X167178848Y-92593446D01*
X167178851Y-92593449D01*
X167305740Y-92685639D01*
X167328099Y-92701884D01*
X167334032Y-92704525D01*
X167334033Y-92704526D01*
X167430727Y-92747577D01*
X167502563Y-92779560D01*
X167508921Y-92780911D01*
X167508923Y-92780912D01*
X167518648Y-92782979D01*
X167689364Y-92819266D01*
X167873835Y-92819266D01*
X167880338Y-92819266D01*
X168067139Y-92779560D01*
X168241603Y-92701884D01*
X168396104Y-92589632D01*
X168523891Y-92447710D01*
X168619378Y-92282322D01*
X168678393Y-92100694D01*
X168698355Y-91910766D01*
X168678393Y-91720838D01*
X168678326Y-91720634D01*
X168679004Y-91668881D01*
X168703212Y-91619792D01*
X168746195Y-91585907D01*
X168799578Y-91573828D01*
X168978145Y-91573828D01*
X168984648Y-91573828D01*
X169171449Y-91534122D01*
X169345913Y-91456446D01*
X169500414Y-91344194D01*
X169627608Y-91202930D01*
X169683917Y-91167196D01*
X169750594Y-91165799D01*
X169808351Y-91199144D01*
X169840481Y-91257587D01*
X169837688Y-91324220D01*
X169820468Y-91377217D01*
X169820466Y-91377225D01*
X169818460Y-91383400D01*
X169817782Y-91389850D01*
X169817780Y-91389860D01*
X169802375Y-91536440D01*
X169798498Y-91573328D01*
X169799177Y-91579788D01*
X169817780Y-91756795D01*
X169817781Y-91756803D01*
X169818460Y-91763256D01*
X169820465Y-91769428D01*
X169820467Y-91769435D01*
X169864290Y-91904306D01*
X169877475Y-91944884D01*
X169880722Y-91950508D01*
X169880723Y-91950510D01*
X169963756Y-92094328D01*
X169972962Y-92110272D01*
X170100749Y-92252194D01*
X170105999Y-92256008D01*
X170106002Y-92256011D01*
X170217658Y-92337134D01*
X170255250Y-92364446D01*
X170261183Y-92367087D01*
X170261184Y-92367088D01*
X170287734Y-92378909D01*
X170429714Y-92442122D01*
X170436072Y-92443473D01*
X170436074Y-92443474D01*
X170456003Y-92447710D01*
X170616515Y-92481828D01*
X170800986Y-92481828D01*
X170807489Y-92481828D01*
X170994290Y-92442122D01*
X171168754Y-92364446D01*
X171183928Y-92353422D01*
X171259084Y-92298817D01*
X171323319Y-92275436D01*
X171390184Y-92289648D01*
X171439357Y-92337134D01*
X171505985Y-92452537D01*
X171513652Y-92465816D01*
X171641439Y-92607738D01*
X171646689Y-92611552D01*
X171646692Y-92611555D01*
X171721785Y-92666113D01*
X171795940Y-92719990D01*
X171801873Y-92722631D01*
X171801874Y-92722632D01*
X171963638Y-92794654D01*
X171970404Y-92797666D01*
X171976762Y-92799017D01*
X171976764Y-92799018D01*
X171986324Y-92801050D01*
X172157205Y-92837372D01*
X172341676Y-92837372D01*
X172348179Y-92837372D01*
X172534980Y-92797666D01*
X172709444Y-92719990D01*
X172863945Y-92607738D01*
X172991732Y-92465816D01*
X173087219Y-92300428D01*
X173146234Y-92118800D01*
X173166196Y-91928872D01*
X173146234Y-91738944D01*
X173087219Y-91557316D01*
X172991732Y-91391928D01*
X172863945Y-91250006D01*
X172854777Y-91243345D01*
X172819474Y-91203618D01*
X172804045Y-91152758D01*
X172811327Y-91100110D01*
X172839978Y-91055351D01*
X172955213Y-90940117D01*
X173052744Y-90784897D01*
X173113291Y-90611865D01*
X173132255Y-90443554D01*
X173133036Y-90436622D01*
X173133816Y-90429699D01*
X173113291Y-90247533D01*
X173113261Y-90247447D01*
X174776111Y-90247447D01*
X174776790Y-90253907D01*
X174795393Y-90430914D01*
X174795394Y-90430922D01*
X174796073Y-90437375D01*
X174798078Y-90443547D01*
X174798080Y-90443554D01*
X174853080Y-90612824D01*
X174855088Y-90619003D01*
X174858335Y-90624627D01*
X174858336Y-90624629D01*
X174933901Y-90755512D01*
X174950575Y-90784391D01*
X175078362Y-90926313D01*
X175083612Y-90930127D01*
X175083615Y-90930130D01*
X175182902Y-91002266D01*
X175232863Y-91038565D01*
X175238796Y-91041206D01*
X175238797Y-91041207D01*
X175380850Y-91104453D01*
X175407327Y-91116241D01*
X175413685Y-91117592D01*
X175413687Y-91117593D01*
X175441313Y-91123465D01*
X175594128Y-91155947D01*
X175778599Y-91155947D01*
X175785102Y-91155947D01*
X175971903Y-91116241D01*
X176146367Y-91038565D01*
X176300868Y-90926313D01*
X176428655Y-90784391D01*
X176524142Y-90619003D01*
X176583157Y-90437375D01*
X176603119Y-90247447D01*
X176583157Y-90057519D01*
X176554119Y-89968151D01*
X180628224Y-89968151D01*
X180628903Y-89974611D01*
X180647506Y-90151618D01*
X180647507Y-90151626D01*
X180648186Y-90158079D01*
X180650191Y-90164251D01*
X180650193Y-90164258D01*
X180694283Y-90299950D01*
X180707201Y-90339707D01*
X180710448Y-90345331D01*
X180710449Y-90345333D01*
X180785543Y-90475400D01*
X180802688Y-90505095D01*
X180930475Y-90647017D01*
X180935725Y-90650831D01*
X180935728Y-90650834D01*
X181009640Y-90704534D01*
X181084976Y-90759269D01*
X181090909Y-90761910D01*
X181090910Y-90761911D01*
X181136502Y-90782210D01*
X181259440Y-90836945D01*
X181265798Y-90838296D01*
X181265800Y-90838297D01*
X181302602Y-90846119D01*
X181446241Y-90876651D01*
X181630712Y-90876651D01*
X181637215Y-90876651D01*
X181824016Y-90836945D01*
X181998480Y-90759269D01*
X182152981Y-90647017D01*
X182280768Y-90505095D01*
X182376255Y-90339707D01*
X182429533Y-90175735D01*
X182464491Y-90121905D01*
X182521680Y-90092765D01*
X182701767Y-90054487D01*
X182876231Y-89976811D01*
X182885942Y-89969756D01*
X182940636Y-89930018D01*
X182996264Y-89907542D01*
X183055932Y-89913813D01*
X183105672Y-89947363D01*
X183138618Y-89983953D01*
X183143868Y-89987767D01*
X183143871Y-89987770D01*
X183260945Y-90072829D01*
X183293119Y-90096205D01*
X183299052Y-90098846D01*
X183299053Y-90098847D01*
X183422695Y-90153896D01*
X183467583Y-90173881D01*
X183473941Y-90175232D01*
X183473943Y-90175233D01*
X183510745Y-90183055D01*
X183654384Y-90213587D01*
X183838855Y-90213587D01*
X183845358Y-90213587D01*
X184032159Y-90173881D01*
X184206623Y-90096205D01*
X184216842Y-90088781D01*
X184305181Y-90024598D01*
X184352287Y-90003624D01*
X184403852Y-90003626D01*
X184450956Y-90024600D01*
X184461477Y-90032244D01*
X184467410Y-90034885D01*
X184467411Y-90034886D01*
X184611070Y-90098847D01*
X184635941Y-90109920D01*
X184642299Y-90111271D01*
X184642301Y-90111272D01*
X184679103Y-90119094D01*
X184822742Y-90149626D01*
X185007213Y-90149626D01*
X185013716Y-90149626D01*
X185200517Y-90109920D01*
X185374981Y-90032244D01*
X185529482Y-89919992D01*
X185657269Y-89778070D01*
X185752756Y-89612682D01*
X185811771Y-89431054D01*
X185831733Y-89241126D01*
X185816691Y-89098005D01*
X185812450Y-89057658D01*
X185812449Y-89057657D01*
X185811771Y-89051198D01*
X185752756Y-88869570D01*
X185657269Y-88704182D01*
X185529482Y-88562260D01*
X185524232Y-88558445D01*
X185524228Y-88558442D01*
X185380235Y-88453825D01*
X185380233Y-88453823D01*
X185374981Y-88450008D01*
X185369050Y-88447367D01*
X185369046Y-88447365D01*
X185206455Y-88374975D01*
X185206448Y-88374972D01*
X185200517Y-88372332D01*
X185194164Y-88370981D01*
X185194156Y-88370979D01*
X185020078Y-88333978D01*
X185020075Y-88333977D01*
X185013716Y-88332626D01*
X184911105Y-88332626D01*
X184846870Y-88314691D01*
X184801216Y-88266075D01*
X184787350Y-88200840D01*
X184809282Y-88137858D01*
X184860669Y-88095347D01*
X184871502Y-88090523D01*
X184871500Y-88090523D01*
X184877441Y-88087879D01*
X185031942Y-87975627D01*
X185159729Y-87833705D01*
X185255216Y-87668317D01*
X185314231Y-87486689D01*
X185334193Y-87296761D01*
X185314231Y-87106833D01*
X185255216Y-86925205D01*
X185159729Y-86759817D01*
X185031942Y-86617895D01*
X185026692Y-86614080D01*
X185026688Y-86614077D01*
X184882695Y-86509460D01*
X184882693Y-86509458D01*
X184877441Y-86505643D01*
X184871510Y-86503002D01*
X184871506Y-86503000D01*
X184818486Y-86479394D01*
X187016647Y-86479394D01*
X187017326Y-86485854D01*
X187035929Y-86662861D01*
X187035930Y-86662869D01*
X187036609Y-86669322D01*
X187038614Y-86675494D01*
X187038616Y-86675501D01*
X187093616Y-86844771D01*
X187095624Y-86850950D01*
X187098871Y-86856574D01*
X187098872Y-86856576D01*
X187186215Y-87007859D01*
X187191111Y-87016338D01*
X187318898Y-87158260D01*
X187324148Y-87162074D01*
X187324151Y-87162077D01*
X187404752Y-87220637D01*
X187473399Y-87270512D01*
X187479332Y-87273153D01*
X187479333Y-87273154D01*
X187640221Y-87344786D01*
X187647863Y-87348188D01*
X187654221Y-87349539D01*
X187654223Y-87349540D01*
X187691025Y-87357362D01*
X187834664Y-87387894D01*
X188019135Y-87387894D01*
X188025638Y-87387894D01*
X188212439Y-87348188D01*
X188212822Y-87349994D01*
X188257253Y-87346099D01*
X188309346Y-87366089D01*
X188347400Y-87406895D01*
X188406167Y-87508683D01*
X188422688Y-87537297D01*
X188550475Y-87679219D01*
X188555725Y-87683033D01*
X188555728Y-87683036D01*
X188661917Y-87760187D01*
X188704976Y-87791471D01*
X188710909Y-87794112D01*
X188710910Y-87794113D01*
X188862338Y-87861533D01*
X188909080Y-87897789D01*
X188933706Y-87951573D01*
X188930613Y-88010646D01*
X188900504Y-88061565D01*
X188859468Y-88087011D01*
X188860252Y-88088771D01*
X188691722Y-88163804D01*
X188691714Y-88163808D01*
X188685788Y-88166447D01*
X188680539Y-88170260D01*
X188680533Y-88170264D01*
X188536540Y-88274881D01*
X188536531Y-88274888D01*
X188531287Y-88278699D01*
X188526943Y-88283522D01*
X188526940Y-88283526D01*
X188420388Y-88401865D01*
X188403500Y-88420621D01*
X188400254Y-88426241D01*
X188400251Y-88426247D01*
X188311261Y-88580382D01*
X188311258Y-88580387D01*
X188308013Y-88586009D01*
X188306007Y-88592181D01*
X188306005Y-88592187D01*
X188251005Y-88761457D01*
X188251003Y-88761466D01*
X188248998Y-88767637D01*
X188248320Y-88774087D01*
X188248318Y-88774097D01*
X188234429Y-88906252D01*
X188229036Y-88957565D01*
X188229715Y-88964025D01*
X188241629Y-89077383D01*
X188234836Y-89132737D01*
X188204472Y-89179516D01*
X188166681Y-89202242D01*
X188167480Y-89204035D01*
X187998950Y-89279068D01*
X187998942Y-89279072D01*
X187993016Y-89281711D01*
X187987767Y-89285524D01*
X187987761Y-89285528D01*
X187843768Y-89390145D01*
X187843759Y-89390152D01*
X187838515Y-89393963D01*
X187834171Y-89398786D01*
X187834168Y-89398790D01*
X187724403Y-89520697D01*
X187710728Y-89535885D01*
X187707482Y-89541505D01*
X187707479Y-89541511D01*
X187618489Y-89695646D01*
X187618486Y-89695651D01*
X187615241Y-89701273D01*
X187613235Y-89707445D01*
X187613233Y-89707451D01*
X187558233Y-89876721D01*
X187558231Y-89876730D01*
X187556226Y-89882901D01*
X187555548Y-89889351D01*
X187555546Y-89889361D01*
X187540266Y-90034750D01*
X187536264Y-90072829D01*
X187536943Y-90079289D01*
X187555546Y-90256296D01*
X187555547Y-90256304D01*
X187556226Y-90262757D01*
X187558231Y-90268929D01*
X187558233Y-90268936D01*
X187612963Y-90437375D01*
X187615241Y-90444385D01*
X187618488Y-90450009D01*
X187618489Y-90450011D01*
X187702297Y-90595171D01*
X187710728Y-90609773D01*
X187838515Y-90751695D01*
X187843765Y-90755509D01*
X187843768Y-90755512D01*
X187952212Y-90834301D01*
X187993016Y-90863947D01*
X187998949Y-90866588D01*
X187998950Y-90866589D01*
X188151339Y-90934437D01*
X188167480Y-90941623D01*
X188173838Y-90942974D01*
X188173840Y-90942975D01*
X188193139Y-90947077D01*
X188354281Y-90981329D01*
X188538752Y-90981329D01*
X188545255Y-90981329D01*
X188732056Y-90941623D01*
X188906520Y-90863947D01*
X189061021Y-90751695D01*
X189188808Y-90609773D01*
X189284295Y-90444385D01*
X189343310Y-90262757D01*
X189363272Y-90072829D01*
X189350678Y-89953007D01*
X189357484Y-89897619D01*
X189387891Y-89850822D01*
X189425632Y-89828166D01*
X189424828Y-89826359D01*
X189465744Y-89808142D01*
X189599292Y-89748683D01*
X189753793Y-89636431D01*
X189881580Y-89494509D01*
X189977067Y-89329121D01*
X190036082Y-89147493D01*
X190056044Y-88957565D01*
X190036082Y-88767637D01*
X190034610Y-88763108D01*
X190687136Y-88763108D01*
X190688072Y-88772013D01*
X190706418Y-88946575D01*
X190706419Y-88946583D01*
X190707098Y-88953036D01*
X190709103Y-88959208D01*
X190709105Y-88959215D01*
X190764105Y-89128485D01*
X190766113Y-89134664D01*
X190769360Y-89140288D01*
X190769361Y-89140290D01*
X190858170Y-89294112D01*
X190861600Y-89300052D01*
X190942720Y-89390145D01*
X190979554Y-89431054D01*
X190989387Y-89441974D01*
X190994649Y-89445797D01*
X190996626Y-89447577D01*
X191032851Y-89505546D01*
X191032854Y-89573904D01*
X190997100Y-89631124D01*
X190993738Y-89633568D01*
X190989395Y-89638390D01*
X190989393Y-89638393D01*
X190894925Y-89743311D01*
X190865951Y-89775490D01*
X190862705Y-89781110D01*
X190862702Y-89781116D01*
X190773712Y-89935251D01*
X190773709Y-89935256D01*
X190770464Y-89940878D01*
X190768458Y-89947050D01*
X190768456Y-89947056D01*
X190713456Y-90116326D01*
X190713454Y-90116335D01*
X190711449Y-90122506D01*
X190710771Y-90128956D01*
X190710769Y-90128966D01*
X190696059Y-90268936D01*
X190691487Y-90312434D01*
X190692166Y-90318894D01*
X190710769Y-90495901D01*
X190710770Y-90495909D01*
X190711449Y-90502362D01*
X190713454Y-90508534D01*
X190713456Y-90508541D01*
X190759691Y-90650834D01*
X190770464Y-90683990D01*
X190773711Y-90689614D01*
X190773712Y-90689616D01*
X190831217Y-90789218D01*
X190865951Y-90849378D01*
X190918026Y-90907213D01*
X190991518Y-90988835D01*
X191019685Y-91041809D01*
X191019685Y-91101805D01*
X190991518Y-91154779D01*
X190875282Y-91283873D01*
X190865951Y-91294236D01*
X190862705Y-91299856D01*
X190862702Y-91299862D01*
X190773712Y-91453997D01*
X190773709Y-91454002D01*
X190770464Y-91459624D01*
X190768458Y-91465796D01*
X190768456Y-91465802D01*
X190713456Y-91635072D01*
X190713454Y-91635081D01*
X190711449Y-91641252D01*
X190710771Y-91647702D01*
X190710769Y-91647712D01*
X190695188Y-91795966D01*
X190691487Y-91831180D01*
X190692166Y-91837640D01*
X190710769Y-92014647D01*
X190710770Y-92014655D01*
X190711449Y-92021108D01*
X190713454Y-92027280D01*
X190713456Y-92027287D01*
X190763048Y-92179913D01*
X190770464Y-92202736D01*
X190773711Y-92208360D01*
X190773712Y-92208362D01*
X190862358Y-92361902D01*
X190865951Y-92368124D01*
X190993738Y-92510046D01*
X190998988Y-92513860D01*
X190998991Y-92513863D01*
X191096633Y-92584804D01*
X191148239Y-92622298D01*
X191154172Y-92624939D01*
X191154173Y-92624940D01*
X191301349Y-92690467D01*
X191322703Y-92699974D01*
X191329061Y-92701325D01*
X191329063Y-92701326D01*
X191341521Y-92703974D01*
X191509504Y-92739680D01*
X191693975Y-92739680D01*
X191700478Y-92739680D01*
X191887279Y-92699974D01*
X192061743Y-92622298D01*
X192216244Y-92510046D01*
X192344031Y-92368124D01*
X192439518Y-92202736D01*
X192498533Y-92021108D01*
X192518495Y-91831180D01*
X192506846Y-91720344D01*
X192499212Y-91647712D01*
X192499211Y-91647711D01*
X192498533Y-91641252D01*
X192439518Y-91459624D01*
X192344031Y-91294236D01*
X192317872Y-91265184D01*
X192279741Y-91222835D01*
X192218462Y-91154777D01*
X192190296Y-91101805D01*
X192190296Y-91041809D01*
X192218463Y-90988835D01*
X192344031Y-90849378D01*
X192439518Y-90683990D01*
X192498533Y-90502362D01*
X192518495Y-90312434D01*
X192498533Y-90122506D01*
X192439518Y-89940878D01*
X192394182Y-89862355D01*
X192377815Y-89808142D01*
X192387259Y-89752304D01*
X192420546Y-89706489D01*
X192470732Y-89680252D01*
X192527351Y-89679066D01*
X192627672Y-89700390D01*
X192812143Y-89700390D01*
X192818646Y-89700390D01*
X193005447Y-89660684D01*
X193179911Y-89583008D01*
X193199849Y-89568521D01*
X193247117Y-89547513D01*
X193298846Y-89547618D01*
X193333834Y-89563339D01*
X193334869Y-89561549D01*
X193340493Y-89564796D01*
X193345752Y-89568617D01*
X193430846Y-89606503D01*
X193506638Y-89640248D01*
X193520216Y-89646293D01*
X193526574Y-89647644D01*
X193526576Y-89647645D01*
X193553694Y-89653409D01*
X193707017Y-89685999D01*
X193891488Y-89685999D01*
X193897991Y-89685999D01*
X193942580Y-89676521D01*
X194008986Y-89680655D01*
X194063697Y-89718520D01*
X194090959Y-89779215D01*
X194082922Y-89845263D01*
X194013510Y-90012838D01*
X194013504Y-90012854D01*
X194011645Y-90017344D01*
X194010510Y-90022068D01*
X194010507Y-90022080D01*
X193952758Y-90262624D01*
X193952756Y-90262630D01*
X193951622Y-90267358D01*
X193951240Y-90272206D01*
X193951240Y-90272209D01*
X193938176Y-90438206D01*
X193931449Y-90523684D01*
X193931831Y-90528538D01*
X193950197Y-90761911D01*
X193951622Y-90780010D01*
X193952757Y-90784739D01*
X193952758Y-90784743D01*
X194010507Y-91025287D01*
X194010509Y-91025295D01*
X194011645Y-91030024D01*
X194110040Y-91267571D01*
X194112587Y-91271728D01*
X194112588Y-91271729D01*
X194236942Y-91474657D01*
X194244384Y-91486800D01*
X194247548Y-91490505D01*
X194247552Y-91490510D01*
X194398706Y-91667489D01*
X194411369Y-91682315D01*
X194415076Y-91685481D01*
X194603173Y-91846131D01*
X194603176Y-91846133D01*
X194606884Y-91849300D01*
X194826113Y-91983644D01*
X195063660Y-92082039D01*
X195313674Y-92142062D01*
X195570000Y-92162235D01*
X195826326Y-92142062D01*
X196076340Y-92082039D01*
X196313887Y-91983644D01*
X196533116Y-91849300D01*
X196728631Y-91682315D01*
X196895616Y-91486800D01*
X197029960Y-91267571D01*
X197128355Y-91030024D01*
X197188378Y-90780010D01*
X197208551Y-90523684D01*
X197188378Y-90267358D01*
X197128355Y-90017344D01*
X197029960Y-89779797D01*
X196895616Y-89560568D01*
X196885569Y-89548805D01*
X196731797Y-89368760D01*
X196728631Y-89365053D01*
X196715595Y-89353919D01*
X196536826Y-89201236D01*
X196536821Y-89201232D01*
X196533116Y-89198068D01*
X196528960Y-89195521D01*
X196528957Y-89195519D01*
X196318045Y-89066272D01*
X196318044Y-89066271D01*
X196313887Y-89063724D01*
X196076340Y-88965329D01*
X196071611Y-88964193D01*
X196071603Y-88964191D01*
X195831059Y-88906442D01*
X195831055Y-88906441D01*
X195826326Y-88905306D01*
X195821475Y-88904924D01*
X195821474Y-88904924D01*
X195574854Y-88885515D01*
X195570000Y-88885133D01*
X195565146Y-88885515D01*
X195318525Y-88904924D01*
X195318522Y-88904924D01*
X195313674Y-88905306D01*
X195308946Y-88906440D01*
X195308940Y-88906442D01*
X195068396Y-88964191D01*
X195068384Y-88964194D01*
X195063660Y-88965329D01*
X195059170Y-88967188D01*
X195059154Y-88967194D01*
X194872103Y-89044673D01*
X194809270Y-89053154D01*
X194750459Y-89029467D01*
X194711044Y-88979805D01*
X194701330Y-88917150D01*
X194701507Y-88915472D01*
X194716008Y-88777499D01*
X194696046Y-88587571D01*
X194637031Y-88405943D01*
X194541544Y-88240555D01*
X194415611Y-88100692D01*
X194415609Y-88100689D01*
X194413757Y-88098633D01*
X194414000Y-88098413D01*
X194385040Y-88057431D01*
X194375774Y-88003490D01*
X194384182Y-87973684D01*
X196556681Y-87973684D01*
X196557063Y-87978538D01*
X196575405Y-88211603D01*
X196575928Y-88218241D01*
X196577063Y-88222970D01*
X196577064Y-88222974D01*
X196632057Y-88452039D01*
X196632059Y-88452047D01*
X196633195Y-88456776D01*
X196635059Y-88461276D01*
X196716135Y-88657011D01*
X196727073Y-88683416D01*
X196729609Y-88687555D01*
X196729613Y-88687562D01*
X196852702Y-88888426D01*
X196855248Y-88892580D01*
X196858413Y-88896286D01*
X196858414Y-88896287D01*
X196974272Y-89031938D01*
X197014567Y-89079117D01*
X197201104Y-89238436D01*
X197205256Y-89240980D01*
X197205257Y-89240981D01*
X197378836Y-89347350D01*
X197410268Y-89366611D01*
X197636908Y-89460489D01*
X197875443Y-89517756D01*
X198120000Y-89537003D01*
X198364557Y-89517756D01*
X198603092Y-89460489D01*
X198829732Y-89366611D01*
X199038896Y-89238436D01*
X199225433Y-89079117D01*
X199384752Y-88892580D01*
X199512927Y-88683416D01*
X199606805Y-88456776D01*
X199664072Y-88218241D01*
X199683319Y-87973684D01*
X199664072Y-87729127D01*
X199606805Y-87490592D01*
X199512927Y-87263952D01*
X199491939Y-87229703D01*
X199387297Y-87058941D01*
X199387296Y-87058940D01*
X199384752Y-87054788D01*
X199225433Y-86868251D01*
X199191425Y-86839205D01*
X199042603Y-86712098D01*
X199042602Y-86712097D01*
X199038896Y-86708932D01*
X199034745Y-86706388D01*
X199034742Y-86706386D01*
X198833878Y-86583297D01*
X198833871Y-86583293D01*
X198829732Y-86580757D01*
X198825237Y-86578895D01*
X198825235Y-86578894D01*
X198607592Y-86488743D01*
X198603092Y-86486879D01*
X198598363Y-86485743D01*
X198598355Y-86485741D01*
X198369290Y-86430748D01*
X198369286Y-86430747D01*
X198364557Y-86429612D01*
X198359706Y-86429230D01*
X198359705Y-86429230D01*
X198124854Y-86410747D01*
X198120000Y-86410365D01*
X198115146Y-86410747D01*
X197880294Y-86429230D01*
X197880291Y-86429230D01*
X197875443Y-86429612D01*
X197870715Y-86430746D01*
X197870709Y-86430748D01*
X197641644Y-86485741D01*
X197641632Y-86485744D01*
X197636908Y-86486879D01*
X197632411Y-86488741D01*
X197632407Y-86488743D01*
X197414764Y-86578894D01*
X197414756Y-86578897D01*
X197410268Y-86580757D01*
X197406133Y-86583290D01*
X197406121Y-86583297D01*
X197205257Y-86706386D01*
X197205247Y-86706392D01*
X197201104Y-86708932D01*
X197197403Y-86712092D01*
X197197396Y-86712098D01*
X197018267Y-86865090D01*
X197018261Y-86865095D01*
X197014567Y-86868251D01*
X197011411Y-86871945D01*
X197011406Y-86871951D01*
X196858414Y-87051080D01*
X196858408Y-87051087D01*
X196855248Y-87054788D01*
X196852708Y-87058931D01*
X196852702Y-87058941D01*
X196729613Y-87259805D01*
X196729606Y-87259817D01*
X196727073Y-87263952D01*
X196725213Y-87268440D01*
X196725210Y-87268448D01*
X196635059Y-87486091D01*
X196633195Y-87490592D01*
X196632060Y-87495316D01*
X196632057Y-87495328D01*
X196577064Y-87724393D01*
X196577062Y-87724399D01*
X196575928Y-87729127D01*
X196575546Y-87733975D01*
X196575546Y-87733978D01*
X196562654Y-87897789D01*
X196556681Y-87973684D01*
X194384182Y-87973684D01*
X194390633Y-87950814D01*
X194426718Y-87909667D01*
X194456931Y-87887717D01*
X194584718Y-87745795D01*
X194680205Y-87580407D01*
X194739220Y-87398779D01*
X194759182Y-87208851D01*
X194742185Y-87047136D01*
X194751899Y-86984484D01*
X194791314Y-86934821D01*
X194850126Y-86911135D01*
X194912956Y-86919615D01*
X195063660Y-86982039D01*
X195313674Y-87042062D01*
X195570000Y-87062235D01*
X195826326Y-87042062D01*
X196076340Y-86982039D01*
X196313887Y-86883644D01*
X196533116Y-86749300D01*
X196728631Y-86582315D01*
X196895616Y-86386800D01*
X197029960Y-86167571D01*
X197128355Y-85930024D01*
X197188378Y-85680010D01*
X197208551Y-85423684D01*
X197188378Y-85167358D01*
X197128355Y-84917344D01*
X197029960Y-84679797D01*
X196895616Y-84460568D01*
X196858113Y-84416658D01*
X196731797Y-84268760D01*
X196728631Y-84265053D01*
X196684895Y-84227699D01*
X196536826Y-84101236D01*
X196536821Y-84101232D01*
X196533116Y-84098068D01*
X196528960Y-84095521D01*
X196528957Y-84095519D01*
X196318045Y-83966272D01*
X196318044Y-83966271D01*
X196313887Y-83963724D01*
X196076340Y-83865329D01*
X196071611Y-83864193D01*
X196071603Y-83864191D01*
X195831059Y-83806442D01*
X195831055Y-83806441D01*
X195826326Y-83805306D01*
X195821475Y-83804924D01*
X195821474Y-83804924D01*
X195574854Y-83785515D01*
X195570000Y-83785133D01*
X195565146Y-83785515D01*
X195318525Y-83804924D01*
X195318522Y-83804924D01*
X195313674Y-83805306D01*
X195308946Y-83806440D01*
X195308940Y-83806442D01*
X195068396Y-83864191D01*
X195068384Y-83864194D01*
X195063660Y-83865329D01*
X195059163Y-83867191D01*
X195059159Y-83867193D01*
X194830617Y-83961858D01*
X194830612Y-83961860D01*
X194826113Y-83963724D01*
X194821960Y-83966268D01*
X194821954Y-83966272D01*
X194611042Y-84095519D01*
X194611033Y-84095525D01*
X194606884Y-84098068D01*
X194603184Y-84101227D01*
X194603173Y-84101236D01*
X194415076Y-84261886D01*
X194415069Y-84261892D01*
X194411369Y-84265053D01*
X194408208Y-84268753D01*
X194408202Y-84268760D01*
X194247552Y-84456857D01*
X194247543Y-84456868D01*
X194244384Y-84460568D01*
X194241841Y-84464717D01*
X194241835Y-84464726D01*
X194112588Y-84675638D01*
X194112584Y-84675644D01*
X194110040Y-84679797D01*
X194108176Y-84684296D01*
X194108174Y-84684301D01*
X194015404Y-84908269D01*
X194011645Y-84917344D01*
X194010510Y-84922068D01*
X194010507Y-84922080D01*
X193952758Y-85162624D01*
X193952756Y-85162630D01*
X193951622Y-85167358D01*
X193951240Y-85172206D01*
X193951240Y-85172209D01*
X193941792Y-85292256D01*
X193931449Y-85423684D01*
X193931831Y-85428538D01*
X193944056Y-85583881D01*
X193951622Y-85680010D01*
X193952757Y-85684739D01*
X193952758Y-85684743D01*
X194010507Y-85925287D01*
X194010509Y-85925295D01*
X194011645Y-85930024D01*
X194026793Y-85966594D01*
X194096460Y-86134786D01*
X194104497Y-86200834D01*
X194077236Y-86261528D01*
X194022527Y-86299394D01*
X193956121Y-86303530D01*
X193941165Y-86300351D01*
X193750191Y-86300351D01*
X193743832Y-86301702D01*
X193743828Y-86301703D01*
X193569750Y-86338704D01*
X193569739Y-86338707D01*
X193563390Y-86340057D01*
X193557460Y-86342696D01*
X193557451Y-86342700D01*
X193394862Y-86415089D01*
X193394853Y-86415093D01*
X193388926Y-86417733D01*
X193383674Y-86421548D01*
X193383670Y-86421551D01*
X193380513Y-86423845D01*
X193378893Y-86425023D01*
X193378887Y-86425027D01*
X193331783Y-86445997D01*
X193280222Y-86445996D01*
X193233119Y-86425023D01*
X193228345Y-86421554D01*
X193228340Y-86421551D01*
X193223085Y-86417733D01*
X193217153Y-86415092D01*
X193217148Y-86415089D01*
X193054559Y-86342700D01*
X193054552Y-86342697D01*
X193048621Y-86340057D01*
X193042268Y-86338706D01*
X193042260Y-86338704D01*
X192868182Y-86301703D01*
X192868179Y-86301702D01*
X192861820Y-86300351D01*
X192670846Y-86300351D01*
X192664490Y-86301701D01*
X192664480Y-86301703D01*
X192580622Y-86319528D01*
X192524004Y-86318342D01*
X192473817Y-86292105D01*
X192440531Y-86246289D01*
X192431087Y-86190451D01*
X192447453Y-86136240D01*
X192469893Y-86097375D01*
X192528908Y-85915747D01*
X192548870Y-85725819D01*
X192528908Y-85535891D01*
X192469893Y-85354263D01*
X192374406Y-85188875D01*
X192290617Y-85095818D01*
X192262451Y-85042845D01*
X192262451Y-84982848D01*
X192290616Y-84929878D01*
X192389593Y-84819954D01*
X192485080Y-84654566D01*
X192544095Y-84472938D01*
X192564057Y-84283010D01*
X192544095Y-84093082D01*
X192485080Y-83911454D01*
X192389593Y-83746066D01*
X192261806Y-83604144D01*
X192256556Y-83600329D01*
X192256552Y-83600326D01*
X192112559Y-83495709D01*
X192112557Y-83495707D01*
X192107305Y-83491892D01*
X192101374Y-83489251D01*
X192101370Y-83489249D01*
X191938779Y-83416859D01*
X191938772Y-83416856D01*
X191932841Y-83414216D01*
X191926488Y-83412865D01*
X191926480Y-83412863D01*
X191752402Y-83375862D01*
X191752399Y-83375861D01*
X191746040Y-83374510D01*
X191555066Y-83374510D01*
X191548707Y-83375861D01*
X191548703Y-83375862D01*
X191374625Y-83412863D01*
X191374614Y-83412866D01*
X191368265Y-83414216D01*
X191362335Y-83416855D01*
X191362326Y-83416859D01*
X191199735Y-83489249D01*
X191199727Y-83489253D01*
X191193801Y-83491892D01*
X191188552Y-83495705D01*
X191188546Y-83495709D01*
X191044553Y-83600326D01*
X191044544Y-83600333D01*
X191039300Y-83604144D01*
X191034956Y-83608967D01*
X191034953Y-83608971D01*
X190939336Y-83715165D01*
X190911513Y-83746066D01*
X190908267Y-83751686D01*
X190908264Y-83751692D01*
X190819274Y-83905827D01*
X190819271Y-83905832D01*
X190816026Y-83911454D01*
X190814020Y-83917626D01*
X190814018Y-83917632D01*
X190759018Y-84086902D01*
X190759016Y-84086911D01*
X190757011Y-84093082D01*
X190756333Y-84099532D01*
X190756331Y-84099542D01*
X190743360Y-84222966D01*
X190737049Y-84283010D01*
X190737728Y-84289470D01*
X190756331Y-84466477D01*
X190756332Y-84466485D01*
X190757011Y-84472938D01*
X190759016Y-84479110D01*
X190759018Y-84479117D01*
X190814018Y-84648387D01*
X190816026Y-84654566D01*
X190819273Y-84660190D01*
X190819274Y-84660192D01*
X190870263Y-84748508D01*
X190911513Y-84819954D01*
X190991032Y-84908269D01*
X190995300Y-84913009D01*
X191023467Y-84965983D01*
X191023467Y-85025979D01*
X190995300Y-85078953D01*
X190950745Y-85128437D01*
X190896326Y-85188875D01*
X190893080Y-85194495D01*
X190893077Y-85194501D01*
X190804087Y-85348636D01*
X190804084Y-85348641D01*
X190800839Y-85354263D01*
X190798833Y-85360435D01*
X190798831Y-85360441D01*
X190743831Y-85529711D01*
X190743829Y-85529720D01*
X190741824Y-85535891D01*
X190741146Y-85542341D01*
X190741144Y-85542351D01*
X190725808Y-85688276D01*
X190721862Y-85725819D01*
X190722541Y-85732279D01*
X190741144Y-85909286D01*
X190741145Y-85909294D01*
X190741824Y-85915747D01*
X190743829Y-85921919D01*
X190743831Y-85921926D01*
X190794079Y-86076570D01*
X190800839Y-86097375D01*
X190804086Y-86102999D01*
X190804087Y-86103001D01*
X190890679Y-86252983D01*
X190896326Y-86262763D01*
X190999331Y-86377162D01*
X191002127Y-86380267D01*
X191030294Y-86433241D01*
X191030294Y-86493237D01*
X191002127Y-86546211D01*
X190880339Y-86681470D01*
X190880334Y-86681476D01*
X190875992Y-86686299D01*
X190872746Y-86691919D01*
X190872743Y-86691925D01*
X190783753Y-86846060D01*
X190783750Y-86846065D01*
X190780505Y-86851687D01*
X190778499Y-86857859D01*
X190778497Y-86857865D01*
X190723497Y-87027135D01*
X190723495Y-87027144D01*
X190721490Y-87033315D01*
X190720812Y-87039765D01*
X190720810Y-87039775D01*
X190703519Y-87204301D01*
X190701528Y-87223243D01*
X190702207Y-87229703D01*
X190720810Y-87406710D01*
X190720811Y-87406718D01*
X190721490Y-87413171D01*
X190723495Y-87419343D01*
X190723497Y-87419350D01*
X190778497Y-87588620D01*
X190780505Y-87594799D01*
X190783752Y-87600423D01*
X190783753Y-87600425D01*
X190870469Y-87750622D01*
X190875992Y-87760187D01*
X190967244Y-87861533D01*
X191003779Y-87902109D01*
X191002075Y-87903642D01*
X191032615Y-87952503D01*
X191032621Y-88020864D01*
X190996400Y-88078839D01*
X190994631Y-88080431D01*
X190989387Y-88084242D01*
X190985045Y-88089063D01*
X190985044Y-88089065D01*
X190869495Y-88217396D01*
X190861600Y-88226164D01*
X190858354Y-88231784D01*
X190858351Y-88231790D01*
X190769361Y-88385925D01*
X190769358Y-88385930D01*
X190766113Y-88391552D01*
X190764107Y-88397724D01*
X190764105Y-88397730D01*
X190709105Y-88567000D01*
X190709103Y-88567009D01*
X190707098Y-88573180D01*
X190706420Y-88579630D01*
X190706418Y-88579640D01*
X190689530Y-88740331D01*
X190687136Y-88763108D01*
X190034610Y-88763108D01*
X189977067Y-88586009D01*
X189881580Y-88420621D01*
X189753793Y-88278699D01*
X189748543Y-88274884D01*
X189748539Y-88274881D01*
X189604546Y-88170264D01*
X189604544Y-88170262D01*
X189599292Y-88166447D01*
X189593363Y-88163807D01*
X189593361Y-88163806D01*
X189441928Y-88096384D01*
X189395178Y-88060117D01*
X189370556Y-88006316D01*
X189373667Y-87947230D01*
X189403803Y-87896312D01*
X189444803Y-87870915D01*
X189444016Y-87869147D01*
X189484858Y-87850963D01*
X189618480Y-87791471D01*
X189772981Y-87679219D01*
X189900768Y-87537297D01*
X189996255Y-87371909D01*
X190055270Y-87190281D01*
X190075232Y-87000353D01*
X190055270Y-86810425D01*
X189996255Y-86628797D01*
X189900768Y-86463409D01*
X189772981Y-86321487D01*
X189767731Y-86317672D01*
X189767727Y-86317669D01*
X189623734Y-86213052D01*
X189623732Y-86213050D01*
X189618480Y-86209235D01*
X189612549Y-86206594D01*
X189612545Y-86206592D01*
X189449954Y-86134202D01*
X189449947Y-86134199D01*
X189444016Y-86131559D01*
X189437663Y-86130208D01*
X189437655Y-86130206D01*
X189263577Y-86093205D01*
X189263574Y-86093204D01*
X189257215Y-86091853D01*
X189066241Y-86091853D01*
X189059882Y-86093204D01*
X189059878Y-86093205D01*
X188879440Y-86131559D01*
X188879058Y-86129764D01*
X188834570Y-86133639D01*
X188782509Y-86113641D01*
X188744478Y-86072851D01*
X188735934Y-86058053D01*
X188669191Y-85942450D01*
X188541404Y-85800528D01*
X188536154Y-85796713D01*
X188536150Y-85796710D01*
X188392157Y-85692093D01*
X188392155Y-85692091D01*
X188386903Y-85688276D01*
X188380972Y-85685635D01*
X188380968Y-85685633D01*
X188218377Y-85613243D01*
X188218370Y-85613240D01*
X188212439Y-85610600D01*
X188206086Y-85609249D01*
X188206078Y-85609247D01*
X188032000Y-85572246D01*
X188031997Y-85572245D01*
X188025638Y-85570894D01*
X187834664Y-85570894D01*
X187828305Y-85572245D01*
X187828301Y-85572246D01*
X187654223Y-85609247D01*
X187654212Y-85609250D01*
X187647863Y-85610600D01*
X187641933Y-85613239D01*
X187641924Y-85613243D01*
X187479333Y-85685633D01*
X187479325Y-85685637D01*
X187473399Y-85688276D01*
X187468150Y-85692089D01*
X187468144Y-85692093D01*
X187324151Y-85796710D01*
X187324142Y-85796717D01*
X187318898Y-85800528D01*
X187314554Y-85805351D01*
X187314551Y-85805355D01*
X187195458Y-85937622D01*
X187191111Y-85942450D01*
X187187865Y-85948070D01*
X187187862Y-85948076D01*
X187098872Y-86102211D01*
X187098869Y-86102216D01*
X187095624Y-86107838D01*
X187093618Y-86114010D01*
X187093616Y-86114016D01*
X187038616Y-86283286D01*
X187038614Y-86283295D01*
X187036609Y-86289466D01*
X187035931Y-86295916D01*
X187035929Y-86295926D01*
X187018605Y-86460768D01*
X187016647Y-86479394D01*
X184818486Y-86479394D01*
X184708915Y-86430610D01*
X184708908Y-86430607D01*
X184702977Y-86427967D01*
X184696624Y-86426616D01*
X184696616Y-86426614D01*
X184522538Y-86389613D01*
X184522535Y-86389612D01*
X184516176Y-86388261D01*
X184325202Y-86388261D01*
X184318843Y-86389612D01*
X184318839Y-86389613D01*
X184144761Y-86426614D01*
X184144750Y-86426617D01*
X184138401Y-86427967D01*
X184132471Y-86430606D01*
X184132462Y-86430610D01*
X183969871Y-86503000D01*
X183969863Y-86503004D01*
X183963937Y-86505643D01*
X183958691Y-86509453D01*
X183958676Y-86509463D01*
X183875241Y-86570083D01*
X183828123Y-86591058D01*
X183776548Y-86591050D01*
X183740481Y-86574979D01*
X183739561Y-86576574D01*
X183733928Y-86573322D01*
X183728675Y-86569505D01*
X183722744Y-86566864D01*
X183722740Y-86566862D01*
X183560149Y-86494472D01*
X183560142Y-86494469D01*
X183554211Y-86491829D01*
X183547858Y-86490478D01*
X183547850Y-86490476D01*
X183373772Y-86453475D01*
X183373769Y-86453474D01*
X183367410Y-86452123D01*
X183176436Y-86452123D01*
X183170077Y-86453474D01*
X183170073Y-86453475D01*
X182995995Y-86490476D01*
X182995984Y-86490479D01*
X182989635Y-86491829D01*
X182983705Y-86494468D01*
X182983696Y-86494472D01*
X182821105Y-86566862D01*
X182821097Y-86566866D01*
X182815171Y-86569505D01*
X182809922Y-86573318D01*
X182809916Y-86573322D01*
X182665923Y-86677939D01*
X182665914Y-86677946D01*
X182660670Y-86681757D01*
X182656326Y-86686580D01*
X182656323Y-86686584D01*
X182537230Y-86818851D01*
X182532883Y-86823679D01*
X182529637Y-86829299D01*
X182529634Y-86829305D01*
X182440644Y-86983440D01*
X182440641Y-86983445D01*
X182437396Y-86989067D01*
X182435390Y-86995239D01*
X182435388Y-86995245D01*
X182380388Y-87164515D01*
X182380386Y-87164524D01*
X182378381Y-87170695D01*
X182377703Y-87177145D01*
X182377701Y-87177155D01*
X182360004Y-87345544D01*
X182358419Y-87360623D01*
X182359098Y-87367083D01*
X182377701Y-87544090D01*
X182377702Y-87544098D01*
X182378381Y-87550551D01*
X182380386Y-87556723D01*
X182380388Y-87556730D01*
X182435388Y-87726000D01*
X182437396Y-87732179D01*
X182440643Y-87737803D01*
X182440644Y-87737805D01*
X182524408Y-87882889D01*
X182532883Y-87897567D01*
X182660670Y-88039489D01*
X182673850Y-88049065D01*
X182711437Y-88076374D01*
X182752862Y-88128641D01*
X182761221Y-88194807D01*
X182734094Y-88255733D01*
X182679330Y-88293795D01*
X182612770Y-88297982D01*
X182521328Y-88278545D01*
X182521325Y-88278544D01*
X182514966Y-88277193D01*
X182323992Y-88277193D01*
X182317633Y-88278544D01*
X182317629Y-88278545D01*
X182143551Y-88315546D01*
X182143540Y-88315549D01*
X182137191Y-88316899D01*
X182131261Y-88319538D01*
X182131252Y-88319542D01*
X181968661Y-88391932D01*
X181968653Y-88391936D01*
X181962727Y-88394575D01*
X181957478Y-88398388D01*
X181957472Y-88398392D01*
X181813479Y-88503009D01*
X181813470Y-88503016D01*
X181808226Y-88506827D01*
X181803882Y-88511650D01*
X181803879Y-88511654D01*
X181729707Y-88594031D01*
X181680439Y-88648749D01*
X181677193Y-88654369D01*
X181677190Y-88654375D01*
X181588200Y-88808510D01*
X181588197Y-88808515D01*
X181584952Y-88814137D01*
X181582947Y-88820306D01*
X181582945Y-88820312D01*
X181531674Y-88978107D01*
X181496715Y-89031938D01*
X181439525Y-89061078D01*
X181265799Y-89098005D01*
X181265795Y-89098005D01*
X181259440Y-89099357D01*
X181253510Y-89101996D01*
X181253501Y-89102000D01*
X181090910Y-89174390D01*
X181090902Y-89174394D01*
X181084976Y-89177033D01*
X181079727Y-89180846D01*
X181079721Y-89180850D01*
X180935728Y-89285467D01*
X180935719Y-89285474D01*
X180930475Y-89289285D01*
X180926131Y-89294108D01*
X180926128Y-89294112D01*
X180831876Y-89398790D01*
X180802688Y-89431207D01*
X180799442Y-89436827D01*
X180799439Y-89436833D01*
X180710449Y-89590968D01*
X180710446Y-89590973D01*
X180707201Y-89596595D01*
X180705195Y-89602767D01*
X180705193Y-89602773D01*
X180650193Y-89772043D01*
X180650191Y-89772052D01*
X180648186Y-89778223D01*
X180647508Y-89784673D01*
X180647506Y-89784683D01*
X180633110Y-89921662D01*
X180628224Y-89968151D01*
X176554119Y-89968151D01*
X176524142Y-89875891D01*
X176428655Y-89710503D01*
X176300868Y-89568581D01*
X176295618Y-89564766D01*
X176295614Y-89564763D01*
X176151621Y-89460146D01*
X176151619Y-89460144D01*
X176146367Y-89456329D01*
X176140436Y-89453688D01*
X176140432Y-89453686D01*
X175977841Y-89381296D01*
X175977834Y-89381293D01*
X175971903Y-89378653D01*
X175965550Y-89377302D01*
X175965542Y-89377300D01*
X175791464Y-89340299D01*
X175791461Y-89340298D01*
X175785102Y-89338947D01*
X175594128Y-89338947D01*
X175587769Y-89340298D01*
X175587765Y-89340299D01*
X175413687Y-89377300D01*
X175413676Y-89377303D01*
X175407327Y-89378653D01*
X175401397Y-89381292D01*
X175401388Y-89381296D01*
X175238797Y-89453686D01*
X175238789Y-89453690D01*
X175232863Y-89456329D01*
X175227614Y-89460142D01*
X175227608Y-89460146D01*
X175083615Y-89564763D01*
X175083606Y-89564770D01*
X175078362Y-89568581D01*
X175074018Y-89573404D01*
X175074015Y-89573408D01*
X174960899Y-89699037D01*
X174950575Y-89710503D01*
X174947329Y-89716123D01*
X174947326Y-89716129D01*
X174858336Y-89870264D01*
X174858333Y-89870269D01*
X174855088Y-89875891D01*
X174853082Y-89882063D01*
X174853080Y-89882069D01*
X174798080Y-90051339D01*
X174798078Y-90051348D01*
X174796073Y-90057519D01*
X174795395Y-90063969D01*
X174795393Y-90063979D01*
X174785033Y-90162559D01*
X174776111Y-90247447D01*
X173113261Y-90247447D01*
X173052744Y-90074501D01*
X172955213Y-89919281D01*
X172825587Y-89789655D01*
X172803043Y-89775490D01*
X172751831Y-89743311D01*
X172670367Y-89692124D01*
X172497335Y-89631577D01*
X172490418Y-89630797D01*
X172490411Y-89630796D01*
X172322092Y-89611832D01*
X172315169Y-89611052D01*
X172308246Y-89611832D01*
X172139926Y-89630796D01*
X172139917Y-89630797D01*
X172133003Y-89631577D01*
X172126429Y-89633877D01*
X172126426Y-89633878D01*
X171966546Y-89689823D01*
X171966543Y-89689824D01*
X171959971Y-89692124D01*
X171954076Y-89695827D01*
X171954074Y-89695829D01*
X171810651Y-89785947D01*
X171810646Y-89785950D01*
X171804751Y-89789655D01*
X171799826Y-89794579D01*
X171799822Y-89794583D01*
X171680053Y-89914352D01*
X171680049Y-89914356D01*
X171675125Y-89919281D01*
X171671420Y-89925176D01*
X171671417Y-89925181D01*
X171582703Y-90066370D01*
X171577594Y-90074501D01*
X171575294Y-90081073D01*
X171575293Y-90081076D01*
X171529399Y-90212234D01*
X171517047Y-90247533D01*
X171516267Y-90254447D01*
X171516266Y-90254456D01*
X171500871Y-90391101D01*
X171496522Y-90429699D01*
X171497302Y-90436622D01*
X171516266Y-90604941D01*
X171516267Y-90604948D01*
X171517047Y-90611865D01*
X171519347Y-90618440D01*
X171519348Y-90618441D01*
X171530683Y-90650834D01*
X171577594Y-90784897D01*
X171581299Y-90790793D01*
X171627798Y-90864797D01*
X171646533Y-90922582D01*
X171635575Y-90982332D01*
X171597552Y-91029707D01*
X171541591Y-91053338D01*
X171481120Y-91047553D01*
X171430654Y-91013741D01*
X171401470Y-90981329D01*
X171323255Y-90894462D01*
X171318005Y-90890647D01*
X171318001Y-90890644D01*
X171174008Y-90786027D01*
X171174006Y-90786025D01*
X171168754Y-90782210D01*
X171162823Y-90779569D01*
X171162819Y-90779567D01*
X171000228Y-90707177D01*
X171000221Y-90707174D01*
X170994290Y-90704534D01*
X170987937Y-90703183D01*
X170987929Y-90703181D01*
X170813851Y-90666180D01*
X170813848Y-90666179D01*
X170807489Y-90664828D01*
X170616515Y-90664828D01*
X170610156Y-90666179D01*
X170610152Y-90666180D01*
X170436074Y-90703181D01*
X170436063Y-90703184D01*
X170429714Y-90704534D01*
X170423784Y-90707173D01*
X170423775Y-90707177D01*
X170261184Y-90779567D01*
X170261176Y-90779571D01*
X170255250Y-90782210D01*
X170250001Y-90786023D01*
X170249995Y-90786027D01*
X170106002Y-90890644D01*
X170105993Y-90890651D01*
X170100749Y-90894462D01*
X170096407Y-90899283D01*
X170096406Y-90899285D01*
X169973555Y-91035725D01*
X169917244Y-91071460D01*
X169850566Y-91072856D01*
X169792810Y-91039509D01*
X169760681Y-90981066D01*
X169763475Y-90914432D01*
X169765821Y-90907213D01*
X169782703Y-90855256D01*
X169802665Y-90665328D01*
X169782703Y-90475400D01*
X169723688Y-90293772D01*
X169628201Y-90128384D01*
X169500414Y-89986462D01*
X169495164Y-89982647D01*
X169495160Y-89982644D01*
X169351167Y-89878027D01*
X169351165Y-89878025D01*
X169345913Y-89874210D01*
X169271042Y-89840875D01*
X169225934Y-89806637D01*
X169200754Y-89755912D01*
X169200754Y-89699280D01*
X169225935Y-89648555D01*
X169271042Y-89614316D01*
X169371498Y-89569591D01*
X169525999Y-89457339D01*
X169653786Y-89315417D01*
X169749273Y-89150029D01*
X169808288Y-88968401D01*
X169828250Y-88778473D01*
X169810704Y-88611528D01*
X169808967Y-88595005D01*
X169808966Y-88595004D01*
X169808288Y-88588545D01*
X169749273Y-88406917D01*
X169653786Y-88241529D01*
X169525999Y-88099607D01*
X169520749Y-88095792D01*
X169520745Y-88095789D01*
X169376752Y-87991172D01*
X169376750Y-87991170D01*
X169371498Y-87987355D01*
X169365567Y-87984714D01*
X169365563Y-87984712D01*
X169202972Y-87912322D01*
X169202965Y-87912319D01*
X169197034Y-87909679D01*
X169190681Y-87908328D01*
X169190673Y-87908326D01*
X169016595Y-87871325D01*
X169016592Y-87871324D01*
X169010233Y-87869973D01*
X168819259Y-87869973D01*
X168812900Y-87871324D01*
X168812896Y-87871325D01*
X168638818Y-87908326D01*
X168638807Y-87908329D01*
X168632458Y-87909679D01*
X168626522Y-87912321D01*
X168626515Y-87912324D01*
X168608059Y-87920541D01*
X168544663Y-87930580D01*
X168484741Y-87907578D01*
X168423730Y-87863250D01*
X168423727Y-87863248D01*
X168418476Y-87859433D01*
X168412545Y-87856792D01*
X168412541Y-87856790D01*
X168249950Y-87784400D01*
X168249943Y-87784397D01*
X168244012Y-87781757D01*
X168237659Y-87780406D01*
X168237651Y-87780404D01*
X168063573Y-87743403D01*
X168063570Y-87743402D01*
X168057211Y-87742051D01*
X167866237Y-87742051D01*
X167859878Y-87743402D01*
X167859874Y-87743403D01*
X167685796Y-87780404D01*
X167685785Y-87780407D01*
X167679436Y-87781757D01*
X167673506Y-87784396D01*
X167673497Y-87784400D01*
X167510906Y-87856790D01*
X167510898Y-87856794D01*
X167504972Y-87859433D01*
X167499723Y-87863246D01*
X167499717Y-87863250D01*
X167355724Y-87967867D01*
X167355715Y-87967874D01*
X167350471Y-87971685D01*
X167346127Y-87976508D01*
X167346124Y-87976512D01*
X167234315Y-88100689D01*
X167222684Y-88113607D01*
X167219438Y-88119227D01*
X167219435Y-88119233D01*
X167130445Y-88273368D01*
X167130442Y-88273373D01*
X167127197Y-88278995D01*
X167125191Y-88285167D01*
X167125189Y-88285173D01*
X167070189Y-88454443D01*
X167070187Y-88454452D01*
X167068182Y-88460623D01*
X167067504Y-88467073D01*
X167067502Y-88467083D01*
X167052321Y-88611528D01*
X167048220Y-88650551D01*
X167048899Y-88657011D01*
X167067502Y-88834018D01*
X167067503Y-88834026D01*
X167068182Y-88840479D01*
X167070187Y-88846651D01*
X167070189Y-88846658D01*
X167124748Y-89014570D01*
X167127197Y-89022107D01*
X167130444Y-89027731D01*
X167130445Y-89027733D01*
X167200490Y-89149055D01*
X167222684Y-89187495D01*
X167350471Y-89329417D01*
X167355721Y-89333231D01*
X167355724Y-89333234D01*
X167445954Y-89398790D01*
X167504972Y-89441669D01*
X167510905Y-89444310D01*
X167510906Y-89444311D01*
X167668717Y-89514573D01*
X167679436Y-89519345D01*
X167685794Y-89520696D01*
X167685796Y-89520697D01*
X167722598Y-89528519D01*
X167866237Y-89559051D01*
X168050708Y-89559051D01*
X168057211Y-89559051D01*
X168244012Y-89519345D01*
X168268406Y-89508483D01*
X168331802Y-89498442D01*
X168391727Y-89521445D01*
X168443487Y-89559051D01*
X168457994Y-89569591D01*
X168532862Y-89602924D01*
X168577971Y-89637163D01*
X168603152Y-89687887D01*
X168603152Y-89744518D01*
X168577972Y-89795244D01*
X168532864Y-89829483D01*
X168438347Y-89871565D01*
X168438337Y-89871570D01*
X168432409Y-89874210D01*
X168427160Y-89878023D01*
X168427154Y-89878027D01*
X168283161Y-89982644D01*
X168283152Y-89982651D01*
X168277908Y-89986462D01*
X168273564Y-89991285D01*
X168273561Y-89991289D01*
X168154468Y-90123556D01*
X168150121Y-90128384D01*
X168146875Y-90134004D01*
X168146872Y-90134010D01*
X168057882Y-90288145D01*
X168057879Y-90288150D01*
X168054634Y-90293772D01*
X168052628Y-90299944D01*
X168052626Y-90299950D01*
X167997626Y-90469220D01*
X167997624Y-90469229D01*
X167995619Y-90475400D01*
X167994941Y-90481850D01*
X167994939Y-90481860D01*
X167979305Y-90630619D01*
X167975657Y-90665328D01*
X167976336Y-90671788D01*
X167993836Y-90838297D01*
X167995619Y-90855256D01*
X167995685Y-90855459D01*
X167995008Y-90907213D01*
X167970800Y-90956302D01*
X167927817Y-90990187D01*
X167874434Y-91002266D01*
X167689364Y-91002266D01*
X167683005Y-91003617D01*
X167683001Y-91003618D01*
X167508923Y-91040619D01*
X167508912Y-91040622D01*
X167502563Y-91041972D01*
X167496633Y-91044611D01*
X167496624Y-91044615D01*
X167334033Y-91117005D01*
X167334025Y-91117009D01*
X167328099Y-91119648D01*
X167322850Y-91123461D01*
X167322844Y-91123465D01*
X167178851Y-91228082D01*
X167178842Y-91228089D01*
X167173598Y-91231900D01*
X167169254Y-91236723D01*
X167169250Y-91236728D01*
X167130924Y-91279293D01*
X167072956Y-91315516D01*
X167004602Y-91315518D01*
X166952487Y-91282957D01*
X166951663Y-91283873D01*
X166946832Y-91279523D01*
X166942487Y-91274697D01*
X166937237Y-91270882D01*
X166937233Y-91270879D01*
X166793240Y-91166262D01*
X166793238Y-91166260D01*
X166787986Y-91162445D01*
X166782055Y-91159804D01*
X166782051Y-91159802D01*
X166619460Y-91087412D01*
X166619453Y-91087409D01*
X166613522Y-91084769D01*
X166607169Y-91083418D01*
X166607161Y-91083416D01*
X166433083Y-91046415D01*
X166433080Y-91046414D01*
X166426721Y-91045063D01*
X166235747Y-91045063D01*
X166229388Y-91046414D01*
X166229384Y-91046415D01*
X166055306Y-91083416D01*
X166055295Y-91083419D01*
X166048946Y-91084769D01*
X166043016Y-91087408D01*
X166043007Y-91087412D01*
X165880416Y-91159802D01*
X165880408Y-91159806D01*
X165874482Y-91162445D01*
X165869233Y-91166258D01*
X165869227Y-91166262D01*
X165725234Y-91270879D01*
X165725225Y-91270886D01*
X165719981Y-91274697D01*
X165715637Y-91279520D01*
X165715634Y-91279524D01*
X165596541Y-91411791D01*
X165592194Y-91416619D01*
X165588948Y-91422240D01*
X165588943Y-91422248D01*
X165585108Y-91428891D01*
X165545256Y-91470885D01*
X165490683Y-91490209D01*
X165433285Y-91482652D01*
X165385573Y-91449860D01*
X165317108Y-91373822D01*
X165280113Y-91332735D01*
X165274863Y-91328920D01*
X165274859Y-91328917D01*
X165130866Y-91224300D01*
X165130864Y-91224298D01*
X165125612Y-91220483D01*
X165119681Y-91217842D01*
X165119677Y-91217840D01*
X164957086Y-91145450D01*
X164957079Y-91145447D01*
X164951148Y-91142807D01*
X164944795Y-91141456D01*
X164944787Y-91141454D01*
X164770709Y-91104453D01*
X164770706Y-91104452D01*
X164764347Y-91103101D01*
X164573373Y-91103101D01*
X164567014Y-91104452D01*
X164567010Y-91104453D01*
X164392932Y-91141454D01*
X164392921Y-91141457D01*
X164386572Y-91142807D01*
X164380642Y-91145446D01*
X164380633Y-91145450D01*
X164218042Y-91217840D01*
X164218034Y-91217844D01*
X164212108Y-91220483D01*
X164206859Y-91224296D01*
X164206853Y-91224300D01*
X164062860Y-91328917D01*
X164062851Y-91328924D01*
X164057607Y-91332735D01*
X164053263Y-91337558D01*
X164053260Y-91337562D01*
X163937793Y-91465802D01*
X163929820Y-91474657D01*
X163926574Y-91480277D01*
X163926571Y-91480283D01*
X163837581Y-91634418D01*
X163837578Y-91634423D01*
X163834333Y-91640045D01*
X163832327Y-91646217D01*
X163832325Y-91646223D01*
X163777325Y-91815493D01*
X163777323Y-91815502D01*
X163775318Y-91821673D01*
X163774640Y-91828123D01*
X163774638Y-91828133D01*
X163762368Y-91944884D01*
X163755356Y-92011601D01*
X162698638Y-92011601D01*
X162676710Y-91987247D01*
X162671460Y-91983432D01*
X162671456Y-91983429D01*
X162527463Y-91878812D01*
X162527461Y-91878810D01*
X162522209Y-91874995D01*
X162516278Y-91872354D01*
X162516274Y-91872352D01*
X162353683Y-91799962D01*
X162353676Y-91799959D01*
X162347745Y-91797319D01*
X162341392Y-91795968D01*
X162341384Y-91795966D01*
X162167306Y-91758965D01*
X162167303Y-91758964D01*
X162160944Y-91757613D01*
X161969970Y-91757613D01*
X161963611Y-91758964D01*
X161963607Y-91758965D01*
X161789529Y-91795966D01*
X161789518Y-91795969D01*
X161783169Y-91797319D01*
X161777231Y-91799962D01*
X161777230Y-91799963D01*
X161649045Y-91857034D01*
X161581351Y-91866547D01*
X161518903Y-91838742D01*
X161480679Y-91782072D01*
X161473436Y-91759779D01*
X161377949Y-91594391D01*
X161250162Y-91452469D01*
X161244912Y-91448654D01*
X161244908Y-91448651D01*
X161100915Y-91344034D01*
X161100913Y-91344032D01*
X161095661Y-91340217D01*
X161089730Y-91337576D01*
X161089726Y-91337574D01*
X160927135Y-91265184D01*
X160927128Y-91265181D01*
X160921197Y-91262541D01*
X160914841Y-91261190D01*
X160914835Y-91261188D01*
X160753244Y-91226841D01*
X160706139Y-91205869D01*
X160671638Y-91167551D01*
X160655704Y-91118512D01*
X160655607Y-91117593D01*
X160637007Y-90940617D01*
X160577992Y-90758989D01*
X160531124Y-90677811D01*
X160519208Y-90657172D01*
X160502595Y-90595171D01*
X160519209Y-90533170D01*
X160557527Y-90466803D01*
X160616542Y-90285175D01*
X160636504Y-90095247D01*
X160616542Y-89905319D01*
X160557527Y-89723691D01*
X160462040Y-89558303D01*
X160334253Y-89416381D01*
X160329003Y-89412566D01*
X160328999Y-89412563D01*
X160179752Y-89304129D01*
X160180756Y-89302746D01*
X160154450Y-89279872D01*
X160132974Y-89237711D01*
X160128854Y-89190575D01*
X160129576Y-89183709D01*
X160130229Y-89177500D01*
X162007068Y-89177500D01*
X162007848Y-89184423D01*
X162025410Y-89340299D01*
X162026205Y-89347350D01*
X162028501Y-89353914D01*
X162028503Y-89353919D01*
X162079387Y-89499336D01*
X162082658Y-89508683D01*
X162173596Y-89653409D01*
X162294458Y-89774271D01*
X162439184Y-89865209D01*
X162600517Y-89921662D01*
X162770367Y-89940799D01*
X162940217Y-89921662D01*
X163101550Y-89865209D01*
X163204395Y-89800586D01*
X163270367Y-89781580D01*
X163336338Y-89800586D01*
X163345968Y-89806637D01*
X163433290Y-89861506D01*
X163433293Y-89861507D01*
X163439184Y-89865209D01*
X163600517Y-89921662D01*
X163770367Y-89940799D01*
X163940217Y-89921662D01*
X164101550Y-89865209D01*
X164204395Y-89800586D01*
X164270367Y-89781580D01*
X164336338Y-89800586D01*
X164345968Y-89806637D01*
X164433290Y-89861506D01*
X164433293Y-89861507D01*
X164439184Y-89865209D01*
X164600517Y-89921662D01*
X164770367Y-89940799D01*
X164940217Y-89921662D01*
X165101550Y-89865209D01*
X165246276Y-89774271D01*
X165367138Y-89653409D01*
X165458076Y-89508683D01*
X165514529Y-89347350D01*
X165533666Y-89177500D01*
X165514529Y-89007650D01*
X165458076Y-88846317D01*
X165448114Y-88830463D01*
X165408638Y-88767637D01*
X165393453Y-88743471D01*
X165374447Y-88677500D01*
X165393454Y-88611527D01*
X165405607Y-88592187D01*
X165458076Y-88508683D01*
X165514529Y-88347350D01*
X165533666Y-88177500D01*
X165514529Y-88007650D01*
X165458076Y-87846317D01*
X165453883Y-87839644D01*
X165416660Y-87780404D01*
X165393453Y-87743471D01*
X165374447Y-87677500D01*
X165393454Y-87611527D01*
X165394462Y-87609924D01*
X165458076Y-87508683D01*
X165513166Y-87351246D01*
X169887384Y-87351246D01*
X169888063Y-87357706D01*
X169906666Y-87534713D01*
X169906667Y-87534721D01*
X169907346Y-87541174D01*
X169909351Y-87547346D01*
X169909353Y-87547353D01*
X169962218Y-87710051D01*
X169966361Y-87722802D01*
X169969608Y-87728426D01*
X169969609Y-87728428D01*
X170046457Y-87861533D01*
X170061848Y-87888190D01*
X170189635Y-88030112D01*
X170194885Y-88033926D01*
X170194888Y-88033929D01*
X170312299Y-88119233D01*
X170344136Y-88142364D01*
X170350069Y-88145005D01*
X170350070Y-88145006D01*
X170503661Y-88213389D01*
X170518600Y-88220040D01*
X170524958Y-88221391D01*
X170524960Y-88221392D01*
X170561762Y-88229214D01*
X170705401Y-88259746D01*
X170889872Y-88259746D01*
X170896375Y-88259746D01*
X171083176Y-88220040D01*
X171257640Y-88142364D01*
X171300416Y-88111284D01*
X171363572Y-88087985D01*
X171429596Y-88101118D01*
X171479029Y-88146813D01*
X171497302Y-88211603D01*
X171497302Y-88212776D01*
X171496522Y-88219699D01*
X171497302Y-88226622D01*
X171516266Y-88394941D01*
X171516267Y-88394948D01*
X171517047Y-88401865D01*
X171519347Y-88408440D01*
X171519348Y-88408441D01*
X171529094Y-88436293D01*
X171577594Y-88574897D01*
X171675125Y-88730117D01*
X171804751Y-88859743D01*
X171959971Y-88957274D01*
X172133003Y-89017821D01*
X172315169Y-89038346D01*
X172497335Y-89017821D01*
X172670367Y-88957274D01*
X172825587Y-88859743D01*
X172955213Y-88730117D01*
X173052744Y-88574897D01*
X173113291Y-88401865D01*
X173133816Y-88219699D01*
X173127715Y-88165555D01*
X173114071Y-88044456D01*
X173113291Y-88037533D01*
X173052744Y-87864501D01*
X173045443Y-87852882D01*
X173033066Y-87833184D01*
X178469685Y-87833184D01*
X178470364Y-87839644D01*
X178488967Y-88016651D01*
X178488968Y-88016659D01*
X178489647Y-88023112D01*
X178491652Y-88029284D01*
X178491654Y-88029291D01*
X178546654Y-88198561D01*
X178548662Y-88204740D01*
X178551909Y-88210364D01*
X178551910Y-88210366D01*
X178634790Y-88353919D01*
X178644149Y-88370128D01*
X178771936Y-88512050D01*
X178777186Y-88515864D01*
X178777189Y-88515867D01*
X178866552Y-88580793D01*
X178926437Y-88624302D01*
X178932370Y-88626943D01*
X178932371Y-88626944D01*
X179059209Y-88683416D01*
X179100901Y-88701978D01*
X179107259Y-88703329D01*
X179107261Y-88703330D01*
X179137738Y-88709808D01*
X179287702Y-88741684D01*
X179472173Y-88741684D01*
X179478676Y-88741684D01*
X179665477Y-88701978D01*
X179788380Y-88647258D01*
X179838812Y-88636539D01*
X179889247Y-88647259D01*
X179927353Y-88664224D01*
X180012149Y-88701978D01*
X180018507Y-88703329D01*
X180018509Y-88703330D01*
X180048986Y-88709808D01*
X180198950Y-88741684D01*
X180383421Y-88741684D01*
X180389924Y-88741684D01*
X180576725Y-88701978D01*
X180751189Y-88624302D01*
X180905690Y-88512050D01*
X181033477Y-88370128D01*
X181128964Y-88204740D01*
X181187979Y-88023112D01*
X181207941Y-87833184D01*
X181187979Y-87643256D01*
X181128964Y-87461628D01*
X181061417Y-87344635D01*
X181044806Y-87282638D01*
X181061417Y-87220640D01*
X181128964Y-87103648D01*
X181187979Y-86922020D01*
X181207941Y-86732092D01*
X181187979Y-86542164D01*
X181128964Y-86360536D01*
X181033477Y-86195148D01*
X180905690Y-86053226D01*
X180900440Y-86049411D01*
X180900436Y-86049408D01*
X180756443Y-85944791D01*
X180756441Y-85944789D01*
X180751189Y-85940974D01*
X180745258Y-85938333D01*
X180745254Y-85938331D01*
X180582663Y-85865941D01*
X180582656Y-85865938D01*
X180576725Y-85863298D01*
X180570372Y-85861947D01*
X180570364Y-85861945D01*
X180396286Y-85824944D01*
X180396283Y-85824943D01*
X180389924Y-85823592D01*
X180198950Y-85823592D01*
X180192591Y-85824943D01*
X180192587Y-85824944D01*
X180018509Y-85861945D01*
X180018498Y-85861948D01*
X180012149Y-85863298D01*
X180006213Y-85865940D01*
X180006206Y-85865943D01*
X179921489Y-85903661D01*
X179871055Y-85914381D01*
X179820620Y-85903661D01*
X179701790Y-85850754D01*
X179701783Y-85850751D01*
X179695852Y-85848111D01*
X179689499Y-85846760D01*
X179689491Y-85846758D01*
X179515413Y-85809757D01*
X179515410Y-85809756D01*
X179509051Y-85808405D01*
X179318077Y-85808405D01*
X179311718Y-85809756D01*
X179311714Y-85809757D01*
X179137636Y-85846758D01*
X179137625Y-85846761D01*
X179131276Y-85848111D01*
X179125346Y-85850750D01*
X179125337Y-85850754D01*
X178962746Y-85923144D01*
X178962738Y-85923148D01*
X178956812Y-85925787D01*
X178951563Y-85929600D01*
X178951557Y-85929604D01*
X178807564Y-86034221D01*
X178807555Y-86034228D01*
X178802311Y-86038039D01*
X178797967Y-86042862D01*
X178797964Y-86042866D01*
X178693662Y-86158706D01*
X178674524Y-86179961D01*
X178671278Y-86185581D01*
X178671275Y-86185587D01*
X178582285Y-86339722D01*
X178582282Y-86339727D01*
X178579037Y-86345349D01*
X178577031Y-86351521D01*
X178577029Y-86351527D01*
X178522029Y-86520797D01*
X178522027Y-86520806D01*
X178520022Y-86526977D01*
X178519344Y-86533427D01*
X178519342Y-86533437D01*
X178504232Y-86677207D01*
X178500060Y-86716905D01*
X178500739Y-86723365D01*
X178519342Y-86900372D01*
X178519343Y-86900380D01*
X178520022Y-86906833D01*
X178522027Y-86913005D01*
X178522029Y-86913012D01*
X178577029Y-87082282D01*
X178579037Y-87088461D01*
X178606401Y-87135856D01*
X178635778Y-87186740D01*
X178652390Y-87248739D01*
X178635777Y-87310739D01*
X178551910Y-87456001D01*
X178551907Y-87456006D01*
X178548662Y-87461628D01*
X178546656Y-87467800D01*
X178546654Y-87467806D01*
X178491654Y-87637076D01*
X178491652Y-87637085D01*
X178489647Y-87643256D01*
X178488969Y-87649706D01*
X178488967Y-87649716D01*
X178477357Y-87760187D01*
X178469685Y-87833184D01*
X173033066Y-87833184D01*
X172987199Y-87760187D01*
X172959272Y-87715741D01*
X172940489Y-87657187D01*
X172952148Y-87596806D01*
X172991381Y-87549454D01*
X173145417Y-87437540D01*
X173273204Y-87295618D01*
X173368691Y-87130230D01*
X173427706Y-86948602D01*
X173439883Y-86832745D01*
X173887252Y-86832745D01*
X173887931Y-86839205D01*
X173906534Y-87016212D01*
X173906535Y-87016220D01*
X173907214Y-87022673D01*
X173909219Y-87028845D01*
X173909221Y-87028852D01*
X173963681Y-87196460D01*
X173966229Y-87204301D01*
X173969476Y-87209925D01*
X173969477Y-87209927D01*
X174056481Y-87360623D01*
X174061716Y-87369689D01*
X174189503Y-87511611D01*
X174194753Y-87515425D01*
X174194756Y-87515428D01*
X174295496Y-87588620D01*
X174344004Y-87623863D01*
X174349937Y-87626504D01*
X174349938Y-87626505D01*
X174488231Y-87688077D01*
X174518468Y-87701539D01*
X174524826Y-87702890D01*
X174524828Y-87702891D01*
X174535804Y-87705224D01*
X174705269Y-87741245D01*
X174889740Y-87741245D01*
X174896243Y-87741245D01*
X175083044Y-87701539D01*
X175257508Y-87623863D01*
X175412009Y-87511611D01*
X175539796Y-87369689D01*
X175540166Y-87370022D01*
X175577310Y-87337444D01*
X175629990Y-87322584D01*
X175683935Y-87331852D01*
X175728633Y-87363441D01*
X175848707Y-87496797D01*
X175853957Y-87500611D01*
X175853960Y-87500614D01*
X175931197Y-87556730D01*
X176003208Y-87609049D01*
X176009141Y-87611690D01*
X176009142Y-87611691D01*
X176136326Y-87668317D01*
X176177672Y-87686725D01*
X176184030Y-87688076D01*
X176184032Y-87688077D01*
X176220834Y-87695899D01*
X176364473Y-87726431D01*
X176548944Y-87726431D01*
X176555447Y-87726431D01*
X176742248Y-87686725D01*
X176916712Y-87609049D01*
X177071213Y-87496797D01*
X177199000Y-87354875D01*
X177294487Y-87189487D01*
X177353502Y-87007859D01*
X177373464Y-86817931D01*
X177358750Y-86677939D01*
X177354181Y-86634463D01*
X177354180Y-86634462D01*
X177353502Y-86628003D01*
X177294487Y-86446375D01*
X177199000Y-86280987D01*
X177071213Y-86139065D01*
X177065963Y-86135250D01*
X177065959Y-86135247D01*
X176921966Y-86030630D01*
X176921964Y-86030628D01*
X176916712Y-86026813D01*
X176910781Y-86024172D01*
X176910777Y-86024170D01*
X176748186Y-85951780D01*
X176748179Y-85951777D01*
X176742248Y-85949137D01*
X176735895Y-85947786D01*
X176735887Y-85947784D01*
X176561809Y-85910783D01*
X176561806Y-85910782D01*
X176555447Y-85909431D01*
X176364473Y-85909431D01*
X176358114Y-85910782D01*
X176358110Y-85910783D01*
X176184032Y-85947784D01*
X176184021Y-85947787D01*
X176177672Y-85949137D01*
X176171742Y-85951776D01*
X176171733Y-85951780D01*
X176009142Y-86024170D01*
X176009134Y-86024174D01*
X176003208Y-86026813D01*
X175997959Y-86030626D01*
X175997953Y-86030630D01*
X175853960Y-86135247D01*
X175853951Y-86135254D01*
X175848707Y-86139065D01*
X175844363Y-86143888D01*
X175844360Y-86143892D01*
X175725262Y-86276164D01*
X175725259Y-86276167D01*
X175723725Y-86277870D01*
X175723721Y-86277875D01*
X175720920Y-86280987D01*
X175720551Y-86280655D01*
X175683390Y-86313239D01*
X175630714Y-86328091D01*
X175576775Y-86318821D01*
X175532081Y-86287233D01*
X175522114Y-86276164D01*
X175412009Y-86153879D01*
X175406759Y-86150064D01*
X175406755Y-86150061D01*
X175262762Y-86045444D01*
X175262760Y-86045442D01*
X175257508Y-86041627D01*
X175251577Y-86038986D01*
X175251573Y-86038984D01*
X175088982Y-85966594D01*
X175088975Y-85966591D01*
X175083044Y-85963951D01*
X175076691Y-85962600D01*
X175076683Y-85962598D01*
X174902605Y-85925597D01*
X174902602Y-85925596D01*
X174896243Y-85924245D01*
X174705269Y-85924245D01*
X174698910Y-85925596D01*
X174698906Y-85925597D01*
X174524828Y-85962598D01*
X174524817Y-85962601D01*
X174518468Y-85963951D01*
X174512538Y-85966590D01*
X174512529Y-85966594D01*
X174349938Y-86038984D01*
X174349930Y-86038988D01*
X174344004Y-86041627D01*
X174338755Y-86045440D01*
X174338749Y-86045444D01*
X174194756Y-86150061D01*
X174194747Y-86150068D01*
X174189503Y-86153879D01*
X174185159Y-86158702D01*
X174185156Y-86158706D01*
X174067420Y-86289466D01*
X174061716Y-86295801D01*
X174058470Y-86301421D01*
X174058467Y-86301427D01*
X173969477Y-86455562D01*
X173969474Y-86455567D01*
X173966229Y-86461189D01*
X173964223Y-86467361D01*
X173964221Y-86467367D01*
X173909221Y-86636637D01*
X173909219Y-86636646D01*
X173907214Y-86642817D01*
X173906536Y-86649267D01*
X173906534Y-86649277D01*
X173890247Y-86804245D01*
X173887252Y-86832745D01*
X173439883Y-86832745D01*
X173447668Y-86758674D01*
X173431567Y-86605477D01*
X173428385Y-86575206D01*
X173428384Y-86575205D01*
X173427706Y-86568746D01*
X173368691Y-86387118D01*
X173273204Y-86221730D01*
X173145417Y-86079808D01*
X173140167Y-86075993D01*
X173140163Y-86075990D01*
X172996170Y-85971373D01*
X172996168Y-85971371D01*
X172990916Y-85967556D01*
X172984985Y-85964915D01*
X172984981Y-85964913D01*
X172822390Y-85892523D01*
X172822383Y-85892520D01*
X172816452Y-85889880D01*
X172810099Y-85888529D01*
X172810091Y-85888527D01*
X172636013Y-85851526D01*
X172636010Y-85851525D01*
X172629651Y-85850174D01*
X172438677Y-85850174D01*
X172432318Y-85851525D01*
X172432314Y-85851526D01*
X172258236Y-85888527D01*
X172258225Y-85888530D01*
X172251876Y-85889880D01*
X172245946Y-85892519D01*
X172245937Y-85892523D01*
X172083346Y-85964913D01*
X172083338Y-85964917D01*
X172077412Y-85967556D01*
X172072163Y-85971369D01*
X172072157Y-85971373D01*
X171928164Y-86075990D01*
X171928155Y-86075997D01*
X171922911Y-86079808D01*
X171918567Y-86084631D01*
X171918564Y-86084635D01*
X171803661Y-86212249D01*
X171795124Y-86221730D01*
X171791878Y-86227350D01*
X171791875Y-86227356D01*
X171702885Y-86381491D01*
X171702882Y-86381496D01*
X171699637Y-86387118D01*
X171697631Y-86393290D01*
X171697629Y-86393296D01*
X171642629Y-86562566D01*
X171642627Y-86562575D01*
X171640622Y-86568746D01*
X171639943Y-86575203D01*
X171639943Y-86575205D01*
X171636097Y-86611795D01*
X171617472Y-86665276D01*
X171577009Y-86704898D01*
X171523150Y-86722397D01*
X171467126Y-86714123D01*
X171420625Y-86681803D01*
X171412141Y-86672380D01*
X171406891Y-86668565D01*
X171406887Y-86668562D01*
X171262894Y-86563945D01*
X171262892Y-86563943D01*
X171257640Y-86560128D01*
X171251709Y-86557487D01*
X171251705Y-86557485D01*
X171089114Y-86485095D01*
X171089107Y-86485092D01*
X171083176Y-86482452D01*
X171076823Y-86481101D01*
X171076815Y-86481099D01*
X170902737Y-86444098D01*
X170902734Y-86444097D01*
X170896375Y-86442746D01*
X170705401Y-86442746D01*
X170699042Y-86444097D01*
X170699038Y-86444098D01*
X170524960Y-86481099D01*
X170524949Y-86481102D01*
X170518600Y-86482452D01*
X170512670Y-86485091D01*
X170512661Y-86485095D01*
X170350070Y-86557485D01*
X170350062Y-86557489D01*
X170344136Y-86560128D01*
X170338887Y-86563941D01*
X170338881Y-86563945D01*
X170194888Y-86668562D01*
X170194879Y-86668569D01*
X170189635Y-86672380D01*
X170185291Y-86677203D01*
X170185288Y-86677207D01*
X170070903Y-86804245D01*
X170061848Y-86814302D01*
X170058602Y-86819922D01*
X170058599Y-86819928D01*
X169969609Y-86974063D01*
X169969606Y-86974068D01*
X169966361Y-86979690D01*
X169964355Y-86985862D01*
X169964353Y-86985868D01*
X169909353Y-87155138D01*
X169909351Y-87155147D01*
X169907346Y-87161318D01*
X169906668Y-87167768D01*
X169906666Y-87167778D01*
X169892082Y-87306548D01*
X169887384Y-87351246D01*
X165513166Y-87351246D01*
X165514529Y-87347350D01*
X165533666Y-87177500D01*
X165514529Y-87007650D01*
X165458076Y-86846317D01*
X165367138Y-86701591D01*
X165246276Y-86580729D01*
X165239663Y-86576574D01*
X165107440Y-86493492D01*
X165101550Y-86489791D01*
X165094987Y-86487494D01*
X165094984Y-86487493D01*
X164946786Y-86435636D01*
X164946781Y-86435634D01*
X164940217Y-86433338D01*
X164933297Y-86432558D01*
X164933296Y-86432558D01*
X164777290Y-86414981D01*
X164770367Y-86414201D01*
X164763444Y-86414981D01*
X164607437Y-86432558D01*
X164607434Y-86432558D01*
X164600517Y-86433338D01*
X164593954Y-86435634D01*
X164593947Y-86435636D01*
X164445749Y-86487493D01*
X164445742Y-86487495D01*
X164439184Y-86489791D01*
X164433300Y-86493488D01*
X164433292Y-86493492D01*
X164336338Y-86554413D01*
X164270365Y-86573419D01*
X164204393Y-86554412D01*
X164107443Y-86493493D01*
X164107437Y-86493490D01*
X164101550Y-86489791D01*
X164094987Y-86487494D01*
X164094984Y-86487493D01*
X163946786Y-86435636D01*
X163946781Y-86435634D01*
X163940217Y-86433338D01*
X163933297Y-86432558D01*
X163933296Y-86432558D01*
X163777290Y-86414981D01*
X163770367Y-86414201D01*
X163763444Y-86414981D01*
X163607437Y-86432558D01*
X163607434Y-86432558D01*
X163600517Y-86433338D01*
X163593954Y-86435634D01*
X163593947Y-86435636D01*
X163445749Y-86487493D01*
X163445742Y-86487495D01*
X163439184Y-86489791D01*
X163433300Y-86493488D01*
X163433292Y-86493492D01*
X163336338Y-86554413D01*
X163270365Y-86573419D01*
X163204393Y-86554412D01*
X163107443Y-86493493D01*
X163107437Y-86493490D01*
X163101550Y-86489791D01*
X163094987Y-86487494D01*
X163094984Y-86487493D01*
X162946786Y-86435636D01*
X162946781Y-86435634D01*
X162940217Y-86433338D01*
X162933297Y-86432558D01*
X162933296Y-86432558D01*
X162777290Y-86414981D01*
X162770367Y-86414201D01*
X162763444Y-86414981D01*
X162607437Y-86432558D01*
X162607434Y-86432558D01*
X162600517Y-86433338D01*
X162593954Y-86435634D01*
X162593947Y-86435636D01*
X162445749Y-86487493D01*
X162445742Y-86487495D01*
X162439184Y-86489791D01*
X162433296Y-86493490D01*
X162433293Y-86493492D01*
X162300358Y-86577021D01*
X162300353Y-86577024D01*
X162294458Y-86580729D01*
X162289533Y-86585653D01*
X162289529Y-86585657D01*
X162178524Y-86696662D01*
X162178520Y-86696666D01*
X162173596Y-86701591D01*
X162169891Y-86707486D01*
X162169888Y-86707491D01*
X162086359Y-86840426D01*
X162086357Y-86840429D01*
X162082658Y-86846317D01*
X162080362Y-86852875D01*
X162080360Y-86852882D01*
X162028503Y-87001080D01*
X162028501Y-87001087D01*
X162026205Y-87007650D01*
X162025425Y-87014567D01*
X162025425Y-87014570D01*
X162009236Y-87158260D01*
X162007068Y-87177500D01*
X162007848Y-87184423D01*
X162023414Y-87322584D01*
X162026205Y-87347350D01*
X162028501Y-87353914D01*
X162028503Y-87353919D01*
X162080360Y-87502117D01*
X162082658Y-87508683D01*
X162086359Y-87514573D01*
X162147280Y-87611528D01*
X162166286Y-87677500D01*
X162147280Y-87743472D01*
X162086359Y-87840426D01*
X162086357Y-87840429D01*
X162082658Y-87846317D01*
X162080362Y-87852875D01*
X162080360Y-87852882D01*
X162028503Y-88001080D01*
X162028501Y-88001087D01*
X162026205Y-88007650D01*
X162025425Y-88014567D01*
X162025425Y-88014570D01*
X162007883Y-88170264D01*
X162007068Y-88177500D01*
X162007848Y-88184423D01*
X162024889Y-88335675D01*
X162026205Y-88347350D01*
X162028501Y-88353914D01*
X162028503Y-88353919D01*
X162080360Y-88502117D01*
X162082658Y-88508683D01*
X162086359Y-88514573D01*
X162147280Y-88611528D01*
X162166286Y-88677500D01*
X162147280Y-88743472D01*
X162086359Y-88840426D01*
X162086357Y-88840429D01*
X162082658Y-88846317D01*
X162080362Y-88852875D01*
X162080360Y-88852882D01*
X162028503Y-89001080D01*
X162028501Y-89001087D01*
X162026205Y-89007650D01*
X162025425Y-89014567D01*
X162025425Y-89014570D01*
X162012111Y-89132737D01*
X162007068Y-89177500D01*
X160130229Y-89177500D01*
X160130255Y-89177249D01*
X160111739Y-89001080D01*
X160110972Y-88993781D01*
X160110971Y-88993780D01*
X160110293Y-88987321D01*
X160051278Y-88805693D01*
X159955791Y-88640305D01*
X159828004Y-88498383D01*
X159822754Y-88494568D01*
X159822750Y-88494565D01*
X159678757Y-88389948D01*
X159678755Y-88389946D01*
X159673503Y-88386131D01*
X159667572Y-88383490D01*
X159667568Y-88383488D01*
X159504977Y-88311098D01*
X159504970Y-88311095D01*
X159499039Y-88308455D01*
X159492686Y-88307104D01*
X159492678Y-88307102D01*
X159318600Y-88270101D01*
X159318597Y-88270100D01*
X159312238Y-88268749D01*
X159121264Y-88268749D01*
X159114905Y-88270100D01*
X159114901Y-88270101D01*
X158940823Y-88307102D01*
X158940812Y-88307105D01*
X158934463Y-88308455D01*
X158928533Y-88311094D01*
X158928524Y-88311098D01*
X158765933Y-88383488D01*
X158765925Y-88383492D01*
X158759999Y-88386131D01*
X158754750Y-88389944D01*
X158754744Y-88389948D01*
X158610751Y-88494565D01*
X158610742Y-88494572D01*
X158605498Y-88498383D01*
X158601154Y-88503206D01*
X158601151Y-88503210D01*
X158519376Y-88594031D01*
X158477711Y-88640305D01*
X158474465Y-88645925D01*
X158474462Y-88645931D01*
X158385472Y-88800066D01*
X158385469Y-88800071D01*
X158382224Y-88805693D01*
X158380218Y-88811865D01*
X158380216Y-88811871D01*
X158325216Y-88981141D01*
X158325214Y-88981150D01*
X158323209Y-88987321D01*
X158322531Y-88993771D01*
X158322529Y-88993781D01*
X158306757Y-89143850D01*
X158303247Y-89177249D01*
X158303926Y-89183709D01*
X158322529Y-89360716D01*
X158322530Y-89360724D01*
X158323209Y-89367177D01*
X158325214Y-89373349D01*
X158325216Y-89373356D01*
X158373091Y-89520697D01*
X158382224Y-89548805D01*
X158385471Y-89554429D01*
X158385472Y-89554431D01*
X158470251Y-89701273D01*
X158477711Y-89714193D01*
X158605498Y-89856115D01*
X158610748Y-89859929D01*
X158610751Y-89859932D01*
X158759999Y-89968367D01*
X158758989Y-89969756D01*
X158785263Y-89992576D01*
X158806766Y-90034750D01*
X158810897Y-90081909D01*
X158810175Y-90088781D01*
X158810175Y-90088786D01*
X158809496Y-90095247D01*
X158810175Y-90101707D01*
X158828778Y-90278714D01*
X158828779Y-90278722D01*
X158829458Y-90285175D01*
X158831463Y-90291347D01*
X158831465Y-90291354D01*
X158878911Y-90437375D01*
X158888473Y-90466803D01*
X158891720Y-90472427D01*
X158891721Y-90472429D01*
X158947256Y-90568619D01*
X158963869Y-90630619D01*
X158947256Y-90692618D01*
X158908938Y-90758989D01*
X158906932Y-90765161D01*
X158906930Y-90765167D01*
X158851930Y-90934437D01*
X158851928Y-90934446D01*
X158849923Y-90940617D01*
X158849245Y-90947067D01*
X158849243Y-90947077D01*
X158836024Y-91072856D01*
X158829961Y-91130545D01*
X158830640Y-91137005D01*
X158849243Y-91314012D01*
X158849244Y-91314020D01*
X158849923Y-91320473D01*
X158851928Y-91326645D01*
X158851930Y-91326652D01*
X158903966Y-91486800D01*
X158908938Y-91502101D01*
X158912185Y-91507725D01*
X158912186Y-91507727D01*
X158993006Y-91647712D01*
X159004425Y-91667489D01*
X159132212Y-91809411D01*
X159137462Y-91813225D01*
X159137465Y-91813228D01*
X159221770Y-91874479D01*
X159286713Y-91921663D01*
X159292646Y-91924304D01*
X159292647Y-91924305D01*
X159434017Y-91987247D01*
X159461177Y-91999339D01*
X159467535Y-92000690D01*
X159467537Y-92000691D01*
X159485293Y-92004465D01*
X159629131Y-92035038D01*
X159676233Y-92056010D01*
X159710735Y-92094328D01*
X159726669Y-92143366D01*
X159735185Y-92224389D01*
X159745367Y-92321263D01*
X159747372Y-92327435D01*
X159747374Y-92327442D01*
X159801585Y-92494283D01*
X159804382Y-92502891D01*
X159807629Y-92508515D01*
X159807630Y-92508517D01*
X159871549Y-92619228D01*
X159887992Y-92674737D01*
X159877443Y-92731661D01*
X159842201Y-92777591D01*
X159789949Y-92802517D01*
X159773078Y-92806103D01*
X159773069Y-92806105D01*
X159766717Y-92807456D01*
X159760787Y-92810095D01*
X159760778Y-92810099D01*
X159598187Y-92882489D01*
X159598179Y-92882493D01*
X159592253Y-92885132D01*
X159587004Y-92888945D01*
X159586998Y-92888949D01*
X159443005Y-92993566D01*
X159442996Y-92993573D01*
X159437752Y-92997384D01*
X159433408Y-93002207D01*
X159433405Y-93002211D01*
X159314312Y-93134478D01*
X159309965Y-93139306D01*
X159306719Y-93144926D01*
X159306716Y-93144932D01*
X159217726Y-93299067D01*
X159217723Y-93299072D01*
X159214478Y-93304694D01*
X159212472Y-93310866D01*
X159212470Y-93310872D01*
X159157470Y-93480142D01*
X159157468Y-93480151D01*
X159155463Y-93486322D01*
X159154785Y-93492772D01*
X159154783Y-93492782D01*
X159139853Y-93634841D01*
X159135501Y-93676250D01*
X159136180Y-93682710D01*
X159154783Y-93859717D01*
X159154784Y-93859725D01*
X159155463Y-93866178D01*
X159157468Y-93872350D01*
X159157470Y-93872357D01*
X159212470Y-94041627D01*
X159214478Y-94047806D01*
X159217725Y-94053430D01*
X159217726Y-94053432D01*
X159262155Y-94130386D01*
X159309965Y-94213194D01*
X159437752Y-94355116D01*
X159443002Y-94358930D01*
X159443005Y-94358933D01*
X159578546Y-94457409D01*
X159592253Y-94467368D01*
X159598186Y-94470009D01*
X159598187Y-94470010D01*
X159731112Y-94529192D01*
X159766717Y-94545044D01*
X159773075Y-94546395D01*
X159773077Y-94546396D01*
X159787422Y-94549445D01*
X159953518Y-94584750D01*
X160137989Y-94584750D01*
X160144492Y-94584750D01*
X160331293Y-94545044D01*
X160505757Y-94467368D01*
X160611473Y-94390559D01*
X160668814Y-94367857D01*
X160730002Y-94375586D01*
X160779898Y-94411836D01*
X160806160Y-94467639D01*
X160802290Y-94529192D01*
X160797717Y-94543266D01*
X160797715Y-94543272D01*
X160795710Y-94549445D01*
X160795032Y-94555895D01*
X160795030Y-94555905D01*
X160777030Y-94727168D01*
X160775748Y-94739373D01*
X160776427Y-94745833D01*
X160795030Y-94922840D01*
X160795031Y-94922848D01*
X160795710Y-94929301D01*
X160797715Y-94935473D01*
X160797717Y-94935480D01*
X160852717Y-95104750D01*
X160854725Y-95110929D01*
X160950212Y-95276317D01*
X161077999Y-95418239D01*
X161083249Y-95422053D01*
X161083252Y-95422056D01*
X161226115Y-95525852D01*
X161232500Y-95530491D01*
X161238434Y-95533133D01*
X161244065Y-95536384D01*
X161243442Y-95537461D01*
X161289339Y-95575430D01*
X161311271Y-95638413D01*
X161297405Y-95703647D01*
X161251751Y-95752263D01*
X161187516Y-95770198D01*
X161068132Y-95770198D01*
X161064852Y-95770550D01*
X161064845Y-95770551D01*
X161015275Y-95775880D01*
X161015270Y-95775880D01*
X161007569Y-95776709D01*
X161000313Y-95779415D01*
X161000306Y-95779417D01*
X160878875Y-95824709D01*
X160878869Y-95824711D01*
X160870566Y-95827809D01*
X160863468Y-95833121D01*
X160863465Y-95833124D01*
X160760605Y-95910124D01*
X160760601Y-95910127D01*
X160753509Y-95915437D01*
X160748199Y-95922529D01*
X160748196Y-95922533D01*
X160671196Y-96025393D01*
X160671193Y-96025396D01*
X160665881Y-96032494D01*
X160662783Y-96040799D01*
X160662779Y-96040807D01*
X160620631Y-96153809D01*
X160584679Y-96205022D01*
X160528298Y-96232159D01*
X160465844Y-96228311D01*
X160413221Y-96194457D01*
X160410701Y-96191720D01*
X160350010Y-96125792D01*
X160270540Y-96063937D01*
X160176393Y-95990658D01*
X160176385Y-95990653D01*
X160172346Y-95987509D01*
X160167841Y-95985071D01*
X160167835Y-95985067D01*
X159978850Y-95882794D01*
X159978844Y-95882791D01*
X159974344Y-95880356D01*
X159969503Y-95878694D01*
X159969496Y-95878691D01*
X159766258Y-95808920D01*
X159766257Y-95808919D01*
X159761405Y-95807254D01*
X159756355Y-95806411D01*
X159756346Y-95806409D01*
X159544401Y-95771042D01*
X159544392Y-95771041D01*
X159539339Y-95770198D01*
X159314201Y-95770198D01*
X159309148Y-95771041D01*
X159309138Y-95771042D01*
X159097193Y-95806409D01*
X159097181Y-95806411D01*
X159092135Y-95807254D01*
X159087285Y-95808918D01*
X159087281Y-95808920D01*
X158884043Y-95878691D01*
X158884032Y-95878695D01*
X158879196Y-95880356D01*
X158874699Y-95882789D01*
X158874689Y-95882794D01*
X158685704Y-95985067D01*
X158685692Y-95985074D01*
X158681194Y-95987509D01*
X158677159Y-95990649D01*
X158677146Y-95990658D01*
X158507571Y-96122646D01*
X158507565Y-96122650D01*
X158503530Y-96125792D01*
X158500067Y-96129553D01*
X158500058Y-96129562D01*
X158354523Y-96287654D01*
X158354517Y-96287661D01*
X158351048Y-96291430D01*
X158348251Y-96295710D01*
X158348244Y-96295720D01*
X158260579Y-96429903D01*
X158215787Y-96471136D01*
X158156770Y-96486081D01*
X158097753Y-96471136D01*
X158052961Y-96429903D01*
X157965295Y-96295720D01*
X157965293Y-96295718D01*
X157962492Y-96291430D01*
X157931916Y-96258216D01*
X157813481Y-96129562D01*
X157813478Y-96129559D01*
X157810010Y-96125792D01*
X157730540Y-96063937D01*
X157636393Y-95990658D01*
X157636385Y-95990653D01*
X157632346Y-95987509D01*
X157627841Y-95985071D01*
X157627835Y-95985067D01*
X157438850Y-95882794D01*
X157438844Y-95882791D01*
X157434344Y-95880356D01*
X157429503Y-95878694D01*
X157429496Y-95878691D01*
X157226258Y-95808920D01*
X157226257Y-95808919D01*
X157221405Y-95807254D01*
X157216355Y-95806411D01*
X157216346Y-95806409D01*
X157004401Y-95771042D01*
X157004392Y-95771041D01*
X156999339Y-95770198D01*
X156774201Y-95770198D01*
X156769148Y-95771041D01*
X156769138Y-95771042D01*
X156557193Y-95806409D01*
X156557181Y-95806411D01*
X156552135Y-95807254D01*
X156547285Y-95808918D01*
X156547281Y-95808920D01*
X156344043Y-95878691D01*
X156344032Y-95878695D01*
X156339196Y-95880356D01*
X156334699Y-95882789D01*
X156334689Y-95882794D01*
X156145704Y-95985067D01*
X156145692Y-95985074D01*
X156141194Y-95987509D01*
X156137159Y-95990649D01*
X156137146Y-95990658D01*
X155967571Y-96122646D01*
X155967565Y-96122650D01*
X155963530Y-96125792D01*
X155960067Y-96129553D01*
X155960058Y-96129562D01*
X155814523Y-96287654D01*
X155814517Y-96287661D01*
X155811048Y-96291430D01*
X155808251Y-96295710D01*
X155808244Y-96295720D01*
X155720579Y-96429903D01*
X155675787Y-96471136D01*
X155616770Y-96486081D01*
X155557753Y-96471136D01*
X155512961Y-96429903D01*
X155425295Y-96295720D01*
X155425293Y-96295718D01*
X155422492Y-96291430D01*
X155391916Y-96258216D01*
X155273481Y-96129562D01*
X155273478Y-96129559D01*
X155270010Y-96125792D01*
X155190540Y-96063937D01*
X155096393Y-95990658D01*
X155096385Y-95990653D01*
X155092346Y-95987509D01*
X155087841Y-95985071D01*
X155087835Y-95985067D01*
X154898850Y-95882794D01*
X154898844Y-95882791D01*
X154894344Y-95880356D01*
X154889503Y-95878694D01*
X154889496Y-95878691D01*
X154686258Y-95808920D01*
X154686257Y-95808919D01*
X154681405Y-95807254D01*
X154676355Y-95806411D01*
X154676346Y-95806409D01*
X154464401Y-95771042D01*
X154464392Y-95771041D01*
X154459339Y-95770198D01*
X154234201Y-95770198D01*
X154229148Y-95771041D01*
X154229138Y-95771042D01*
X154017193Y-95806409D01*
X154017181Y-95806411D01*
X154012135Y-95807254D01*
X154007285Y-95808918D01*
X154007281Y-95808920D01*
X153804043Y-95878691D01*
X153804032Y-95878695D01*
X153799196Y-95880356D01*
X153794699Y-95882789D01*
X153794689Y-95882794D01*
X153605704Y-95985067D01*
X153605692Y-95985074D01*
X153601194Y-95987509D01*
X153597159Y-95990649D01*
X153597146Y-95990658D01*
X153427571Y-96122646D01*
X153427565Y-96122650D01*
X153423530Y-96125792D01*
X153420067Y-96129553D01*
X153420058Y-96129562D01*
X153274523Y-96287654D01*
X153274517Y-96287661D01*
X153271048Y-96291430D01*
X153268251Y-96295710D01*
X153268244Y-96295720D01*
X153180579Y-96429903D01*
X153135787Y-96471136D01*
X153076770Y-96486081D01*
X153017753Y-96471136D01*
X152972961Y-96429903D01*
X152885295Y-96295720D01*
X152885293Y-96295718D01*
X152882492Y-96291430D01*
X152851916Y-96258216D01*
X152733481Y-96129562D01*
X152733478Y-96129559D01*
X152730010Y-96125792D01*
X152650540Y-96063937D01*
X152556393Y-95990658D01*
X152556385Y-95990653D01*
X152552346Y-95987509D01*
X152547841Y-95985071D01*
X152547835Y-95985067D01*
X152358850Y-95882794D01*
X152358844Y-95882791D01*
X152354344Y-95880356D01*
X152349503Y-95878694D01*
X152349496Y-95878691D01*
X152146258Y-95808920D01*
X152146257Y-95808919D01*
X152141405Y-95807254D01*
X152136355Y-95806411D01*
X152136346Y-95806409D01*
X151924401Y-95771042D01*
X151924392Y-95771041D01*
X151919339Y-95770198D01*
X151694201Y-95770198D01*
X151689148Y-95771041D01*
X151689138Y-95771042D01*
X151477193Y-95806409D01*
X151477181Y-95806411D01*
X151472135Y-95807254D01*
X151467285Y-95808918D01*
X151467281Y-95808920D01*
X151264043Y-95878691D01*
X151264032Y-95878695D01*
X151259196Y-95880356D01*
X151254699Y-95882789D01*
X151254689Y-95882794D01*
X151065704Y-95985067D01*
X151065692Y-95985074D01*
X151061194Y-95987509D01*
X151057159Y-95990649D01*
X151057146Y-95990658D01*
X150887571Y-96122646D01*
X150887565Y-96122650D01*
X150883530Y-96125792D01*
X150880067Y-96129553D01*
X150880058Y-96129562D01*
X150734523Y-96287654D01*
X150734517Y-96287661D01*
X150731048Y-96291430D01*
X150728251Y-96295710D01*
X150728244Y-96295720D01*
X150640579Y-96429903D01*
X150595787Y-96471136D01*
X150536770Y-96486081D01*
X150477753Y-96471136D01*
X150432961Y-96429903D01*
X150345295Y-96295720D01*
X150345293Y-96295718D01*
X150342492Y-96291430D01*
X150311916Y-96258216D01*
X150193481Y-96129562D01*
X150193478Y-96129559D01*
X150190010Y-96125792D01*
X150110540Y-96063937D01*
X150016393Y-95990658D01*
X150016385Y-95990653D01*
X150012346Y-95987509D01*
X150007841Y-95985071D01*
X150007835Y-95985067D01*
X149818850Y-95882794D01*
X149818844Y-95882791D01*
X149814344Y-95880356D01*
X149809503Y-95878694D01*
X149809496Y-95878691D01*
X149606258Y-95808920D01*
X149606257Y-95808919D01*
X149601405Y-95807254D01*
X149596355Y-95806411D01*
X149596346Y-95806409D01*
X149384401Y-95771042D01*
X149384392Y-95771041D01*
X149379339Y-95770198D01*
X149154201Y-95770198D01*
X149149148Y-95771041D01*
X149149138Y-95771042D01*
X148937193Y-95806409D01*
X148937181Y-95806411D01*
X148932135Y-95807254D01*
X148927285Y-95808918D01*
X148927281Y-95808920D01*
X148724043Y-95878691D01*
X148724032Y-95878695D01*
X148719196Y-95880356D01*
X148714699Y-95882789D01*
X148714689Y-95882794D01*
X148525704Y-95985067D01*
X148525692Y-95985074D01*
X148521194Y-95987509D01*
X148517159Y-95990649D01*
X148517146Y-95990658D01*
X148347571Y-96122646D01*
X148347565Y-96122650D01*
X148343530Y-96125792D01*
X148340067Y-96129553D01*
X148340058Y-96129562D01*
X148194523Y-96287654D01*
X148194517Y-96287661D01*
X148191048Y-96291430D01*
X148188251Y-96295710D01*
X148188244Y-96295720D01*
X148078027Y-96464422D01*
X148067910Y-96479907D01*
X148065855Y-96484590D01*
X148065850Y-96484601D01*
X147996770Y-96642091D01*
X147977474Y-96686082D01*
X147976216Y-96691047D01*
X147976215Y-96691052D01*
X147923465Y-96899355D01*
X147923463Y-96899364D01*
X147922206Y-96904330D01*
X147921782Y-96909439D01*
X147921781Y-96909449D01*
X147920108Y-96929645D01*
X147903614Y-97128698D01*
X147320000Y-97128698D01*
X147320000Y-90901942D01*
X147613716Y-90901942D01*
X147614098Y-90906796D01*
X147632274Y-91137754D01*
X147633889Y-91158268D01*
X147635024Y-91162997D01*
X147635025Y-91163001D01*
X147692774Y-91403545D01*
X147692776Y-91403553D01*
X147693912Y-91408282D01*
X147792307Y-91645829D01*
X147794854Y-91649986D01*
X147794855Y-91649987D01*
X147910729Y-91839077D01*
X147926651Y-91865058D01*
X147929815Y-91868763D01*
X147929819Y-91868768D01*
X148057327Y-92018061D01*
X148093636Y-92060573D01*
X148097343Y-92063739D01*
X148285440Y-92224389D01*
X148285443Y-92224391D01*
X148289151Y-92227558D01*
X148508380Y-92361902D01*
X148745927Y-92460297D01*
X148995941Y-92520320D01*
X149252267Y-92540493D01*
X149508593Y-92520320D01*
X149758607Y-92460297D01*
X149996154Y-92361902D01*
X150176049Y-92251662D01*
X151695709Y-92251662D01*
X151696388Y-92258122D01*
X151714991Y-92435129D01*
X151714992Y-92435137D01*
X151715671Y-92441590D01*
X151717676Y-92447762D01*
X151717678Y-92447769D01*
X151772678Y-92617039D01*
X151774686Y-92623218D01*
X151777933Y-92628842D01*
X151777934Y-92628844D01*
X151842608Y-92740863D01*
X151870173Y-92788606D01*
X151997960Y-92930528D01*
X152003210Y-92934342D01*
X152003213Y-92934345D01*
X152061232Y-92976498D01*
X152152461Y-93042780D01*
X152326925Y-93120456D01*
X152333283Y-93121807D01*
X152333285Y-93121808D01*
X152370087Y-93129630D01*
X152513726Y-93160162D01*
X152698197Y-93160162D01*
X152704700Y-93160162D01*
X152891501Y-93120456D01*
X153065965Y-93042780D01*
X153220466Y-92930528D01*
X153348253Y-92788606D01*
X153443740Y-92623218D01*
X153502755Y-92441590D01*
X153509646Y-92376021D01*
X154525494Y-92376021D01*
X154526173Y-92382481D01*
X154544776Y-92559488D01*
X154544777Y-92559496D01*
X154545456Y-92565949D01*
X154547461Y-92572121D01*
X154547463Y-92572128D01*
X154601465Y-92738327D01*
X154604471Y-92747577D01*
X154607718Y-92753201D01*
X154607719Y-92753203D01*
X154683888Y-92885132D01*
X154699958Y-92912965D01*
X154827745Y-93054887D01*
X154832995Y-93058701D01*
X154832998Y-93058704D01*
X154919853Y-93121808D01*
X154982246Y-93167139D01*
X154988179Y-93169780D01*
X154988180Y-93169781D01*
X155108244Y-93223237D01*
X155156710Y-93244815D01*
X155163068Y-93246166D01*
X155163070Y-93246167D01*
X155199872Y-93253989D01*
X155343511Y-93284521D01*
X155527982Y-93284521D01*
X155534485Y-93284521D01*
X155721286Y-93244815D01*
X155895750Y-93167139D01*
X156050251Y-93054887D01*
X156178038Y-92912965D01*
X156273525Y-92747577D01*
X156332540Y-92565949D01*
X156352502Y-92376021D01*
X156341930Y-92275436D01*
X156333219Y-92192553D01*
X156333218Y-92192552D01*
X156332540Y-92186093D01*
X156273525Y-92004465D01*
X156178038Y-91839077D01*
X156050251Y-91697155D01*
X156045001Y-91693340D01*
X156044997Y-91693337D01*
X155901004Y-91588720D01*
X155901002Y-91588718D01*
X155895750Y-91584903D01*
X155889819Y-91582262D01*
X155889815Y-91582260D01*
X155727224Y-91509870D01*
X155727217Y-91509867D01*
X155721286Y-91507227D01*
X155714933Y-91505876D01*
X155714925Y-91505874D01*
X155540847Y-91468873D01*
X155540844Y-91468872D01*
X155534485Y-91467521D01*
X155343511Y-91467521D01*
X155337152Y-91468872D01*
X155337148Y-91468873D01*
X155163070Y-91505874D01*
X155163059Y-91505877D01*
X155156710Y-91507227D01*
X155150780Y-91509866D01*
X155150771Y-91509870D01*
X154988180Y-91582260D01*
X154988172Y-91582264D01*
X154982246Y-91584903D01*
X154976997Y-91588716D01*
X154976991Y-91588720D01*
X154832998Y-91693337D01*
X154832989Y-91693344D01*
X154827745Y-91697155D01*
X154823401Y-91701978D01*
X154823398Y-91701982D01*
X154712885Y-91824720D01*
X154699958Y-91839077D01*
X154696712Y-91844697D01*
X154696709Y-91844703D01*
X154607719Y-91998838D01*
X154607716Y-91998843D01*
X154604471Y-92004465D01*
X154602465Y-92010637D01*
X154602463Y-92010643D01*
X154547463Y-92179913D01*
X154547461Y-92179922D01*
X154545456Y-92186093D01*
X154544778Y-92192543D01*
X154544776Y-92192553D01*
X154531928Y-92314802D01*
X154525494Y-92376021D01*
X153509646Y-92376021D01*
X153522717Y-92251662D01*
X153508074Y-92112339D01*
X153503434Y-92068194D01*
X153503433Y-92068193D01*
X153502755Y-92061734D01*
X153443740Y-91880106D01*
X153348253Y-91714718D01*
X153220466Y-91572796D01*
X153215216Y-91568981D01*
X153215212Y-91568978D01*
X153071219Y-91464361D01*
X153071217Y-91464359D01*
X153065965Y-91460544D01*
X153060034Y-91457903D01*
X153060030Y-91457901D01*
X152897439Y-91385511D01*
X152897432Y-91385508D01*
X152891501Y-91382868D01*
X152885148Y-91381517D01*
X152885140Y-91381515D01*
X152711062Y-91344514D01*
X152711059Y-91344513D01*
X152704700Y-91343162D01*
X152513726Y-91343162D01*
X152507367Y-91344513D01*
X152507363Y-91344514D01*
X152333285Y-91381515D01*
X152333274Y-91381518D01*
X152326925Y-91382868D01*
X152320995Y-91385507D01*
X152320986Y-91385511D01*
X152158395Y-91457901D01*
X152158387Y-91457905D01*
X152152461Y-91460544D01*
X152147212Y-91464357D01*
X152147206Y-91464361D01*
X152003213Y-91568978D01*
X152003204Y-91568985D01*
X151997960Y-91572796D01*
X151993616Y-91577619D01*
X151993613Y-91577623D01*
X151874520Y-91709890D01*
X151870173Y-91714718D01*
X151866927Y-91720338D01*
X151866924Y-91720344D01*
X151777934Y-91874479D01*
X151777931Y-91874484D01*
X151774686Y-91880106D01*
X151772680Y-91886278D01*
X151772678Y-91886284D01*
X151717678Y-92055554D01*
X151717676Y-92055563D01*
X151715671Y-92061734D01*
X151714993Y-92068184D01*
X151714991Y-92068194D01*
X151700978Y-92201529D01*
X151695709Y-92251662D01*
X150176049Y-92251662D01*
X150215383Y-92227558D01*
X150410898Y-92060573D01*
X150577883Y-91865058D01*
X150712227Y-91645829D01*
X150810622Y-91408282D01*
X150870645Y-91158268D01*
X150890818Y-90901942D01*
X150870645Y-90645616D01*
X150810622Y-90395602D01*
X150712227Y-90158055D01*
X150577883Y-89938826D01*
X150570360Y-89930018D01*
X150414064Y-89747018D01*
X150410898Y-89743311D01*
X150407190Y-89740144D01*
X150219093Y-89579494D01*
X150219088Y-89579490D01*
X150215383Y-89576326D01*
X150211227Y-89573779D01*
X150211224Y-89573777D01*
X150000312Y-89444530D01*
X150000311Y-89444529D01*
X149996154Y-89441982D01*
X149758607Y-89343587D01*
X149753878Y-89342451D01*
X149753870Y-89342449D01*
X149513326Y-89284700D01*
X149513322Y-89284699D01*
X149508593Y-89283564D01*
X149503742Y-89283182D01*
X149503741Y-89283182D01*
X149257121Y-89263773D01*
X149252267Y-89263391D01*
X149247413Y-89263773D01*
X149000792Y-89283182D01*
X149000789Y-89283182D01*
X148995941Y-89283564D01*
X148991213Y-89284698D01*
X148991207Y-89284700D01*
X148750663Y-89342449D01*
X148750651Y-89342452D01*
X148745927Y-89343587D01*
X148741430Y-89345449D01*
X148741426Y-89345451D01*
X148512884Y-89440116D01*
X148512879Y-89440118D01*
X148508380Y-89441982D01*
X148504227Y-89444526D01*
X148504221Y-89444530D01*
X148293309Y-89573777D01*
X148293300Y-89573783D01*
X148289151Y-89576326D01*
X148285451Y-89579485D01*
X148285440Y-89579494D01*
X148097343Y-89740144D01*
X148097336Y-89740150D01*
X148093636Y-89743311D01*
X148090475Y-89747011D01*
X148090469Y-89747018D01*
X147929819Y-89935115D01*
X147929810Y-89935126D01*
X147926651Y-89938826D01*
X147924108Y-89942975D01*
X147924102Y-89942984D01*
X147794855Y-90153896D01*
X147794851Y-90153902D01*
X147792307Y-90158055D01*
X147790443Y-90162554D01*
X147790441Y-90162559D01*
X147717064Y-90339707D01*
X147693912Y-90395602D01*
X147692777Y-90400326D01*
X147692774Y-90400338D01*
X147635025Y-90640882D01*
X147635023Y-90640888D01*
X147633889Y-90645616D01*
X147633507Y-90650464D01*
X147633507Y-90650467D01*
X147617853Y-90849378D01*
X147613716Y-90901942D01*
X147320000Y-90901942D01*
X147320000Y-88455610D01*
X147795937Y-88455610D01*
X147796289Y-88458890D01*
X147796290Y-88458896D01*
X147801485Y-88507222D01*
X147802448Y-88516173D01*
X147805154Y-88523430D01*
X147805156Y-88523435D01*
X147848747Y-88640305D01*
X147853548Y-88653176D01*
X147858862Y-88660275D01*
X147858863Y-88660276D01*
X147921143Y-88743473D01*
X147941176Y-88770233D01*
X148058233Y-88857861D01*
X148195236Y-88908961D01*
X148255799Y-88915472D01*
X150049765Y-88915472D01*
X150053075Y-88915472D01*
X150113638Y-88908961D01*
X150250641Y-88857861D01*
X150367698Y-88770233D01*
X150455326Y-88653176D01*
X150506426Y-88516173D01*
X150512937Y-88455610D01*
X150512937Y-87168280D01*
X154391538Y-87168280D01*
X154392217Y-87174740D01*
X154410820Y-87351747D01*
X154410821Y-87351755D01*
X154411500Y-87358208D01*
X154413505Y-87364380D01*
X154413507Y-87364387D01*
X154468507Y-87533657D01*
X154470515Y-87539836D01*
X154473762Y-87545460D01*
X154473763Y-87545462D01*
X154555321Y-87686725D01*
X154566002Y-87705224D01*
X154693789Y-87847146D01*
X154699039Y-87850960D01*
X154699042Y-87850963D01*
X154821210Y-87939723D01*
X154848290Y-87959398D01*
X154854223Y-87962039D01*
X154854224Y-87962040D01*
X155009012Y-88030956D01*
X155022754Y-88037074D01*
X155029112Y-88038425D01*
X155029114Y-88038426D01*
X155037197Y-88040144D01*
X155209555Y-88076780D01*
X155394026Y-88076780D01*
X155400529Y-88076780D01*
X155587330Y-88037074D01*
X155761794Y-87959398D01*
X155916295Y-87847146D01*
X156044082Y-87705224D01*
X156139569Y-87539836D01*
X156198584Y-87358208D01*
X156218365Y-87169998D01*
X158939996Y-87169998D01*
X158941344Y-87182828D01*
X158959278Y-87353465D01*
X158959279Y-87353473D01*
X158959958Y-87359926D01*
X158961963Y-87366098D01*
X158961965Y-87366105D01*
X159010206Y-87514573D01*
X159018973Y-87541554D01*
X159022220Y-87547178D01*
X159022221Y-87547180D01*
X159102787Y-87686725D01*
X159114460Y-87706942D01*
X159242247Y-87848864D01*
X159247497Y-87852678D01*
X159247500Y-87852681D01*
X159341229Y-87920779D01*
X159396748Y-87961116D01*
X159402681Y-87963757D01*
X159402682Y-87963758D01*
X159561933Y-88034661D01*
X159571212Y-88038792D01*
X159577570Y-88040143D01*
X159577572Y-88040144D01*
X159597859Y-88044456D01*
X159758013Y-88078498D01*
X159942484Y-88078498D01*
X159948987Y-88078498D01*
X160135788Y-88038792D01*
X160310252Y-87961116D01*
X160464753Y-87848864D01*
X160592540Y-87706942D01*
X160688027Y-87541554D01*
X160747042Y-87359926D01*
X160767004Y-87169998D01*
X160747042Y-86980070D01*
X160688027Y-86798442D01*
X160592540Y-86633054D01*
X160584489Y-86624113D01*
X160554231Y-86590508D01*
X160520700Y-86553268D01*
X160490735Y-86491829D01*
X160497881Y-86423845D01*
X160539965Y-86369979D01*
X160568370Y-86349343D01*
X160696157Y-86207421D01*
X160791644Y-86042033D01*
X160850659Y-85860405D01*
X160870621Y-85670477D01*
X160850659Y-85480549D01*
X160791644Y-85298921D01*
X160696157Y-85133533D01*
X160568370Y-84991611D01*
X160563120Y-84987796D01*
X160563116Y-84987793D01*
X160419123Y-84883176D01*
X160419121Y-84883174D01*
X160413869Y-84879359D01*
X160407938Y-84876718D01*
X160407934Y-84876716D01*
X160245343Y-84804326D01*
X160245336Y-84804323D01*
X160239405Y-84801683D01*
X160233052Y-84800332D01*
X160233044Y-84800330D01*
X160058966Y-84763329D01*
X160058963Y-84763328D01*
X160052604Y-84761977D01*
X159861630Y-84761977D01*
X159855271Y-84763328D01*
X159855267Y-84763329D01*
X159681189Y-84800330D01*
X159681178Y-84800333D01*
X159674829Y-84801683D01*
X159668899Y-84804322D01*
X159668890Y-84804326D01*
X159506299Y-84876716D01*
X159506291Y-84876720D01*
X159500365Y-84879359D01*
X159495116Y-84883172D01*
X159495110Y-84883176D01*
X159351117Y-84987793D01*
X159351108Y-84987800D01*
X159345864Y-84991611D01*
X159341520Y-84996434D01*
X159341517Y-84996438D01*
X159267221Y-85078953D01*
X159218077Y-85133533D01*
X159214831Y-85139153D01*
X159214828Y-85139159D01*
X159125838Y-85293294D01*
X159125835Y-85293299D01*
X159122590Y-85298921D01*
X159120584Y-85305093D01*
X159120582Y-85305099D01*
X159065582Y-85474369D01*
X159065580Y-85474378D01*
X159063575Y-85480549D01*
X159062897Y-85486999D01*
X159062895Y-85487009D01*
X159050048Y-85609247D01*
X159043613Y-85670477D01*
X159044292Y-85676937D01*
X159062895Y-85853944D01*
X159062896Y-85853952D01*
X159063575Y-85860405D01*
X159065580Y-85866577D01*
X159065582Y-85866584D01*
X159120582Y-86035854D01*
X159122590Y-86042033D01*
X159125837Y-86047657D01*
X159125838Y-86047659D01*
X159210300Y-86193952D01*
X159218077Y-86207421D01*
X159222423Y-86212248D01*
X159222424Y-86212249D01*
X159289914Y-86287205D01*
X159319880Y-86348644D01*
X159312735Y-86416627D01*
X159270652Y-86470493D01*
X159247505Y-86487311D01*
X159247500Y-86487315D01*
X159242247Y-86491132D01*
X159237903Y-86495955D01*
X159237900Y-86495959D01*
X159120354Y-86626508D01*
X159114460Y-86633054D01*
X159111214Y-86638674D01*
X159111211Y-86638680D01*
X159022221Y-86792815D01*
X159022218Y-86792820D01*
X159018973Y-86798442D01*
X159016967Y-86804614D01*
X159016965Y-86804620D01*
X158961965Y-86973890D01*
X158961963Y-86973899D01*
X158959958Y-86980070D01*
X158959280Y-86986520D01*
X158959278Y-86986530D01*
X158946635Y-87106833D01*
X158939996Y-87169998D01*
X156218365Y-87169998D01*
X156218546Y-87168280D01*
X156198584Y-86978352D01*
X156139569Y-86796724D01*
X156044082Y-86631336D01*
X155916295Y-86489414D01*
X155911045Y-86485599D01*
X155911041Y-86485596D01*
X155767048Y-86380979D01*
X155767046Y-86380977D01*
X155761794Y-86377162D01*
X155755863Y-86374521D01*
X155755859Y-86374519D01*
X155593268Y-86302129D01*
X155593261Y-86302126D01*
X155587330Y-86299486D01*
X155580977Y-86298135D01*
X155580969Y-86298133D01*
X155406891Y-86261132D01*
X155406888Y-86261131D01*
X155400529Y-86259780D01*
X155209555Y-86259780D01*
X155203196Y-86261131D01*
X155203192Y-86261132D01*
X155029114Y-86298133D01*
X155029103Y-86298136D01*
X155022754Y-86299486D01*
X155016824Y-86302125D01*
X155016815Y-86302129D01*
X154854224Y-86374519D01*
X154854216Y-86374523D01*
X154848290Y-86377162D01*
X154843041Y-86380975D01*
X154843035Y-86380979D01*
X154699042Y-86485596D01*
X154699033Y-86485603D01*
X154693789Y-86489414D01*
X154689445Y-86494237D01*
X154689442Y-86494241D01*
X154570349Y-86626508D01*
X154566002Y-86631336D01*
X154562756Y-86636956D01*
X154562753Y-86636962D01*
X154473763Y-86791097D01*
X154473760Y-86791102D01*
X154470515Y-86796724D01*
X154468509Y-86802896D01*
X154468507Y-86802902D01*
X154413507Y-86972172D01*
X154413505Y-86972181D01*
X154411500Y-86978352D01*
X154410822Y-86984802D01*
X154410820Y-86984812D01*
X154395537Y-87130230D01*
X154391538Y-87168280D01*
X150512937Y-87168280D01*
X150512937Y-86658334D01*
X150506426Y-86597771D01*
X150455326Y-86460768D01*
X150367698Y-86343711D01*
X150344458Y-86326314D01*
X150257741Y-86261398D01*
X150257740Y-86261397D01*
X150250641Y-86256083D01*
X150242333Y-86252984D01*
X150242331Y-86252983D01*
X150120900Y-86207691D01*
X150120895Y-86207689D01*
X150113638Y-86204983D01*
X150105934Y-86204154D01*
X150105931Y-86204154D01*
X150056361Y-86198825D01*
X150056355Y-86198824D01*
X150053075Y-86198472D01*
X148255799Y-86198472D01*
X148252519Y-86198824D01*
X148252512Y-86198825D01*
X148202942Y-86204154D01*
X148202937Y-86204154D01*
X148195236Y-86204983D01*
X148187980Y-86207689D01*
X148187973Y-86207691D01*
X148066542Y-86252983D01*
X148066536Y-86252985D01*
X148058233Y-86256083D01*
X148051135Y-86261395D01*
X148051132Y-86261398D01*
X147948272Y-86338398D01*
X147948268Y-86338401D01*
X147941176Y-86343711D01*
X147935866Y-86350803D01*
X147935863Y-86350807D01*
X147858863Y-86453667D01*
X147858860Y-86453670D01*
X147853548Y-86460768D01*
X147850450Y-86469071D01*
X147850448Y-86469077D01*
X147805156Y-86590508D01*
X147805154Y-86590515D01*
X147802448Y-86597771D01*
X147801619Y-86605472D01*
X147801619Y-86605477D01*
X147796290Y-86655047D01*
X147795937Y-86658334D01*
X147795937Y-88455610D01*
X147320000Y-88455610D01*
X147320000Y-83966640D01*
X147649465Y-83966640D01*
X147649847Y-83971494D01*
X147668033Y-84202579D01*
X147669638Y-84222966D01*
X147670773Y-84227695D01*
X147670774Y-84227699D01*
X147728523Y-84468243D01*
X147728525Y-84468251D01*
X147729661Y-84472980D01*
X147828056Y-84710527D01*
X147830603Y-84714684D01*
X147830604Y-84714685D01*
X147952035Y-84912843D01*
X147962400Y-84929756D01*
X147965564Y-84933461D01*
X147965568Y-84933466D01*
X148103979Y-85095524D01*
X148129385Y-85125271D01*
X148133092Y-85128437D01*
X148321189Y-85289087D01*
X148321192Y-85289089D01*
X148324900Y-85292256D01*
X148544129Y-85426600D01*
X148781676Y-85524995D01*
X149031690Y-85585018D01*
X149288016Y-85605191D01*
X149544342Y-85585018D01*
X149794356Y-85524995D01*
X150031903Y-85426600D01*
X150251132Y-85292256D01*
X150259098Y-85285452D01*
X150982685Y-85285452D01*
X150983364Y-85291912D01*
X151001967Y-85468919D01*
X151001968Y-85468927D01*
X151002647Y-85475380D01*
X151004652Y-85481552D01*
X151004654Y-85481559D01*
X151059654Y-85650829D01*
X151061662Y-85657008D01*
X151064909Y-85662632D01*
X151064910Y-85662634D01*
X151079714Y-85688276D01*
X151157149Y-85822396D01*
X151284936Y-85964318D01*
X151290186Y-85968132D01*
X151290189Y-85968135D01*
X151402052Y-86049408D01*
X151439437Y-86076570D01*
X151445370Y-86079211D01*
X151445371Y-86079212D01*
X151579803Y-86139065D01*
X151613901Y-86154246D01*
X151620259Y-86155597D01*
X151620261Y-86155598D01*
X151655396Y-86163066D01*
X151800702Y-86193952D01*
X151985173Y-86193952D01*
X151991676Y-86193952D01*
X152178477Y-86154246D01*
X152352941Y-86076570D01*
X152507442Y-85964318D01*
X152635229Y-85822396D01*
X152730716Y-85657008D01*
X152789731Y-85475380D01*
X152809693Y-85285452D01*
X152792947Y-85126126D01*
X152790410Y-85101984D01*
X152790409Y-85101983D01*
X152789731Y-85095524D01*
X152730716Y-84913896D01*
X152635229Y-84748508D01*
X152507442Y-84606586D01*
X152502192Y-84602771D01*
X152502188Y-84602768D01*
X152358195Y-84498151D01*
X152358193Y-84498149D01*
X152352941Y-84494334D01*
X152347010Y-84491693D01*
X152347006Y-84491691D01*
X152184415Y-84419301D01*
X152184408Y-84419298D01*
X152178477Y-84416658D01*
X152172124Y-84415307D01*
X152172116Y-84415305D01*
X151998038Y-84378304D01*
X151998035Y-84378303D01*
X151991676Y-84376952D01*
X151800702Y-84376952D01*
X151794343Y-84378303D01*
X151794339Y-84378304D01*
X151620261Y-84415305D01*
X151620250Y-84415308D01*
X151613901Y-84416658D01*
X151607971Y-84419297D01*
X151607962Y-84419301D01*
X151445371Y-84491691D01*
X151445363Y-84491695D01*
X151439437Y-84494334D01*
X151434188Y-84498147D01*
X151434182Y-84498151D01*
X151290189Y-84602768D01*
X151290180Y-84602775D01*
X151284936Y-84606586D01*
X151280592Y-84611409D01*
X151280589Y-84611413D01*
X151191347Y-84710527D01*
X151157149Y-84748508D01*
X151153903Y-84754128D01*
X151153900Y-84754134D01*
X151064910Y-84908269D01*
X151064907Y-84908274D01*
X151061662Y-84913896D01*
X151059656Y-84920068D01*
X151059654Y-84920074D01*
X151004654Y-85089344D01*
X151004652Y-85089353D01*
X151002647Y-85095524D01*
X151001969Y-85101974D01*
X151001967Y-85101984D01*
X150992244Y-85194501D01*
X150982685Y-85285452D01*
X150259098Y-85285452D01*
X150446647Y-85125271D01*
X150613632Y-84929756D01*
X150747976Y-84710527D01*
X150846371Y-84472980D01*
X150906394Y-84222966D01*
X150926567Y-83966640D01*
X150906394Y-83710314D01*
X150861595Y-83523713D01*
X156901251Y-83523713D01*
X156901930Y-83530173D01*
X156920533Y-83707180D01*
X156920534Y-83707188D01*
X156921213Y-83713641D01*
X156923218Y-83719813D01*
X156923220Y-83719820D01*
X156978079Y-83888655D01*
X156980228Y-83895269D01*
X156983475Y-83900893D01*
X156983476Y-83900895D01*
X157039014Y-83997090D01*
X157075715Y-84060657D01*
X157203502Y-84202579D01*
X157208752Y-84206393D01*
X157208755Y-84206396D01*
X157294592Y-84268760D01*
X157358003Y-84314831D01*
X157363936Y-84317472D01*
X157363937Y-84317473D01*
X157497529Y-84376952D01*
X157532467Y-84392507D01*
X157538825Y-84393858D01*
X157538827Y-84393859D01*
X157575629Y-84401681D01*
X157719268Y-84432213D01*
X157903739Y-84432213D01*
X157910242Y-84432213D01*
X158097043Y-84392507D01*
X158217613Y-84338826D01*
X184660002Y-84338826D01*
X184660681Y-84345286D01*
X184679284Y-84522293D01*
X184679285Y-84522301D01*
X184679964Y-84528754D01*
X184681969Y-84534926D01*
X184681971Y-84534933D01*
X184736971Y-84704203D01*
X184738979Y-84710382D01*
X184742226Y-84716006D01*
X184742227Y-84716008D01*
X184802240Y-84819954D01*
X184834466Y-84875770D01*
X184962253Y-85017692D01*
X184967503Y-85021506D01*
X184967506Y-85021509D01*
X185105219Y-85121563D01*
X185116754Y-85129944D01*
X185122687Y-85132585D01*
X185122688Y-85132586D01*
X185249115Y-85188875D01*
X185291218Y-85207620D01*
X185297576Y-85208971D01*
X185297578Y-85208972D01*
X185334380Y-85216794D01*
X185478019Y-85247326D01*
X185662490Y-85247326D01*
X185668993Y-85247326D01*
X185855794Y-85207620D01*
X186030258Y-85129944D01*
X186184759Y-85017692D01*
X186312546Y-84875770D01*
X186408033Y-84710382D01*
X186467048Y-84528754D01*
X186487010Y-84338826D01*
X186467048Y-84148898D01*
X186408033Y-83967270D01*
X186312546Y-83801882D01*
X186184759Y-83659960D01*
X186179509Y-83656145D01*
X186179505Y-83656142D01*
X186035512Y-83551525D01*
X186035510Y-83551523D01*
X186030258Y-83547708D01*
X186024327Y-83545067D01*
X186024323Y-83545065D01*
X185861732Y-83472675D01*
X185861725Y-83472672D01*
X185855794Y-83470032D01*
X185849441Y-83468681D01*
X185849433Y-83468679D01*
X185675355Y-83431678D01*
X185675352Y-83431677D01*
X185668993Y-83430326D01*
X185478019Y-83430326D01*
X185471660Y-83431677D01*
X185471656Y-83431678D01*
X185297578Y-83468679D01*
X185297567Y-83468682D01*
X185291218Y-83470032D01*
X185285288Y-83472671D01*
X185285279Y-83472675D01*
X185122688Y-83545065D01*
X185122680Y-83545069D01*
X185116754Y-83547708D01*
X185111505Y-83551521D01*
X185111499Y-83551525D01*
X184967506Y-83656142D01*
X184967497Y-83656149D01*
X184962253Y-83659960D01*
X184957909Y-83664783D01*
X184957906Y-83664787D01*
X184849547Y-83785133D01*
X184834466Y-83801882D01*
X184831220Y-83807502D01*
X184831217Y-83807508D01*
X184742227Y-83961643D01*
X184742224Y-83961648D01*
X184738979Y-83967270D01*
X184736973Y-83973442D01*
X184736971Y-83973448D01*
X184681971Y-84142718D01*
X184681969Y-84142727D01*
X184679964Y-84148898D01*
X184679286Y-84155348D01*
X184679284Y-84155358D01*
X184667366Y-84268760D01*
X184660002Y-84338826D01*
X158217613Y-84338826D01*
X158271507Y-84314831D01*
X158426008Y-84202579D01*
X158553795Y-84060657D01*
X158649282Y-83895269D01*
X158708297Y-83713641D01*
X158728259Y-83523713D01*
X158708297Y-83333785D01*
X158694351Y-83290863D01*
X165567748Y-83290863D01*
X165568427Y-83297323D01*
X165587030Y-83474330D01*
X165587031Y-83474338D01*
X165587710Y-83480791D01*
X165589715Y-83486963D01*
X165589717Y-83486970D01*
X165638306Y-83636509D01*
X165646725Y-83662419D01*
X165649972Y-83668043D01*
X165649973Y-83668045D01*
X165738293Y-83821020D01*
X165742212Y-83827807D01*
X165869999Y-83969729D01*
X165875249Y-83973543D01*
X165875252Y-83973546D01*
X165902403Y-83993272D01*
X166024500Y-84081981D01*
X166030433Y-84084622D01*
X166030434Y-84084623D01*
X166174798Y-84148898D01*
X166198964Y-84159657D01*
X166205322Y-84161008D01*
X166205324Y-84161009D01*
X166242126Y-84168831D01*
X166385765Y-84199363D01*
X166570236Y-84199363D01*
X166576739Y-84199363D01*
X166763540Y-84159657D01*
X166938004Y-84081981D01*
X167092505Y-83969729D01*
X167220292Y-83827807D01*
X167315779Y-83662419D01*
X167374794Y-83480791D01*
X167394756Y-83290863D01*
X167385834Y-83205972D01*
X169890117Y-83205972D01*
X169890796Y-83212432D01*
X169909399Y-83389439D01*
X169909400Y-83389447D01*
X169910079Y-83395900D01*
X169912084Y-83402072D01*
X169912086Y-83402079D01*
X169960645Y-83551525D01*
X169969094Y-83577528D01*
X169972341Y-83583152D01*
X169972342Y-83583154D01*
X170044865Y-83708768D01*
X170064581Y-83742916D01*
X170192368Y-83884838D01*
X170197618Y-83888652D01*
X170197621Y-83888655D01*
X170340484Y-83992451D01*
X170346869Y-83997090D01*
X170352802Y-83999731D01*
X170352803Y-83999732D01*
X170489643Y-84060657D01*
X170521333Y-84074766D01*
X170527691Y-84076117D01*
X170527693Y-84076118D01*
X170555277Y-84081981D01*
X170708134Y-84114472D01*
X170892605Y-84114472D01*
X170899108Y-84114472D01*
X171085909Y-84074766D01*
X171260373Y-83997090D01*
X171414874Y-83884838D01*
X171542661Y-83742916D01*
X171638148Y-83577528D01*
X171697163Y-83395900D01*
X171717125Y-83205972D01*
X171699904Y-83042119D01*
X171697842Y-83022504D01*
X171697841Y-83022503D01*
X171697163Y-83016044D01*
X171678187Y-82957643D01*
X182519564Y-82957643D01*
X182520243Y-82964103D01*
X182538846Y-83141110D01*
X182538847Y-83141118D01*
X182539526Y-83147571D01*
X182541531Y-83153743D01*
X182541533Y-83153750D01*
X182596533Y-83323020D01*
X182598541Y-83329199D01*
X182601788Y-83334823D01*
X182601789Y-83334825D01*
X182682332Y-83474330D01*
X182694028Y-83494587D01*
X182821815Y-83636509D01*
X182827065Y-83640323D01*
X182827068Y-83640326D01*
X182930075Y-83715165D01*
X182976316Y-83748761D01*
X182982249Y-83751402D01*
X182982250Y-83751403D01*
X183141218Y-83822180D01*
X183150780Y-83826437D01*
X183157138Y-83827788D01*
X183157140Y-83827789D01*
X183157225Y-83827807D01*
X183337581Y-83866143D01*
X183522052Y-83866143D01*
X183528555Y-83866143D01*
X183715356Y-83826437D01*
X183889820Y-83748761D01*
X184044321Y-83636509D01*
X184172108Y-83494587D01*
X184267595Y-83329199D01*
X184326610Y-83147571D01*
X184338977Y-83029902D01*
X187263772Y-83029902D01*
X187264451Y-83036362D01*
X187283054Y-83213369D01*
X187283055Y-83213377D01*
X187283734Y-83219830D01*
X187285739Y-83226002D01*
X187285741Y-83226009D01*
X187340741Y-83395279D01*
X187342749Y-83401458D01*
X187345996Y-83407082D01*
X187345997Y-83407084D01*
X187427186Y-83547708D01*
X187438236Y-83566846D01*
X187566023Y-83708768D01*
X187571273Y-83712582D01*
X187571276Y-83712585D01*
X187657582Y-83775290D01*
X187720524Y-83821020D01*
X187726457Y-83823661D01*
X187726458Y-83823662D01*
X187887290Y-83895269D01*
X187894988Y-83898696D01*
X187901346Y-83900047D01*
X187901348Y-83900048D01*
X187938150Y-83907870D01*
X188081789Y-83938402D01*
X188266260Y-83938402D01*
X188272763Y-83938402D01*
X188459564Y-83898696D01*
X188634028Y-83821020D01*
X188788529Y-83708768D01*
X188916316Y-83566846D01*
X189011803Y-83401458D01*
X189070818Y-83219830D01*
X189090780Y-83029902D01*
X189074018Y-82870418D01*
X189071497Y-82846434D01*
X189071496Y-82846433D01*
X189070818Y-82839974D01*
X189068687Y-82833417D01*
X189043868Y-82757031D01*
X189011803Y-82658346D01*
X188916316Y-82492958D01*
X188788529Y-82351036D01*
X188783279Y-82347221D01*
X188783275Y-82347218D01*
X188639282Y-82242601D01*
X188639280Y-82242599D01*
X188634028Y-82238784D01*
X188628097Y-82236143D01*
X188628093Y-82236141D01*
X188465502Y-82163751D01*
X188465495Y-82163748D01*
X188459564Y-82161108D01*
X188453211Y-82159757D01*
X188453203Y-82159755D01*
X188279125Y-82122754D01*
X188279122Y-82122753D01*
X188272763Y-82121402D01*
X188081789Y-82121402D01*
X188075430Y-82122753D01*
X188075426Y-82122754D01*
X187901348Y-82159755D01*
X187901337Y-82159758D01*
X187894988Y-82161108D01*
X187889058Y-82163747D01*
X187889049Y-82163751D01*
X187726458Y-82236141D01*
X187726450Y-82236145D01*
X187720524Y-82238784D01*
X187715275Y-82242597D01*
X187715269Y-82242601D01*
X187571276Y-82347218D01*
X187571267Y-82347225D01*
X187566023Y-82351036D01*
X187561679Y-82355859D01*
X187561676Y-82355863D01*
X187442583Y-82488130D01*
X187438236Y-82492958D01*
X187434990Y-82498578D01*
X187434987Y-82498584D01*
X187345997Y-82652719D01*
X187345994Y-82652724D01*
X187342749Y-82658346D01*
X187340743Y-82664518D01*
X187340741Y-82664524D01*
X187285741Y-82833794D01*
X187285739Y-82833803D01*
X187283734Y-82839974D01*
X187283056Y-82846424D01*
X187283054Y-82846434D01*
X187268813Y-82981941D01*
X187263772Y-83029902D01*
X184338977Y-83029902D01*
X184346572Y-82957643D01*
X184326610Y-82767715D01*
X184267595Y-82586087D01*
X184172108Y-82420699D01*
X184044321Y-82278777D01*
X184039071Y-82274962D01*
X184039067Y-82274959D01*
X183895074Y-82170342D01*
X183895072Y-82170340D01*
X183889820Y-82166525D01*
X183883889Y-82163884D01*
X183883885Y-82163882D01*
X183721294Y-82091492D01*
X183721287Y-82091489D01*
X183715356Y-82088849D01*
X183709003Y-82087498D01*
X183708995Y-82087496D01*
X183534917Y-82050495D01*
X183534914Y-82050494D01*
X183528555Y-82049143D01*
X183337581Y-82049143D01*
X183331222Y-82050494D01*
X183331218Y-82050495D01*
X183157140Y-82087496D01*
X183157129Y-82087499D01*
X183150780Y-82088849D01*
X183144850Y-82091488D01*
X183144841Y-82091492D01*
X182982250Y-82163882D01*
X182982242Y-82163886D01*
X182976316Y-82166525D01*
X182971067Y-82170338D01*
X182971061Y-82170342D01*
X182827068Y-82274959D01*
X182827059Y-82274966D01*
X182821815Y-82278777D01*
X182817471Y-82283600D01*
X182817468Y-82283604D01*
X182699291Y-82414854D01*
X182694028Y-82420699D01*
X182690782Y-82426319D01*
X182690779Y-82426325D01*
X182601789Y-82580460D01*
X182601786Y-82580465D01*
X182598541Y-82586087D01*
X182596535Y-82592259D01*
X182596533Y-82592265D01*
X182541533Y-82761535D01*
X182541531Y-82761544D01*
X182539526Y-82767715D01*
X182538848Y-82774165D01*
X182538846Y-82774175D01*
X182523593Y-82919307D01*
X182519564Y-82957643D01*
X171678187Y-82957643D01*
X171638148Y-82834416D01*
X171542661Y-82669028D01*
X171414874Y-82527106D01*
X171409624Y-82523291D01*
X171409620Y-82523288D01*
X171265627Y-82418671D01*
X171265625Y-82418669D01*
X171260373Y-82414854D01*
X171254442Y-82412213D01*
X171254438Y-82412211D01*
X171091847Y-82339821D01*
X171091840Y-82339818D01*
X171085909Y-82337178D01*
X171079556Y-82335827D01*
X171079548Y-82335825D01*
X170905470Y-82298824D01*
X170905467Y-82298823D01*
X170899108Y-82297472D01*
X170708134Y-82297472D01*
X170701775Y-82298823D01*
X170701771Y-82298824D01*
X170527693Y-82335825D01*
X170527682Y-82335828D01*
X170521333Y-82337178D01*
X170515403Y-82339817D01*
X170515394Y-82339821D01*
X170352803Y-82412211D01*
X170352795Y-82412215D01*
X170346869Y-82414854D01*
X170341620Y-82418667D01*
X170341614Y-82418671D01*
X170197621Y-82523288D01*
X170197612Y-82523295D01*
X170192368Y-82527106D01*
X170188024Y-82531929D01*
X170188021Y-82531933D01*
X170078503Y-82653566D01*
X170064581Y-82669028D01*
X170061335Y-82674648D01*
X170061332Y-82674654D01*
X169972342Y-82828789D01*
X169972339Y-82828794D01*
X169969094Y-82834416D01*
X169967088Y-82840588D01*
X169967086Y-82840594D01*
X169912086Y-83009864D01*
X169912084Y-83009873D01*
X169910079Y-83016044D01*
X169909401Y-83022494D01*
X169909399Y-83022504D01*
X169895434Y-83155381D01*
X169890117Y-83205972D01*
X167385834Y-83205972D01*
X167374794Y-83100935D01*
X167315779Y-82919307D01*
X167220292Y-82753919D01*
X167092505Y-82611997D01*
X167087255Y-82608182D01*
X167087251Y-82608179D01*
X166943258Y-82503562D01*
X166943256Y-82503560D01*
X166938004Y-82499745D01*
X166932073Y-82497104D01*
X166932069Y-82497102D01*
X166769478Y-82424712D01*
X166769471Y-82424709D01*
X166763540Y-82422069D01*
X166757187Y-82420718D01*
X166757179Y-82420716D01*
X166583101Y-82383715D01*
X166583098Y-82383714D01*
X166576739Y-82382363D01*
X166385765Y-82382363D01*
X166379406Y-82383714D01*
X166379402Y-82383715D01*
X166205324Y-82420716D01*
X166205313Y-82420719D01*
X166198964Y-82422069D01*
X166193034Y-82424708D01*
X166193025Y-82424712D01*
X166030434Y-82497102D01*
X166030426Y-82497106D01*
X166024500Y-82499745D01*
X166019251Y-82503558D01*
X166019245Y-82503562D01*
X165875252Y-82608179D01*
X165875243Y-82608186D01*
X165869999Y-82611997D01*
X165865655Y-82616820D01*
X165865652Y-82616824D01*
X165750006Y-82745263D01*
X165742212Y-82753919D01*
X165738966Y-82759539D01*
X165738963Y-82759545D01*
X165649973Y-82913680D01*
X165649970Y-82913685D01*
X165646725Y-82919307D01*
X165644719Y-82925479D01*
X165644717Y-82925485D01*
X165589717Y-83094755D01*
X165589715Y-83094764D01*
X165587710Y-83100935D01*
X165587032Y-83107385D01*
X165587030Y-83107395D01*
X165569391Y-83275228D01*
X165567748Y-83290863D01*
X158694351Y-83290863D01*
X158649282Y-83152157D01*
X158553795Y-82986769D01*
X158426008Y-82844847D01*
X158420758Y-82841032D01*
X158420754Y-82841029D01*
X158276761Y-82736412D01*
X158276759Y-82736410D01*
X158271507Y-82732595D01*
X158265576Y-82729954D01*
X158265572Y-82729952D01*
X158102981Y-82657562D01*
X158102974Y-82657559D01*
X158097043Y-82654919D01*
X158090690Y-82653568D01*
X158090682Y-82653566D01*
X157916604Y-82616565D01*
X157916601Y-82616564D01*
X157910242Y-82615213D01*
X157719268Y-82615213D01*
X157712909Y-82616564D01*
X157712905Y-82616565D01*
X157538827Y-82653566D01*
X157538816Y-82653569D01*
X157532467Y-82654919D01*
X157526537Y-82657558D01*
X157526528Y-82657562D01*
X157363937Y-82729952D01*
X157363929Y-82729956D01*
X157358003Y-82732595D01*
X157352754Y-82736408D01*
X157352748Y-82736412D01*
X157208755Y-82841029D01*
X157208746Y-82841036D01*
X157203502Y-82844847D01*
X157199158Y-82849670D01*
X157199155Y-82849674D01*
X157080062Y-82981941D01*
X157075715Y-82986769D01*
X157072469Y-82992389D01*
X157072466Y-82992395D01*
X156983476Y-83146530D01*
X156983473Y-83146535D01*
X156980228Y-83152157D01*
X156978222Y-83158329D01*
X156978220Y-83158335D01*
X156923220Y-83327605D01*
X156923218Y-83327614D01*
X156921213Y-83333785D01*
X156920535Y-83340235D01*
X156920533Y-83340245D01*
X156911066Y-83430326D01*
X156901251Y-83523713D01*
X150861595Y-83523713D01*
X150846371Y-83460300D01*
X150747976Y-83222753D01*
X150613632Y-83003524D01*
X150595198Y-82981941D01*
X150467193Y-82832065D01*
X150446647Y-82808009D01*
X150442939Y-82804842D01*
X150254842Y-82644192D01*
X150254837Y-82644188D01*
X150251132Y-82641024D01*
X150246976Y-82638477D01*
X150246973Y-82638475D01*
X150036061Y-82509228D01*
X150036060Y-82509227D01*
X150031903Y-82506680D01*
X149794356Y-82408285D01*
X149789627Y-82407149D01*
X149789619Y-82407147D01*
X149626896Y-82368081D01*
X159471816Y-82368081D01*
X159472495Y-82374541D01*
X159491098Y-82551548D01*
X159491099Y-82551556D01*
X159491778Y-82558009D01*
X159493783Y-82564181D01*
X159493785Y-82564188D01*
X159540486Y-82707917D01*
X159550793Y-82739637D01*
X159554040Y-82745261D01*
X159554041Y-82745263D01*
X159626299Y-82870418D01*
X159646280Y-82905025D01*
X159774067Y-83046947D01*
X159779317Y-83050761D01*
X159779320Y-83050764D01*
X159857266Y-83107395D01*
X159928568Y-83159199D01*
X159934501Y-83161840D01*
X159934502Y-83161841D01*
X160081429Y-83227257D01*
X160103032Y-83236875D01*
X160109390Y-83238226D01*
X160109392Y-83238227D01*
X160146194Y-83246049D01*
X160289833Y-83276581D01*
X160474304Y-83276581D01*
X160480807Y-83276581D01*
X160667608Y-83236875D01*
X160842072Y-83159199D01*
X160996573Y-83046947D01*
X161124360Y-82905025D01*
X161219847Y-82739637D01*
X161278862Y-82558009D01*
X161298824Y-82368081D01*
X161296140Y-82342540D01*
X162578470Y-82342540D01*
X162579149Y-82349000D01*
X162597752Y-82526007D01*
X162597753Y-82526015D01*
X162598432Y-82532468D01*
X162600437Y-82538640D01*
X162600439Y-82538647D01*
X162641340Y-82664524D01*
X162657447Y-82714096D01*
X162660694Y-82719720D01*
X162660695Y-82719722D01*
X162747699Y-82870418D01*
X162752934Y-82879484D01*
X162880721Y-83021406D01*
X162885971Y-83025220D01*
X162885974Y-83025223D01*
X162981677Y-83094755D01*
X163035222Y-83133658D01*
X163041155Y-83136299D01*
X163041156Y-83136300D01*
X163197642Y-83205972D01*
X163209686Y-83211334D01*
X163216044Y-83212685D01*
X163216046Y-83212686D01*
X163243841Y-83218594D01*
X163396487Y-83251040D01*
X163580958Y-83251040D01*
X163587461Y-83251040D01*
X163774262Y-83211334D01*
X163948726Y-83133658D01*
X164103227Y-83021406D01*
X164231014Y-82879484D01*
X164326501Y-82714096D01*
X164385516Y-82532468D01*
X164405478Y-82342540D01*
X164387551Y-82171973D01*
X164386195Y-82159072D01*
X164386194Y-82159071D01*
X164385516Y-82152612D01*
X164326501Y-81970984D01*
X164322048Y-81963271D01*
X177438084Y-81963271D01*
X177438763Y-81969731D01*
X177457366Y-82146738D01*
X177457367Y-82146746D01*
X177458046Y-82153199D01*
X177460051Y-82159371D01*
X177460053Y-82159378D01*
X177515053Y-82328648D01*
X177517061Y-82334827D01*
X177520308Y-82340451D01*
X177520309Y-82340453D01*
X177605570Y-82488130D01*
X177612548Y-82500215D01*
X177740335Y-82642137D01*
X177745585Y-82645951D01*
X177745588Y-82645954D01*
X177847121Y-82719722D01*
X177894836Y-82754389D01*
X178069300Y-82832065D01*
X178075658Y-82833416D01*
X178075660Y-82833417D01*
X178106509Y-82839974D01*
X178256101Y-82871771D01*
X178440572Y-82871771D01*
X178447075Y-82871771D01*
X178633876Y-82832065D01*
X178808340Y-82754389D01*
X178962841Y-82642137D01*
X179090628Y-82500215D01*
X179186115Y-82334827D01*
X179245130Y-82153199D01*
X179265092Y-81963271D01*
X179245130Y-81773343D01*
X179186115Y-81591715D01*
X179090628Y-81426327D01*
X178962841Y-81284405D01*
X178957591Y-81280590D01*
X178957587Y-81280587D01*
X178813594Y-81175970D01*
X178813592Y-81175968D01*
X178808340Y-81172153D01*
X178802409Y-81169512D01*
X178802405Y-81169510D01*
X178639814Y-81097120D01*
X178639807Y-81097117D01*
X178633876Y-81094477D01*
X178627523Y-81093126D01*
X178627515Y-81093124D01*
X178453437Y-81056123D01*
X178453434Y-81056122D01*
X178447075Y-81054771D01*
X178256101Y-81054771D01*
X178249742Y-81056122D01*
X178249738Y-81056123D01*
X178075660Y-81093124D01*
X178075649Y-81093127D01*
X178069300Y-81094477D01*
X178063370Y-81097116D01*
X178063361Y-81097120D01*
X177900770Y-81169510D01*
X177900762Y-81169514D01*
X177894836Y-81172153D01*
X177889587Y-81175966D01*
X177889581Y-81175970D01*
X177745588Y-81280587D01*
X177745579Y-81280594D01*
X177740335Y-81284405D01*
X177735991Y-81289228D01*
X177735988Y-81289232D01*
X177636936Y-81399241D01*
X177612548Y-81426327D01*
X177609302Y-81431947D01*
X177609299Y-81431953D01*
X177520309Y-81586088D01*
X177520306Y-81586093D01*
X177517061Y-81591715D01*
X177515055Y-81597887D01*
X177515053Y-81597893D01*
X177460053Y-81767163D01*
X177460051Y-81767172D01*
X177458046Y-81773343D01*
X177457368Y-81779793D01*
X177457366Y-81779803D01*
X177451380Y-81836763D01*
X177438084Y-81963271D01*
X164322048Y-81963271D01*
X164231014Y-81805596D01*
X164103227Y-81663674D01*
X164097977Y-81659859D01*
X164097973Y-81659856D01*
X163953980Y-81555239D01*
X163953978Y-81555237D01*
X163948726Y-81551422D01*
X163942795Y-81548781D01*
X163942791Y-81548779D01*
X163780200Y-81476389D01*
X163780193Y-81476386D01*
X163774262Y-81473746D01*
X163767909Y-81472395D01*
X163767901Y-81472393D01*
X163593823Y-81435392D01*
X163593820Y-81435391D01*
X163587461Y-81434040D01*
X163396487Y-81434040D01*
X163390128Y-81435391D01*
X163390124Y-81435392D01*
X163216046Y-81472393D01*
X163216035Y-81472396D01*
X163209686Y-81473746D01*
X163203756Y-81476385D01*
X163203747Y-81476389D01*
X163041156Y-81548779D01*
X163041148Y-81548783D01*
X163035222Y-81551422D01*
X163029973Y-81555235D01*
X163029967Y-81555239D01*
X162885974Y-81659856D01*
X162885965Y-81659863D01*
X162880721Y-81663674D01*
X162876377Y-81668497D01*
X162876374Y-81668501D01*
X162776158Y-81779803D01*
X162752934Y-81805596D01*
X162749688Y-81811216D01*
X162749685Y-81811222D01*
X162660695Y-81965357D01*
X162660692Y-81965362D01*
X162657447Y-81970984D01*
X162655441Y-81977156D01*
X162655439Y-81977162D01*
X162600439Y-82146432D01*
X162600437Y-82146441D01*
X162598432Y-82152612D01*
X162597754Y-82159062D01*
X162597752Y-82159072D01*
X162579989Y-82328089D01*
X162578470Y-82342540D01*
X161296140Y-82342540D01*
X161285636Y-82242601D01*
X161279541Y-82184613D01*
X161279540Y-82184612D01*
X161278862Y-82178153D01*
X161219847Y-81996525D01*
X161124360Y-81831137D01*
X160996573Y-81689215D01*
X160991323Y-81685400D01*
X160991319Y-81685397D01*
X160847326Y-81580780D01*
X160847324Y-81580778D01*
X160842072Y-81576963D01*
X160836141Y-81574322D01*
X160836137Y-81574320D01*
X160673546Y-81501930D01*
X160673539Y-81501927D01*
X160667608Y-81499287D01*
X160661255Y-81497936D01*
X160661247Y-81497934D01*
X160487169Y-81460933D01*
X160487166Y-81460932D01*
X160480807Y-81459581D01*
X160289833Y-81459581D01*
X160283474Y-81460932D01*
X160283470Y-81460933D01*
X160109392Y-81497934D01*
X160109381Y-81497937D01*
X160103032Y-81499287D01*
X160097102Y-81501926D01*
X160097093Y-81501930D01*
X159934502Y-81574320D01*
X159934494Y-81574324D01*
X159928568Y-81576963D01*
X159923319Y-81580776D01*
X159923313Y-81580780D01*
X159779320Y-81685397D01*
X159779311Y-81685404D01*
X159774067Y-81689215D01*
X159769723Y-81694038D01*
X159769720Y-81694042D01*
X159650627Y-81826309D01*
X159646280Y-81831137D01*
X159643034Y-81836757D01*
X159643031Y-81836763D01*
X159554041Y-81990898D01*
X159554038Y-81990903D01*
X159550793Y-81996525D01*
X159548787Y-82002697D01*
X159548785Y-82002703D01*
X159493785Y-82171973D01*
X159493783Y-82171982D01*
X159491778Y-82178153D01*
X159491100Y-82184603D01*
X159491098Y-82184613D01*
X159475311Y-82334827D01*
X159471816Y-82368081D01*
X149626896Y-82368081D01*
X149549075Y-82349398D01*
X149549071Y-82349397D01*
X149544342Y-82348262D01*
X149539491Y-82347880D01*
X149539490Y-82347880D01*
X149292870Y-82328471D01*
X149288016Y-82328089D01*
X149283162Y-82328471D01*
X149036541Y-82347880D01*
X149036538Y-82347880D01*
X149031690Y-82348262D01*
X149026962Y-82349396D01*
X149026956Y-82349398D01*
X148786412Y-82407147D01*
X148786400Y-82407150D01*
X148781676Y-82408285D01*
X148777179Y-82410147D01*
X148777175Y-82410149D01*
X148548633Y-82504814D01*
X148548628Y-82504816D01*
X148544129Y-82506680D01*
X148539976Y-82509224D01*
X148539970Y-82509228D01*
X148329058Y-82638475D01*
X148329049Y-82638481D01*
X148324900Y-82641024D01*
X148321200Y-82644183D01*
X148321189Y-82644192D01*
X148133092Y-82804842D01*
X148133085Y-82804848D01*
X148129385Y-82808009D01*
X148126224Y-82811709D01*
X148126218Y-82811716D01*
X147965568Y-82999813D01*
X147965559Y-82999824D01*
X147962400Y-83003524D01*
X147959857Y-83007673D01*
X147959851Y-83007682D01*
X147830604Y-83218594D01*
X147830600Y-83218600D01*
X147828056Y-83222753D01*
X147826192Y-83227252D01*
X147826190Y-83227257D01*
X147731525Y-83455799D01*
X147729661Y-83460300D01*
X147728526Y-83465024D01*
X147728523Y-83465036D01*
X147670774Y-83705580D01*
X147670772Y-83705586D01*
X147669638Y-83710314D01*
X147669256Y-83715162D01*
X147669256Y-83715165D01*
X147656283Y-83880010D01*
X147649465Y-83966640D01*
X147320000Y-83966640D01*
X147320000Y-78864000D01*
X147336613Y-78802000D01*
X147382000Y-78756613D01*
X147444000Y-78740000D01*
X159086286Y-78740000D01*
X159148286Y-78756613D01*
G37*
%TD.AperFunction*%
%TD*%
M02*
